G75*
G70*
%OFA0B0*%
%FSLAX24Y24*%
%IPPOS*%
%LPD*%
%AMOC8*
5,1,8,0,0,1.08239X$1,22.5*
%
%ADD10C,0.0000*%
%ADD11C,0.0040*%
%ADD12C,0.0100*%
%ADD13R,0.0413X0.0079*%
%ADD14R,0.0079X0.0413*%
%ADD15R,0.0374X0.0197*%
%ADD16C,0.0060*%
%ADD17R,0.0160X0.0340*%
%ADD18R,0.0340X0.0160*%
%ADD19R,0.0197X0.0374*%
%ADD20C,0.0020*%
%ADD21R,0.0059X0.0079*%
%ADD22R,0.0020X0.0020*%
%ADD23R,0.0148X0.0020*%
%ADD24R,0.0118X0.0079*%
%ADD25R,0.0089X0.0354*%
%ADD26R,0.0197X0.0079*%
%ADD27R,0.0089X0.0217*%
%ADD28R,0.0039X0.0039*%
%ADD29R,0.0098X0.0098*%
%ADD30R,0.1200X0.0600*%
%ADD31R,0.0300X0.0600*%
%ADD32R,0.0669X0.0295*%
%ADD33R,0.0295X0.0669*%
%ADD34C,0.0080*%
%ADD35C,0.0143*%
%ADD36R,0.0472X0.0118*%
%ADD37C,0.0050*%
%ADD38C,0.0168*%
%ADD39R,0.0266X0.0197*%
%ADD40R,0.0295X0.0335*%
%ADD41R,0.0354X0.0531*%
%ADD42R,0.0335X0.0295*%
%ADD43R,0.0531X0.0354*%
%ADD44R,0.0295X0.1024*%
%ADD45R,0.0180X0.0230*%
%ADD46R,0.0400X0.0140*%
%ADD47R,0.0433X0.0193*%
%ADD48R,0.0394X0.0098*%
%ADD49R,0.0400X0.0600*%
%ADD50R,0.0240X0.0240*%
%ADD51R,0.0285X0.0217*%
%ADD52R,0.0276X0.0394*%
D10*
X000780Y001331D02*
X000782Y001378D01*
X000788Y001424D01*
X000798Y001470D01*
X000811Y001515D01*
X000829Y001558D01*
X000850Y001600D01*
X000874Y001640D01*
X000902Y001677D01*
X000933Y001712D01*
X000967Y001745D01*
X001003Y001774D01*
X001042Y001800D01*
X001083Y001823D01*
X001126Y001842D01*
X001170Y001858D01*
X001215Y001870D01*
X001261Y001878D01*
X001308Y001882D01*
X001354Y001882D01*
X001401Y001878D01*
X001447Y001870D01*
X001492Y001858D01*
X001536Y001842D01*
X001579Y001823D01*
X001620Y001800D01*
X001659Y001774D01*
X001695Y001745D01*
X001729Y001712D01*
X001760Y001677D01*
X001788Y001640D01*
X001812Y001600D01*
X001833Y001558D01*
X001851Y001515D01*
X001864Y001470D01*
X001874Y001424D01*
X001880Y001378D01*
X001882Y001331D01*
X001880Y001284D01*
X001874Y001238D01*
X001864Y001192D01*
X001851Y001147D01*
X001833Y001104D01*
X001812Y001062D01*
X001788Y001022D01*
X001760Y000985D01*
X001729Y000950D01*
X001695Y000917D01*
X001659Y000888D01*
X001620Y000862D01*
X001579Y000839D01*
X001536Y000820D01*
X001492Y000804D01*
X001447Y000792D01*
X001401Y000784D01*
X001354Y000780D01*
X001308Y000780D01*
X001261Y000784D01*
X001215Y000792D01*
X001170Y000804D01*
X001126Y000820D01*
X001083Y000839D01*
X001042Y000862D01*
X001003Y000888D01*
X000967Y000917D01*
X000933Y000950D01*
X000902Y000985D01*
X000874Y001022D01*
X000850Y001062D01*
X000829Y001104D01*
X000811Y001147D01*
X000798Y001192D01*
X000788Y001238D01*
X000782Y001284D01*
X000780Y001331D01*
X004717Y000248D02*
X004717Y007630D01*
X000288Y007630D01*
X000288Y016489D01*
X003339Y016489D01*
X003339Y019540D01*
X027945Y019540D01*
X027945Y016489D01*
X030996Y016489D01*
X030996Y003300D01*
X027945Y003300D01*
X027945Y000248D01*
X004717Y000248D01*
X005209Y003890D02*
X005211Y003937D01*
X005217Y003983D01*
X005227Y004029D01*
X005240Y004074D01*
X005258Y004117D01*
X005279Y004159D01*
X005303Y004199D01*
X005331Y004236D01*
X005362Y004271D01*
X005396Y004304D01*
X005432Y004333D01*
X005471Y004359D01*
X005512Y004382D01*
X005555Y004401D01*
X005599Y004417D01*
X005644Y004429D01*
X005690Y004437D01*
X005737Y004441D01*
X005783Y004441D01*
X005830Y004437D01*
X005876Y004429D01*
X005921Y004417D01*
X005965Y004401D01*
X006008Y004382D01*
X006049Y004359D01*
X006088Y004333D01*
X006124Y004304D01*
X006158Y004271D01*
X006189Y004236D01*
X006217Y004199D01*
X006241Y004159D01*
X006262Y004117D01*
X006280Y004074D01*
X006293Y004029D01*
X006303Y003983D01*
X006309Y003937D01*
X006311Y003890D01*
X006309Y003843D01*
X006303Y003797D01*
X006293Y003751D01*
X006280Y003706D01*
X006262Y003663D01*
X006241Y003621D01*
X006217Y003581D01*
X006189Y003544D01*
X006158Y003509D01*
X006124Y003476D01*
X006088Y003447D01*
X006049Y003421D01*
X006008Y003398D01*
X005965Y003379D01*
X005921Y003363D01*
X005876Y003351D01*
X005830Y003343D01*
X005783Y003339D01*
X005737Y003339D01*
X005690Y003343D01*
X005644Y003351D01*
X005599Y003363D01*
X005555Y003379D01*
X005512Y003398D01*
X005471Y003421D01*
X005432Y003447D01*
X005396Y003476D01*
X005362Y003509D01*
X005331Y003544D01*
X005303Y003581D01*
X005279Y003621D01*
X005258Y003663D01*
X005240Y003706D01*
X005227Y003751D01*
X005217Y003797D01*
X005211Y003843D01*
X005209Y003890D01*
X020275Y002135D02*
X020275Y000360D01*
X020242Y000310D01*
X020192Y000248D01*
X021092Y000248D01*
X021042Y000310D01*
X021005Y000360D01*
X021005Y002135D01*
X021003Y002172D01*
X020998Y002208D01*
X020988Y002244D01*
X020975Y002279D01*
X020959Y002312D01*
X020940Y002344D01*
X020917Y002373D01*
X020891Y002400D01*
X020863Y002424D01*
X020833Y002445D01*
X020801Y002463D01*
X020767Y002477D01*
X020731Y002488D01*
X020695Y002496D01*
X020658Y002500D01*
X020622Y002500D01*
X020585Y002496D01*
X020549Y002488D01*
X020513Y002477D01*
X020479Y002463D01*
X020447Y002445D01*
X020417Y002424D01*
X020389Y002400D01*
X020363Y002373D01*
X020340Y002344D01*
X020321Y002312D01*
X020305Y002279D01*
X020292Y002244D01*
X020282Y002208D01*
X020277Y002172D01*
X020275Y002135D01*
X024973Y003890D02*
X024975Y003937D01*
X024981Y003983D01*
X024991Y004029D01*
X025004Y004074D01*
X025022Y004117D01*
X025043Y004159D01*
X025067Y004199D01*
X025095Y004236D01*
X025126Y004271D01*
X025160Y004304D01*
X025196Y004333D01*
X025235Y004359D01*
X025276Y004382D01*
X025319Y004401D01*
X025363Y004417D01*
X025408Y004429D01*
X025454Y004437D01*
X025501Y004441D01*
X025547Y004441D01*
X025594Y004437D01*
X025640Y004429D01*
X025685Y004417D01*
X025729Y004401D01*
X025772Y004382D01*
X025813Y004359D01*
X025852Y004333D01*
X025888Y004304D01*
X025922Y004271D01*
X025953Y004236D01*
X025981Y004199D01*
X026005Y004159D01*
X026026Y004117D01*
X026044Y004074D01*
X026057Y004029D01*
X026067Y003983D01*
X026073Y003937D01*
X026075Y003890D01*
X026073Y003843D01*
X026067Y003797D01*
X026057Y003751D01*
X026044Y003706D01*
X026026Y003663D01*
X026005Y003621D01*
X025981Y003581D01*
X025953Y003544D01*
X025922Y003509D01*
X025888Y003476D01*
X025852Y003447D01*
X025813Y003421D01*
X025772Y003398D01*
X025729Y003379D01*
X025685Y003363D01*
X025640Y003351D01*
X025594Y003343D01*
X025547Y003339D01*
X025501Y003339D01*
X025454Y003343D01*
X025408Y003351D01*
X025363Y003363D01*
X025319Y003379D01*
X025276Y003398D01*
X025235Y003421D01*
X025196Y003447D01*
X025160Y003476D01*
X025126Y003509D01*
X025095Y003544D01*
X025067Y003581D01*
X025043Y003621D01*
X025022Y003663D01*
X025004Y003706D01*
X024991Y003751D01*
X024981Y003797D01*
X024975Y003843D01*
X024973Y003890D01*
X029402Y001331D02*
X029404Y001378D01*
X029410Y001424D01*
X029420Y001470D01*
X029433Y001515D01*
X029451Y001558D01*
X029472Y001600D01*
X029496Y001640D01*
X029524Y001677D01*
X029555Y001712D01*
X029589Y001745D01*
X029625Y001774D01*
X029664Y001800D01*
X029705Y001823D01*
X029748Y001842D01*
X029792Y001858D01*
X029837Y001870D01*
X029883Y001878D01*
X029930Y001882D01*
X029976Y001882D01*
X030023Y001878D01*
X030069Y001870D01*
X030114Y001858D01*
X030158Y001842D01*
X030201Y001823D01*
X030242Y001800D01*
X030281Y001774D01*
X030317Y001745D01*
X030351Y001712D01*
X030382Y001677D01*
X030410Y001640D01*
X030434Y001600D01*
X030455Y001558D01*
X030473Y001515D01*
X030486Y001470D01*
X030496Y001424D01*
X030502Y001378D01*
X030504Y001331D01*
X030502Y001284D01*
X030496Y001238D01*
X030486Y001192D01*
X030473Y001147D01*
X030455Y001104D01*
X030434Y001062D01*
X030410Y001022D01*
X030382Y000985D01*
X030351Y000950D01*
X030317Y000917D01*
X030281Y000888D01*
X030242Y000862D01*
X030201Y000839D01*
X030158Y000820D01*
X030114Y000804D01*
X030069Y000792D01*
X030023Y000784D01*
X029976Y000780D01*
X029930Y000780D01*
X029883Y000784D01*
X029837Y000792D01*
X029792Y000804D01*
X029748Y000820D01*
X029705Y000839D01*
X029664Y000862D01*
X029625Y000888D01*
X029589Y000917D01*
X029555Y000950D01*
X029524Y000985D01*
X029496Y001022D01*
X029472Y001062D01*
X029451Y001104D01*
X029433Y001147D01*
X029420Y001192D01*
X029410Y001238D01*
X029404Y001284D01*
X029402Y001331D01*
X024973Y015898D02*
X024975Y015945D01*
X024981Y015991D01*
X024991Y016037D01*
X025004Y016082D01*
X025022Y016125D01*
X025043Y016167D01*
X025067Y016207D01*
X025095Y016244D01*
X025126Y016279D01*
X025160Y016312D01*
X025196Y016341D01*
X025235Y016367D01*
X025276Y016390D01*
X025319Y016409D01*
X025363Y016425D01*
X025408Y016437D01*
X025454Y016445D01*
X025501Y016449D01*
X025547Y016449D01*
X025594Y016445D01*
X025640Y016437D01*
X025685Y016425D01*
X025729Y016409D01*
X025772Y016390D01*
X025813Y016367D01*
X025852Y016341D01*
X025888Y016312D01*
X025922Y016279D01*
X025953Y016244D01*
X025981Y016207D01*
X026005Y016167D01*
X026026Y016125D01*
X026044Y016082D01*
X026057Y016037D01*
X026067Y015991D01*
X026073Y015945D01*
X026075Y015898D01*
X026073Y015851D01*
X026067Y015805D01*
X026057Y015759D01*
X026044Y015714D01*
X026026Y015671D01*
X026005Y015629D01*
X025981Y015589D01*
X025953Y015552D01*
X025922Y015517D01*
X025888Y015484D01*
X025852Y015455D01*
X025813Y015429D01*
X025772Y015406D01*
X025729Y015387D01*
X025685Y015371D01*
X025640Y015359D01*
X025594Y015351D01*
X025547Y015347D01*
X025501Y015347D01*
X025454Y015351D01*
X025408Y015359D01*
X025363Y015371D01*
X025319Y015387D01*
X025276Y015406D01*
X025235Y015429D01*
X025196Y015455D01*
X025160Y015484D01*
X025126Y015517D01*
X025095Y015552D01*
X025067Y015589D01*
X025043Y015629D01*
X025022Y015671D01*
X025004Y015714D01*
X024991Y015759D01*
X024981Y015805D01*
X024975Y015851D01*
X024973Y015898D01*
X029402Y018457D02*
X029404Y018504D01*
X029410Y018550D01*
X029420Y018596D01*
X029433Y018641D01*
X029451Y018684D01*
X029472Y018726D01*
X029496Y018766D01*
X029524Y018803D01*
X029555Y018838D01*
X029589Y018871D01*
X029625Y018900D01*
X029664Y018926D01*
X029705Y018949D01*
X029748Y018968D01*
X029792Y018984D01*
X029837Y018996D01*
X029883Y019004D01*
X029930Y019008D01*
X029976Y019008D01*
X030023Y019004D01*
X030069Y018996D01*
X030114Y018984D01*
X030158Y018968D01*
X030201Y018949D01*
X030242Y018926D01*
X030281Y018900D01*
X030317Y018871D01*
X030351Y018838D01*
X030382Y018803D01*
X030410Y018766D01*
X030434Y018726D01*
X030455Y018684D01*
X030473Y018641D01*
X030486Y018596D01*
X030496Y018550D01*
X030502Y018504D01*
X030504Y018457D01*
X030502Y018410D01*
X030496Y018364D01*
X030486Y018318D01*
X030473Y018273D01*
X030455Y018230D01*
X030434Y018188D01*
X030410Y018148D01*
X030382Y018111D01*
X030351Y018076D01*
X030317Y018043D01*
X030281Y018014D01*
X030242Y017988D01*
X030201Y017965D01*
X030158Y017946D01*
X030114Y017930D01*
X030069Y017918D01*
X030023Y017910D01*
X029976Y017906D01*
X029930Y017906D01*
X029883Y017910D01*
X029837Y017918D01*
X029792Y017930D01*
X029748Y017946D01*
X029705Y017965D01*
X029664Y017988D01*
X029625Y018014D01*
X029589Y018043D01*
X029555Y018076D01*
X029524Y018111D01*
X029496Y018148D01*
X029472Y018188D01*
X029451Y018230D01*
X029433Y018273D01*
X029420Y018318D01*
X029410Y018364D01*
X029404Y018410D01*
X029402Y018457D01*
X016823Y018502D02*
X016825Y018523D01*
X016831Y018543D01*
X016840Y018563D01*
X016852Y018580D01*
X016867Y018594D01*
X016885Y018606D01*
X016905Y018614D01*
X016925Y018619D01*
X016946Y018620D01*
X016967Y018617D01*
X016987Y018611D01*
X017006Y018600D01*
X017023Y018587D01*
X017036Y018571D01*
X017047Y018553D01*
X017055Y018533D01*
X017059Y018513D01*
X017059Y018491D01*
X017055Y018471D01*
X017047Y018451D01*
X017036Y018433D01*
X017023Y018417D01*
X017006Y018404D01*
X016987Y018393D01*
X016967Y018387D01*
X016946Y018384D01*
X016925Y018385D01*
X016905Y018390D01*
X016885Y018398D01*
X016867Y018410D01*
X016852Y018424D01*
X016840Y018441D01*
X016831Y018461D01*
X016825Y018481D01*
X016823Y018502D01*
X014225Y018502D02*
X014227Y018523D01*
X014233Y018543D01*
X014242Y018563D01*
X014254Y018580D01*
X014269Y018594D01*
X014287Y018606D01*
X014307Y018614D01*
X014327Y018619D01*
X014348Y018620D01*
X014369Y018617D01*
X014389Y018611D01*
X014408Y018600D01*
X014425Y018587D01*
X014438Y018571D01*
X014449Y018553D01*
X014457Y018533D01*
X014461Y018513D01*
X014461Y018491D01*
X014457Y018471D01*
X014449Y018451D01*
X014438Y018433D01*
X014425Y018417D01*
X014408Y018404D01*
X014389Y018393D01*
X014369Y018387D01*
X014348Y018384D01*
X014327Y018385D01*
X014307Y018390D01*
X014287Y018398D01*
X014269Y018410D01*
X014254Y018424D01*
X014242Y018441D01*
X014233Y018461D01*
X014227Y018481D01*
X014225Y018502D01*
X005209Y015898D02*
X005211Y015945D01*
X005217Y015991D01*
X005227Y016037D01*
X005240Y016082D01*
X005258Y016125D01*
X005279Y016167D01*
X005303Y016207D01*
X005331Y016244D01*
X005362Y016279D01*
X005396Y016312D01*
X005432Y016341D01*
X005471Y016367D01*
X005512Y016390D01*
X005555Y016409D01*
X005599Y016425D01*
X005644Y016437D01*
X005690Y016445D01*
X005737Y016449D01*
X005783Y016449D01*
X005830Y016445D01*
X005876Y016437D01*
X005921Y016425D01*
X005965Y016409D01*
X006008Y016390D01*
X006049Y016367D01*
X006088Y016341D01*
X006124Y016312D01*
X006158Y016279D01*
X006189Y016244D01*
X006217Y016207D01*
X006241Y016167D01*
X006262Y016125D01*
X006280Y016082D01*
X006293Y016037D01*
X006303Y015991D01*
X006309Y015945D01*
X006311Y015898D01*
X006309Y015851D01*
X006303Y015805D01*
X006293Y015759D01*
X006280Y015714D01*
X006262Y015671D01*
X006241Y015629D01*
X006217Y015589D01*
X006189Y015552D01*
X006158Y015517D01*
X006124Y015484D01*
X006088Y015455D01*
X006049Y015429D01*
X006008Y015406D01*
X005965Y015387D01*
X005921Y015371D01*
X005876Y015359D01*
X005830Y015351D01*
X005783Y015347D01*
X005737Y015347D01*
X005690Y015351D01*
X005644Y015359D01*
X005599Y015371D01*
X005555Y015387D01*
X005512Y015406D01*
X005471Y015429D01*
X005432Y015455D01*
X005396Y015484D01*
X005362Y015517D01*
X005331Y015552D01*
X005303Y015589D01*
X005279Y015629D01*
X005258Y015671D01*
X005240Y015714D01*
X005227Y015759D01*
X005217Y015805D01*
X005211Y015851D01*
X005209Y015898D01*
X000780Y018457D02*
X000782Y018504D01*
X000788Y018550D01*
X000798Y018596D01*
X000811Y018641D01*
X000829Y018684D01*
X000850Y018726D01*
X000874Y018766D01*
X000902Y018803D01*
X000933Y018838D01*
X000967Y018871D01*
X001003Y018900D01*
X001042Y018926D01*
X001083Y018949D01*
X001126Y018968D01*
X001170Y018984D01*
X001215Y018996D01*
X001261Y019004D01*
X001308Y019008D01*
X001354Y019008D01*
X001401Y019004D01*
X001447Y018996D01*
X001492Y018984D01*
X001536Y018968D01*
X001579Y018949D01*
X001620Y018926D01*
X001659Y018900D01*
X001695Y018871D01*
X001729Y018838D01*
X001760Y018803D01*
X001788Y018766D01*
X001812Y018726D01*
X001833Y018684D01*
X001851Y018641D01*
X001864Y018596D01*
X001874Y018550D01*
X001880Y018504D01*
X001882Y018457D01*
X001880Y018410D01*
X001874Y018364D01*
X001864Y018318D01*
X001851Y018273D01*
X001833Y018230D01*
X001812Y018188D01*
X001788Y018148D01*
X001760Y018111D01*
X001729Y018076D01*
X001695Y018043D01*
X001659Y018014D01*
X001620Y017988D01*
X001579Y017965D01*
X001536Y017946D01*
X001492Y017930D01*
X001447Y017918D01*
X001401Y017910D01*
X001354Y017906D01*
X001308Y017906D01*
X001261Y017910D01*
X001215Y017918D01*
X001170Y017930D01*
X001126Y017946D01*
X001083Y017965D01*
X001042Y017988D01*
X001003Y018014D01*
X000967Y018043D01*
X000933Y018076D01*
X000902Y018111D01*
X000874Y018148D01*
X000850Y018188D01*
X000829Y018230D01*
X000811Y018273D01*
X000798Y018318D01*
X000788Y018364D01*
X000782Y018410D01*
X000780Y018457D01*
D11*
X007887Y014329D02*
X008647Y014329D01*
X009127Y014599D02*
X009407Y014599D01*
X009407Y014934D02*
X009127Y014934D01*
X010752Y013934D02*
X011032Y013934D01*
X011032Y013599D02*
X010752Y013599D01*
X010752Y013434D02*
X011032Y013434D01*
X011032Y013099D02*
X010752Y013099D01*
X010752Y012934D02*
X011032Y012934D01*
X011032Y012599D02*
X010752Y012599D01*
X010752Y012434D02*
X011032Y012434D01*
X011032Y012099D02*
X010752Y012099D01*
X009812Y012129D02*
X009812Y012409D01*
X009477Y012409D02*
X009477Y012129D01*
X008407Y013099D02*
X008127Y013099D01*
X008127Y013434D02*
X008407Y013434D01*
X008647Y013709D02*
X007887Y013709D01*
X006457Y013610D02*
X006457Y012429D01*
X005827Y012429D01*
X005827Y013610D01*
X006457Y013610D01*
X005057Y013159D02*
X005057Y012879D01*
X004722Y012879D02*
X004722Y013159D01*
X007053Y011682D02*
X007053Y011401D01*
X007388Y011401D02*
X007388Y011682D01*
X006032Y010750D02*
X005752Y010750D01*
X005752Y010415D02*
X006032Y010415D01*
X005762Y010079D02*
X006522Y010079D01*
X006522Y009459D02*
X005762Y009459D01*
X004860Y009804D02*
X004860Y010484D01*
X004430Y010484D02*
X004430Y009804D01*
X004442Y009249D02*
X004442Y008789D01*
X004749Y008789D01*
X004288Y008789D02*
X003981Y008789D01*
X003981Y009249D01*
X004288Y009249D01*
X004135Y009019D02*
X003981Y009019D01*
X003828Y008943D02*
X003828Y009249D01*
X003828Y008943D02*
X003674Y008789D01*
X003521Y008943D01*
X003521Y009249D01*
X003368Y009249D02*
X003061Y009249D01*
X003061Y008789D01*
X003368Y008789D01*
X003214Y009019D02*
X003061Y009019D01*
X002907Y008789D02*
X002600Y008789D01*
X002600Y009249D01*
X002447Y009173D02*
X002447Y009019D01*
X002370Y008943D01*
X002140Y008943D01*
X002140Y008789D02*
X002140Y009249D01*
X002370Y009249D01*
X002447Y009173D01*
X001986Y009249D02*
X001833Y009249D01*
X001910Y009249D02*
X001910Y008789D01*
X001986Y008789D02*
X001833Y008789D01*
X001679Y008789D02*
X001526Y008943D01*
X001603Y008943D02*
X001373Y008943D01*
X001373Y008789D02*
X001373Y009249D01*
X001603Y009249D01*
X001679Y009173D01*
X001679Y009019D01*
X001603Y008943D01*
X001219Y009249D02*
X000912Y009249D01*
X001066Y009249D02*
X001066Y008789D01*
X009207Y010264D02*
X009207Y011024D01*
X009827Y011024D02*
X009827Y010264D01*
X011412Y008648D02*
X011459Y008694D01*
X011552Y008694D01*
X011599Y008648D01*
X011599Y008601D01*
X011552Y008554D01*
X011599Y008508D01*
X011599Y008461D01*
X011552Y008414D01*
X011459Y008414D01*
X011412Y008461D01*
X011506Y008554D02*
X011552Y008554D01*
X011707Y008508D02*
X011800Y008414D01*
X011894Y008508D01*
X011894Y008694D01*
X012001Y008648D02*
X012048Y008694D01*
X012142Y008694D01*
X012188Y008648D01*
X012188Y008601D01*
X012142Y008554D01*
X012188Y008508D01*
X012188Y008461D01*
X012142Y008414D01*
X012048Y008414D01*
X012001Y008461D01*
X012095Y008554D02*
X012142Y008554D01*
X011707Y008508D02*
X011707Y008694D01*
X011692Y008194D02*
X011551Y008194D01*
X011551Y007914D01*
X011551Y008008D02*
X011692Y008008D01*
X011738Y008054D01*
X011738Y008148D01*
X011692Y008194D01*
X011846Y008194D02*
X012033Y008194D01*
X011939Y008054D02*
X011846Y008054D01*
X011846Y007914D02*
X011846Y008194D01*
X011645Y008008D02*
X011738Y007914D01*
X011444Y007867D02*
X011257Y007867D01*
X011102Y007961D02*
X011056Y007914D01*
X011009Y007914D01*
X010962Y007961D01*
X011102Y007961D02*
X011102Y008194D01*
X011056Y008194D02*
X011149Y008194D01*
X012141Y007867D02*
X012328Y007867D01*
X012435Y007914D02*
X012435Y008194D01*
X012529Y008101D01*
X012622Y008194D01*
X012622Y007914D01*
X012730Y007961D02*
X012777Y007914D01*
X012870Y007914D01*
X012917Y007961D01*
X012917Y008148D01*
X012870Y008194D01*
X012777Y008194D01*
X012730Y008148D01*
X012730Y007961D01*
X013025Y007914D02*
X013165Y007914D01*
X013212Y007961D01*
X013212Y008148D01*
X013165Y008194D01*
X013025Y008194D01*
X013025Y007914D01*
X013319Y007961D02*
X013366Y007914D01*
X013459Y007914D01*
X013506Y007961D01*
X013506Y008194D01*
X013614Y008194D02*
X013614Y007914D01*
X013801Y007914D01*
X013909Y007914D02*
X014095Y007914D01*
X014203Y007867D02*
X014390Y007867D01*
X014498Y008008D02*
X014591Y007914D01*
X014685Y008008D01*
X014685Y008194D01*
X014793Y008194D02*
X014933Y008194D01*
X014979Y008148D01*
X014979Y007961D01*
X014933Y007914D01*
X014793Y007914D01*
X014793Y008194D01*
X014800Y008414D02*
X014894Y008508D01*
X014894Y008694D01*
X014707Y008694D02*
X014707Y008508D01*
X014800Y008414D01*
X014599Y008461D02*
X014599Y008554D01*
X014552Y008601D01*
X014506Y008601D01*
X014412Y008554D01*
X014412Y008694D01*
X014599Y008694D01*
X014599Y008461D02*
X014552Y008414D01*
X014459Y008414D01*
X014412Y008461D01*
X014498Y008194D02*
X014498Y008008D01*
X014095Y008194D02*
X013909Y008194D01*
X013909Y007914D01*
X013909Y008054D02*
X014002Y008054D01*
X013319Y007961D02*
X013319Y008194D01*
X015087Y008194D02*
X015087Y007914D01*
X015227Y007914D01*
X015274Y007961D01*
X015274Y008148D01*
X015227Y008194D01*
X015087Y008194D01*
X016627Y007689D02*
X016907Y007689D01*
X016907Y007354D02*
X016627Y007354D01*
X021127Y007349D02*
X021407Y007349D01*
X021407Y007684D02*
X021127Y007684D01*
X021852Y006534D02*
X021852Y006254D01*
X022187Y006254D02*
X022187Y006534D01*
X022182Y005159D02*
X022182Y004879D01*
X021847Y004879D02*
X021847Y005159D01*
X021282Y003934D02*
X021002Y003934D01*
X021002Y003599D02*
X021282Y003599D01*
X020060Y003269D02*
X020060Y003128D01*
X019779Y003128D01*
X019779Y003269D01*
X019826Y003315D01*
X020013Y003315D01*
X020060Y003269D01*
X020060Y003021D02*
X019779Y003021D01*
X019779Y002834D02*
X020060Y003021D01*
X020060Y002834D02*
X019779Y002834D01*
X019826Y002726D02*
X019779Y002679D01*
X019779Y002586D01*
X019826Y002539D01*
X020013Y002539D01*
X020060Y002586D01*
X020060Y002679D01*
X020013Y002726D01*
X019920Y002726D01*
X019920Y002633D01*
X019560Y002633D02*
X019279Y002633D01*
X019279Y002726D02*
X019279Y002539D01*
X019060Y002633D02*
X018779Y002633D01*
X018779Y002726D02*
X018779Y002539D01*
X018560Y002633D02*
X018279Y002633D01*
X018279Y002726D02*
X018279Y002539D01*
X018279Y002834D02*
X018279Y002974D01*
X018326Y003021D01*
X018513Y003021D01*
X018560Y002974D01*
X018560Y002834D01*
X018279Y002834D01*
X018279Y003128D02*
X018279Y003222D01*
X018279Y003175D02*
X018560Y003175D01*
X018560Y003128D02*
X018560Y003222D01*
X018779Y003269D02*
X018826Y003315D01*
X019013Y003315D01*
X019060Y003269D01*
X019060Y003175D01*
X019013Y003128D01*
X018826Y003128D01*
X018779Y003175D01*
X018779Y003269D01*
X018826Y003021D02*
X018779Y002974D01*
X018779Y002834D01*
X019060Y002834D01*
X019060Y002974D01*
X019013Y003021D01*
X018826Y003021D01*
X019279Y002974D02*
X019279Y002834D01*
X019560Y002834D01*
X019466Y002834D02*
X019466Y002974D01*
X019420Y003021D01*
X019326Y003021D01*
X019279Y002974D01*
X019326Y003128D02*
X019373Y003128D01*
X019420Y003175D01*
X019420Y003269D01*
X019466Y003315D01*
X019513Y003315D01*
X019560Y003269D01*
X019560Y003175D01*
X019513Y003128D01*
X019560Y003021D02*
X019466Y002927D01*
X019326Y003128D02*
X019279Y003175D01*
X019279Y003269D01*
X019326Y003315D01*
X019279Y003423D02*
X019279Y003610D01*
X019279Y003516D02*
X019560Y003516D01*
X017307Y003379D02*
X017307Y003659D01*
X016972Y003659D02*
X016972Y003379D01*
X013812Y003379D02*
X013812Y003659D01*
X013477Y003659D02*
X013477Y003379D01*
X012550Y002069D02*
X012550Y001789D01*
X012457Y001789D02*
X012644Y001789D01*
X012644Y001694D02*
X012457Y001694D01*
X012349Y001648D02*
X012349Y001601D01*
X012302Y001554D01*
X012349Y001508D01*
X012349Y001461D01*
X012302Y001414D01*
X012209Y001414D01*
X012162Y001461D01*
X012256Y001554D02*
X012302Y001554D01*
X012349Y001648D02*
X012302Y001694D01*
X012209Y001694D01*
X012162Y001648D01*
X012162Y001789D02*
X012162Y002069D01*
X012349Y002069D01*
X012457Y001976D02*
X012550Y002069D01*
X012256Y001929D02*
X012162Y001929D01*
X012644Y001694D02*
X012644Y001648D01*
X012457Y001461D01*
X012457Y001414D01*
X012751Y001461D02*
X012798Y001414D01*
X012892Y001414D01*
X012938Y001461D01*
X012938Y001554D01*
X012892Y001601D01*
X012845Y001601D01*
X012751Y001554D01*
X012751Y001694D01*
X012938Y001694D01*
X013046Y001601D02*
X013093Y001601D01*
X013139Y001554D01*
X013186Y001601D01*
X013233Y001554D01*
X013233Y001414D01*
X013139Y001414D02*
X013139Y001554D01*
X013046Y001601D02*
X013046Y001414D01*
X013341Y001414D02*
X013341Y001601D01*
X013434Y001694D01*
X013528Y001601D01*
X013528Y001414D01*
X013528Y001554D02*
X013341Y001554D01*
X011157Y001184D02*
X010877Y001184D01*
X010877Y000849D02*
X011157Y000849D01*
X009907Y000849D02*
X009627Y000849D01*
X009627Y001184D02*
X009907Y001184D01*
X008827Y002389D02*
X008827Y003149D01*
X008207Y003149D02*
X008207Y002389D01*
X023752Y009354D02*
X024032Y009354D01*
X024032Y009689D02*
X023752Y009689D01*
X023752Y009854D02*
X024032Y009854D01*
X024032Y010189D02*
X023752Y010189D01*
X025002Y010184D02*
X025282Y010184D01*
X025282Y009849D02*
X025002Y009849D01*
X026752Y010479D02*
X027032Y010479D01*
X027032Y010814D02*
X026752Y010814D01*
X027827Y010763D02*
X027848Y010759D01*
X027867Y010752D01*
X027885Y010742D01*
X027901Y010728D01*
X027914Y010712D01*
X027925Y010694D01*
X027932Y010675D01*
X027936Y010654D01*
X027936Y010634D01*
X027932Y010613D01*
X027925Y010594D01*
X027914Y010576D01*
X027901Y010560D01*
X027885Y010546D01*
X027867Y010536D01*
X027848Y010529D01*
X027827Y010525D01*
X027994Y010487D02*
X028280Y010487D01*
X028280Y010802D02*
X028004Y010802D01*
X028004Y010987D02*
X028280Y010987D01*
X028457Y011025D02*
X028436Y011029D01*
X028417Y011036D01*
X028399Y011046D01*
X028383Y011060D01*
X028370Y011076D01*
X028359Y011094D01*
X028352Y011113D01*
X028348Y011134D01*
X028348Y011154D01*
X028352Y011175D01*
X028359Y011194D01*
X028370Y011212D01*
X028383Y011228D01*
X028399Y011242D01*
X028417Y011252D01*
X028436Y011259D01*
X028457Y011263D01*
X028290Y011302D02*
X028004Y011302D01*
X028002Y011974D02*
X028282Y011974D01*
X028282Y012309D02*
X028002Y012309D01*
X027032Y012309D02*
X026752Y012309D01*
X026752Y011974D02*
X027032Y011974D01*
X025937Y013254D02*
X025937Y013534D01*
X025602Y013534D02*
X025602Y013254D01*
X024032Y014099D02*
X023752Y014099D01*
X023752Y014434D02*
X024032Y014434D01*
X023182Y013659D02*
X023182Y013379D01*
X022847Y013379D02*
X022847Y013659D01*
X021782Y014099D02*
X021502Y014099D01*
X021502Y014434D02*
X021782Y014434D01*
X020687Y015379D02*
X020687Y015659D01*
X020352Y015659D02*
X020352Y015379D01*
X019682Y014409D02*
X019682Y014129D01*
X019347Y014129D02*
X019347Y014409D01*
X018687Y014409D02*
X018687Y014129D01*
X018352Y014129D02*
X018352Y014409D01*
X016032Y013434D02*
X015752Y013434D01*
X015752Y013099D02*
X016032Y013099D01*
X016032Y012939D02*
X015752Y012939D01*
X015752Y012604D02*
X016032Y012604D01*
X014937Y014254D02*
X014937Y014534D01*
X014602Y014534D02*
X014602Y014254D01*
X017252Y015849D02*
X017532Y015849D01*
X017532Y016184D02*
X017252Y016184D01*
X013682Y018254D02*
X013682Y018534D01*
X013347Y018534D02*
X013347Y018254D01*
X013187Y018254D02*
X013187Y018534D01*
X012852Y018534D02*
X012852Y018254D01*
X012577Y018149D02*
X012577Y017389D01*
X011957Y017389D02*
X011957Y018149D01*
X009812Y018034D02*
X009812Y017754D01*
X009477Y017754D02*
X009477Y018034D01*
X009307Y018034D02*
X009307Y017754D01*
X008972Y017754D02*
X008972Y018034D01*
X019597Y012659D02*
X019597Y012379D01*
X019932Y012379D02*
X019932Y012659D01*
X022877Y016849D02*
X023157Y016849D01*
X023157Y017184D02*
X022877Y017184D01*
X027097Y015534D02*
X027097Y015254D01*
X027432Y015254D02*
X027432Y015534D01*
X028472Y015534D02*
X028472Y015254D01*
X028807Y015254D02*
X028807Y015534D01*
X029347Y014284D02*
X029347Y014004D01*
X029682Y014004D02*
X029682Y014284D01*
X029769Y007132D02*
X029769Y006852D01*
X029582Y007132D01*
X029582Y006852D01*
X029474Y006898D02*
X029474Y006992D01*
X029381Y006992D01*
X029474Y007085D02*
X029427Y007132D01*
X029334Y007132D01*
X029287Y007085D01*
X029287Y006898D01*
X029334Y006852D01*
X029427Y006852D01*
X029474Y006898D01*
X029876Y006852D02*
X030017Y006852D01*
X030063Y006898D01*
X030063Y007085D01*
X030017Y007132D01*
X029876Y007132D01*
X029876Y006852D01*
X029876Y006132D02*
X030017Y006132D01*
X030063Y006085D01*
X030063Y005898D01*
X030017Y005852D01*
X029876Y005852D01*
X029876Y006132D01*
X029769Y006132D02*
X029769Y005852D01*
X029582Y006132D01*
X029582Y005852D01*
X029474Y005898D02*
X029474Y005992D01*
X029381Y005992D01*
X029474Y006085D02*
X029427Y006132D01*
X029334Y006132D01*
X029287Y006085D01*
X029287Y005898D01*
X029334Y005852D01*
X029427Y005852D01*
X029474Y005898D01*
D12*
X000150Y001331D02*
X000152Y001400D01*
X000158Y001468D01*
X000168Y001536D01*
X000182Y001603D01*
X000200Y001670D01*
X000221Y001735D01*
X000247Y001799D01*
X000276Y001861D01*
X000308Y001921D01*
X000344Y001980D01*
X000384Y002036D01*
X000426Y002090D01*
X000472Y002141D01*
X000521Y002190D01*
X000572Y002236D01*
X000626Y002278D01*
X000682Y002318D01*
X000740Y002354D01*
X000801Y002386D01*
X000863Y002415D01*
X000927Y002441D01*
X000992Y002462D01*
X001059Y002480D01*
X001126Y002494D01*
X001194Y002504D01*
X001262Y002510D01*
X001331Y002512D01*
X001400Y002510D01*
X001468Y002504D01*
X001536Y002494D01*
X001603Y002480D01*
X001670Y002462D01*
X001735Y002441D01*
X001799Y002415D01*
X001861Y002386D01*
X001921Y002354D01*
X001980Y002318D01*
X002036Y002278D01*
X002090Y002236D01*
X002141Y002190D01*
X002190Y002141D01*
X002236Y002090D01*
X002278Y002036D01*
X002318Y001980D01*
X002354Y001921D01*
X002386Y001861D01*
X002415Y001799D01*
X002441Y001735D01*
X002462Y001670D01*
X002480Y001603D01*
X002494Y001536D01*
X002504Y001468D01*
X002510Y001400D01*
X002512Y001331D01*
X002510Y001262D01*
X002504Y001194D01*
X002494Y001126D01*
X002480Y001059D01*
X002462Y000992D01*
X002441Y000927D01*
X002415Y000863D01*
X002386Y000801D01*
X002354Y000740D01*
X002318Y000682D01*
X002278Y000626D01*
X002236Y000572D01*
X002190Y000521D01*
X002141Y000472D01*
X002090Y000426D01*
X002036Y000384D01*
X001980Y000344D01*
X001922Y000308D01*
X001861Y000276D01*
X001799Y000247D01*
X001735Y000221D01*
X001670Y000200D01*
X001603Y000182D01*
X001536Y000168D01*
X001468Y000158D01*
X001400Y000152D01*
X001331Y000150D01*
X001262Y000152D01*
X001194Y000158D01*
X001126Y000168D01*
X001059Y000182D01*
X000992Y000200D01*
X000927Y000221D01*
X000863Y000247D01*
X000801Y000276D01*
X000740Y000308D01*
X000682Y000344D01*
X000626Y000384D01*
X000572Y000426D01*
X000521Y000472D01*
X000472Y000521D01*
X000426Y000572D01*
X000384Y000626D01*
X000344Y000682D01*
X000308Y000740D01*
X000276Y000801D01*
X000247Y000863D01*
X000221Y000927D01*
X000200Y000992D01*
X000182Y001059D01*
X000168Y001126D01*
X000158Y001194D01*
X000152Y001262D01*
X000150Y001331D01*
X007617Y010586D02*
X007617Y011452D01*
X008168Y011452D01*
X008168Y010586D01*
X007617Y010586D01*
X008367Y010586D02*
X008918Y010586D01*
X008918Y011452D01*
X008367Y011452D01*
X008367Y010586D01*
X008450Y012244D02*
X007584Y012244D01*
X007584Y012795D01*
X008450Y012795D01*
X008450Y012244D01*
X017688Y006990D02*
X017797Y007098D01*
X020238Y007098D01*
X020346Y006990D01*
X020346Y004549D01*
X020238Y004440D01*
X017797Y004440D01*
X017688Y004549D01*
X017688Y006990D01*
X019569Y004982D02*
X019571Y005012D01*
X019577Y005042D01*
X019586Y005071D01*
X019599Y005098D01*
X019616Y005123D01*
X019635Y005146D01*
X019658Y005167D01*
X019683Y005184D01*
X019709Y005198D01*
X019738Y005208D01*
X019767Y005215D01*
X019797Y005218D01*
X019828Y005217D01*
X019858Y005212D01*
X019887Y005203D01*
X019914Y005191D01*
X019940Y005176D01*
X019964Y005157D01*
X019985Y005135D01*
X020003Y005111D01*
X020018Y005084D01*
X020029Y005056D01*
X020037Y005027D01*
X020041Y004997D01*
X020041Y004967D01*
X020037Y004937D01*
X020029Y004908D01*
X020018Y004880D01*
X020003Y004853D01*
X019985Y004829D01*
X019964Y004807D01*
X019940Y004788D01*
X019914Y004773D01*
X019887Y004761D01*
X019858Y004752D01*
X019828Y004747D01*
X019797Y004746D01*
X019767Y004749D01*
X019738Y004756D01*
X019709Y004766D01*
X019683Y004780D01*
X019658Y004797D01*
X019635Y004818D01*
X019616Y004841D01*
X019599Y004866D01*
X019586Y004893D01*
X019577Y004922D01*
X019571Y004952D01*
X019569Y004982D01*
X028772Y001331D02*
X028774Y001400D01*
X028780Y001468D01*
X028790Y001536D01*
X028804Y001603D01*
X028822Y001670D01*
X028843Y001735D01*
X028869Y001799D01*
X028898Y001861D01*
X028930Y001921D01*
X028966Y001980D01*
X029006Y002036D01*
X029048Y002090D01*
X029094Y002141D01*
X029143Y002190D01*
X029194Y002236D01*
X029248Y002278D01*
X029304Y002318D01*
X029362Y002354D01*
X029423Y002386D01*
X029485Y002415D01*
X029549Y002441D01*
X029614Y002462D01*
X029681Y002480D01*
X029748Y002494D01*
X029816Y002504D01*
X029884Y002510D01*
X029953Y002512D01*
X030022Y002510D01*
X030090Y002504D01*
X030158Y002494D01*
X030225Y002480D01*
X030292Y002462D01*
X030357Y002441D01*
X030421Y002415D01*
X030483Y002386D01*
X030543Y002354D01*
X030602Y002318D01*
X030658Y002278D01*
X030712Y002236D01*
X030763Y002190D01*
X030812Y002141D01*
X030858Y002090D01*
X030900Y002036D01*
X030940Y001980D01*
X030976Y001921D01*
X031008Y001861D01*
X031037Y001799D01*
X031063Y001735D01*
X031084Y001670D01*
X031102Y001603D01*
X031116Y001536D01*
X031126Y001468D01*
X031132Y001400D01*
X031134Y001331D01*
X031132Y001262D01*
X031126Y001194D01*
X031116Y001126D01*
X031102Y001059D01*
X031084Y000992D01*
X031063Y000927D01*
X031037Y000863D01*
X031008Y000801D01*
X030976Y000740D01*
X030940Y000682D01*
X030900Y000626D01*
X030858Y000572D01*
X030812Y000521D01*
X030763Y000472D01*
X030712Y000426D01*
X030658Y000384D01*
X030602Y000344D01*
X030544Y000308D01*
X030483Y000276D01*
X030421Y000247D01*
X030357Y000221D01*
X030292Y000200D01*
X030225Y000182D01*
X030158Y000168D01*
X030090Y000158D01*
X030022Y000152D01*
X029953Y000150D01*
X029884Y000152D01*
X029816Y000158D01*
X029748Y000168D01*
X029681Y000182D01*
X029614Y000200D01*
X029549Y000221D01*
X029485Y000247D01*
X029423Y000276D01*
X029362Y000308D01*
X029304Y000344D01*
X029248Y000384D01*
X029194Y000426D01*
X029143Y000472D01*
X029094Y000521D01*
X029048Y000572D01*
X029006Y000626D01*
X028966Y000682D01*
X028930Y000740D01*
X028898Y000801D01*
X028869Y000863D01*
X028843Y000927D01*
X028822Y000992D01*
X028804Y001059D01*
X028790Y001126D01*
X028780Y001194D01*
X028774Y001262D01*
X028772Y001331D01*
X028772Y018457D02*
X028774Y018526D01*
X028780Y018594D01*
X028790Y018662D01*
X028804Y018729D01*
X028822Y018796D01*
X028843Y018861D01*
X028869Y018925D01*
X028898Y018987D01*
X028930Y019047D01*
X028966Y019106D01*
X029006Y019162D01*
X029048Y019216D01*
X029094Y019267D01*
X029143Y019316D01*
X029194Y019362D01*
X029248Y019404D01*
X029304Y019444D01*
X029362Y019480D01*
X029423Y019512D01*
X029485Y019541D01*
X029549Y019567D01*
X029614Y019588D01*
X029681Y019606D01*
X029748Y019620D01*
X029816Y019630D01*
X029884Y019636D01*
X029953Y019638D01*
X030022Y019636D01*
X030090Y019630D01*
X030158Y019620D01*
X030225Y019606D01*
X030292Y019588D01*
X030357Y019567D01*
X030421Y019541D01*
X030483Y019512D01*
X030543Y019480D01*
X030602Y019444D01*
X030658Y019404D01*
X030712Y019362D01*
X030763Y019316D01*
X030812Y019267D01*
X030858Y019216D01*
X030900Y019162D01*
X030940Y019106D01*
X030976Y019047D01*
X031008Y018987D01*
X031037Y018925D01*
X031063Y018861D01*
X031084Y018796D01*
X031102Y018729D01*
X031116Y018662D01*
X031126Y018594D01*
X031132Y018526D01*
X031134Y018457D01*
X031132Y018388D01*
X031126Y018320D01*
X031116Y018252D01*
X031102Y018185D01*
X031084Y018118D01*
X031063Y018053D01*
X031037Y017989D01*
X031008Y017927D01*
X030976Y017866D01*
X030940Y017808D01*
X030900Y017752D01*
X030858Y017698D01*
X030812Y017647D01*
X030763Y017598D01*
X030712Y017552D01*
X030658Y017510D01*
X030602Y017470D01*
X030544Y017434D01*
X030483Y017402D01*
X030421Y017373D01*
X030357Y017347D01*
X030292Y017326D01*
X030225Y017308D01*
X030158Y017294D01*
X030090Y017284D01*
X030022Y017278D01*
X029953Y017276D01*
X029884Y017278D01*
X029816Y017284D01*
X029748Y017294D01*
X029681Y017308D01*
X029614Y017326D01*
X029549Y017347D01*
X029485Y017373D01*
X029423Y017402D01*
X029362Y017434D01*
X029304Y017470D01*
X029248Y017510D01*
X029194Y017552D01*
X029143Y017598D01*
X029094Y017647D01*
X029048Y017698D01*
X029006Y017752D01*
X028966Y017808D01*
X028930Y017866D01*
X028898Y017927D01*
X028869Y017989D01*
X028843Y018053D01*
X028822Y018118D01*
X028804Y018185D01*
X028790Y018252D01*
X028780Y018320D01*
X028774Y018388D01*
X028772Y018457D01*
X000150Y018457D02*
X000152Y018526D01*
X000158Y018594D01*
X000168Y018662D01*
X000182Y018729D01*
X000200Y018796D01*
X000221Y018861D01*
X000247Y018925D01*
X000276Y018987D01*
X000308Y019047D01*
X000344Y019106D01*
X000384Y019162D01*
X000426Y019216D01*
X000472Y019267D01*
X000521Y019316D01*
X000572Y019362D01*
X000626Y019404D01*
X000682Y019444D01*
X000740Y019480D01*
X000801Y019512D01*
X000863Y019541D01*
X000927Y019567D01*
X000992Y019588D01*
X001059Y019606D01*
X001126Y019620D01*
X001194Y019630D01*
X001262Y019636D01*
X001331Y019638D01*
X001400Y019636D01*
X001468Y019630D01*
X001536Y019620D01*
X001603Y019606D01*
X001670Y019588D01*
X001735Y019567D01*
X001799Y019541D01*
X001861Y019512D01*
X001921Y019480D01*
X001980Y019444D01*
X002036Y019404D01*
X002090Y019362D01*
X002141Y019316D01*
X002190Y019267D01*
X002236Y019216D01*
X002278Y019162D01*
X002318Y019106D01*
X002354Y019047D01*
X002386Y018987D01*
X002415Y018925D01*
X002441Y018861D01*
X002462Y018796D01*
X002480Y018729D01*
X002494Y018662D01*
X002504Y018594D01*
X002510Y018526D01*
X002512Y018457D01*
X002510Y018388D01*
X002504Y018320D01*
X002494Y018252D01*
X002480Y018185D01*
X002462Y018118D01*
X002441Y018053D01*
X002415Y017989D01*
X002386Y017927D01*
X002354Y017866D01*
X002318Y017808D01*
X002278Y017752D01*
X002236Y017698D01*
X002190Y017647D01*
X002141Y017598D01*
X002090Y017552D01*
X002036Y017510D01*
X001980Y017470D01*
X001922Y017434D01*
X001861Y017402D01*
X001799Y017373D01*
X001735Y017347D01*
X001670Y017326D01*
X001603Y017308D01*
X001536Y017294D01*
X001468Y017284D01*
X001400Y017278D01*
X001331Y017276D01*
X001262Y017278D01*
X001194Y017284D01*
X001126Y017294D01*
X001059Y017308D01*
X000992Y017326D01*
X000927Y017347D01*
X000863Y017373D01*
X000801Y017402D01*
X000740Y017434D01*
X000682Y017470D01*
X000626Y017510D01*
X000572Y017552D01*
X000521Y017598D01*
X000472Y017647D01*
X000426Y017698D01*
X000384Y017752D01*
X000344Y017808D01*
X000308Y017866D01*
X000276Y017927D01*
X000247Y017989D01*
X000221Y018053D01*
X000200Y018118D01*
X000182Y018185D01*
X000168Y018252D01*
X000158Y018320D01*
X000152Y018388D01*
X000150Y018457D01*
D13*
X017452Y006852D03*
X017452Y006655D03*
X017452Y006458D03*
X017452Y006261D03*
X017452Y006064D03*
X017452Y005868D03*
X017452Y005671D03*
X017452Y005474D03*
X017452Y005277D03*
X017452Y005080D03*
X017452Y004883D03*
X017452Y004686D03*
X020582Y004686D03*
X020582Y004883D03*
X020582Y005080D03*
X020582Y005277D03*
X020582Y005474D03*
X020582Y005671D03*
X020582Y005868D03*
X020582Y006064D03*
X020582Y006261D03*
X020582Y006458D03*
X020582Y006655D03*
X020582Y006852D03*
D14*
X020100Y007334D03*
X019903Y007334D03*
X019706Y007334D03*
X019509Y007334D03*
X019312Y007334D03*
X019116Y007334D03*
X018919Y007334D03*
X018722Y007334D03*
X018525Y007334D03*
X018328Y007334D03*
X018131Y007334D03*
X017934Y007334D03*
X017934Y004204D03*
X018131Y004204D03*
X018328Y004204D03*
X018525Y004204D03*
X018722Y004204D03*
X018919Y004204D03*
X019116Y004204D03*
X019312Y004204D03*
X019509Y004204D03*
X019706Y004204D03*
X019903Y004204D03*
X020100Y004204D03*
D15*
X022015Y004788D03*
X022015Y005248D03*
X022019Y006166D03*
X022019Y006626D03*
X017140Y003748D03*
X017140Y003288D03*
X013644Y003291D03*
X013644Y003751D03*
X007221Y011310D03*
X007221Y011770D03*
X009644Y012041D03*
X009644Y012501D03*
X004890Y012788D03*
X004890Y013248D03*
X009140Y017663D03*
X009644Y017666D03*
X009644Y018126D03*
X009140Y018123D03*
X013019Y018166D03*
X013515Y018163D03*
X013515Y018623D03*
X013019Y018626D03*
X014769Y014626D03*
X014769Y014166D03*
X018519Y014041D03*
X018519Y014501D03*
X019515Y014498D03*
X019515Y014038D03*
X019765Y012748D03*
X019765Y012288D03*
X023015Y013288D03*
X023015Y013748D03*
X020519Y015291D03*
X020519Y015751D03*
X025769Y013626D03*
X025769Y013166D03*
X027265Y015163D03*
X027265Y015623D03*
X028640Y015623D03*
X028640Y015163D03*
X029515Y014373D03*
X029515Y013913D03*
D16*
X027907Y015224D02*
X027907Y015564D01*
X027627Y015564D02*
X027627Y015224D01*
X025312Y014409D02*
X024972Y014409D01*
X024972Y014129D02*
X025312Y014129D01*
X025407Y013564D02*
X025407Y013224D01*
X025127Y013224D02*
X025127Y013564D01*
X024907Y013564D02*
X024907Y013224D01*
X024627Y013224D02*
X024627Y013564D01*
X024062Y013629D02*
X023722Y013629D01*
X023722Y013909D02*
X024062Y013909D01*
X023807Y012324D02*
X023807Y010464D01*
X025227Y010464D01*
X025227Y012324D01*
X023807Y012324D01*
X022312Y010659D02*
X021972Y010659D01*
X021972Y010379D02*
X022312Y010379D01*
X022512Y010124D02*
X021783Y010124D01*
X020562Y009784D02*
X020222Y009784D01*
X020222Y009504D02*
X020562Y009504D01*
X021783Y009164D02*
X022512Y009164D01*
X020812Y008409D02*
X020472Y008409D01*
X020472Y008129D02*
X020812Y008129D01*
X016937Y008159D02*
X016597Y008159D01*
X016597Y007879D02*
X016937Y007879D01*
X015157Y009224D02*
X015157Y009564D01*
X014877Y009564D02*
X014877Y009224D01*
X014657Y009224D02*
X014657Y009564D01*
X014377Y009564D02*
X014377Y009224D01*
X014217Y009319D02*
X014217Y008719D01*
X014215Y008702D01*
X014211Y008685D01*
X014204Y008669D01*
X014194Y008655D01*
X014181Y008642D01*
X014167Y008632D01*
X014151Y008625D01*
X014134Y008621D01*
X014117Y008619D01*
X012417Y008619D01*
X012400Y008621D01*
X012383Y008625D01*
X012367Y008632D01*
X012353Y008642D01*
X012340Y008655D01*
X012330Y008669D01*
X012323Y008685D01*
X012319Y008702D01*
X012317Y008719D01*
X012317Y009319D01*
X012319Y009336D01*
X012323Y009353D01*
X012330Y009369D01*
X012340Y009383D01*
X012353Y009396D01*
X012367Y009406D01*
X012383Y009413D01*
X012400Y009417D01*
X012417Y009419D01*
X014117Y009419D01*
X014134Y009417D01*
X014151Y009413D01*
X014167Y009406D01*
X014181Y009396D01*
X014194Y009383D01*
X014204Y009369D01*
X014211Y009353D01*
X014215Y009336D01*
X014217Y009319D01*
X014167Y009019D02*
X013967Y009019D01*
X013267Y008719D02*
X013267Y008619D01*
X012567Y009019D02*
X012367Y009019D01*
X012972Y009629D02*
X013312Y009629D01*
X013267Y009419D02*
X013267Y009319D01*
X013312Y009909D02*
X012972Y009909D01*
X012582Y010634D02*
X012582Y011154D01*
X013702Y011154D01*
X013702Y010634D01*
X012582Y010634D01*
X011312Y010659D02*
X010972Y010659D01*
X010972Y010379D02*
X011312Y010379D01*
X011312Y010159D02*
X010972Y010159D01*
X010972Y009879D02*
X011312Y009879D01*
X011262Y010914D02*
X010533Y010914D01*
X010533Y011874D02*
X011262Y011874D01*
X012502Y012224D02*
X012502Y012564D01*
X012782Y012564D02*
X012782Y012224D01*
X013957Y011154D02*
X015077Y011154D01*
X015077Y010634D01*
X013957Y010634D01*
X013957Y011154D01*
X016972Y012629D02*
X017312Y012629D01*
X017312Y012909D02*
X016972Y012909D01*
X018877Y014099D02*
X018877Y014439D01*
X019157Y014439D02*
X019157Y014099D01*
X019877Y014099D02*
X019877Y014439D01*
X020157Y014439D02*
X020157Y014099D01*
X019657Y015349D02*
X019657Y015689D01*
X019377Y015689D02*
X019377Y015349D01*
X019157Y015349D02*
X019157Y015689D01*
X018877Y015689D02*
X018877Y015349D01*
X016187Y015879D02*
X015847Y015879D01*
X015847Y016159D02*
X016187Y016159D01*
X014407Y014564D02*
X014407Y014224D01*
X014127Y014224D02*
X014127Y014564D01*
X013907Y014564D02*
X013907Y014224D01*
X013627Y014224D02*
X013627Y014564D01*
X011312Y015379D02*
X010972Y015379D01*
X011262Y015124D02*
X010533Y015124D01*
X010972Y015659D02*
X011312Y015659D01*
X009437Y015409D02*
X009097Y015409D01*
X009097Y015129D02*
X009437Y015129D01*
X008187Y015129D02*
X007847Y015129D01*
X007847Y014909D02*
X008187Y014909D01*
X008187Y014629D02*
X007847Y014629D01*
X007847Y015409D02*
X008187Y015409D01*
X008187Y015629D02*
X007847Y015629D01*
X007847Y015909D02*
X008187Y015909D01*
X010533Y017352D02*
X011262Y017352D01*
X011262Y018312D02*
X010533Y018312D01*
X010722Y018566D02*
X011062Y018566D01*
X011062Y018847D02*
X010722Y018847D01*
X010533Y014164D02*
X011262Y014164D01*
X009782Y013939D02*
X009782Y013599D01*
X009502Y013599D02*
X009502Y013939D01*
X006387Y011999D02*
X005658Y011999D01*
X004782Y011814D02*
X004782Y011474D01*
X004502Y011474D02*
X004502Y011814D01*
X004282Y011814D02*
X004282Y011474D01*
X004002Y011474D02*
X004002Y011814D01*
X005658Y011039D02*
X006387Y011039D01*
X004282Y010314D02*
X004282Y009974D01*
X004002Y009974D02*
X004002Y010314D01*
X002032Y010349D02*
X002032Y010689D01*
X001752Y010689D02*
X001752Y010349D01*
X001752Y013099D02*
X001752Y013439D01*
X002032Y013439D02*
X002032Y013099D01*
X015002Y004189D02*
X015002Y003849D01*
X015282Y003849D02*
X015282Y004189D01*
X015502Y004189D02*
X015502Y003849D01*
X015782Y003849D02*
X015782Y004189D01*
X016002Y004189D02*
X016002Y003849D01*
X016282Y003849D02*
X016282Y004189D01*
X014282Y003689D02*
X014282Y003349D01*
X014002Y003349D02*
X014002Y003689D01*
X011497Y003826D02*
X011497Y002463D01*
X009037Y002463D01*
X009037Y003826D01*
X011497Y003826D01*
X012472Y001159D02*
X012812Y001159D01*
X012812Y000879D02*
X012472Y000879D01*
X024972Y009379D02*
X025312Y009379D01*
X025312Y009659D02*
X024972Y009659D01*
X026722Y011004D02*
X027062Y011004D01*
X027062Y011284D02*
X026722Y011284D01*
X027972Y011504D02*
X028312Y011504D01*
X028312Y011784D02*
X027972Y011784D01*
X029597Y011284D02*
X029937Y011284D01*
X029937Y011004D02*
X029597Y011004D01*
X029597Y010784D02*
X029937Y010784D01*
X029937Y010504D02*
X029597Y010504D01*
X029042Y007144D02*
X028242Y007144D01*
X028142Y007044D01*
X028142Y006244D01*
X028242Y006144D01*
X028142Y006044D01*
X028142Y005244D01*
X028242Y005144D01*
X029042Y005144D01*
X029142Y005244D01*
X029142Y006044D01*
X029042Y006144D01*
X029142Y006244D01*
X029142Y007044D01*
X029042Y007144D01*
D17*
X025392Y009519D03*
X024892Y009519D03*
X026642Y011144D03*
X027142Y011144D03*
X027892Y011644D03*
X028392Y011644D03*
X029517Y011144D03*
X030017Y011144D03*
X030017Y010644D03*
X029517Y010644D03*
X024142Y013769D03*
X023642Y013769D03*
X024892Y014269D03*
X025392Y014269D03*
X022392Y010519D03*
X021892Y010519D03*
X020642Y009644D03*
X020142Y009644D03*
X020392Y008269D03*
X020892Y008269D03*
X017017Y008019D03*
X016517Y008019D03*
X013392Y009769D03*
X012892Y009769D03*
X011392Y010019D03*
X010892Y010019D03*
X010892Y010519D03*
X011392Y010519D03*
X016892Y012769D03*
X017392Y012769D03*
X016267Y016019D03*
X015767Y016019D03*
X011392Y015519D03*
X010892Y015519D03*
X009517Y015269D03*
X009017Y015269D03*
X008267Y015269D03*
X007767Y015269D03*
X007767Y015769D03*
X008267Y015769D03*
X008267Y014769D03*
X007767Y014769D03*
X010642Y018707D03*
X011142Y018707D03*
X012392Y001019D03*
X012892Y001019D03*
D18*
X014142Y003269D03*
X014142Y003769D03*
X015142Y003769D03*
X015142Y004269D03*
X015642Y004269D03*
X015642Y003769D03*
X016142Y003769D03*
X016142Y004269D03*
X015017Y009144D03*
X014517Y009144D03*
X014517Y009644D03*
X015017Y009644D03*
X012642Y012144D03*
X012642Y012644D03*
X013767Y014144D03*
X014267Y014144D03*
X014267Y014644D03*
X013767Y014644D03*
X009642Y014019D03*
X009642Y013519D03*
X004642Y011894D03*
X004142Y011894D03*
X004142Y011394D03*
X004642Y011394D03*
X004142Y010394D03*
X004142Y009894D03*
X001892Y010269D03*
X001892Y010769D03*
X001892Y013019D03*
X001892Y013519D03*
X019017Y014019D03*
X019017Y014519D03*
X020017Y014519D03*
X020017Y014019D03*
X019517Y015269D03*
X019017Y015269D03*
X019017Y015769D03*
X019517Y015769D03*
X024767Y013644D03*
X025267Y013644D03*
X025267Y013144D03*
X024767Y013144D03*
X027767Y015144D03*
X027767Y015644D03*
D19*
X024124Y014267D03*
X023664Y014267D03*
X021874Y014267D03*
X021414Y014267D03*
X017624Y016017D03*
X017164Y016017D03*
X016124Y013267D03*
X015664Y013267D03*
X015661Y012771D03*
X016121Y012771D03*
X011124Y012767D03*
X010664Y012767D03*
X010664Y012267D03*
X011124Y012267D03*
X011124Y013267D03*
X010664Y013267D03*
X010664Y013767D03*
X011124Y013767D03*
X009499Y014767D03*
X009039Y014767D03*
X008499Y013267D03*
X008039Y013267D03*
X006121Y010582D03*
X005661Y010582D03*
X016536Y007521D03*
X016996Y007521D03*
X021039Y007517D03*
X021499Y007517D03*
X023661Y009521D03*
X024121Y009521D03*
X024121Y010021D03*
X023661Y010021D03*
X024914Y010017D03*
X025374Y010017D03*
X026661Y010646D03*
X027121Y010646D03*
X027124Y012142D03*
X026664Y012142D03*
X027914Y012142D03*
X028374Y012142D03*
X023249Y017017D03*
X022789Y017017D03*
X021374Y003767D03*
X020914Y003767D03*
X011249Y001017D03*
X010789Y001017D03*
X009999Y001017D03*
X009539Y001017D03*
D20*
X024767Y010684D02*
X024769Y010707D01*
X024775Y010729D01*
X024784Y010751D01*
X024797Y010770D01*
X024812Y010787D01*
X024830Y010801D01*
X024851Y010812D01*
X024873Y010820D01*
X024895Y010824D01*
X024919Y010824D01*
X024941Y010820D01*
X024963Y010812D01*
X024984Y010801D01*
X025002Y010787D01*
X025017Y010770D01*
X025030Y010751D01*
X025039Y010729D01*
X025045Y010707D01*
X025047Y010684D01*
X025045Y010661D01*
X025039Y010639D01*
X025030Y010617D01*
X025017Y010598D01*
X025002Y010581D01*
X024984Y010567D01*
X024963Y010556D01*
X024941Y010548D01*
X024919Y010544D01*
X024895Y010544D01*
X024873Y010548D01*
X024851Y010556D01*
X024830Y010567D01*
X024812Y010581D01*
X024797Y010598D01*
X024784Y010617D01*
X024775Y010639D01*
X024769Y010661D01*
X024767Y010684D01*
X027817Y011036D02*
X027837Y011038D01*
X027856Y011043D01*
X027874Y011052D01*
X027890Y011064D01*
X027903Y011079D01*
X027914Y011096D01*
X027921Y011114D01*
X027925Y011134D01*
X027925Y011154D01*
X027921Y011174D01*
X027914Y011192D01*
X027903Y011209D01*
X027890Y011224D01*
X027874Y011236D01*
X027856Y011245D01*
X027837Y011250D01*
X027817Y011252D01*
X028358Y011282D02*
X028360Y011292D01*
X028365Y011301D01*
X028373Y011308D01*
X028383Y011312D01*
X028393Y011312D01*
X028403Y011308D01*
X028411Y011301D01*
X028416Y011292D01*
X028418Y011282D01*
X028416Y011272D01*
X028411Y011263D01*
X028403Y011256D01*
X028393Y011252D01*
X028383Y011252D01*
X028373Y011256D01*
X028365Y011263D01*
X028360Y011272D01*
X028358Y011282D01*
X028467Y010752D02*
X028447Y010750D01*
X028428Y010745D01*
X028410Y010736D01*
X028394Y010724D01*
X028381Y010709D01*
X028370Y010692D01*
X028363Y010674D01*
X028359Y010654D01*
X028359Y010634D01*
X028363Y010614D01*
X028370Y010596D01*
X028381Y010579D01*
X028394Y010564D01*
X028410Y010552D01*
X028428Y010543D01*
X028447Y010538D01*
X028467Y010536D01*
X027866Y010506D02*
X027868Y010516D01*
X027873Y010525D01*
X027881Y010532D01*
X027891Y010536D01*
X027901Y010536D01*
X027911Y010532D01*
X027919Y010525D01*
X027924Y010516D01*
X027926Y010506D01*
X027924Y010496D01*
X027919Y010487D01*
X027911Y010480D01*
X027901Y010476D01*
X027891Y010476D01*
X027881Y010480D01*
X027873Y010487D01*
X027868Y010496D01*
X027866Y010506D01*
D21*
X027837Y010506D03*
X028447Y011282D03*
D22*
X028369Y011243D03*
X027916Y010546D03*
D23*
X027931Y010477D03*
X028354Y011311D03*
D24*
X028418Y011006D03*
X027867Y010782D03*
D25*
X027960Y010644D03*
X028324Y011144D03*
D26*
X027906Y011006D03*
X028378Y010782D03*
X028378Y010506D03*
X027906Y011282D03*
D27*
X027960Y011144D03*
X028324Y010644D03*
D28*
X028378Y010556D03*
X028378Y010733D03*
X027906Y011056D03*
X027906Y011233D03*
D29*
X028191Y011144D03*
X028093Y010644D03*
D30*
X010267Y004144D03*
D31*
X010267Y002144D03*
X009367Y002144D03*
X011167Y002144D03*
D32*
X008517Y002247D03*
X008517Y003291D03*
X009517Y010122D03*
X009517Y011166D03*
X012267Y017247D03*
X012267Y018291D03*
D33*
X008789Y014019D03*
X007745Y014019D03*
X006664Y009769D03*
X005620Y009769D03*
D34*
X015894Y013699D02*
X015894Y015589D01*
X017193Y015589D01*
X017193Y013699D01*
X015894Y013699D01*
X017193Y013699D02*
X017390Y013699D01*
X017390Y015589D01*
X017193Y015589D01*
X018289Y016416D02*
X018289Y016747D01*
X018289Y016416D02*
X019370Y016416D01*
X019745Y016416D02*
X019745Y017872D01*
X018289Y017872D01*
X018289Y017541D01*
X018289Y017872D02*
X019370Y017872D01*
X019745Y017372D02*
X019745Y016916D01*
X019745Y016416D02*
X018289Y016416D01*
X018289Y017872D01*
X021644Y016589D02*
X021644Y014699D01*
X022943Y014699D01*
X022943Y016589D01*
X023140Y016589D01*
X023140Y014699D01*
X022943Y014699D01*
X021818Y013445D02*
X020716Y013445D01*
X020716Y012343D01*
X021818Y012343D01*
X021818Y013445D01*
X021070Y013209D02*
X021068Y013189D01*
X021063Y013169D01*
X021054Y013150D01*
X021042Y013133D01*
X021028Y013119D01*
X021011Y013107D01*
X020992Y013098D01*
X020972Y013093D01*
X020952Y013091D01*
X020932Y013093D01*
X020912Y013098D01*
X020893Y013107D01*
X020876Y013119D01*
X020862Y013133D01*
X020850Y013150D01*
X020841Y013169D01*
X020836Y013189D01*
X020834Y013209D01*
X020836Y013229D01*
X020841Y013249D01*
X020850Y013268D01*
X020862Y013285D01*
X020876Y013299D01*
X020893Y013311D01*
X020912Y013320D01*
X020932Y013325D01*
X020952Y013327D01*
X020972Y013325D01*
X020992Y013320D01*
X021011Y013311D01*
X021028Y013299D01*
X021042Y013285D01*
X021054Y013268D01*
X021063Y013249D01*
X021068Y013229D01*
X021070Y013209D01*
X021644Y016589D02*
X022943Y016589D01*
X026894Y014464D02*
X026894Y012574D01*
X028193Y012574D01*
X028193Y014464D01*
X028390Y014464D01*
X028390Y012574D01*
X028193Y012574D01*
X028193Y014464D02*
X026894Y014464D01*
X023749Y006911D02*
X023751Y006888D01*
X023756Y006864D01*
X023764Y006842D01*
X023776Y006821D01*
X023790Y006802D01*
X023807Y006785D01*
X023826Y006771D01*
X023847Y006759D01*
X023869Y006751D01*
X023893Y006746D01*
X023916Y006744D01*
X023917Y006744D02*
X023917Y006182D01*
X023917Y005356D01*
X023917Y004795D01*
X023916Y004795D02*
X023893Y004793D01*
X023869Y004788D01*
X023847Y004780D01*
X023826Y004768D01*
X023807Y004754D01*
X023790Y004737D01*
X023776Y004718D01*
X023764Y004697D01*
X023756Y004675D01*
X023751Y004651D01*
X023749Y004628D01*
X023749Y004627D02*
X023385Y004627D01*
X023149Y004627D01*
X022785Y004627D01*
X022785Y004628D02*
X022783Y004651D01*
X022778Y004675D01*
X022770Y004697D01*
X022758Y004718D01*
X022744Y004737D01*
X022727Y004754D01*
X022708Y004768D01*
X022687Y004780D01*
X022665Y004788D01*
X022641Y004793D01*
X022618Y004795D01*
X022618Y005356D01*
X022618Y006182D01*
X022618Y006744D01*
X022641Y006746D01*
X022665Y006751D01*
X022687Y006759D01*
X022708Y006771D01*
X022727Y006785D01*
X022744Y006802D01*
X022758Y006821D01*
X022770Y006842D01*
X022778Y006864D01*
X022783Y006888D01*
X022785Y006911D01*
X023149Y006911D01*
X023385Y006911D01*
X023749Y006911D01*
D35*
X023188Y006576D03*
D36*
X004646Y009753D03*
X004646Y010533D03*
D37*
X012843Y009292D02*
X012866Y009019D01*
X012866Y009019D01*
X012843Y008746D01*
X012842Y008745D01*
X012810Y008750D01*
X012778Y008759D01*
X012748Y008771D01*
X012720Y008787D01*
X012693Y008806D01*
X012669Y008828D01*
X012648Y008852D01*
X012630Y008879D01*
X012615Y008908D01*
X012604Y008939D01*
X012596Y008970D01*
X012592Y009003D01*
X012592Y009035D01*
X012596Y009068D01*
X012604Y009099D01*
X012615Y009130D01*
X012630Y009159D01*
X012648Y009186D01*
X012669Y009210D01*
X012693Y009232D01*
X012720Y009251D01*
X012748Y009267D01*
X012778Y009279D01*
X012810Y009288D01*
X012842Y009293D01*
X012842Y009246D01*
X012814Y009241D01*
X012786Y009232D01*
X012760Y009220D01*
X012735Y009205D01*
X012712Y009187D01*
X012692Y009166D01*
X012675Y009142D01*
X012661Y009117D01*
X012650Y009090D01*
X012643Y009062D01*
X012639Y009033D01*
X012639Y009005D01*
X012643Y008976D01*
X012650Y008948D01*
X012661Y008921D01*
X012675Y008896D01*
X012692Y008872D01*
X012712Y008851D01*
X012735Y008833D01*
X012760Y008818D01*
X012786Y008806D01*
X012814Y008797D01*
X012842Y008792D01*
X012842Y008840D01*
X012817Y008845D01*
X012792Y008854D01*
X012770Y008866D01*
X012749Y008882D01*
X012730Y008900D01*
X012715Y008921D01*
X012702Y008944D01*
X012693Y008968D01*
X012688Y008993D01*
X012686Y009019D01*
X012688Y009045D01*
X012693Y009070D01*
X012702Y009094D01*
X012715Y009117D01*
X012730Y009138D01*
X012749Y009156D01*
X012770Y009172D01*
X012792Y009184D01*
X012817Y009193D01*
X012842Y009198D01*
X012842Y009151D01*
X012821Y009145D01*
X012801Y009136D01*
X012783Y009124D01*
X012767Y009109D01*
X012754Y009091D01*
X012744Y009072D01*
X012737Y009051D01*
X012733Y009030D01*
X012733Y009008D01*
X012737Y008987D01*
X012744Y008966D01*
X012754Y008947D01*
X012767Y008929D01*
X012783Y008914D01*
X012801Y008902D01*
X012821Y008893D01*
X012842Y008887D01*
X012842Y008936D01*
X012826Y008942D01*
X012812Y008951D01*
X012800Y008964D01*
X012790Y008978D01*
X012784Y008994D01*
X012780Y009010D01*
X012780Y009028D01*
X012784Y009044D01*
X012790Y009060D01*
X012800Y009074D01*
X012812Y009087D01*
X012826Y009096D01*
X012842Y009102D01*
X012844Y009051D01*
X012836Y009044D01*
X012830Y009035D01*
X012827Y009024D01*
X012827Y009014D01*
X012830Y009003D01*
X012836Y008994D01*
X012844Y008987D01*
X013691Y008746D02*
X013668Y009019D01*
X013668Y009019D01*
X013691Y009292D01*
X013692Y009293D01*
X013724Y009288D01*
X013756Y009279D01*
X013786Y009267D01*
X013814Y009251D01*
X013841Y009232D01*
X013865Y009210D01*
X013886Y009186D01*
X013904Y009159D01*
X013919Y009130D01*
X013930Y009099D01*
X013938Y009068D01*
X013942Y009035D01*
X013942Y009003D01*
X013938Y008970D01*
X013930Y008939D01*
X013919Y008908D01*
X013904Y008879D01*
X013886Y008852D01*
X013865Y008828D01*
X013841Y008806D01*
X013814Y008787D01*
X013786Y008771D01*
X013756Y008759D01*
X013724Y008750D01*
X013692Y008745D01*
X013692Y008792D01*
X013720Y008797D01*
X013748Y008806D01*
X013774Y008818D01*
X013799Y008833D01*
X013822Y008851D01*
X013842Y008872D01*
X013859Y008896D01*
X013873Y008921D01*
X013884Y008948D01*
X013891Y008976D01*
X013895Y009005D01*
X013895Y009033D01*
X013891Y009062D01*
X013884Y009090D01*
X013873Y009117D01*
X013859Y009142D01*
X013842Y009166D01*
X013822Y009187D01*
X013799Y009205D01*
X013774Y009220D01*
X013748Y009232D01*
X013720Y009241D01*
X013692Y009246D01*
X013692Y009198D01*
X013717Y009193D01*
X013742Y009184D01*
X013764Y009172D01*
X013785Y009156D01*
X013804Y009138D01*
X013819Y009117D01*
X013832Y009094D01*
X013841Y009070D01*
X013846Y009045D01*
X013848Y009019D01*
X013846Y008993D01*
X013841Y008968D01*
X013832Y008944D01*
X013819Y008921D01*
X013804Y008900D01*
X013785Y008882D01*
X013764Y008866D01*
X013742Y008854D01*
X013717Y008845D01*
X013692Y008840D01*
X013692Y008887D01*
X013713Y008893D01*
X013733Y008902D01*
X013751Y008914D01*
X013767Y008929D01*
X013780Y008947D01*
X013790Y008966D01*
X013797Y008987D01*
X013801Y009008D01*
X013801Y009030D01*
X013797Y009051D01*
X013790Y009072D01*
X013780Y009091D01*
X013767Y009109D01*
X013751Y009124D01*
X013733Y009136D01*
X013713Y009145D01*
X013692Y009151D01*
X013692Y009102D01*
X013708Y009096D01*
X013722Y009087D01*
X013734Y009074D01*
X013744Y009060D01*
X013750Y009044D01*
X013754Y009028D01*
X013754Y009010D01*
X013750Y008994D01*
X013744Y008978D01*
X013734Y008964D01*
X013722Y008951D01*
X013708Y008942D01*
X013692Y008936D01*
X013690Y008987D01*
X013698Y008994D01*
X013704Y009003D01*
X013707Y009014D01*
X013707Y009024D01*
X013704Y009035D01*
X013698Y009044D01*
X013690Y009051D01*
X014205Y002849D02*
X017079Y002849D01*
X017079Y000999D01*
X014205Y000999D01*
X014205Y002849D01*
X014225Y017065D02*
X014225Y018758D01*
X017059Y018758D01*
X017059Y017065D01*
X014225Y017065D01*
D38*
X006339Y012596D03*
D39*
X006600Y012645D03*
X006600Y013019D03*
X006600Y013393D03*
X005684Y013393D03*
X005684Y012645D03*
D40*
X007397Y012529D03*
X008637Y012529D03*
D41*
X008253Y012509D03*
D42*
X007882Y011639D03*
X008652Y011639D03*
X008652Y010399D03*
X007882Y010399D03*
D43*
X008632Y010783D03*
X007902Y011255D03*
D44*
X006525Y011516D03*
X005515Y011516D03*
X010390Y011391D03*
X011400Y011391D03*
X011400Y014641D03*
X010390Y014641D03*
X010390Y017828D03*
X011400Y017828D03*
X021640Y009641D03*
X022650Y009641D03*
D45*
X014887Y010499D03*
X014147Y010499D03*
X013512Y010499D03*
X012772Y010499D03*
X013142Y011289D03*
X014517Y011289D03*
D46*
X023587Y011144D03*
X023587Y011644D03*
X023587Y012144D03*
X025447Y012144D03*
X025447Y011644D03*
X025447Y011144D03*
X025447Y010644D03*
X023587Y010644D03*
D47*
X026638Y012769D03*
X026638Y013269D03*
X026638Y013769D03*
X026638Y014269D03*
X028646Y014269D03*
X028646Y013769D03*
X028646Y013269D03*
X028646Y012769D03*
X023396Y014894D03*
X023396Y015394D03*
X023396Y015894D03*
X023396Y016394D03*
X021388Y016394D03*
X021388Y015894D03*
X021388Y015394D03*
X021388Y014894D03*
X017646Y014894D03*
X017646Y015394D03*
X017646Y014394D03*
X017646Y013894D03*
X015638Y013894D03*
X015638Y014394D03*
X015638Y014894D03*
X015638Y015394D03*
D48*
X020480Y013288D03*
X020480Y013091D03*
X020480Y012894D03*
X020480Y012697D03*
X020480Y012500D03*
X022055Y012501D03*
X022055Y012697D03*
X022055Y012894D03*
X022055Y013091D03*
X022055Y013288D03*
D49*
X013267Y009019D03*
D50*
X028642Y006644D03*
X028642Y005644D03*
D51*
X019918Y016613D03*
X019918Y017676D03*
D52*
X018121Y017144D03*
M02*
