G75*
G70*
%OFA0B0*%
%FSLAX24Y24*%
%IPPOS*%
%LPD*%
%AMOC8*
5,1,8,0,0,1.08239X$1,22.5*
%
%ADD10C,0.0000*%
%ADD11C,0.1142*%
%ADD12C,0.0160*%
%ADD13R,0.0434X0.0158*%
%ADD14R,0.0158X0.0434*%
%ADD15R,0.0434X0.0473*%
%ADD16R,0.0473X0.0434*%
%ADD17R,0.0355X0.0355*%
%ADD18R,0.0630X0.0830*%
%ADD19R,0.1540X0.0830*%
%ADD20R,0.0749X0.0670*%
%ADD21R,0.0670X0.0749*%
%ADD22R,0.0591X0.0788*%
%ADD23OC8,0.0640*%
%ADD24R,0.0434X0.0434*%
%ADD25C,0.0453*%
%ADD26C,0.0630*%
%ADD27R,0.0434X0.0316*%
%ADD28R,0.0591X0.0591*%
%ADD29R,0.0670X0.1103*%
%ADD30R,0.0434X0.0591*%
%ADD31R,0.0138X0.0434*%
%ADD32C,0.0276*%
%ADD33R,0.0355X0.0749*%
%ADD34R,0.0910X0.0280*%
%ADD35R,0.0906X0.0276*%
%ADD36R,0.0434X0.0138*%
%ADD37R,0.0500X0.0670*%
%ADD38R,0.0440X0.1540*%
%ADD39C,0.0480*%
%ADD40R,0.0827X0.0394*%
%ADD41R,0.0827X0.0552*%
D10*
X000780Y001331D02*
X000782Y001378D01*
X000788Y001424D01*
X000798Y001470D01*
X000811Y001515D01*
X000829Y001558D01*
X000850Y001600D01*
X000874Y001640D01*
X000902Y001677D01*
X000933Y001712D01*
X000967Y001745D01*
X001003Y001774D01*
X001042Y001800D01*
X001083Y001823D01*
X001126Y001842D01*
X001170Y001858D01*
X001215Y001870D01*
X001261Y001878D01*
X001308Y001882D01*
X001354Y001882D01*
X001401Y001878D01*
X001447Y001870D01*
X001492Y001858D01*
X001536Y001842D01*
X001579Y001823D01*
X001620Y001800D01*
X001659Y001774D01*
X001695Y001745D01*
X001729Y001712D01*
X001760Y001677D01*
X001788Y001640D01*
X001812Y001600D01*
X001833Y001558D01*
X001851Y001515D01*
X001864Y001470D01*
X001874Y001424D01*
X001880Y001378D01*
X001882Y001331D01*
X001880Y001284D01*
X001874Y001238D01*
X001864Y001192D01*
X001851Y001147D01*
X001833Y001104D01*
X001812Y001062D01*
X001788Y001022D01*
X001760Y000985D01*
X001729Y000950D01*
X001695Y000917D01*
X001659Y000888D01*
X001620Y000862D01*
X001579Y000839D01*
X001536Y000820D01*
X001492Y000804D01*
X001447Y000792D01*
X001401Y000784D01*
X001354Y000780D01*
X001308Y000780D01*
X001261Y000784D01*
X001215Y000792D01*
X001170Y000804D01*
X001126Y000820D01*
X001083Y000839D01*
X001042Y000862D01*
X001003Y000888D01*
X000967Y000917D01*
X000933Y000950D01*
X000902Y000985D01*
X000874Y001022D01*
X000850Y001062D01*
X000829Y001104D01*
X000811Y001147D01*
X000798Y001192D01*
X000788Y001238D01*
X000782Y001284D01*
X000780Y001331D01*
X004717Y000248D02*
X004717Y007630D01*
X000288Y007630D01*
X000288Y016489D01*
X003339Y016489D01*
X003339Y019540D01*
X027945Y019540D01*
X027945Y016489D01*
X030996Y016489D01*
X030996Y003300D01*
X027945Y003300D01*
X027945Y000248D01*
X004717Y000248D01*
X005209Y003890D02*
X005211Y003937D01*
X005217Y003983D01*
X005227Y004029D01*
X005240Y004074D01*
X005258Y004117D01*
X005279Y004159D01*
X005303Y004199D01*
X005331Y004236D01*
X005362Y004271D01*
X005396Y004304D01*
X005432Y004333D01*
X005471Y004359D01*
X005512Y004382D01*
X005555Y004401D01*
X005599Y004417D01*
X005644Y004429D01*
X005690Y004437D01*
X005737Y004441D01*
X005783Y004441D01*
X005830Y004437D01*
X005876Y004429D01*
X005921Y004417D01*
X005965Y004401D01*
X006008Y004382D01*
X006049Y004359D01*
X006088Y004333D01*
X006124Y004304D01*
X006158Y004271D01*
X006189Y004236D01*
X006217Y004199D01*
X006241Y004159D01*
X006262Y004117D01*
X006280Y004074D01*
X006293Y004029D01*
X006303Y003983D01*
X006309Y003937D01*
X006311Y003890D01*
X006309Y003843D01*
X006303Y003797D01*
X006293Y003751D01*
X006280Y003706D01*
X006262Y003663D01*
X006241Y003621D01*
X006217Y003581D01*
X006189Y003544D01*
X006158Y003509D01*
X006124Y003476D01*
X006088Y003447D01*
X006049Y003421D01*
X006008Y003398D01*
X005965Y003379D01*
X005921Y003363D01*
X005876Y003351D01*
X005830Y003343D01*
X005783Y003339D01*
X005737Y003339D01*
X005690Y003343D01*
X005644Y003351D01*
X005599Y003363D01*
X005555Y003379D01*
X005512Y003398D01*
X005471Y003421D01*
X005432Y003447D01*
X005396Y003476D01*
X005362Y003509D01*
X005331Y003544D01*
X005303Y003581D01*
X005279Y003621D01*
X005258Y003663D01*
X005240Y003706D01*
X005227Y003751D01*
X005217Y003797D01*
X005211Y003843D01*
X005209Y003890D01*
X020275Y002135D02*
X020275Y000360D01*
X020242Y000310D01*
X020192Y000248D01*
X021092Y000248D01*
X021042Y000310D01*
X021005Y000360D01*
X021005Y002135D01*
X021003Y002172D01*
X020998Y002208D01*
X020988Y002244D01*
X020975Y002279D01*
X020959Y002312D01*
X020940Y002344D01*
X020917Y002373D01*
X020891Y002400D01*
X020863Y002424D01*
X020833Y002445D01*
X020801Y002463D01*
X020767Y002477D01*
X020731Y002488D01*
X020695Y002496D01*
X020658Y002500D01*
X020622Y002500D01*
X020585Y002496D01*
X020549Y002488D01*
X020513Y002477D01*
X020479Y002463D01*
X020447Y002445D01*
X020417Y002424D01*
X020389Y002400D01*
X020363Y002373D01*
X020340Y002344D01*
X020321Y002312D01*
X020305Y002279D01*
X020292Y002244D01*
X020282Y002208D01*
X020277Y002172D01*
X020275Y002135D01*
X024973Y003890D02*
X024975Y003937D01*
X024981Y003983D01*
X024991Y004029D01*
X025004Y004074D01*
X025022Y004117D01*
X025043Y004159D01*
X025067Y004199D01*
X025095Y004236D01*
X025126Y004271D01*
X025160Y004304D01*
X025196Y004333D01*
X025235Y004359D01*
X025276Y004382D01*
X025319Y004401D01*
X025363Y004417D01*
X025408Y004429D01*
X025454Y004437D01*
X025501Y004441D01*
X025547Y004441D01*
X025594Y004437D01*
X025640Y004429D01*
X025685Y004417D01*
X025729Y004401D01*
X025772Y004382D01*
X025813Y004359D01*
X025852Y004333D01*
X025888Y004304D01*
X025922Y004271D01*
X025953Y004236D01*
X025981Y004199D01*
X026005Y004159D01*
X026026Y004117D01*
X026044Y004074D01*
X026057Y004029D01*
X026067Y003983D01*
X026073Y003937D01*
X026075Y003890D01*
X026073Y003843D01*
X026067Y003797D01*
X026057Y003751D01*
X026044Y003706D01*
X026026Y003663D01*
X026005Y003621D01*
X025981Y003581D01*
X025953Y003544D01*
X025922Y003509D01*
X025888Y003476D01*
X025852Y003447D01*
X025813Y003421D01*
X025772Y003398D01*
X025729Y003379D01*
X025685Y003363D01*
X025640Y003351D01*
X025594Y003343D01*
X025547Y003339D01*
X025501Y003339D01*
X025454Y003343D01*
X025408Y003351D01*
X025363Y003363D01*
X025319Y003379D01*
X025276Y003398D01*
X025235Y003421D01*
X025196Y003447D01*
X025160Y003476D01*
X025126Y003509D01*
X025095Y003544D01*
X025067Y003581D01*
X025043Y003621D01*
X025022Y003663D01*
X025004Y003706D01*
X024991Y003751D01*
X024981Y003797D01*
X024975Y003843D01*
X024973Y003890D01*
X029402Y001331D02*
X029404Y001378D01*
X029410Y001424D01*
X029420Y001470D01*
X029433Y001515D01*
X029451Y001558D01*
X029472Y001600D01*
X029496Y001640D01*
X029524Y001677D01*
X029555Y001712D01*
X029589Y001745D01*
X029625Y001774D01*
X029664Y001800D01*
X029705Y001823D01*
X029748Y001842D01*
X029792Y001858D01*
X029837Y001870D01*
X029883Y001878D01*
X029930Y001882D01*
X029976Y001882D01*
X030023Y001878D01*
X030069Y001870D01*
X030114Y001858D01*
X030158Y001842D01*
X030201Y001823D01*
X030242Y001800D01*
X030281Y001774D01*
X030317Y001745D01*
X030351Y001712D01*
X030382Y001677D01*
X030410Y001640D01*
X030434Y001600D01*
X030455Y001558D01*
X030473Y001515D01*
X030486Y001470D01*
X030496Y001424D01*
X030502Y001378D01*
X030504Y001331D01*
X030502Y001284D01*
X030496Y001238D01*
X030486Y001192D01*
X030473Y001147D01*
X030455Y001104D01*
X030434Y001062D01*
X030410Y001022D01*
X030382Y000985D01*
X030351Y000950D01*
X030317Y000917D01*
X030281Y000888D01*
X030242Y000862D01*
X030201Y000839D01*
X030158Y000820D01*
X030114Y000804D01*
X030069Y000792D01*
X030023Y000784D01*
X029976Y000780D01*
X029930Y000780D01*
X029883Y000784D01*
X029837Y000792D01*
X029792Y000804D01*
X029748Y000820D01*
X029705Y000839D01*
X029664Y000862D01*
X029625Y000888D01*
X029589Y000917D01*
X029555Y000950D01*
X029524Y000985D01*
X029496Y001022D01*
X029472Y001062D01*
X029451Y001104D01*
X029433Y001147D01*
X029420Y001192D01*
X029410Y001238D01*
X029404Y001284D01*
X029402Y001331D01*
X024973Y015898D02*
X024975Y015945D01*
X024981Y015991D01*
X024991Y016037D01*
X025004Y016082D01*
X025022Y016125D01*
X025043Y016167D01*
X025067Y016207D01*
X025095Y016244D01*
X025126Y016279D01*
X025160Y016312D01*
X025196Y016341D01*
X025235Y016367D01*
X025276Y016390D01*
X025319Y016409D01*
X025363Y016425D01*
X025408Y016437D01*
X025454Y016445D01*
X025501Y016449D01*
X025547Y016449D01*
X025594Y016445D01*
X025640Y016437D01*
X025685Y016425D01*
X025729Y016409D01*
X025772Y016390D01*
X025813Y016367D01*
X025852Y016341D01*
X025888Y016312D01*
X025922Y016279D01*
X025953Y016244D01*
X025981Y016207D01*
X026005Y016167D01*
X026026Y016125D01*
X026044Y016082D01*
X026057Y016037D01*
X026067Y015991D01*
X026073Y015945D01*
X026075Y015898D01*
X026073Y015851D01*
X026067Y015805D01*
X026057Y015759D01*
X026044Y015714D01*
X026026Y015671D01*
X026005Y015629D01*
X025981Y015589D01*
X025953Y015552D01*
X025922Y015517D01*
X025888Y015484D01*
X025852Y015455D01*
X025813Y015429D01*
X025772Y015406D01*
X025729Y015387D01*
X025685Y015371D01*
X025640Y015359D01*
X025594Y015351D01*
X025547Y015347D01*
X025501Y015347D01*
X025454Y015351D01*
X025408Y015359D01*
X025363Y015371D01*
X025319Y015387D01*
X025276Y015406D01*
X025235Y015429D01*
X025196Y015455D01*
X025160Y015484D01*
X025126Y015517D01*
X025095Y015552D01*
X025067Y015589D01*
X025043Y015629D01*
X025022Y015671D01*
X025004Y015714D01*
X024991Y015759D01*
X024981Y015805D01*
X024975Y015851D01*
X024973Y015898D01*
X029402Y018457D02*
X029404Y018504D01*
X029410Y018550D01*
X029420Y018596D01*
X029433Y018641D01*
X029451Y018684D01*
X029472Y018726D01*
X029496Y018766D01*
X029524Y018803D01*
X029555Y018838D01*
X029589Y018871D01*
X029625Y018900D01*
X029664Y018926D01*
X029705Y018949D01*
X029748Y018968D01*
X029792Y018984D01*
X029837Y018996D01*
X029883Y019004D01*
X029930Y019008D01*
X029976Y019008D01*
X030023Y019004D01*
X030069Y018996D01*
X030114Y018984D01*
X030158Y018968D01*
X030201Y018949D01*
X030242Y018926D01*
X030281Y018900D01*
X030317Y018871D01*
X030351Y018838D01*
X030382Y018803D01*
X030410Y018766D01*
X030434Y018726D01*
X030455Y018684D01*
X030473Y018641D01*
X030486Y018596D01*
X030496Y018550D01*
X030502Y018504D01*
X030504Y018457D01*
X030502Y018410D01*
X030496Y018364D01*
X030486Y018318D01*
X030473Y018273D01*
X030455Y018230D01*
X030434Y018188D01*
X030410Y018148D01*
X030382Y018111D01*
X030351Y018076D01*
X030317Y018043D01*
X030281Y018014D01*
X030242Y017988D01*
X030201Y017965D01*
X030158Y017946D01*
X030114Y017930D01*
X030069Y017918D01*
X030023Y017910D01*
X029976Y017906D01*
X029930Y017906D01*
X029883Y017910D01*
X029837Y017918D01*
X029792Y017930D01*
X029748Y017946D01*
X029705Y017965D01*
X029664Y017988D01*
X029625Y018014D01*
X029589Y018043D01*
X029555Y018076D01*
X029524Y018111D01*
X029496Y018148D01*
X029472Y018188D01*
X029451Y018230D01*
X029433Y018273D01*
X029420Y018318D01*
X029410Y018364D01*
X029404Y018410D01*
X029402Y018457D01*
X016823Y018502D02*
X016825Y018523D01*
X016831Y018543D01*
X016840Y018563D01*
X016852Y018580D01*
X016867Y018594D01*
X016885Y018606D01*
X016905Y018614D01*
X016925Y018619D01*
X016946Y018620D01*
X016967Y018617D01*
X016987Y018611D01*
X017006Y018600D01*
X017023Y018587D01*
X017036Y018571D01*
X017047Y018553D01*
X017055Y018533D01*
X017059Y018513D01*
X017059Y018491D01*
X017055Y018471D01*
X017047Y018451D01*
X017036Y018433D01*
X017023Y018417D01*
X017006Y018404D01*
X016987Y018393D01*
X016967Y018387D01*
X016946Y018384D01*
X016925Y018385D01*
X016905Y018390D01*
X016885Y018398D01*
X016867Y018410D01*
X016852Y018424D01*
X016840Y018441D01*
X016831Y018461D01*
X016825Y018481D01*
X016823Y018502D01*
X014225Y018502D02*
X014227Y018523D01*
X014233Y018543D01*
X014242Y018563D01*
X014254Y018580D01*
X014269Y018594D01*
X014287Y018606D01*
X014307Y018614D01*
X014327Y018619D01*
X014348Y018620D01*
X014369Y018617D01*
X014389Y018611D01*
X014408Y018600D01*
X014425Y018587D01*
X014438Y018571D01*
X014449Y018553D01*
X014457Y018533D01*
X014461Y018513D01*
X014461Y018491D01*
X014457Y018471D01*
X014449Y018451D01*
X014438Y018433D01*
X014425Y018417D01*
X014408Y018404D01*
X014389Y018393D01*
X014369Y018387D01*
X014348Y018384D01*
X014327Y018385D01*
X014307Y018390D01*
X014287Y018398D01*
X014269Y018410D01*
X014254Y018424D01*
X014242Y018441D01*
X014233Y018461D01*
X014227Y018481D01*
X014225Y018502D01*
X005209Y015898D02*
X005211Y015945D01*
X005217Y015991D01*
X005227Y016037D01*
X005240Y016082D01*
X005258Y016125D01*
X005279Y016167D01*
X005303Y016207D01*
X005331Y016244D01*
X005362Y016279D01*
X005396Y016312D01*
X005432Y016341D01*
X005471Y016367D01*
X005512Y016390D01*
X005555Y016409D01*
X005599Y016425D01*
X005644Y016437D01*
X005690Y016445D01*
X005737Y016449D01*
X005783Y016449D01*
X005830Y016445D01*
X005876Y016437D01*
X005921Y016425D01*
X005965Y016409D01*
X006008Y016390D01*
X006049Y016367D01*
X006088Y016341D01*
X006124Y016312D01*
X006158Y016279D01*
X006189Y016244D01*
X006217Y016207D01*
X006241Y016167D01*
X006262Y016125D01*
X006280Y016082D01*
X006293Y016037D01*
X006303Y015991D01*
X006309Y015945D01*
X006311Y015898D01*
X006309Y015851D01*
X006303Y015805D01*
X006293Y015759D01*
X006280Y015714D01*
X006262Y015671D01*
X006241Y015629D01*
X006217Y015589D01*
X006189Y015552D01*
X006158Y015517D01*
X006124Y015484D01*
X006088Y015455D01*
X006049Y015429D01*
X006008Y015406D01*
X005965Y015387D01*
X005921Y015371D01*
X005876Y015359D01*
X005830Y015351D01*
X005783Y015347D01*
X005737Y015347D01*
X005690Y015351D01*
X005644Y015359D01*
X005599Y015371D01*
X005555Y015387D01*
X005512Y015406D01*
X005471Y015429D01*
X005432Y015455D01*
X005396Y015484D01*
X005362Y015517D01*
X005331Y015552D01*
X005303Y015589D01*
X005279Y015629D01*
X005258Y015671D01*
X005240Y015714D01*
X005227Y015759D01*
X005217Y015805D01*
X005211Y015851D01*
X005209Y015898D01*
X000780Y018457D02*
X000782Y018504D01*
X000788Y018550D01*
X000798Y018596D01*
X000811Y018641D01*
X000829Y018684D01*
X000850Y018726D01*
X000874Y018766D01*
X000902Y018803D01*
X000933Y018838D01*
X000967Y018871D01*
X001003Y018900D01*
X001042Y018926D01*
X001083Y018949D01*
X001126Y018968D01*
X001170Y018984D01*
X001215Y018996D01*
X001261Y019004D01*
X001308Y019008D01*
X001354Y019008D01*
X001401Y019004D01*
X001447Y018996D01*
X001492Y018984D01*
X001536Y018968D01*
X001579Y018949D01*
X001620Y018926D01*
X001659Y018900D01*
X001695Y018871D01*
X001729Y018838D01*
X001760Y018803D01*
X001788Y018766D01*
X001812Y018726D01*
X001833Y018684D01*
X001851Y018641D01*
X001864Y018596D01*
X001874Y018550D01*
X001880Y018504D01*
X001882Y018457D01*
X001880Y018410D01*
X001874Y018364D01*
X001864Y018318D01*
X001851Y018273D01*
X001833Y018230D01*
X001812Y018188D01*
X001788Y018148D01*
X001760Y018111D01*
X001729Y018076D01*
X001695Y018043D01*
X001659Y018014D01*
X001620Y017988D01*
X001579Y017965D01*
X001536Y017946D01*
X001492Y017930D01*
X001447Y017918D01*
X001401Y017910D01*
X001354Y017906D01*
X001308Y017906D01*
X001261Y017910D01*
X001215Y017918D01*
X001170Y017930D01*
X001126Y017946D01*
X001083Y017965D01*
X001042Y017988D01*
X001003Y018014D01*
X000967Y018043D01*
X000933Y018076D01*
X000902Y018111D01*
X000874Y018148D01*
X000850Y018188D01*
X000829Y018230D01*
X000811Y018273D01*
X000798Y018318D01*
X000788Y018364D01*
X000782Y018410D01*
X000780Y018457D01*
D11*
X001331Y001331D03*
X005760Y003890D03*
X005760Y015898D03*
X001331Y018457D03*
X025524Y015898D03*
X029953Y018457D03*
X025524Y003890D03*
X029953Y001331D03*
D12*
X003767Y007769D02*
X003767Y008519D01*
X003642Y008644D01*
X003517Y008519D01*
X003517Y007769D01*
X003767Y007769D01*
X003767Y007834D02*
X003517Y007834D01*
X003517Y007992D02*
X003767Y007992D01*
X003767Y008151D02*
X003517Y008151D01*
X003517Y008309D02*
X003767Y008309D01*
X003767Y008468D02*
X003517Y008468D01*
X003624Y008626D02*
X003660Y008626D01*
X002767Y008519D02*
X002642Y008644D01*
X002517Y008519D01*
X002517Y007769D01*
X002767Y007769D01*
X002767Y008519D01*
X002767Y008468D02*
X002517Y008468D01*
X002517Y008309D02*
X002767Y008309D01*
X002767Y008151D02*
X002517Y008151D01*
X002517Y007992D02*
X002767Y007992D01*
X002767Y007834D02*
X002517Y007834D01*
X001767Y007834D02*
X001517Y007834D01*
X001517Y007769D02*
X001767Y007769D01*
X001767Y008519D01*
X001642Y008644D01*
X001517Y008519D01*
X001517Y007769D01*
X001517Y007992D02*
X001767Y007992D01*
X001767Y008151D02*
X001517Y008151D01*
X001517Y008309D02*
X001767Y008309D01*
X001767Y008468D02*
X001517Y008468D01*
X001624Y008626D02*
X001660Y008626D01*
X002624Y008626D02*
X002660Y008626D01*
D13*
X017245Y006852D03*
X017245Y006655D03*
X017245Y006458D03*
X017245Y006261D03*
X017245Y006064D03*
X017245Y005868D03*
X017245Y005671D03*
X017245Y005474D03*
X017245Y005277D03*
X017245Y005080D03*
X017245Y004883D03*
X017245Y004686D03*
X020789Y004686D03*
X020789Y004883D03*
X020789Y005080D03*
X020789Y005277D03*
X020789Y005474D03*
X020789Y005671D03*
X020789Y005868D03*
X020789Y006064D03*
X020789Y006261D03*
X020789Y006458D03*
X020789Y006655D03*
X020789Y006852D03*
D14*
X020100Y007541D03*
X019903Y007541D03*
X019706Y007541D03*
X019509Y007541D03*
X019312Y007541D03*
X019116Y007541D03*
X018919Y007541D03*
X018722Y007541D03*
X018525Y007541D03*
X018328Y007541D03*
X018131Y007541D03*
X017934Y007541D03*
X017934Y003997D03*
X018131Y003997D03*
X018328Y003997D03*
X018525Y003997D03*
X018722Y003997D03*
X018919Y003997D03*
X019116Y003997D03*
X019312Y003997D03*
X019509Y003997D03*
X019706Y003997D03*
X019903Y003997D03*
X020100Y003997D03*
D15*
X022017Y004684D03*
X022017Y005354D03*
X022017Y006059D03*
X022017Y006729D03*
X017142Y003854D03*
X017142Y003184D03*
X016142Y003684D03*
X015642Y003684D03*
X015142Y003684D03*
X014142Y003854D03*
X013642Y003854D03*
X013642Y003184D03*
X014142Y003184D03*
X015142Y004354D03*
X015642Y004354D03*
X016142Y004354D03*
X012977Y001019D03*
X012307Y001019D03*
X014517Y009059D03*
X015017Y009059D03*
X015017Y009729D03*
X014517Y009729D03*
X012642Y012059D03*
X012642Y012729D03*
X013767Y014059D03*
X014267Y014059D03*
X014767Y014059D03*
X014767Y014729D03*
X014267Y014729D03*
X013767Y014729D03*
X009642Y014104D03*
X009642Y013434D03*
X009642Y012604D03*
X009642Y011934D03*
X007223Y011876D03*
X007223Y011207D03*
X004892Y012684D03*
X004892Y013354D03*
X004642Y011979D03*
X004142Y011979D03*
X004142Y011309D03*
X004642Y011309D03*
X004142Y010479D03*
X004142Y009809D03*
X001892Y010184D03*
X001892Y010854D03*
X001892Y012934D03*
X001892Y013604D03*
X009142Y017559D03*
X009642Y017559D03*
X009642Y018229D03*
X009142Y018229D03*
X013017Y018059D03*
X013517Y018059D03*
X013517Y018729D03*
X013017Y018729D03*
X019017Y015854D03*
X019517Y015854D03*
X020517Y015854D03*
X020517Y015184D03*
X020017Y014604D03*
X019517Y014604D03*
X019017Y014604D03*
X018517Y014604D03*
X018517Y013934D03*
X019017Y013934D03*
X019517Y013934D03*
X020017Y013934D03*
X019767Y012854D03*
X019767Y012184D03*
X023017Y013184D03*
X023017Y013854D03*
X024767Y013729D03*
X025267Y013729D03*
X025767Y013729D03*
X025767Y013059D03*
X025267Y013059D03*
X024767Y013059D03*
X027267Y015059D03*
X027767Y015059D03*
X027767Y015729D03*
X027267Y015729D03*
X028642Y015729D03*
X028642Y015059D03*
X029517Y014479D03*
X029517Y013809D03*
X019517Y015184D03*
X019017Y015184D03*
D16*
X017727Y016019D03*
X017057Y016019D03*
X016352Y016019D03*
X015682Y016019D03*
X015557Y013269D03*
X016227Y013269D03*
X016227Y012769D03*
X016807Y012769D03*
X017477Y012769D03*
X015557Y012769D03*
X011477Y010519D03*
X010807Y010519D03*
X010807Y010019D03*
X011477Y010019D03*
X012807Y009769D03*
X013477Y009769D03*
X016432Y008019D03*
X017102Y008019D03*
X017102Y007519D03*
X016432Y007519D03*
X020307Y008269D03*
X020977Y008269D03*
X020932Y007519D03*
X021602Y007519D03*
X020727Y009644D03*
X020057Y009644D03*
X021807Y010519D03*
X022477Y010519D03*
X023557Y010019D03*
X023557Y009519D03*
X024227Y009519D03*
X024227Y010019D03*
X024807Y010019D03*
X024807Y009519D03*
X025477Y009519D03*
X025477Y010019D03*
X026557Y010644D03*
X026557Y011144D03*
X027227Y011144D03*
X027807Y011644D03*
X027807Y012144D03*
X027227Y012144D03*
X026557Y012144D03*
X028477Y012144D03*
X028477Y011644D03*
X029432Y011144D03*
X030102Y011144D03*
X030102Y010644D03*
X029432Y010644D03*
X027227Y010644D03*
X024227Y013769D03*
X023557Y013769D03*
X023557Y014269D03*
X024227Y014269D03*
X024807Y014269D03*
X025477Y014269D03*
X021977Y014269D03*
X021307Y014269D03*
X022682Y017019D03*
X023352Y017019D03*
X011477Y015519D03*
X010807Y015519D03*
X009602Y015269D03*
X008932Y015269D03*
X008352Y015269D03*
X008352Y015769D03*
X007682Y015769D03*
X007682Y015269D03*
X007682Y014769D03*
X008352Y014769D03*
X008932Y014769D03*
X009602Y014769D03*
X010557Y013769D03*
X010557Y013269D03*
X011227Y013269D03*
X011227Y013769D03*
X011227Y012769D03*
X011227Y012269D03*
X010557Y012269D03*
X010557Y012769D03*
X008602Y013269D03*
X007932Y013269D03*
X006227Y010580D03*
X005557Y010580D03*
X010557Y018707D03*
X011227Y018707D03*
X020807Y003769D03*
X021477Y003769D03*
X011352Y001019D03*
X010682Y001019D03*
X010102Y001019D03*
X009432Y001019D03*
D17*
X027847Y010644D03*
X028437Y010644D03*
X028437Y011144D03*
X027847Y011144D03*
D18*
X011177Y001904D03*
X010277Y001904D03*
X009377Y001904D03*
D19*
X010267Y004384D03*
D20*
X008517Y003320D03*
X008517Y002218D03*
X009517Y010093D03*
X009517Y011195D03*
X012267Y017218D03*
X012267Y018320D03*
D21*
X008818Y014019D03*
X007716Y014019D03*
X006693Y009769D03*
X005591Y009769D03*
D22*
X022795Y006635D03*
X023740Y006635D03*
X023740Y004903D03*
X022795Y004903D03*
D23*
X002642Y010894D03*
X002642Y011894D03*
X002642Y013644D03*
X002642Y014644D03*
D24*
X004642Y010538D03*
X004642Y009750D03*
D25*
X015012Y002682D02*
X015012Y002269D01*
X015642Y002269D02*
X015642Y002682D01*
X016272Y002682D02*
X016272Y002269D01*
X015957Y001580D02*
X015957Y001166D01*
X015327Y001166D02*
X015327Y001580D01*
D26*
X014205Y001412D02*
X014205Y002436D01*
X017079Y002436D02*
X017079Y001412D01*
D27*
X006615Y012629D03*
X006615Y013019D03*
X006615Y013409D03*
X005670Y013409D03*
X005670Y012629D03*
D28*
X007269Y012519D03*
X007892Y011767D03*
X008642Y011767D03*
X008765Y012519D03*
X008642Y010271D03*
X007892Y010271D03*
D29*
X006568Y011519D03*
X005466Y011519D03*
X010341Y011394D03*
X011443Y011394D03*
X011443Y014644D03*
X010341Y014644D03*
X010341Y017832D03*
X011443Y017832D03*
X021591Y009644D03*
X022693Y009644D03*
D30*
X014891Y010461D03*
X014143Y010461D03*
X013516Y010461D03*
X012768Y010461D03*
X013142Y011327D03*
X014517Y011327D03*
D31*
X014756Y017085D03*
X014953Y017085D03*
X015150Y017085D03*
X015347Y017085D03*
X015544Y017085D03*
X015741Y017085D03*
X015937Y017085D03*
X016134Y017085D03*
X016331Y017085D03*
X016528Y017085D03*
X016528Y018739D03*
X016331Y018739D03*
X016134Y018739D03*
X015937Y018739D03*
X015741Y018739D03*
X015544Y018739D03*
X015347Y018739D03*
X015150Y018739D03*
X014953Y018739D03*
X014756Y018739D03*
D32*
X014343Y018502D03*
X016941Y018502D03*
D33*
X017217Y017912D03*
X014067Y017912D03*
D34*
X023487Y012144D03*
X023487Y011644D03*
X023487Y011144D03*
X023487Y010644D03*
X025547Y010644D03*
X025547Y011144D03*
X025547Y011644D03*
X025547Y012144D03*
D35*
X026619Y012769D03*
X026619Y013269D03*
X026619Y013769D03*
X026619Y014269D03*
X028666Y014269D03*
X028666Y013769D03*
X028666Y013269D03*
X028666Y012769D03*
X023416Y014894D03*
X023416Y015394D03*
X023416Y015894D03*
X023416Y016394D03*
X021369Y016394D03*
X021369Y015894D03*
X021369Y015394D03*
X021369Y014894D03*
X017666Y014894D03*
X017666Y015394D03*
X017666Y014394D03*
X017666Y013894D03*
X015619Y013894D03*
X015619Y014394D03*
X015619Y014894D03*
X015619Y015394D03*
D36*
X020435Y013288D03*
X020435Y013091D03*
X020435Y012894D03*
X020435Y012697D03*
X020435Y012500D03*
X022099Y012500D03*
X022099Y012697D03*
X022099Y012894D03*
X022099Y013091D03*
X022099Y013288D03*
D37*
X013867Y009019D03*
X013267Y009019D03*
X012667Y009019D03*
D38*
X018392Y001357D03*
X018892Y001357D03*
X019392Y001357D03*
X019892Y001357D03*
D39*
X028422Y005644D02*
X028862Y005644D01*
X028862Y006644D02*
X028422Y006644D01*
D40*
X019883Y016593D03*
X019883Y017695D03*
D41*
X018151Y017144D03*
M02*
