%
M48
M72
T01C0.0197
T02C0.0200
T03C0.0236
T04C0.0276
T05C0.0315
T06C0.0320
T07C0.0360
T08C0.1102
%
T01
X5017Y519
X6017Y519
X7017Y519
X8017Y519
X8767Y519
X9392Y519
X10017Y519
X10642Y519
X11267Y519
X12017Y519
X13017Y519
X14017Y519
X15017Y519
X16017Y519
X17017Y519
X17642Y519
X19892Y2394
X20517Y3269
X20080Y3519
X19580Y3519
X19080Y3519
X17642Y3644
X17642Y3144
X16642Y3394
X16642Y3894
X17342Y4269
X17917Y4669
X18392Y4519
X17767Y5144
X16642Y4394
X16517Y4894
X15642Y5644
X15267Y5269
X14892Y4894
X14642Y4519
X14267Y4269
X14642Y4019
X13767Y4269
X13767Y5144
X12767Y5144
X11767Y5144
X10767Y5144
X9767Y5144
X8767Y5144
X7767Y5144
X6767Y5144
X7767Y4144
X8767Y4144
X7767Y3144
X7767Y2144
X7892Y1519
X8392Y1519
X8892Y1519
X8892Y1019
X7017Y1519
X6767Y2144
X6017Y1519
X5767Y2144
X5017Y1644
X5017Y2769
X5017Y5019
X5017Y5894
X5767Y6144
X5017Y6769
X5767Y7144
X5017Y7644
X6517Y7644
X6767Y7144
X7142Y7644
X7767Y7144
X8142Y7644
X8767Y7144
X9142Y7644
X9767Y7144
X10142Y7644
X10767Y7144
X11142Y7644
X11767Y7144
X12142Y7644
X12767Y7144
X13892Y7644
X13767Y6144
X14767Y6144
X16142Y5894
X16642Y5769
X17767Y6019
X19017Y5769
X20142Y5769
X20142Y6269
X21267Y6144
X21267Y7019
X20517Y7519
X20267Y7019
X21767Y8019
X22142Y7644
X22392Y7269
X22892Y7269
X23392Y7269
X23892Y7269
X24267Y7019
X24267Y6519
X24267Y6019
X23767Y5769
X23267Y5894
X22642Y5894
X21267Y5144
X21392Y4707
X21517Y4269
X22017Y4144
X22017Y3707
X22017Y3269
X21517Y3269
X21017Y3269
X21267Y2519
X21642Y2519
X22642Y2519
X23642Y2519
X24392Y3144
X23642Y3519
X22767Y3519
X22767Y4269
X23267Y4269
X23767Y4269
X24267Y4519
X24267Y5019
X24267Y5519
X24767Y5019
X25642Y5644
X26017Y5144
X26642Y5644
X27642Y5644
X27642Y4644
X26767Y4394
X27642Y3644
X26767Y3394
X26642Y2519
X27642Y2519
X27642Y1519
X26642Y1519
X25642Y1519
X24642Y1519
X23642Y1519
X22642Y1519
X21642Y1519
X21642Y519
X22642Y519
X23642Y519
X24642Y519
X25642Y519
X26642Y519
X27642Y519
X25642Y2519
X24642Y2519
X20770Y4394
X20395Y4144
X20203Y4583
X19517Y4519
X16017Y3144
X14892Y3144
X14642Y3519
X12767Y3144
X11767Y3144
X10767Y3144
X9767Y3144
X11767Y2144
X11892Y1519
X12767Y2144
X12767Y4144
X11767Y4144
X11767Y6144
X10767Y6144
X9767Y6144
X8767Y6144
X7767Y6144
X6767Y6144
X6892Y9144
X7267Y9394
X7642Y9644
X8142Y9644
X8642Y9644
X9142Y9519
X9642Y9519
X10142Y9519
X10642Y9519
X11142Y9519
X11642Y9519
X12017Y9769
X12017Y10269
X12017Y10769
X12017Y11269
X12517Y11269
X12017Y11769
X11767Y12269
X11642Y12769
X11642Y13269
X11767Y13769
X12017Y14269
X12017Y14769
X12017Y15269
X12017Y15769
X11642Y16019
X11142Y16019
X10642Y16019
X10267Y15519
X9892Y15769
X9392Y15769
X8892Y15769
X8642Y16269
X8142Y16269
X7642Y16269
X7142Y16019
X7142Y15519
X6892Y15144
X6517Y14769
X7080Y14332
X7080Y13707
X7517Y13269
X7080Y13082
X7892Y12769
X7892Y12269
X9142Y13144
X9642Y13019
X10142Y12769
X10142Y12269
X10142Y13269
X10142Y13769
X13267Y13769
X13767Y13582
X14455Y13582
X15142Y13269
X14517Y12707
X14955Y12394
X15517Y12269
X16017Y12269
X16517Y12269
X17017Y12269
X17517Y12269
X18017Y12519
X18642Y11894
X19017Y11519
X19517Y11644
X20017Y11644
X20517Y12019
X21017Y12144
X21017Y12644
X21517Y12644
X21517Y13144
X21017Y13144
X20517Y13644
X21017Y13769
X21642Y13769
X22267Y13769
X23017Y14394
X24642Y14769
X24142Y15769
X24142Y16269
X24142Y16769
X23767Y17019
X24142Y17269
X24642Y17269
X25642Y17269
X26642Y17269
X27642Y17269
X27642Y18269
X26642Y18269
X25642Y18269
X24642Y18269
X23642Y18269
X22642Y18269
X21642Y18269
X20642Y18269
X19642Y18269
X18642Y18269
X17642Y18144
X17642Y17644
X17392Y17019
X16872Y17299
X16560Y17902
X16008Y17902
X17392Y18644
X16872Y18896
X16517Y19269
X16017Y19269
X15517Y19269
X15017Y19269
X14517Y19269
X14017Y19269
X13517Y19269
X13017Y19269
X12517Y19269
X12267Y18894
X12017Y19269
X11767Y18894
X11517Y19269
X11017Y19269
X10517Y19269
X10017Y19269
X10017Y18769
X9455Y18769
X8892Y18769
X8642Y18269
X8642Y17769
X8642Y17269
X8767Y16769
X9267Y16519
X9767Y16519
X10267Y16519
X10767Y16519
X11267Y16394
X12267Y16644
X12767Y16519
X13017Y16144
X13017Y15644
X13392Y15269
X13892Y15269
X14392Y15269
X14892Y15269
X15142Y16019
X15205Y16519
X14767Y16580
X14392Y16830
X14392Y17269
X13892Y17269
X13517Y17519
X13017Y17519
X12892Y17019
X13517Y16644
X14142Y16019
X15892Y16519
X16556Y16519
X17142Y16519
X17642Y16519
X18142Y16394
X18517Y16144
X18892Y16394
X18392Y15644
X18392Y15144
X16892Y15519
X16392Y15519
X16392Y14894
X16392Y14269
X16392Y13769
X17267Y13394
X17892Y13394
X18455Y13394
X19080Y13394
X19580Y13394
X19017Y12894
X19142Y12144
X18517Y11207
X18017Y11144
X17517Y11144
X17017Y11144
X16517Y11144
X16017Y11144
X15517Y11144
X15017Y11144
X16142Y10519
X16892Y10519
X17892Y10519
X18892Y10519
X19392Y11019
X20392Y10144
X20892Y10644
X21267Y11019
X21767Y11519
X22017Y12019
X22642Y12144
X23017Y12644
X22570Y12697
X23517Y12894
X23767Y12519
X24142Y12894
X24642Y12519
X24892Y12144
X25267Y12519
X25892Y12519
X26517Y11644
X27142Y11644
X27392Y12644
X27642Y13019
X29392Y11894
X29017Y11519
X28892Y11019
X28892Y10519
X28517Y10144
X28267Y9769
X28017Y9394
X27517Y9394
X27017Y9394
X26517Y9394
X26017Y9394
X26017Y10144
X26517Y10144
X27517Y10144
X28017Y10144
X29267Y9644
X28892Y9269
X28517Y8894
X28142Y8644
X27642Y8644
X27142Y8644
X26642Y8644
X26142Y8644
X25642Y8644
X25142Y8644
X24642Y8644
X24142Y8644
X23642Y8644
X23267Y9019
X22767Y8769
X22267Y8769
X21767Y8769
X21267Y8769
X22767Y8019
X23767Y8019
X24642Y7644
X25642Y7644
X26642Y7644
X27642Y7644
X28642Y7644
X29642Y7644
X30642Y7644
X30642Y6644
X29642Y6644
X29642Y5644
X30642Y5644
X30642Y4644
X29642Y4644
X28642Y4644
X28642Y3644
X29642Y3644
X30642Y3644
X27642Y6644
X26642Y6644
X25642Y6644
X29642Y8644
X30642Y8644
X30642Y9644
X30142Y10144
X30642Y10394
X30642Y10894
X30642Y11394
X29892Y11644
X30642Y11894
X30642Y12394
X29892Y12769
X29767Y12269
X30642Y12894
X30642Y13394
X29767Y13269
X30392Y13894
X30017Y14269
X30017Y14769
X29642Y15019
X29142Y15019
X29142Y15519
X29142Y15957
X29642Y16144
X28767Y16207
X28267Y16207
X27767Y16269
X27267Y16269
X26830Y16082
X26767Y15269
X26767Y14769
X26267Y14769
X28142Y14644
X30642Y15144
X30642Y16144
X27642Y19269
X26642Y19269
X25642Y19269
X24642Y19269
X23642Y19269
X22642Y19269
X21642Y19269
X20642Y19269
X19642Y19269
X18642Y19269
X17642Y19269
X19142Y17519
X20142Y17144
X20892Y17519
X21142Y16894
X21767Y16894
X22142Y17269
X22642Y17519
X23142Y17519
X23642Y17519
X20517Y14644
X20767Y14269
X24267Y12144
X24267Y11644
X24267Y11144
X24767Y11144
X24892Y11644
X24767Y10519
X24267Y10519
X22642Y11144
X22642Y11644
X19392Y9269
X18892Y9019
X18142Y8394
X17892Y9394
X16142Y9519
X15642Y9769
X15642Y9144
X15392Y10394
X13767Y11269
X13517Y11894
X13142Y12269
X13267Y14269
X13267Y14769
X8767Y11144
X8267Y10894
X7767Y11144
X6706Y10580
X7142Y10455
X7267Y10019
X6392Y9144
X5892Y9144
X5392Y9144
X4017Y9269
X3642Y9519
X3642Y10019
X3642Y10519
X3642Y11019
X3642Y11519
X3642Y12019
X4142Y12394
X4392Y12769
X4392Y13332
X4642Y13832
X5142Y13832
X5642Y13769
X6142Y13519
X6142Y13019
X6142Y12519
X5330Y13019
X6142Y14144
X5392Y14519
X4642Y15144
X3642Y15144
X3642Y14144
X3642Y13144
X2767Y12769
X1892Y12519
X642Y12144
X1517Y11644
X642Y11144
X642Y10144
X1892Y9769
X1642Y9144
X642Y9144
X642Y8019
X642Y13144
X642Y14144
X1642Y14144
X1642Y15144
X642Y15144
X642Y16144
X1642Y16144
X2642Y16144
X3642Y16144
X4517Y16394
X4642Y17269
X3642Y17269
X3642Y18269
X4642Y18269
X5642Y18269
X6642Y18269
X7642Y18269
X7642Y17269
X6892Y16644
X6642Y17269
X5642Y17269
X5642Y19269
X6642Y19269
X7642Y19269
X8642Y19269
X4642Y19269
X3642Y19269
X10267Y10519
X10267Y10019
X12767Y6144
X16017Y7519
X17517Y7519
X18267Y7019
X29642Y10019
T02
X20892Y9144
X20267Y9019
X19392Y8644
X19142Y8019
X17767Y8644
X17517Y9019
X16892Y9644
X16517Y9894
X18392Y10269
X2267Y8894
T03
X14343Y18502
X16941Y18502
T04
X17079Y1924
X14205Y1924
T05
X15012Y2475
X15642Y2475
X16272Y2475
X15957Y1373
X15327Y1373
T06
X2642Y10894
X2642Y11894
X2642Y13644
X2642Y14644
T07
X28642Y6644
X28642Y5644
T08
X1331Y1331
X5760Y3890
X5760Y15898
X1331Y18457
X25524Y15898
X29953Y18457
X25524Y3890
X29953Y1331
M30
