G75*
G70*
%OFA0B0*%
%FSLAX24Y24*%
%IPPOS*%
%LPD*%
%AMOC8*
5,1,8,0,0,1.08239X$1,22.5*
%
%ADD10C,0.0000*%
%ADD11R,0.0394X0.0118*%
%ADD12R,0.0118X0.0394*%
%ADD13R,0.0394X0.0433*%
%ADD14R,0.0433X0.0394*%
%ADD15R,0.0315X0.0315*%
%ADD16R,0.0590X0.0790*%
%ADD17R,0.1500X0.0790*%
%ADD18R,0.0709X0.0630*%
%ADD19R,0.0630X0.0709*%
%ADD20R,0.0551X0.0748*%
%ADD21OC8,0.0600*%
%ADD22R,0.0394X0.0394*%
%ADD23C,0.0413*%
%ADD24C,0.0551*%
%ADD25R,0.0394X0.0276*%
%ADD26R,0.0551X0.0551*%
%ADD27R,0.0630X0.1063*%
%ADD28R,0.0394X0.0551*%
%ADD29R,0.0098X0.0394*%
%ADD30R,0.0315X0.0709*%
%ADD31R,0.0870X0.0240*%
%ADD32R,0.0866X0.0236*%
%ADD33R,0.0394X0.0098*%
%ADD34R,0.0460X0.0630*%
%ADD35R,0.0400X0.1500*%
%ADD36C,0.0440*%
%ADD37R,0.0787X0.0354*%
%ADD38R,0.0787X0.0512*%
%ADD39C,0.0317*%
%ADD40C,0.0320*%
%ADD41C,0.0160*%
%ADD42C,0.0100*%
%ADD43C,0.0240*%
%ADD44C,0.0120*%
%ADD45C,0.0320*%
%ADD46C,0.0138*%
%ADD47C,0.0080*%
D10*
X000780Y001331D02*
X000782Y001378D01*
X000788Y001424D01*
X000798Y001470D01*
X000811Y001515D01*
X000829Y001558D01*
X000850Y001600D01*
X000874Y001640D01*
X000902Y001677D01*
X000933Y001712D01*
X000967Y001745D01*
X001003Y001774D01*
X001042Y001800D01*
X001083Y001823D01*
X001126Y001842D01*
X001170Y001858D01*
X001215Y001870D01*
X001261Y001878D01*
X001308Y001882D01*
X001354Y001882D01*
X001401Y001878D01*
X001447Y001870D01*
X001492Y001858D01*
X001536Y001842D01*
X001579Y001823D01*
X001620Y001800D01*
X001659Y001774D01*
X001695Y001745D01*
X001729Y001712D01*
X001760Y001677D01*
X001788Y001640D01*
X001812Y001600D01*
X001833Y001558D01*
X001851Y001515D01*
X001864Y001470D01*
X001874Y001424D01*
X001880Y001378D01*
X001882Y001331D01*
X001880Y001284D01*
X001874Y001238D01*
X001864Y001192D01*
X001851Y001147D01*
X001833Y001104D01*
X001812Y001062D01*
X001788Y001022D01*
X001760Y000985D01*
X001729Y000950D01*
X001695Y000917D01*
X001659Y000888D01*
X001620Y000862D01*
X001579Y000839D01*
X001536Y000820D01*
X001492Y000804D01*
X001447Y000792D01*
X001401Y000784D01*
X001354Y000780D01*
X001308Y000780D01*
X001261Y000784D01*
X001215Y000792D01*
X001170Y000804D01*
X001126Y000820D01*
X001083Y000839D01*
X001042Y000862D01*
X001003Y000888D01*
X000967Y000917D01*
X000933Y000950D01*
X000902Y000985D01*
X000874Y001022D01*
X000850Y001062D01*
X000829Y001104D01*
X000811Y001147D01*
X000798Y001192D01*
X000788Y001238D01*
X000782Y001284D01*
X000780Y001331D01*
X004717Y000248D02*
X004717Y007630D01*
X000288Y007630D01*
X000288Y016489D01*
X003339Y016489D01*
X003339Y019540D01*
X027945Y019540D01*
X027945Y016489D01*
X030996Y016489D01*
X030996Y003300D01*
X027945Y003300D01*
X027945Y000248D01*
X004717Y000248D01*
X005209Y003890D02*
X005211Y003937D01*
X005217Y003983D01*
X005227Y004029D01*
X005240Y004074D01*
X005258Y004117D01*
X005279Y004159D01*
X005303Y004199D01*
X005331Y004236D01*
X005362Y004271D01*
X005396Y004304D01*
X005432Y004333D01*
X005471Y004359D01*
X005512Y004382D01*
X005555Y004401D01*
X005599Y004417D01*
X005644Y004429D01*
X005690Y004437D01*
X005737Y004441D01*
X005783Y004441D01*
X005830Y004437D01*
X005876Y004429D01*
X005921Y004417D01*
X005965Y004401D01*
X006008Y004382D01*
X006049Y004359D01*
X006088Y004333D01*
X006124Y004304D01*
X006158Y004271D01*
X006189Y004236D01*
X006217Y004199D01*
X006241Y004159D01*
X006262Y004117D01*
X006280Y004074D01*
X006293Y004029D01*
X006303Y003983D01*
X006309Y003937D01*
X006311Y003890D01*
X006309Y003843D01*
X006303Y003797D01*
X006293Y003751D01*
X006280Y003706D01*
X006262Y003663D01*
X006241Y003621D01*
X006217Y003581D01*
X006189Y003544D01*
X006158Y003509D01*
X006124Y003476D01*
X006088Y003447D01*
X006049Y003421D01*
X006008Y003398D01*
X005965Y003379D01*
X005921Y003363D01*
X005876Y003351D01*
X005830Y003343D01*
X005783Y003339D01*
X005737Y003339D01*
X005690Y003343D01*
X005644Y003351D01*
X005599Y003363D01*
X005555Y003379D01*
X005512Y003398D01*
X005471Y003421D01*
X005432Y003447D01*
X005396Y003476D01*
X005362Y003509D01*
X005331Y003544D01*
X005303Y003581D01*
X005279Y003621D01*
X005258Y003663D01*
X005240Y003706D01*
X005227Y003751D01*
X005217Y003797D01*
X005211Y003843D01*
X005209Y003890D01*
X020275Y002135D02*
X020275Y000360D01*
X020242Y000310D01*
X020192Y000248D01*
X021092Y000248D01*
X021042Y000310D01*
X021005Y000360D01*
X021005Y002135D01*
X021003Y002172D01*
X020998Y002208D01*
X020988Y002244D01*
X020975Y002279D01*
X020959Y002312D01*
X020940Y002344D01*
X020917Y002373D01*
X020891Y002400D01*
X020863Y002424D01*
X020833Y002445D01*
X020801Y002463D01*
X020767Y002477D01*
X020731Y002488D01*
X020695Y002496D01*
X020658Y002500D01*
X020622Y002500D01*
X020585Y002496D01*
X020549Y002488D01*
X020513Y002477D01*
X020479Y002463D01*
X020447Y002445D01*
X020417Y002424D01*
X020389Y002400D01*
X020363Y002373D01*
X020340Y002344D01*
X020321Y002312D01*
X020305Y002279D01*
X020292Y002244D01*
X020282Y002208D01*
X020277Y002172D01*
X020275Y002135D01*
X024973Y003890D02*
X024975Y003937D01*
X024981Y003983D01*
X024991Y004029D01*
X025004Y004074D01*
X025022Y004117D01*
X025043Y004159D01*
X025067Y004199D01*
X025095Y004236D01*
X025126Y004271D01*
X025160Y004304D01*
X025196Y004333D01*
X025235Y004359D01*
X025276Y004382D01*
X025319Y004401D01*
X025363Y004417D01*
X025408Y004429D01*
X025454Y004437D01*
X025501Y004441D01*
X025547Y004441D01*
X025594Y004437D01*
X025640Y004429D01*
X025685Y004417D01*
X025729Y004401D01*
X025772Y004382D01*
X025813Y004359D01*
X025852Y004333D01*
X025888Y004304D01*
X025922Y004271D01*
X025953Y004236D01*
X025981Y004199D01*
X026005Y004159D01*
X026026Y004117D01*
X026044Y004074D01*
X026057Y004029D01*
X026067Y003983D01*
X026073Y003937D01*
X026075Y003890D01*
X026073Y003843D01*
X026067Y003797D01*
X026057Y003751D01*
X026044Y003706D01*
X026026Y003663D01*
X026005Y003621D01*
X025981Y003581D01*
X025953Y003544D01*
X025922Y003509D01*
X025888Y003476D01*
X025852Y003447D01*
X025813Y003421D01*
X025772Y003398D01*
X025729Y003379D01*
X025685Y003363D01*
X025640Y003351D01*
X025594Y003343D01*
X025547Y003339D01*
X025501Y003339D01*
X025454Y003343D01*
X025408Y003351D01*
X025363Y003363D01*
X025319Y003379D01*
X025276Y003398D01*
X025235Y003421D01*
X025196Y003447D01*
X025160Y003476D01*
X025126Y003509D01*
X025095Y003544D01*
X025067Y003581D01*
X025043Y003621D01*
X025022Y003663D01*
X025004Y003706D01*
X024991Y003751D01*
X024981Y003797D01*
X024975Y003843D01*
X024973Y003890D01*
X029402Y001331D02*
X029404Y001378D01*
X029410Y001424D01*
X029420Y001470D01*
X029433Y001515D01*
X029451Y001558D01*
X029472Y001600D01*
X029496Y001640D01*
X029524Y001677D01*
X029555Y001712D01*
X029589Y001745D01*
X029625Y001774D01*
X029664Y001800D01*
X029705Y001823D01*
X029748Y001842D01*
X029792Y001858D01*
X029837Y001870D01*
X029883Y001878D01*
X029930Y001882D01*
X029976Y001882D01*
X030023Y001878D01*
X030069Y001870D01*
X030114Y001858D01*
X030158Y001842D01*
X030201Y001823D01*
X030242Y001800D01*
X030281Y001774D01*
X030317Y001745D01*
X030351Y001712D01*
X030382Y001677D01*
X030410Y001640D01*
X030434Y001600D01*
X030455Y001558D01*
X030473Y001515D01*
X030486Y001470D01*
X030496Y001424D01*
X030502Y001378D01*
X030504Y001331D01*
X030502Y001284D01*
X030496Y001238D01*
X030486Y001192D01*
X030473Y001147D01*
X030455Y001104D01*
X030434Y001062D01*
X030410Y001022D01*
X030382Y000985D01*
X030351Y000950D01*
X030317Y000917D01*
X030281Y000888D01*
X030242Y000862D01*
X030201Y000839D01*
X030158Y000820D01*
X030114Y000804D01*
X030069Y000792D01*
X030023Y000784D01*
X029976Y000780D01*
X029930Y000780D01*
X029883Y000784D01*
X029837Y000792D01*
X029792Y000804D01*
X029748Y000820D01*
X029705Y000839D01*
X029664Y000862D01*
X029625Y000888D01*
X029589Y000917D01*
X029555Y000950D01*
X029524Y000985D01*
X029496Y001022D01*
X029472Y001062D01*
X029451Y001104D01*
X029433Y001147D01*
X029420Y001192D01*
X029410Y001238D01*
X029404Y001284D01*
X029402Y001331D01*
X024973Y015898D02*
X024975Y015945D01*
X024981Y015991D01*
X024991Y016037D01*
X025004Y016082D01*
X025022Y016125D01*
X025043Y016167D01*
X025067Y016207D01*
X025095Y016244D01*
X025126Y016279D01*
X025160Y016312D01*
X025196Y016341D01*
X025235Y016367D01*
X025276Y016390D01*
X025319Y016409D01*
X025363Y016425D01*
X025408Y016437D01*
X025454Y016445D01*
X025501Y016449D01*
X025547Y016449D01*
X025594Y016445D01*
X025640Y016437D01*
X025685Y016425D01*
X025729Y016409D01*
X025772Y016390D01*
X025813Y016367D01*
X025852Y016341D01*
X025888Y016312D01*
X025922Y016279D01*
X025953Y016244D01*
X025981Y016207D01*
X026005Y016167D01*
X026026Y016125D01*
X026044Y016082D01*
X026057Y016037D01*
X026067Y015991D01*
X026073Y015945D01*
X026075Y015898D01*
X026073Y015851D01*
X026067Y015805D01*
X026057Y015759D01*
X026044Y015714D01*
X026026Y015671D01*
X026005Y015629D01*
X025981Y015589D01*
X025953Y015552D01*
X025922Y015517D01*
X025888Y015484D01*
X025852Y015455D01*
X025813Y015429D01*
X025772Y015406D01*
X025729Y015387D01*
X025685Y015371D01*
X025640Y015359D01*
X025594Y015351D01*
X025547Y015347D01*
X025501Y015347D01*
X025454Y015351D01*
X025408Y015359D01*
X025363Y015371D01*
X025319Y015387D01*
X025276Y015406D01*
X025235Y015429D01*
X025196Y015455D01*
X025160Y015484D01*
X025126Y015517D01*
X025095Y015552D01*
X025067Y015589D01*
X025043Y015629D01*
X025022Y015671D01*
X025004Y015714D01*
X024991Y015759D01*
X024981Y015805D01*
X024975Y015851D01*
X024973Y015898D01*
X029402Y018457D02*
X029404Y018504D01*
X029410Y018550D01*
X029420Y018596D01*
X029433Y018641D01*
X029451Y018684D01*
X029472Y018726D01*
X029496Y018766D01*
X029524Y018803D01*
X029555Y018838D01*
X029589Y018871D01*
X029625Y018900D01*
X029664Y018926D01*
X029705Y018949D01*
X029748Y018968D01*
X029792Y018984D01*
X029837Y018996D01*
X029883Y019004D01*
X029930Y019008D01*
X029976Y019008D01*
X030023Y019004D01*
X030069Y018996D01*
X030114Y018984D01*
X030158Y018968D01*
X030201Y018949D01*
X030242Y018926D01*
X030281Y018900D01*
X030317Y018871D01*
X030351Y018838D01*
X030382Y018803D01*
X030410Y018766D01*
X030434Y018726D01*
X030455Y018684D01*
X030473Y018641D01*
X030486Y018596D01*
X030496Y018550D01*
X030502Y018504D01*
X030504Y018457D01*
X030502Y018410D01*
X030496Y018364D01*
X030486Y018318D01*
X030473Y018273D01*
X030455Y018230D01*
X030434Y018188D01*
X030410Y018148D01*
X030382Y018111D01*
X030351Y018076D01*
X030317Y018043D01*
X030281Y018014D01*
X030242Y017988D01*
X030201Y017965D01*
X030158Y017946D01*
X030114Y017930D01*
X030069Y017918D01*
X030023Y017910D01*
X029976Y017906D01*
X029930Y017906D01*
X029883Y017910D01*
X029837Y017918D01*
X029792Y017930D01*
X029748Y017946D01*
X029705Y017965D01*
X029664Y017988D01*
X029625Y018014D01*
X029589Y018043D01*
X029555Y018076D01*
X029524Y018111D01*
X029496Y018148D01*
X029472Y018188D01*
X029451Y018230D01*
X029433Y018273D01*
X029420Y018318D01*
X029410Y018364D01*
X029404Y018410D01*
X029402Y018457D01*
X016823Y018502D02*
X016825Y018523D01*
X016831Y018543D01*
X016840Y018563D01*
X016852Y018580D01*
X016867Y018594D01*
X016885Y018606D01*
X016905Y018614D01*
X016925Y018619D01*
X016946Y018620D01*
X016967Y018617D01*
X016987Y018611D01*
X017006Y018600D01*
X017023Y018587D01*
X017036Y018571D01*
X017047Y018553D01*
X017055Y018533D01*
X017059Y018513D01*
X017059Y018491D01*
X017055Y018471D01*
X017047Y018451D01*
X017036Y018433D01*
X017023Y018417D01*
X017006Y018404D01*
X016987Y018393D01*
X016967Y018387D01*
X016946Y018384D01*
X016925Y018385D01*
X016905Y018390D01*
X016885Y018398D01*
X016867Y018410D01*
X016852Y018424D01*
X016840Y018441D01*
X016831Y018461D01*
X016825Y018481D01*
X016823Y018502D01*
X014225Y018502D02*
X014227Y018523D01*
X014233Y018543D01*
X014242Y018563D01*
X014254Y018580D01*
X014269Y018594D01*
X014287Y018606D01*
X014307Y018614D01*
X014327Y018619D01*
X014348Y018620D01*
X014369Y018617D01*
X014389Y018611D01*
X014408Y018600D01*
X014425Y018587D01*
X014438Y018571D01*
X014449Y018553D01*
X014457Y018533D01*
X014461Y018513D01*
X014461Y018491D01*
X014457Y018471D01*
X014449Y018451D01*
X014438Y018433D01*
X014425Y018417D01*
X014408Y018404D01*
X014389Y018393D01*
X014369Y018387D01*
X014348Y018384D01*
X014327Y018385D01*
X014307Y018390D01*
X014287Y018398D01*
X014269Y018410D01*
X014254Y018424D01*
X014242Y018441D01*
X014233Y018461D01*
X014227Y018481D01*
X014225Y018502D01*
X005209Y015898D02*
X005211Y015945D01*
X005217Y015991D01*
X005227Y016037D01*
X005240Y016082D01*
X005258Y016125D01*
X005279Y016167D01*
X005303Y016207D01*
X005331Y016244D01*
X005362Y016279D01*
X005396Y016312D01*
X005432Y016341D01*
X005471Y016367D01*
X005512Y016390D01*
X005555Y016409D01*
X005599Y016425D01*
X005644Y016437D01*
X005690Y016445D01*
X005737Y016449D01*
X005783Y016449D01*
X005830Y016445D01*
X005876Y016437D01*
X005921Y016425D01*
X005965Y016409D01*
X006008Y016390D01*
X006049Y016367D01*
X006088Y016341D01*
X006124Y016312D01*
X006158Y016279D01*
X006189Y016244D01*
X006217Y016207D01*
X006241Y016167D01*
X006262Y016125D01*
X006280Y016082D01*
X006293Y016037D01*
X006303Y015991D01*
X006309Y015945D01*
X006311Y015898D01*
X006309Y015851D01*
X006303Y015805D01*
X006293Y015759D01*
X006280Y015714D01*
X006262Y015671D01*
X006241Y015629D01*
X006217Y015589D01*
X006189Y015552D01*
X006158Y015517D01*
X006124Y015484D01*
X006088Y015455D01*
X006049Y015429D01*
X006008Y015406D01*
X005965Y015387D01*
X005921Y015371D01*
X005876Y015359D01*
X005830Y015351D01*
X005783Y015347D01*
X005737Y015347D01*
X005690Y015351D01*
X005644Y015359D01*
X005599Y015371D01*
X005555Y015387D01*
X005512Y015406D01*
X005471Y015429D01*
X005432Y015455D01*
X005396Y015484D01*
X005362Y015517D01*
X005331Y015552D01*
X005303Y015589D01*
X005279Y015629D01*
X005258Y015671D01*
X005240Y015714D01*
X005227Y015759D01*
X005217Y015805D01*
X005211Y015851D01*
X005209Y015898D01*
X000780Y018457D02*
X000782Y018504D01*
X000788Y018550D01*
X000798Y018596D01*
X000811Y018641D01*
X000829Y018684D01*
X000850Y018726D01*
X000874Y018766D01*
X000902Y018803D01*
X000933Y018838D01*
X000967Y018871D01*
X001003Y018900D01*
X001042Y018926D01*
X001083Y018949D01*
X001126Y018968D01*
X001170Y018984D01*
X001215Y018996D01*
X001261Y019004D01*
X001308Y019008D01*
X001354Y019008D01*
X001401Y019004D01*
X001447Y018996D01*
X001492Y018984D01*
X001536Y018968D01*
X001579Y018949D01*
X001620Y018926D01*
X001659Y018900D01*
X001695Y018871D01*
X001729Y018838D01*
X001760Y018803D01*
X001788Y018766D01*
X001812Y018726D01*
X001833Y018684D01*
X001851Y018641D01*
X001864Y018596D01*
X001874Y018550D01*
X001880Y018504D01*
X001882Y018457D01*
X001880Y018410D01*
X001874Y018364D01*
X001864Y018318D01*
X001851Y018273D01*
X001833Y018230D01*
X001812Y018188D01*
X001788Y018148D01*
X001760Y018111D01*
X001729Y018076D01*
X001695Y018043D01*
X001659Y018014D01*
X001620Y017988D01*
X001579Y017965D01*
X001536Y017946D01*
X001492Y017930D01*
X001447Y017918D01*
X001401Y017910D01*
X001354Y017906D01*
X001308Y017906D01*
X001261Y017910D01*
X001215Y017918D01*
X001170Y017930D01*
X001126Y017946D01*
X001083Y017965D01*
X001042Y017988D01*
X001003Y018014D01*
X000967Y018043D01*
X000933Y018076D01*
X000902Y018111D01*
X000874Y018148D01*
X000850Y018188D01*
X000829Y018230D01*
X000811Y018273D01*
X000798Y018318D01*
X000788Y018364D01*
X000782Y018410D01*
X000780Y018457D01*
D11*
X017245Y006852D03*
X017245Y006655D03*
X017245Y006458D03*
X017245Y006261D03*
X017245Y006064D03*
X017245Y005868D03*
X017245Y005671D03*
X017245Y005474D03*
X017245Y005277D03*
X017245Y005080D03*
X017245Y004883D03*
X017245Y004686D03*
X020789Y004686D03*
X020789Y004883D03*
X020789Y005080D03*
X020789Y005277D03*
X020789Y005474D03*
X020789Y005671D03*
X020789Y005868D03*
X020789Y006064D03*
X020789Y006261D03*
X020789Y006458D03*
X020789Y006655D03*
X020789Y006852D03*
D12*
X020100Y007541D03*
X019903Y007541D03*
X019706Y007541D03*
X019509Y007541D03*
X019312Y007541D03*
X019116Y007541D03*
X018919Y007541D03*
X018722Y007541D03*
X018525Y007541D03*
X018328Y007541D03*
X018131Y007541D03*
X017934Y007541D03*
X017934Y003997D03*
X018131Y003997D03*
X018328Y003997D03*
X018525Y003997D03*
X018722Y003997D03*
X018919Y003997D03*
X019116Y003997D03*
X019312Y003997D03*
X019509Y003997D03*
X019706Y003997D03*
X019903Y003997D03*
X020100Y003997D03*
D13*
X022017Y004684D03*
X022017Y005354D03*
X022017Y006059D03*
X022017Y006729D03*
X017142Y003854D03*
X017142Y003184D03*
X016142Y003684D03*
X015642Y003684D03*
X015142Y003684D03*
X014142Y003854D03*
X013642Y003854D03*
X013642Y003184D03*
X014142Y003184D03*
X015142Y004354D03*
X015642Y004354D03*
X016142Y004354D03*
X012977Y001019D03*
X012307Y001019D03*
X014517Y009059D03*
X015017Y009059D03*
X015017Y009729D03*
X014517Y009729D03*
X012642Y012059D03*
X012642Y012729D03*
X013767Y014059D03*
X014267Y014059D03*
X014767Y014059D03*
X014767Y014729D03*
X014267Y014729D03*
X013767Y014729D03*
X009642Y014104D03*
X009642Y013434D03*
X009642Y012604D03*
X009642Y011934D03*
X007223Y011876D03*
X007223Y011207D03*
X004892Y012684D03*
X004892Y013354D03*
X004642Y011979D03*
X004142Y011979D03*
X004142Y011309D03*
X004642Y011309D03*
X004142Y010479D03*
X004142Y009809D03*
X001892Y010184D03*
X001892Y010854D03*
X001892Y012934D03*
X001892Y013604D03*
X009142Y017559D03*
X009642Y017559D03*
X009642Y018229D03*
X009142Y018229D03*
X013017Y018059D03*
X013517Y018059D03*
X013517Y018729D03*
X013017Y018729D03*
X019017Y015854D03*
X019517Y015854D03*
X020517Y015854D03*
X020517Y015184D03*
X020017Y014604D03*
X019517Y014604D03*
X019017Y014604D03*
X018517Y014604D03*
X018517Y013934D03*
X019017Y013934D03*
X019517Y013934D03*
X020017Y013934D03*
X019767Y012854D03*
X019767Y012184D03*
X023017Y013184D03*
X023017Y013854D03*
X024767Y013729D03*
X025267Y013729D03*
X025767Y013729D03*
X025767Y013059D03*
X025267Y013059D03*
X024767Y013059D03*
X027267Y015059D03*
X027767Y015059D03*
X027767Y015729D03*
X027267Y015729D03*
X028642Y015729D03*
X028642Y015059D03*
X029517Y014479D03*
X029517Y013809D03*
X019517Y015184D03*
X019017Y015184D03*
D14*
X017727Y016019D03*
X017057Y016019D03*
X016352Y016019D03*
X015682Y016019D03*
X015557Y013269D03*
X016227Y013269D03*
X016227Y012769D03*
X016807Y012769D03*
X017477Y012769D03*
X015557Y012769D03*
X011477Y010519D03*
X010807Y010519D03*
X010807Y010019D03*
X011477Y010019D03*
X012807Y009769D03*
X013477Y009769D03*
X016432Y008019D03*
X017102Y008019D03*
X017102Y007519D03*
X016432Y007519D03*
X020307Y008269D03*
X020977Y008269D03*
X020932Y007519D03*
X021602Y007519D03*
X020727Y009644D03*
X020057Y009644D03*
X021807Y010519D03*
X022477Y010519D03*
X023557Y010019D03*
X023557Y009519D03*
X024227Y009519D03*
X024227Y010019D03*
X024807Y010019D03*
X024807Y009519D03*
X025477Y009519D03*
X025477Y010019D03*
X026557Y010644D03*
X026557Y011144D03*
X027227Y011144D03*
X027807Y011644D03*
X027807Y012144D03*
X027227Y012144D03*
X026557Y012144D03*
X028477Y012144D03*
X028477Y011644D03*
X029432Y011144D03*
X030102Y011144D03*
X030102Y010644D03*
X029432Y010644D03*
X027227Y010644D03*
X024227Y013769D03*
X023557Y013769D03*
X023557Y014269D03*
X024227Y014269D03*
X024807Y014269D03*
X025477Y014269D03*
X021977Y014269D03*
X021307Y014269D03*
X022682Y017019D03*
X023352Y017019D03*
X011477Y015519D03*
X010807Y015519D03*
X009602Y015269D03*
X008932Y015269D03*
X008352Y015269D03*
X008352Y015769D03*
X007682Y015769D03*
X007682Y015269D03*
X007682Y014769D03*
X008352Y014769D03*
X008932Y014769D03*
X009602Y014769D03*
X010557Y013769D03*
X010557Y013269D03*
X011227Y013269D03*
X011227Y013769D03*
X011227Y012769D03*
X011227Y012269D03*
X010557Y012269D03*
X010557Y012769D03*
X008602Y013269D03*
X007932Y013269D03*
X006227Y010580D03*
X005557Y010580D03*
X010557Y018707D03*
X011227Y018707D03*
X020807Y003769D03*
X021477Y003769D03*
X011352Y001019D03*
X010682Y001019D03*
X010102Y001019D03*
X009432Y001019D03*
D15*
X027847Y010644D03*
X028437Y010644D03*
X028437Y011144D03*
X027847Y011144D03*
D16*
X011177Y001904D03*
X010277Y001904D03*
X009377Y001904D03*
D17*
X010267Y004384D03*
D18*
X008517Y003320D03*
X008517Y002218D03*
X009517Y010093D03*
X009517Y011195D03*
X012267Y017218D03*
X012267Y018320D03*
D19*
X008818Y014019D03*
X007716Y014019D03*
X006693Y009769D03*
X005591Y009769D03*
D20*
X022795Y006635D03*
X023740Y006635D03*
X023740Y004903D03*
X022795Y004903D03*
D21*
X002642Y010894D03*
X002642Y011894D03*
X002642Y013644D03*
X002642Y014644D03*
D22*
X004642Y010538D03*
X004642Y009750D03*
D23*
X015012Y002682D02*
X015012Y002269D01*
X015642Y002269D02*
X015642Y002682D01*
X016272Y002682D02*
X016272Y002269D01*
X015957Y001580D02*
X015957Y001166D01*
X015327Y001166D02*
X015327Y001580D01*
D24*
X014205Y001649D02*
X014205Y002200D01*
X017079Y002200D02*
X017079Y001649D01*
D25*
X006615Y012629D03*
X006615Y013019D03*
X006615Y013409D03*
X005670Y013409D03*
X005670Y012629D03*
D26*
X007269Y012519D03*
X007892Y011767D03*
X008642Y011767D03*
X008765Y012519D03*
X008642Y010271D03*
X007892Y010271D03*
D27*
X006568Y011519D03*
X005466Y011519D03*
X010341Y011394D03*
X011443Y011394D03*
X011443Y014644D03*
X010341Y014644D03*
X010341Y017832D03*
X011443Y017832D03*
X021591Y009644D03*
X022693Y009644D03*
D28*
X014891Y010461D03*
X014143Y010461D03*
X013516Y010461D03*
X012768Y010461D03*
X013142Y011327D03*
X014517Y011327D03*
D29*
X014756Y017085D03*
X014953Y017085D03*
X015150Y017085D03*
X015347Y017085D03*
X015544Y017085D03*
X015741Y017085D03*
X015937Y017085D03*
X016134Y017085D03*
X016331Y017085D03*
X016528Y017085D03*
X016528Y018739D03*
X016331Y018739D03*
X016134Y018739D03*
X015937Y018739D03*
X015741Y018739D03*
X015544Y018739D03*
X015347Y018739D03*
X015150Y018739D03*
X014953Y018739D03*
X014756Y018739D03*
D30*
X014067Y017912D03*
X017217Y017912D03*
D31*
X023487Y012144D03*
X023487Y011644D03*
X023487Y011144D03*
X023487Y010644D03*
X025547Y010644D03*
X025547Y011144D03*
X025547Y011644D03*
X025547Y012144D03*
D32*
X026619Y012769D03*
X026619Y013269D03*
X026619Y013769D03*
X026619Y014269D03*
X028666Y014269D03*
X028666Y013769D03*
X028666Y013269D03*
X028666Y012769D03*
X023416Y014894D03*
X023416Y015394D03*
X023416Y015894D03*
X023416Y016394D03*
X021369Y016394D03*
X021369Y015894D03*
X021369Y015394D03*
X021369Y014894D03*
X017666Y014894D03*
X017666Y015394D03*
X017666Y014394D03*
X017666Y013894D03*
X015619Y013894D03*
X015619Y014394D03*
X015619Y014894D03*
X015619Y015394D03*
D33*
X020435Y013288D03*
X020435Y013091D03*
X020435Y012894D03*
X020435Y012697D03*
X020435Y012500D03*
X022099Y012500D03*
X022099Y012697D03*
X022099Y012894D03*
X022099Y013091D03*
X022099Y013288D03*
D34*
X013867Y009019D03*
X013267Y009019D03*
X012667Y009019D03*
D35*
X018392Y001357D03*
X018892Y001357D03*
X019392Y001357D03*
X019892Y001357D03*
D36*
X028422Y005644D02*
X028862Y005644D01*
X028862Y006644D02*
X028422Y006644D01*
D37*
X019883Y016593D03*
X019883Y017695D03*
D38*
X018151Y017144D03*
D39*
X017642Y017644D03*
X017642Y018144D03*
X017392Y018644D03*
X016872Y018896D03*
X016517Y019269D03*
X016017Y019269D03*
X015517Y019269D03*
X015017Y019269D03*
X014517Y019269D03*
X014017Y019269D03*
X013517Y019269D03*
X013017Y019269D03*
X012517Y019269D03*
X012267Y018894D03*
X012017Y019269D03*
X011767Y018894D03*
X011517Y019269D03*
X011017Y019269D03*
X010517Y019269D03*
X010017Y019269D03*
X010017Y018769D03*
X009455Y018769D03*
X008892Y018769D03*
X008642Y018269D03*
X008642Y017769D03*
X008642Y017269D03*
X008767Y016769D03*
X009267Y016519D03*
X009767Y016519D03*
X010267Y016519D03*
X010767Y016519D03*
X011267Y016394D03*
X011142Y016019D03*
X010642Y016019D03*
X010267Y015519D03*
X009892Y015769D03*
X009392Y015769D03*
X008892Y015769D03*
X008642Y016269D03*
X008142Y016269D03*
X007642Y016269D03*
X007142Y016019D03*
X006892Y016644D03*
X006642Y017269D03*
X005642Y017269D03*
X004642Y017269D03*
X003642Y017269D03*
X003642Y018269D03*
X004642Y018269D03*
X005642Y018269D03*
X006642Y018269D03*
X007642Y018269D03*
X007642Y017269D03*
X007642Y019269D03*
X006642Y019269D03*
X005642Y019269D03*
X004642Y019269D03*
X003642Y019269D03*
X004517Y016394D03*
X003642Y016144D03*
X002642Y016144D03*
X001642Y016144D03*
X000642Y016144D03*
X000642Y015144D03*
X001642Y015144D03*
X001642Y014144D03*
X000642Y014144D03*
X000642Y013144D03*
X001892Y012519D03*
X002767Y012769D03*
X003642Y013144D03*
X004142Y012394D03*
X003642Y012019D03*
X003642Y011519D03*
X003642Y011019D03*
X003642Y010519D03*
X003642Y010019D03*
X003642Y009519D03*
X004017Y009269D03*
X005392Y009144D03*
X005892Y009144D03*
X006392Y009144D03*
X006892Y009144D03*
X007267Y009394D03*
X008142Y009644D03*
X008642Y009644D03*
X009142Y009519D03*
X009642Y009519D03*
X010142Y009519D03*
X010642Y009519D03*
X011142Y009519D03*
X011642Y009519D03*
X012017Y009769D03*
X012017Y010269D03*
X012017Y010769D03*
X012017Y011269D03*
X012517Y011269D03*
X012017Y011769D03*
X011767Y012269D03*
X011642Y012769D03*
X011642Y013269D03*
X011767Y013769D03*
X012017Y014269D03*
X012017Y014769D03*
X012017Y015269D03*
X012017Y015769D03*
X011642Y016019D03*
X012767Y016519D03*
X012267Y016644D03*
X012892Y017019D03*
X013017Y017519D03*
X013517Y017519D03*
X013892Y017269D03*
X014392Y017269D03*
X014392Y016830D03*
X014767Y016580D03*
X015205Y016519D03*
X015892Y016519D03*
X016556Y016519D03*
X017142Y016519D03*
X017642Y016519D03*
X018142Y016394D03*
X018517Y016144D03*
X018892Y016394D03*
X018392Y015644D03*
X018392Y015144D03*
X016892Y015519D03*
X016392Y015519D03*
X016392Y014894D03*
X016392Y014269D03*
X016392Y013769D03*
X017267Y013394D03*
X017892Y013394D03*
X018455Y013394D03*
X019080Y013394D03*
X019580Y013394D03*
X019017Y012894D03*
X018017Y012519D03*
X017517Y012269D03*
X017017Y012269D03*
X016517Y012269D03*
X016017Y012269D03*
X015517Y012269D03*
X014955Y012394D03*
X014517Y012707D03*
X015142Y013269D03*
X014455Y013582D03*
X013767Y013582D03*
X013267Y013769D03*
X013267Y014269D03*
X013267Y014769D03*
X013392Y015269D03*
X013892Y015269D03*
X014392Y015269D03*
X014892Y015269D03*
X015142Y016019D03*
X014142Y016019D03*
X013517Y016644D03*
X013017Y016144D03*
X013017Y015644D03*
X016008Y017902D03*
X016560Y017902D03*
X016872Y017299D03*
X017392Y017019D03*
X018642Y018269D03*
X019642Y018269D03*
X020642Y018269D03*
X020892Y017519D03*
X020142Y017144D03*
X021142Y016894D03*
X021767Y016894D03*
X022142Y017269D03*
X022642Y017519D03*
X023142Y017519D03*
X023642Y017519D03*
X023767Y017019D03*
X024142Y016769D03*
X024142Y016269D03*
X024142Y015769D03*
X024642Y014769D03*
X026267Y014769D03*
X026767Y014769D03*
X026767Y015269D03*
X026830Y016082D03*
X027267Y016269D03*
X027767Y016269D03*
X028267Y016207D03*
X028767Y016207D03*
X029142Y015957D03*
X029642Y016144D03*
X029142Y015519D03*
X029142Y015019D03*
X029642Y015019D03*
X030017Y014769D03*
X030017Y014269D03*
X030392Y013894D03*
X030642Y013394D03*
X030642Y012894D03*
X029892Y012769D03*
X029767Y012269D03*
X029392Y011894D03*
X029017Y011519D03*
X028892Y011019D03*
X028892Y010519D03*
X028517Y010144D03*
X028267Y009769D03*
X028017Y009394D03*
X027517Y009394D03*
X027017Y009394D03*
X026517Y009394D03*
X026017Y009394D03*
X026017Y010144D03*
X026517Y010144D03*
X027517Y010144D03*
X028017Y010144D03*
X029267Y009644D03*
X028892Y009269D03*
X028517Y008894D03*
X028142Y008644D03*
X027642Y008644D03*
X027142Y008644D03*
X026642Y008644D03*
X026142Y008644D03*
X025642Y008644D03*
X025142Y008644D03*
X024642Y008644D03*
X024142Y008644D03*
X023642Y008644D03*
X023267Y009019D03*
X022767Y008769D03*
X022267Y008769D03*
X021767Y008769D03*
X021267Y008769D03*
X021767Y008019D03*
X022142Y007644D03*
X022392Y007269D03*
X022892Y007269D03*
X023392Y007269D03*
X023892Y007269D03*
X024267Y007019D03*
X024267Y006519D03*
X024267Y006019D03*
X023767Y005769D03*
X023267Y005894D03*
X022642Y005894D03*
X021267Y006144D03*
X020142Y006269D03*
X020142Y005769D03*
X019017Y005769D03*
X017767Y006019D03*
X016642Y005769D03*
X016142Y005894D03*
X015642Y005644D03*
X015267Y005269D03*
X014892Y004894D03*
X014642Y004519D03*
X014267Y004269D03*
X014642Y004019D03*
X013767Y004269D03*
X013767Y005144D03*
X012767Y005144D03*
X011767Y005144D03*
X010767Y005144D03*
X009767Y005144D03*
X008767Y005144D03*
X007767Y005144D03*
X006767Y005144D03*
X007767Y004144D03*
X008767Y004144D03*
X007767Y003144D03*
X007767Y002144D03*
X008392Y001519D03*
X008892Y001519D03*
X008892Y001019D03*
X009392Y000519D03*
X010017Y000519D03*
X010642Y000519D03*
X011267Y000519D03*
X012017Y000519D03*
X013017Y000519D03*
X014017Y000519D03*
X015017Y000519D03*
X016017Y000519D03*
X017017Y000519D03*
X017642Y000519D03*
X019892Y002394D03*
X020517Y003269D03*
X020080Y003519D03*
X019580Y003519D03*
X019080Y003519D03*
X017642Y003644D03*
X017642Y003144D03*
X016642Y003394D03*
X016642Y003894D03*
X017342Y004269D03*
X017917Y004669D03*
X018392Y004519D03*
X017767Y005144D03*
X016642Y004394D03*
X016517Y004894D03*
X014767Y006144D03*
X013767Y006144D03*
X012767Y006144D03*
X011767Y006144D03*
X010767Y006144D03*
X009767Y006144D03*
X008767Y006144D03*
X007767Y006144D03*
X006767Y006144D03*
X005767Y006144D03*
X005017Y005894D03*
X005017Y005019D03*
X005017Y006769D03*
X005767Y007144D03*
X005017Y007644D03*
X006517Y007644D03*
X006767Y007144D03*
X007142Y007644D03*
X007767Y007144D03*
X008142Y007644D03*
X008767Y007144D03*
X009142Y007644D03*
X009767Y007144D03*
X010142Y007644D03*
X010767Y007144D03*
X011142Y007644D03*
X011767Y007144D03*
X012142Y007644D03*
X012767Y007144D03*
X013892Y007644D03*
X016017Y007519D03*
X017517Y007519D03*
X018267Y007019D03*
X020267Y007019D03*
X020517Y007519D03*
X021267Y007019D03*
X022767Y008019D03*
X023767Y008019D03*
X024642Y007644D03*
X025642Y007644D03*
X026642Y007644D03*
X027642Y007644D03*
X028642Y007644D03*
X029642Y007644D03*
X030642Y007644D03*
X030642Y006644D03*
X029642Y006644D03*
X029642Y005644D03*
X030642Y005644D03*
X030642Y004644D03*
X029642Y004644D03*
X028642Y004644D03*
X027642Y004644D03*
X026767Y004394D03*
X026017Y005144D03*
X025642Y005644D03*
X024767Y005019D03*
X024267Y005019D03*
X024267Y005519D03*
X024267Y004519D03*
X023767Y004269D03*
X023267Y004269D03*
X022767Y004269D03*
X022017Y004144D03*
X022017Y003707D03*
X022017Y003269D03*
X021517Y003269D03*
X021017Y003269D03*
X021267Y002519D03*
X021642Y002519D03*
X022642Y002519D03*
X023642Y002519D03*
X024392Y003144D03*
X023642Y003519D03*
X022767Y003519D03*
X021517Y004269D03*
X021392Y004707D03*
X021267Y005144D03*
X020770Y004394D03*
X020395Y004144D03*
X020203Y004583D03*
X019517Y004519D03*
X016017Y003144D03*
X014892Y003144D03*
X014642Y003519D03*
X012767Y003144D03*
X011767Y003144D03*
X010767Y003144D03*
X009767Y003144D03*
X011767Y002144D03*
X011892Y001519D03*
X012767Y002144D03*
X012767Y004144D03*
X011767Y004144D03*
X007017Y001519D03*
X006767Y002144D03*
X006017Y001519D03*
X005767Y002144D03*
X005017Y001644D03*
X005017Y002769D03*
X005017Y000519D03*
X006017Y000519D03*
X007017Y000519D03*
X008017Y000519D03*
X000642Y008019D03*
X000642Y009144D03*
X001642Y009144D03*
X001892Y009769D03*
X000642Y010144D03*
X000642Y011144D03*
X001517Y011644D03*
X000642Y012144D03*
X003642Y014144D03*
X003642Y015144D03*
X004642Y015144D03*
X005392Y014519D03*
X006517Y014769D03*
X005642Y013769D03*
X005330Y013019D03*
X010267Y010519D03*
X010267Y010019D03*
X013517Y011894D03*
X013142Y012269D03*
X013767Y011269D03*
X015017Y011144D03*
X015517Y011144D03*
X016017Y011144D03*
X016517Y011144D03*
X017017Y011144D03*
X017517Y011144D03*
X018017Y011144D03*
X018517Y011207D03*
X019017Y011519D03*
X019517Y011644D03*
X020017Y011644D03*
X020517Y012019D03*
X021017Y012144D03*
X021017Y012644D03*
X021517Y012644D03*
X021517Y013144D03*
X021017Y013144D03*
X020517Y013644D03*
X021017Y013769D03*
X021642Y013769D03*
X022267Y013769D03*
X023017Y014394D03*
X023517Y012894D03*
X023767Y012519D03*
X024142Y012894D03*
X024642Y012519D03*
X024892Y012144D03*
X025267Y012519D03*
X025892Y012519D03*
X026517Y011644D03*
X027142Y011644D03*
X027392Y012644D03*
X027642Y013019D03*
X029767Y013269D03*
X030642Y012394D03*
X030642Y011894D03*
X029892Y011644D03*
X030642Y011394D03*
X030642Y010894D03*
X030642Y010394D03*
X030142Y010144D03*
X029642Y010019D03*
X030642Y009644D03*
X030642Y008644D03*
X029642Y008644D03*
X027642Y006644D03*
X026642Y006644D03*
X025642Y006644D03*
X026642Y005644D03*
X027642Y005644D03*
X027642Y003644D03*
X026767Y003394D03*
X026642Y002519D03*
X027642Y002519D03*
X027642Y001519D03*
X026642Y001519D03*
X025642Y001519D03*
X024642Y001519D03*
X023642Y001519D03*
X022642Y001519D03*
X021642Y001519D03*
X021642Y000519D03*
X022642Y000519D03*
X023642Y000519D03*
X024642Y000519D03*
X025642Y000519D03*
X026642Y000519D03*
X027642Y000519D03*
X025642Y002519D03*
X024642Y002519D03*
X028642Y003644D03*
X029642Y003644D03*
X030642Y003644D03*
X020392Y010144D03*
X020892Y010644D03*
X021267Y011019D03*
X021767Y011519D03*
X022017Y012019D03*
X022642Y012144D03*
X023017Y012644D03*
X022570Y012697D03*
X024267Y012144D03*
X024267Y011644D03*
X024267Y011144D03*
X024767Y011144D03*
X024892Y011644D03*
X024767Y010519D03*
X024267Y010519D03*
X022642Y011144D03*
X022642Y011644D03*
X019392Y011019D03*
X018892Y010519D03*
X017892Y010519D03*
X016892Y010519D03*
X016142Y010519D03*
X015392Y010394D03*
X015642Y009769D03*
X016142Y009519D03*
X015642Y009144D03*
X017892Y009394D03*
X018892Y009019D03*
X019392Y009269D03*
X018142Y008394D03*
X018642Y011894D03*
X019142Y012144D03*
X020767Y014269D03*
X020517Y014644D03*
X024142Y017269D03*
X024642Y017269D03*
X025642Y017269D03*
X026642Y017269D03*
X027642Y017269D03*
X027642Y018269D03*
X026642Y018269D03*
X025642Y018269D03*
X024642Y018269D03*
X023642Y018269D03*
X022642Y018269D03*
X021642Y018269D03*
X021642Y019269D03*
X022642Y019269D03*
X023642Y019269D03*
X024642Y019269D03*
X025642Y019269D03*
X026642Y019269D03*
X027642Y019269D03*
X030642Y016144D03*
X030642Y015144D03*
X028142Y014644D03*
X020642Y019269D03*
X019642Y019269D03*
X018642Y019269D03*
X017642Y019269D03*
X019142Y017519D03*
X008642Y019269D03*
D40*
X010341Y017832D02*
X010392Y017780D01*
X009642Y014104D02*
X008903Y014104D01*
X008818Y014019D02*
X008818Y013695D01*
X008602Y013479D01*
X008602Y013269D01*
X008602Y012934D01*
X008767Y012769D01*
X008767Y012521D01*
X008765Y012519D01*
X011267Y013269D02*
X011642Y013269D01*
X011642Y012769D02*
X011392Y012769D01*
X012667Y009019D02*
X012667Y007244D01*
X012767Y007144D01*
X013867Y007669D02*
X013892Y007644D01*
X013867Y007669D02*
X013867Y009019D01*
X019392Y009269D02*
X019767Y009644D01*
X020057Y009644D01*
X015012Y002475D02*
X015012Y002264D01*
X006392Y007144D02*
X005267Y008269D01*
X004642Y008894D01*
X004642Y009750D01*
D41*
X004201Y009750D01*
X004142Y009809D01*
X004142Y010479D02*
X004201Y010538D01*
X004642Y010538D01*
X005591Y009769D02*
X005852Y009508D01*
X005642Y009769D02*
X005642Y011394D01*
X005466Y011570D01*
X005466Y011519D01*
X006348Y011792D02*
X006348Y012042D01*
X006598Y012292D01*
X006598Y012519D01*
X006892Y012519D01*
X007348Y012542D01*
X007348Y011792D01*
X006348Y011792D01*
X006348Y011796D02*
X007348Y011796D01*
X007348Y011955D02*
X006348Y011955D01*
X006420Y012113D02*
X007348Y012113D01*
X007348Y012272D02*
X006578Y012272D01*
X006598Y012430D02*
X007348Y012430D01*
X007269Y012519D02*
X007159Y012629D01*
X006615Y012629D01*
X005670Y012629D02*
X004947Y012629D01*
X004892Y012684D01*
X004642Y012434D01*
X004642Y011979D01*
X002642Y010894D02*
X001932Y010894D01*
X001892Y010854D01*
X001892Y010184D02*
X001892Y009769D01*
X002267Y008894D02*
X002392Y008894D01*
X002642Y008644D01*
X002642Y008519D01*
X002624Y008626D02*
X002660Y008626D01*
X002642Y008644D02*
X002767Y008519D01*
X002767Y007810D01*
X002517Y007810D01*
X002517Y008519D01*
X002642Y008644D01*
X002517Y008468D02*
X002767Y008468D01*
X002767Y008309D02*
X002517Y008309D01*
X002517Y008151D02*
X002767Y008151D01*
X002767Y007992D02*
X002517Y007992D01*
X002517Y007834D02*
X002767Y007834D01*
X003517Y007834D02*
X003767Y007834D01*
X003767Y007810D02*
X003517Y007810D01*
X003517Y008519D01*
X003642Y008644D01*
X003767Y008519D01*
X003767Y007810D01*
X003767Y007992D02*
X003517Y007992D01*
X003517Y008151D02*
X003767Y008151D01*
X003767Y008309D02*
X003517Y008309D01*
X003642Y008269D02*
X005267Y008269D01*
X003767Y008468D02*
X003517Y008468D01*
X003624Y008626D02*
X003660Y008626D01*
X007223Y011044D02*
X007223Y011207D01*
X007223Y011044D02*
X007848Y010419D01*
X007892Y010271D02*
X008642Y010271D01*
X009408Y011004D02*
X009767Y011004D01*
X009767Y010894D02*
X009517Y010894D01*
X008892Y011519D01*
X008892Y011894D01*
X009017Y012019D01*
X009642Y012019D01*
X009767Y011894D01*
X009767Y010894D01*
X009767Y011162D02*
X009249Y011162D01*
X009091Y011321D02*
X009767Y011321D01*
X009767Y011479D02*
X008932Y011479D01*
X008892Y011638D02*
X009767Y011638D01*
X009767Y011796D02*
X008892Y011796D01*
X008953Y011955D02*
X009707Y011955D01*
X010341Y011394D02*
X010392Y011343D01*
X010392Y011144D01*
X010807Y010729D01*
X010807Y010519D01*
X010807Y010019D01*
X011477Y010519D02*
X011477Y011361D01*
X011443Y011394D01*
X011227Y011611D01*
X011227Y012269D01*
X011227Y012769D01*
X011642Y012769D01*
X011227Y013269D02*
X011227Y013769D01*
X011227Y014428D01*
X011443Y014644D01*
X011477Y014678D01*
X011477Y015519D01*
X010807Y015519D02*
X010807Y015434D01*
X010392Y015019D01*
X010392Y014695D01*
X010341Y014644D01*
X010341Y014343D01*
X010267Y014269D01*
X009807Y014269D01*
X009642Y014104D01*
X009642Y014729D01*
X009602Y014769D01*
X009602Y015269D01*
X008932Y015269D02*
X008352Y015269D01*
X008352Y014769D01*
X008892Y014769D01*
X008932Y014769D02*
X008932Y015269D01*
X007682Y015269D02*
X007682Y015769D01*
X007682Y014769D02*
X007017Y014769D01*
X006615Y014367D01*
X006615Y013409D01*
X005670Y013409D02*
X005642Y013436D01*
X005642Y013769D01*
X002642Y013644D02*
X001932Y013644D01*
X001892Y013604D01*
X001892Y012934D02*
X001892Y012519D01*
X008818Y014019D02*
X008903Y014104D01*
X010341Y011394D02*
X010142Y011195D01*
X009517Y011195D01*
X012517Y011269D02*
X012517Y010712D01*
X012768Y010461D01*
X012768Y009808D01*
X012807Y009769D01*
X013267Y009394D02*
X013267Y009019D01*
X013267Y009394D02*
X013477Y009604D01*
X013477Y009769D01*
X013516Y009808D01*
X013516Y010461D01*
X014143Y010461D02*
X014143Y010103D01*
X014517Y009729D01*
X015017Y009729D01*
X015017Y009059D02*
X015017Y008394D01*
X014767Y008144D01*
X014767Y007019D01*
X015517Y006269D01*
X015642Y006519D02*
X015017Y007144D01*
X015017Y007894D01*
X016517Y009394D01*
X016517Y009894D01*
X016892Y009644D02*
X016892Y009394D01*
X015267Y007769D01*
X015267Y007269D01*
X015820Y006716D01*
X015998Y006913D02*
X015517Y007394D01*
X015517Y007644D01*
X015892Y008019D01*
X016432Y008019D01*
X016432Y008559D01*
X018142Y010269D01*
X018392Y010269D01*
X018331Y009019D02*
X017517Y009019D01*
X017767Y008644D02*
X017892Y008769D01*
X018267Y008769D01*
X018456Y008580D01*
X017142Y008019D02*
X017142Y007559D01*
X017142Y008019D02*
X017102Y008019D01*
X016432Y007519D02*
X016017Y007519D01*
X020307Y008269D02*
X020392Y008354D01*
X020392Y008519D01*
X020892Y009019D01*
X020892Y009144D01*
X020977Y008269D02*
X020977Y007563D01*
X020932Y007519D01*
X022219Y006059D02*
X022795Y006635D01*
X022219Y006059D02*
X022017Y006059D01*
X022182Y005519D02*
X022017Y005354D01*
X022182Y005519D02*
X023267Y005519D01*
X023740Y005047D01*
X023740Y004903D01*
X019892Y002394D02*
X019892Y001357D01*
X011892Y001519D02*
X011852Y001519D01*
X011352Y001019D01*
X023557Y009229D02*
X023767Y009019D01*
X024642Y009019D01*
X028142Y009019D01*
X029432Y010309D01*
X029432Y010644D01*
X030102Y010644D02*
X030102Y011144D01*
X030267Y011309D01*
X030267Y013394D01*
X029852Y013809D01*
X029517Y013809D01*
X029477Y013769D01*
X028666Y013769D01*
X028666Y013269D02*
X028017Y013269D01*
X027767Y013519D01*
X027767Y015059D01*
X027267Y015059D02*
X027267Y014644D01*
X027392Y014519D01*
X027392Y013519D01*
X027142Y013269D01*
X026619Y013269D01*
X026142Y013269D01*
X025932Y013059D01*
X025767Y013059D01*
X025267Y013059D01*
X024767Y013059D02*
X024727Y013059D01*
X024517Y013269D01*
X023767Y013269D01*
X023557Y013479D01*
X023557Y013769D01*
X023557Y014269D01*
X023416Y014411D01*
X023416Y014894D01*
X023416Y015394D02*
X024017Y015394D01*
X024267Y015144D01*
X024267Y014309D01*
X024227Y014269D01*
X024227Y013769D01*
X024767Y013729D02*
X025267Y013729D01*
X025767Y013729D01*
X025807Y013769D01*
X026619Y013769D01*
X026619Y012769D02*
X026557Y012708D01*
X026557Y012144D01*
X026557Y011684D01*
X026517Y011644D01*
X026557Y011144D02*
X026557Y010644D01*
X026517Y010604D01*
X026517Y010144D01*
X025547Y010089D02*
X025477Y010019D01*
X025477Y009519D01*
X025547Y010089D02*
X025547Y010644D01*
X025547Y011144D02*
X026557Y011144D01*
X027227Y011144D02*
X027847Y011144D01*
X027847Y010644D01*
X028437Y010644D02*
X028437Y011144D01*
X028477Y011183D01*
X028477Y011644D01*
X028477Y012144D01*
X029142Y012144D01*
X029517Y012519D01*
X029517Y013019D01*
X029267Y013269D01*
X028666Y013269D01*
X028666Y012769D02*
X028142Y012769D01*
X027807Y012434D01*
X027807Y012144D01*
X027807Y011644D01*
X027807Y011183D01*
X027847Y011144D01*
X024807Y009519D02*
X024807Y009184D01*
X024642Y009019D01*
X023557Y009229D02*
X023557Y009519D01*
X023557Y010019D01*
X023487Y010089D01*
X023487Y010644D01*
X023487Y011144D02*
X022642Y011144D01*
X022642Y011644D02*
X023487Y011644D01*
X023487Y012144D02*
X022642Y012144D01*
X023517Y012894D02*
X023320Y013091D01*
X023267Y013091D01*
X022464Y013091D01*
X023017Y013184D02*
X023111Y013091D01*
X024227Y014269D02*
X024807Y014269D01*
X027267Y015729D02*
X027767Y015729D01*
X028642Y015059D02*
X028642Y015019D01*
X029142Y015019D01*
X028642Y015019D02*
X028642Y014269D01*
X028666Y014269D01*
X023767Y017019D02*
X023392Y017019D01*
X023416Y016995D01*
X023416Y016394D01*
X023416Y016955D01*
X023352Y017019D01*
X020517Y017394D02*
X020517Y015854D01*
X020017Y015350D02*
X020182Y015184D01*
X020017Y015019D01*
X020017Y014604D01*
X020182Y015184D02*
X020517Y015184D01*
X020017Y015350D02*
X020017Y016519D01*
X020091Y016593D01*
X019883Y016593D01*
X019517Y016019D02*
X019267Y016269D01*
X019267Y017019D01*
X019943Y017695D01*
X019883Y017695D01*
X019934Y017644D01*
X020267Y017644D01*
X020517Y017394D01*
X019267Y017019D02*
X019142Y017144D01*
X018151Y017144D01*
X017642Y016519D02*
X017642Y016019D01*
X017666Y015995D01*
X017666Y015394D01*
X017666Y015958D01*
X017727Y016019D01*
X017666Y014894D02*
X017142Y014894D01*
X016892Y014644D01*
X016892Y012854D01*
X016807Y012769D01*
X016227Y012769D01*
X015557Y012769D02*
X015142Y012769D01*
X014807Y013104D01*
X014807Y014059D01*
X014767Y014059D01*
X014267Y014059D01*
X014807Y014059D02*
X015142Y014394D01*
X015619Y014394D01*
X015619Y013894D02*
X015619Y013330D01*
X015557Y013269D01*
X015142Y013269D01*
X014767Y014729D02*
X014267Y014729D01*
X013767Y014729D01*
X014767Y014729D02*
X014932Y014894D01*
X015619Y014894D01*
X015619Y015394D02*
X015619Y015955D01*
X015682Y016019D01*
X016902Y017912D02*
X017611Y017912D01*
X019517Y016019D02*
X019517Y015854D01*
X021369Y014894D02*
X021369Y014330D01*
X021307Y014269D01*
X020767Y014269D01*
X020017Y012894D02*
X019807Y012894D01*
X019767Y012854D01*
X019727Y012894D01*
X019017Y012894D01*
X014517Y011327D02*
X013825Y011327D01*
X013767Y011269D01*
X022693Y009644D02*
X022807Y009530D01*
X022807Y009519D01*
X010341Y017832D02*
X010069Y017559D01*
D42*
X009594Y018180D02*
X009191Y018180D01*
X009191Y018277D01*
X009489Y018277D01*
X009594Y018277D01*
X009594Y018595D01*
X009426Y018595D01*
X009392Y018586D01*
X009359Y018595D01*
X009191Y018595D01*
X009191Y018277D01*
X009094Y018277D01*
X009094Y018595D01*
X008926Y018595D01*
X008887Y018585D01*
X008853Y018565D01*
X008825Y018537D01*
X008805Y018503D01*
X008795Y018465D01*
X008795Y018277D01*
X009094Y018277D01*
X009094Y018180D01*
X008795Y018180D01*
X008795Y017992D01*
X008805Y017954D01*
X008825Y017920D01*
X008851Y017894D01*
X008795Y017838D01*
X008795Y017281D01*
X008872Y017204D01*
X008872Y017090D01*
X008913Y016991D01*
X008989Y016915D01*
X009239Y016665D01*
X009338Y016624D01*
X011280Y016624D01*
X011864Y016040D01*
X011963Y015999D01*
X012280Y015999D01*
X012372Y015907D01*
X012372Y013084D01*
X012295Y013007D01*
X012295Y012450D01*
X012351Y012394D01*
X012295Y012338D01*
X012295Y011781D01*
X012383Y011693D01*
X012405Y011693D01*
X012413Y011674D01*
X012489Y011598D01*
X012510Y011578D01*
X012456Y011578D01*
X012342Y011531D01*
X012256Y011444D01*
X012209Y011330D01*
X012209Y011208D01*
X012256Y011094D01*
X012287Y011063D01*
X012287Y010617D01*
X012421Y010483D01*
X012421Y010123D01*
X012479Y010066D01*
X012441Y010028D01*
X012441Y009510D01*
X012467Y009484D01*
X012375Y009484D01*
X012287Y009396D01*
X012287Y008642D01*
X012357Y008572D01*
X012357Y007469D01*
X006506Y007469D01*
X005530Y008445D01*
X004952Y009023D01*
X004952Y009426D01*
X005059Y009319D01*
X005160Y009319D01*
X005214Y009265D01*
X005968Y009265D01*
X006056Y009353D01*
X006056Y009387D01*
X006082Y009413D01*
X006082Y009604D01*
X006056Y009629D01*
X006056Y010186D01*
X006008Y010233D01*
X006178Y010233D01*
X006178Y010532D01*
X006275Y010532D01*
X006275Y010233D01*
X006276Y010233D01*
X006258Y010216D01*
X006239Y010181D01*
X006228Y010143D01*
X006228Y009819D01*
X006643Y009819D01*
X006643Y009719D01*
X006228Y009719D01*
X006228Y009395D01*
X006239Y009357D01*
X006258Y009323D01*
X006286Y009295D01*
X006320Y009275D01*
X006359Y009265D01*
X006643Y009265D01*
X006643Y009719D01*
X006743Y009719D01*
X006743Y009265D01*
X007028Y009265D01*
X007066Y009275D01*
X007100Y009295D01*
X007128Y009323D01*
X007148Y009357D01*
X007158Y009395D01*
X007158Y009719D01*
X006743Y009719D01*
X006743Y009819D01*
X006643Y009819D01*
X006643Y010273D01*
X006545Y010273D01*
X006563Y010291D01*
X006583Y010326D01*
X006593Y010364D01*
X006593Y010532D01*
X006275Y010532D01*
X006275Y010629D01*
X006593Y010629D01*
X006593Y010797D01*
X006583Y010835D01*
X006582Y010838D01*
X006945Y010838D01*
X006956Y010849D01*
X006964Y010840D01*
X007101Y010840D01*
X007128Y010814D01*
X007467Y010475D01*
X007467Y009933D01*
X007554Y009845D01*
X008230Y009845D01*
X008267Y009883D01*
X008304Y009845D01*
X008980Y009845D01*
X009013Y009878D01*
X009013Y009758D01*
X009023Y009720D01*
X009043Y009686D01*
X009071Y009658D01*
X009105Y009638D01*
X009143Y009628D01*
X009467Y009628D01*
X009467Y009744D01*
X009547Y009664D01*
X009567Y009664D01*
X009567Y009628D01*
X009891Y009628D01*
X009929Y009638D01*
X009964Y009658D01*
X009991Y009686D01*
X010011Y009720D01*
X010021Y009758D01*
X010021Y010043D01*
X009944Y010043D01*
X009862Y010124D01*
X009567Y010124D01*
X009567Y010143D01*
X009467Y010143D01*
X009467Y010558D01*
X009143Y010558D01*
X009105Y010548D01*
X009071Y010528D01*
X009068Y010525D01*
X009068Y010609D01*
X008980Y010697D01*
X008304Y010697D01*
X008267Y010659D01*
X008230Y010697D01*
X007896Y010697D01*
X007570Y011022D01*
X007570Y011349D01*
X007597Y011342D01*
X007842Y011342D01*
X007842Y011717D01*
X007942Y011717D01*
X007942Y011342D01*
X008187Y011342D01*
X008226Y011352D01*
X008260Y011372D01*
X008274Y011372D01*
X008267Y011379D02*
X008304Y011342D01*
X008744Y011342D01*
X009013Y011073D01*
X009013Y010818D01*
X009101Y010730D01*
X009356Y010730D01*
X009422Y010664D01*
X009862Y010664D01*
X009929Y010730D01*
X009934Y010730D01*
X009940Y010737D01*
X009964Y010713D01*
X010441Y010713D01*
X010441Y009760D01*
X010529Y009672D01*
X011086Y009672D01*
X011142Y009728D01*
X011168Y009702D01*
X011202Y009682D01*
X011240Y009672D01*
X011428Y009672D01*
X011428Y009971D01*
X011525Y009971D01*
X011525Y010068D01*
X011843Y010068D01*
X011843Y010236D01*
X011838Y010255D01*
X011843Y010260D01*
X011843Y010736D01*
X011908Y010800D01*
X011908Y011988D01*
X011820Y012076D01*
X011593Y012076D01*
X011593Y012459D01*
X011704Y012459D01*
X011818Y012506D01*
X011905Y012593D01*
X011952Y012707D01*
X011952Y012831D01*
X011905Y012945D01*
X011831Y013019D01*
X011905Y013093D01*
X011952Y013207D01*
X011952Y013331D01*
X011905Y013445D01*
X011818Y013532D01*
X011704Y013579D01*
X011593Y013579D01*
X011593Y013963D01*
X011820Y013963D01*
X011908Y014050D01*
X011908Y015238D01*
X011843Y015303D01*
X011843Y015778D01*
X011755Y015866D01*
X011198Y015866D01*
X011142Y015810D01*
X011086Y015866D01*
X010529Y015866D01*
X010441Y015778D01*
X010441Y015393D01*
X010373Y015326D01*
X009968Y015326D01*
X009968Y015528D01*
X009880Y015616D01*
X009323Y015616D01*
X009267Y015560D01*
X009211Y015616D01*
X008718Y015616D01*
X008718Y015721D01*
X008400Y015721D01*
X008400Y015818D01*
X008303Y015818D01*
X008303Y016116D01*
X008115Y016116D01*
X008077Y016106D01*
X008043Y016086D01*
X008017Y016060D01*
X007961Y016116D01*
X007404Y016116D01*
X007316Y016028D01*
X007316Y014999D01*
X006922Y014999D01*
X006787Y014864D01*
X006385Y014462D01*
X006385Y013697D01*
X006356Y013697D01*
X006268Y013609D01*
X006268Y013209D01*
X006275Y013202D01*
X006268Y013177D01*
X006268Y013038D01*
X006596Y013038D01*
X006596Y013000D01*
X006268Y013000D01*
X006268Y012862D01*
X006275Y012836D01*
X006268Y012829D01*
X006268Y012469D01*
X006237Y012499D01*
X006017Y012499D01*
X006017Y012829D01*
X005929Y012917D01*
X005411Y012917D01*
X005353Y012859D01*
X005239Y012859D01*
X005239Y012963D01*
X005183Y013019D01*
X005209Y013045D01*
X005229Y013079D01*
X005239Y013117D01*
X005239Y013305D01*
X004941Y013305D01*
X004941Y013402D01*
X005239Y013402D01*
X005239Y013590D01*
X005229Y013628D01*
X005209Y013662D01*
X005181Y013690D01*
X005147Y013710D01*
X005109Y013720D01*
X004941Y013720D01*
X004941Y013402D01*
X004844Y013402D01*
X004844Y013720D01*
X004676Y013720D01*
X004637Y013710D01*
X004603Y013690D01*
X004575Y013662D01*
X004555Y013628D01*
X004545Y013590D01*
X004545Y013402D01*
X004844Y013402D01*
X004844Y013305D01*
X004545Y013305D01*
X004545Y013117D01*
X004555Y013079D01*
X004575Y013045D01*
X004601Y013019D01*
X004545Y012963D01*
X004545Y012663D01*
X004418Y012535D01*
X004404Y012569D01*
X004317Y012656D01*
X004203Y012703D01*
X004081Y012703D01*
X003967Y012656D01*
X003881Y012569D01*
X003834Y012455D01*
X002199Y012455D01*
X002201Y012458D02*
X002201Y012580D01*
X002190Y012607D01*
X002239Y012656D01*
X002239Y013213D01*
X002183Y013269D01*
X002239Y013325D01*
X002239Y013411D01*
X002456Y013194D01*
X002829Y013194D01*
X003092Y013458D01*
X003092Y013830D01*
X002829Y014094D01*
X002456Y014094D01*
X002239Y013877D01*
X002239Y013882D01*
X002151Y013970D01*
X001633Y013970D01*
X001545Y013882D01*
X001545Y013325D01*
X001601Y013269D01*
X001545Y013213D01*
X001545Y012656D01*
X001595Y012607D01*
X001584Y012580D01*
X001584Y012458D01*
X001631Y012344D01*
X001717Y012258D01*
X000438Y012258D01*
X000438Y012160D02*
X002271Y012160D01*
X002192Y012080D02*
X002192Y011924D01*
X002612Y011924D01*
X002612Y011864D01*
X002192Y011864D01*
X002192Y011708D01*
X002456Y011444D01*
X002612Y011444D01*
X002612Y011864D01*
X002672Y011864D01*
X002672Y011444D01*
X002829Y011444D01*
X003092Y011708D01*
X003092Y011864D01*
X002672Y011864D01*
X002672Y011924D01*
X002612Y011924D01*
X002612Y012344D01*
X002456Y012344D01*
X002192Y012080D01*
X002192Y012061D02*
X000438Y012061D01*
X000438Y011963D02*
X002192Y011963D01*
X002192Y011766D02*
X000438Y011766D01*
X000438Y011864D02*
X002612Y011864D01*
X002672Y011864D02*
X003795Y011864D01*
X003795Y011766D02*
X003092Y011766D01*
X003052Y011667D02*
X003828Y011667D01*
X003851Y011644D02*
X003825Y011618D01*
X003805Y011584D01*
X003795Y011546D01*
X003795Y011358D01*
X004094Y011358D01*
X004094Y011261D01*
X004191Y011261D01*
X004191Y010943D01*
X004317Y010943D01*
X004317Y010845D01*
X003883Y010845D01*
X003795Y010757D01*
X003795Y010200D01*
X003851Y010144D01*
X003795Y010088D01*
X003795Y009531D01*
X003883Y009443D01*
X004332Y009443D01*
X004332Y008832D01*
X004379Y008718D01*
X004599Y008499D01*
X003997Y008499D01*
X003997Y008614D01*
X003862Y008749D01*
X003737Y008874D01*
X003547Y008874D01*
X003422Y008749D01*
X003287Y008614D01*
X003287Y007780D01*
X002997Y007780D01*
X002997Y008614D01*
X002872Y008739D01*
X002487Y009124D01*
X002476Y009124D01*
X002443Y009157D01*
X002329Y009204D01*
X002205Y009204D01*
X002092Y009157D01*
X002004Y009070D01*
X001957Y008956D01*
X001957Y008832D01*
X002004Y008718D01*
X002092Y008631D01*
X002205Y008584D01*
X002287Y008584D01*
X002287Y007780D01*
X000438Y007780D01*
X000438Y016339D01*
X003401Y016339D01*
X003489Y016426D01*
X003489Y019390D01*
X027795Y019390D01*
X027795Y016426D01*
X027883Y016339D01*
X030846Y016339D01*
X030846Y003450D01*
X027883Y003450D01*
X027795Y003362D01*
X027795Y000398D01*
X021163Y000398D01*
X021161Y000402D01*
X021155Y000409D01*
X021155Y002253D01*
X021053Y002465D01*
X020869Y002611D01*
X020869Y002611D01*
X020640Y002664D01*
X020411Y002611D01*
X020227Y002465D01*
X020227Y002465D01*
X020227Y002465D01*
X020207Y002423D01*
X019602Y002423D01*
X019602Y002856D01*
X019479Y002979D01*
X018808Y003651D01*
X019312Y003651D01*
X019312Y003726D01*
X019312Y003726D01*
X019312Y003726D01*
X019312Y003651D01*
X019903Y003651D01*
X020221Y003651D01*
X020287Y003716D01*
X020317Y003686D01*
X020434Y003569D01*
X020441Y003569D01*
X020441Y003510D01*
X020529Y003422D01*
X021086Y003422D01*
X021142Y003478D01*
X021168Y003452D01*
X021202Y003432D01*
X021240Y003422D01*
X021428Y003422D01*
X021428Y003721D01*
X021525Y003721D01*
X021525Y003818D01*
X021428Y003818D01*
X021428Y004116D01*
X021240Y004116D01*
X021217Y004110D01*
X021217Y004602D01*
X021136Y004683D01*
X021136Y005264D01*
X021350Y005264D01*
X021470Y005144D01*
X021670Y005144D01*
X021670Y005075D01*
X021726Y005019D01*
X021700Y004993D01*
X021680Y004959D01*
X021670Y004921D01*
X021670Y004733D01*
X021969Y004733D01*
X021969Y004636D01*
X022066Y004636D01*
X022066Y004733D01*
X022364Y004733D01*
X022364Y004914D01*
X022745Y004914D01*
X022745Y004853D01*
X022845Y004853D01*
X022845Y004914D01*
X023314Y004914D01*
X023314Y004467D01*
X023402Y004379D01*
X024077Y004379D01*
X024165Y004467D01*
X024165Y005339D01*
X024077Y005427D01*
X023685Y005427D01*
X023497Y005614D01*
X023362Y005749D01*
X022332Y005749D01*
X022364Y005781D01*
X022364Y005879D01*
X022596Y006111D01*
X023132Y006111D01*
X023220Y006199D01*
X023220Y007071D01*
X023132Y007159D01*
X022457Y007159D01*
X022369Y007071D01*
X022369Y006749D01*
X022172Y006749D01*
X022103Y006680D01*
X022066Y006680D01*
X022066Y006777D01*
X022364Y006777D01*
X022364Y006965D01*
X022354Y007003D01*
X022334Y007037D01*
X022306Y007065D01*
X022272Y007085D01*
X022234Y007095D01*
X022066Y007095D01*
X022066Y006777D01*
X021969Y006777D01*
X021969Y007095D01*
X021801Y007095D01*
X021762Y007085D01*
X021728Y007065D01*
X021700Y007037D01*
X021680Y007003D01*
X021670Y006965D01*
X021670Y006777D01*
X021969Y006777D01*
X021969Y006680D01*
X021670Y006680D01*
X021670Y006492D01*
X021680Y006454D01*
X021700Y006420D01*
X021726Y006394D01*
X021670Y006338D01*
X021670Y006219D01*
X021576Y006125D01*
X021576Y006205D01*
X021529Y006319D01*
X021442Y006406D01*
X021328Y006453D01*
X021206Y006453D01*
X021136Y006423D01*
X021136Y006973D01*
X021048Y007061D01*
X020530Y007061D01*
X020442Y006973D01*
X020442Y006461D01*
X020386Y006461D01*
X020317Y006531D01*
X020203Y006578D01*
X020081Y006578D01*
X019967Y006531D01*
X019881Y006444D01*
X019834Y006330D01*
X019834Y006208D01*
X019881Y006094D01*
X019967Y006008D01*
X020081Y005961D01*
X020203Y005961D01*
X020317Y006008D01*
X020370Y006061D01*
X020442Y006061D01*
X020442Y004886D01*
X020328Y004886D01*
X020322Y004892D01*
X020145Y004892D01*
X020144Y004891D01*
X020142Y004891D01*
X020029Y004844D01*
X019942Y004758D01*
X019895Y004644D01*
X019895Y004521D01*
X019900Y004510D01*
X019900Y004344D01*
X019312Y004344D01*
X018075Y004344D01*
X018142Y004411D01*
X018142Y004458D01*
X018179Y004494D01*
X018226Y004608D01*
X018226Y004730D01*
X018179Y004844D01*
X018092Y004931D01*
X017978Y004978D01*
X017856Y004978D01*
X017742Y004931D01*
X017706Y004894D01*
X017592Y004894D01*
X017592Y006973D01*
X017504Y007061D01*
X016986Y007061D01*
X016977Y007052D01*
X016185Y007052D01*
X015747Y007489D01*
X015747Y007549D01*
X015987Y007789D01*
X016066Y007789D01*
X016066Y007760D01*
X016071Y007755D01*
X016066Y007736D01*
X016066Y007568D01*
X016384Y007568D01*
X016384Y007471D01*
X016066Y007471D01*
X016066Y007302D01*
X016076Y007264D01*
X016096Y007230D01*
X016124Y007202D01*
X016158Y007182D01*
X016196Y007172D01*
X016384Y007172D01*
X016384Y007471D01*
X016481Y007471D01*
X016481Y007172D01*
X016669Y007172D01*
X016707Y007182D01*
X016741Y007202D01*
X016767Y007228D01*
X016823Y007172D01*
X017380Y007172D01*
X017430Y007221D01*
X017456Y007211D01*
X017578Y007211D01*
X017692Y007258D01*
X017725Y007291D01*
X017725Y007282D01*
X017813Y007194D01*
X018131Y007194D01*
X018131Y007270D01*
X018131Y007270D01*
X018131Y007270D01*
X018131Y007194D01*
X020221Y007194D01*
X020309Y007282D01*
X020309Y007291D01*
X020342Y007258D01*
X020456Y007211D01*
X020578Y007211D01*
X020605Y007221D01*
X020654Y007172D01*
X021211Y007172D01*
X021267Y007228D01*
X021293Y007202D01*
X021327Y007182D01*
X021365Y007172D01*
X021553Y007172D01*
X021553Y007471D01*
X021650Y007471D01*
X021650Y007568D01*
X021553Y007568D01*
X021553Y007866D01*
X021365Y007866D01*
X021327Y007856D01*
X021293Y007836D01*
X021267Y007810D01*
X021211Y007866D01*
X021207Y007866D01*
X021207Y007922D01*
X021255Y007922D01*
X021343Y008010D01*
X021343Y008528D01*
X021255Y008616D01*
X020814Y008616D01*
X021122Y008924D01*
X021122Y008936D01*
X021155Y008968D01*
X021170Y009006D01*
X021214Y008963D01*
X021755Y008963D01*
X021817Y008900D01*
X022467Y008900D01*
X022529Y008963D01*
X023070Y008963D01*
X023158Y009050D01*
X023158Y009249D01*
X023202Y009249D01*
X023279Y009172D01*
X023327Y009172D01*
X023327Y009133D01*
X023537Y008924D01*
X023672Y008789D01*
X028237Y008789D01*
X028372Y008924D01*
X029528Y010079D01*
X029662Y010214D01*
X029662Y010297D01*
X029711Y010297D01*
X029767Y010353D01*
X029823Y010297D01*
X030380Y010297D01*
X030468Y010385D01*
X030468Y011185D01*
X030497Y011214D01*
X030497Y013489D01*
X030362Y013624D01*
X029947Y014039D01*
X029864Y014039D01*
X029864Y014088D01*
X029808Y014144D01*
X029834Y014170D01*
X029854Y014204D01*
X029864Y014242D01*
X029864Y014430D01*
X029566Y014430D01*
X029566Y014527D01*
X029864Y014527D01*
X029864Y014715D01*
X029854Y014753D01*
X029834Y014787D01*
X029806Y014815D01*
X029772Y014835D01*
X029734Y014845D01*
X029566Y014845D01*
X029566Y014527D01*
X029469Y014527D01*
X029469Y014845D01*
X029404Y014845D01*
X029451Y014958D01*
X029451Y015080D01*
X029404Y015194D01*
X029317Y015281D01*
X029203Y015328D01*
X029081Y015328D01*
X028989Y015289D01*
X028989Y015338D01*
X028933Y015394D01*
X028959Y015420D01*
X028979Y015454D01*
X028989Y015492D01*
X028989Y015680D01*
X028691Y015680D01*
X028691Y015777D01*
X028989Y015777D01*
X028989Y015965D01*
X028979Y016003D01*
X028959Y016037D01*
X028931Y016065D01*
X028897Y016085D01*
X028859Y016095D01*
X028691Y016095D01*
X028691Y015777D01*
X028594Y015777D01*
X028594Y016095D01*
X028426Y016095D01*
X028387Y016085D01*
X028353Y016065D01*
X028325Y016037D01*
X028305Y016003D01*
X028295Y015965D01*
X028295Y015777D01*
X028594Y015777D01*
X028594Y015680D01*
X028295Y015680D01*
X028295Y015492D01*
X028305Y015454D01*
X028325Y015420D01*
X028351Y015394D01*
X028295Y015338D01*
X028295Y014781D01*
X028383Y014693D01*
X028412Y014693D01*
X028412Y014537D01*
X028171Y014537D01*
X028083Y014449D01*
X028083Y014089D01*
X028152Y014019D01*
X028083Y013949D01*
X028083Y013589D01*
X028152Y013519D01*
X028132Y013499D01*
X028112Y013499D01*
X027997Y013614D01*
X027997Y014693D01*
X028026Y014693D01*
X028114Y014781D01*
X028114Y015338D01*
X028058Y015394D01*
X028114Y015450D01*
X028114Y016007D01*
X028026Y016095D01*
X027008Y016095D01*
X026920Y016007D01*
X026920Y015450D01*
X026976Y015394D01*
X026920Y015338D01*
X026920Y014781D01*
X027008Y014693D01*
X027037Y014693D01*
X027037Y014549D01*
X027049Y014537D01*
X026628Y014537D01*
X026628Y014278D01*
X026609Y014278D01*
X026609Y014537D01*
X026166Y014537D01*
X026128Y014527D01*
X026093Y014507D01*
X026065Y014479D01*
X026046Y014445D01*
X026035Y014407D01*
X026035Y014278D01*
X026037Y014278D01*
X026037Y014260D01*
X026035Y014260D01*
X026035Y014131D01*
X026037Y014125D01*
X026037Y014084D01*
X026026Y014095D01*
X025843Y014095D01*
X025843Y014221D01*
X025525Y014221D01*
X025525Y014318D01*
X025428Y014318D01*
X025428Y014616D01*
X025240Y014616D01*
X025202Y014606D01*
X025168Y014586D01*
X025142Y014560D01*
X025086Y014616D01*
X024529Y014616D01*
X024517Y014604D01*
X024505Y014616D01*
X024497Y014616D01*
X024497Y015239D01*
X024362Y015374D01*
X024112Y015624D01*
X023997Y015624D01*
X023997Y015712D01*
X023999Y015714D01*
X023999Y016074D01*
X023997Y016076D01*
X023997Y016212D01*
X023999Y016214D01*
X023999Y016574D01*
X023911Y016662D01*
X023646Y016662D01*
X023646Y016688D01*
X023680Y016721D01*
X023706Y016711D01*
X023828Y016711D01*
X023942Y016758D01*
X024029Y016844D01*
X024076Y016958D01*
X024076Y017080D01*
X024029Y017194D01*
X023942Y017281D01*
X023828Y017328D01*
X023706Y017328D01*
X023680Y017317D01*
X023630Y017366D01*
X023073Y017366D01*
X023017Y017310D01*
X022991Y017336D01*
X022957Y017356D01*
X022919Y017366D01*
X022731Y017366D01*
X022731Y017068D01*
X022634Y017068D01*
X022634Y017366D01*
X022446Y017366D01*
X022408Y017356D01*
X022374Y017336D01*
X022346Y017308D01*
X022326Y017274D01*
X022316Y017236D01*
X022316Y017068D01*
X022634Y017068D01*
X022634Y016971D01*
X022316Y016971D01*
X022316Y016802D01*
X022326Y016764D01*
X022346Y016730D01*
X022374Y016702D01*
X022408Y016682D01*
X022446Y016672D01*
X022634Y016672D01*
X022634Y016971D01*
X022731Y016971D01*
X022731Y016672D01*
X022919Y016672D01*
X022957Y016682D01*
X022991Y016702D01*
X023017Y016728D01*
X023073Y016672D01*
X023186Y016672D01*
X023186Y016662D01*
X022921Y016662D01*
X022833Y016574D01*
X022833Y016214D01*
X022902Y016144D01*
X022852Y016094D01*
X022809Y016094D01*
X022559Y015844D01*
X022442Y015727D01*
X022442Y013727D01*
X022203Y013488D01*
X022016Y013488D01*
X022015Y013487D01*
X021840Y013487D01*
X021752Y013399D01*
X021752Y012389D01*
X021840Y012301D01*
X021892Y012301D01*
X021842Y012281D01*
X021756Y012194D01*
X021709Y012080D01*
X021709Y011958D01*
X021756Y011844D01*
X021842Y011758D01*
X021956Y011711D01*
X022078Y011711D01*
X022192Y011758D01*
X022279Y011844D01*
X022326Y011958D01*
X022326Y012080D01*
X022299Y012144D01*
X022299Y012301D01*
X022358Y012301D01*
X022446Y012389D01*
X022446Y012415D01*
X022468Y012406D01*
X022467Y012406D01*
X022381Y012319D01*
X022334Y012205D01*
X022334Y012083D01*
X022381Y011969D01*
X022456Y011894D01*
X022381Y011819D01*
X022334Y011705D01*
X022334Y011583D01*
X022381Y011469D01*
X022456Y011394D01*
X022381Y011319D01*
X022334Y011205D01*
X022334Y011083D01*
X022381Y010969D01*
X022467Y010883D01*
X022508Y010866D01*
X022198Y010866D01*
X022142Y010810D01*
X022086Y010866D01*
X021529Y010866D01*
X021441Y010778D01*
X021441Y010534D01*
X021362Y010456D01*
X021321Y010356D01*
X021321Y010326D01*
X021214Y010326D01*
X021126Y010238D01*
X021126Y009914D01*
X021082Y009914D01*
X021005Y009991D01*
X020448Y009991D01*
X020392Y009935D01*
X020336Y009991D01*
X019779Y009991D01*
X019742Y009954D01*
X019705Y009954D01*
X019592Y009907D01*
X019129Y009445D01*
X019082Y009331D01*
X019082Y009207D01*
X019129Y009093D01*
X019217Y009006D01*
X019330Y008959D01*
X019454Y008959D01*
X019568Y009006D01*
X019859Y009297D01*
X020129Y009297D01*
X020092Y009282D01*
X020004Y009195D01*
X019957Y009081D01*
X019957Y008992D01*
X019693Y008728D01*
X019655Y008820D01*
X019568Y008907D01*
X019454Y008954D01*
X019330Y008954D01*
X019217Y008907D01*
X019129Y008820D01*
X019082Y008706D01*
X019082Y008582D01*
X019129Y008468D01*
X019217Y008381D01*
X019309Y008343D01*
X019309Y008285D01*
X019204Y008329D01*
X019080Y008329D01*
X018967Y008282D01*
X018922Y008237D01*
X018922Y008607D01*
X018922Y008772D01*
X018592Y009102D01*
X018475Y009219D01*
X018456Y009219D01*
X018426Y009249D01*
X017726Y009249D01*
X017693Y009282D01*
X017579Y009329D01*
X017527Y009329D01*
X018211Y010012D01*
X018217Y010006D01*
X018330Y009959D01*
X018454Y009959D01*
X018568Y010006D01*
X018655Y010093D01*
X018702Y010207D01*
X018702Y010331D01*
X018655Y010445D01*
X018568Y010532D01*
X018454Y010579D01*
X018330Y010579D01*
X018217Y010532D01*
X018184Y010499D01*
X018047Y010499D01*
X017202Y009654D01*
X017202Y009706D01*
X017155Y009820D01*
X017068Y009907D01*
X016954Y009954D01*
X016830Y009954D01*
X016827Y009953D01*
X016827Y009956D01*
X016780Y010070D01*
X016693Y010157D01*
X016579Y010204D01*
X016455Y010204D01*
X016342Y010157D01*
X016254Y010070D01*
X016207Y009956D01*
X016207Y009832D01*
X016254Y009718D01*
X016287Y009686D01*
X016287Y009489D01*
X015247Y008449D01*
X015247Y008693D01*
X015276Y008693D01*
X015364Y008781D01*
X015364Y009338D01*
X015308Y009394D01*
X015364Y009450D01*
X015364Y010007D01*
X015276Y010095D01*
X015209Y010095D01*
X015228Y010128D01*
X015238Y010166D01*
X015238Y010413D01*
X014940Y010413D01*
X014940Y010509D01*
X015238Y010509D01*
X015238Y010756D01*
X015228Y010795D01*
X015208Y010829D01*
X015180Y010857D01*
X015146Y010876D01*
X015108Y010887D01*
X014940Y010887D01*
X014940Y010509D01*
X014843Y010509D01*
X014843Y010887D01*
X014748Y010887D01*
X014748Y010893D01*
X014748Y010902D01*
X014776Y010902D01*
X014864Y010989D01*
X014864Y011665D01*
X014776Y011753D01*
X014258Y011753D01*
X014170Y011665D01*
X014170Y011557D01*
X013878Y011557D01*
X013828Y011578D01*
X013706Y011578D01*
X013592Y011531D01*
X013506Y011444D01*
X013489Y011404D01*
X013489Y011665D01*
X013401Y011753D01*
X013098Y011753D01*
X012989Y011862D01*
X012989Y012338D01*
X012933Y012394D01*
X012989Y012450D01*
X012989Y013007D01*
X012912Y013084D01*
X012912Y016073D01*
X012871Y016172D01*
X012621Y016422D01*
X012545Y016498D01*
X012446Y016539D01*
X012129Y016539D01*
X011915Y016753D01*
X012217Y016753D01*
X012217Y017168D01*
X012317Y017168D01*
X012317Y016753D01*
X012641Y016753D01*
X012679Y016763D01*
X012714Y016783D01*
X012741Y016811D01*
X012761Y016845D01*
X012771Y016883D01*
X012771Y017168D01*
X012317Y017168D01*
X012317Y017268D01*
X012771Y017268D01*
X012771Y017553D01*
X012761Y017591D01*
X012741Y017625D01*
X012717Y017650D01*
X012761Y017694D01*
X012761Y017704D01*
X012762Y017703D01*
X012801Y017693D01*
X012969Y017693D01*
X012969Y018011D01*
X013066Y018011D01*
X013066Y018108D01*
X013364Y018108D01*
X013469Y018108D01*
X013469Y018011D01*
X013566Y018011D01*
X013566Y017693D01*
X013734Y017693D01*
X013760Y017700D01*
X013760Y017538D01*
X013770Y017500D01*
X013790Y017465D01*
X013818Y017437D01*
X013852Y017418D01*
X013890Y017407D01*
X014039Y017407D01*
X014039Y017883D01*
X014096Y017883D01*
X014096Y017407D01*
X014245Y017407D01*
X014283Y017418D01*
X014317Y017437D01*
X014345Y017465D01*
X014365Y017500D01*
X014375Y017538D01*
X014375Y017883D01*
X014096Y017883D01*
X014096Y017941D01*
X014375Y017941D01*
X014375Y018052D01*
X014497Y018174D01*
X014497Y018277D01*
X014556Y018337D01*
X014556Y016796D01*
X014673Y016678D01*
X015344Y016678D01*
X015344Y016306D01*
X015316Y016278D01*
X015316Y015760D01*
X015389Y015688D01*
X015389Y015662D01*
X015123Y015662D01*
X015035Y015574D01*
X015035Y015214D01*
X015037Y015212D01*
X015037Y015124D01*
X014837Y015124D01*
X014808Y015095D01*
X013508Y015095D01*
X013420Y015007D01*
X013420Y014450D01*
X013476Y014394D01*
X013450Y014368D01*
X013430Y014334D01*
X013420Y014296D01*
X013420Y014108D01*
X013719Y014108D01*
X013719Y014011D01*
X013816Y014011D01*
X013816Y013693D01*
X013984Y013693D01*
X014003Y013698D01*
X014008Y013693D01*
X014577Y013693D01*
X014577Y013008D01*
X014912Y012674D01*
X015047Y012539D01*
X015191Y012539D01*
X015191Y012510D01*
X015279Y012422D01*
X015836Y012422D01*
X015892Y012478D01*
X015948Y012422D01*
X016505Y012422D01*
X016517Y012434D01*
X016529Y012422D01*
X017086Y012422D01*
X017142Y012478D01*
X017168Y012452D01*
X017202Y012432D01*
X017240Y012422D01*
X017428Y012422D01*
X017428Y012721D01*
X017525Y012721D01*
X017525Y012818D01*
X017428Y012818D01*
X017428Y013116D01*
X017240Y013116D01*
X017202Y013106D01*
X017168Y013086D01*
X017142Y013060D01*
X017122Y013080D01*
X017122Y013674D01*
X017171Y013626D01*
X017607Y013626D01*
X017612Y013624D01*
X018202Y013624D01*
X018258Y013568D01*
X019817Y013568D01*
X019817Y013561D01*
X019934Y013444D01*
X020088Y013290D01*
X020088Y013176D01*
X020092Y013173D01*
X020088Y013160D01*
X020088Y013158D01*
X020026Y013220D01*
X019508Y013220D01*
X019420Y013132D01*
X019420Y013124D01*
X019223Y013124D01*
X019192Y013156D01*
X019078Y013203D01*
X018956Y013203D01*
X018842Y013156D01*
X018756Y013069D01*
X018717Y012976D01*
X018489Y012748D01*
X018413Y012672D01*
X018372Y012573D01*
X018372Y012048D01*
X018334Y011955D01*
X018334Y011833D01*
X018381Y011719D01*
X018467Y011633D01*
X018581Y011586D01*
X018703Y011586D01*
X018817Y011633D01*
X018904Y011719D01*
X018951Y011833D01*
X018951Y011955D01*
X018912Y012048D01*
X018912Y012407D01*
X019099Y012594D01*
X019192Y012633D01*
X019223Y012664D01*
X019420Y012664D01*
X019420Y012575D01*
X019476Y012519D01*
X019450Y012493D01*
X019430Y012459D01*
X019420Y012421D01*
X019420Y012233D01*
X019719Y012233D01*
X019719Y012136D01*
X019816Y012136D01*
X019816Y012233D01*
X020114Y012233D01*
X020114Y012363D01*
X020176Y012301D01*
X020235Y012301D01*
X020235Y012144D01*
X020209Y012080D01*
X020209Y011958D01*
X020256Y011844D01*
X020342Y011758D01*
X020456Y011711D01*
X020578Y011711D01*
X020692Y011758D01*
X020779Y011844D01*
X020826Y011958D01*
X020826Y012080D01*
X020779Y012194D01*
X020692Y012281D01*
X020642Y012301D01*
X020694Y012301D01*
X020782Y012389D01*
X020782Y012612D01*
X020779Y012615D01*
X020782Y012628D01*
X020782Y012697D01*
X020697Y012697D01*
X020697Y012697D01*
X020782Y012697D01*
X020782Y012766D01*
X020779Y012779D01*
X020782Y012783D01*
X020782Y013005D01*
X020779Y013009D01*
X020782Y013022D01*
X020782Y013091D01*
X020782Y013160D01*
X020779Y013173D01*
X020782Y013176D01*
X020782Y013399D01*
X020694Y013487D01*
X020519Y013487D01*
X020518Y013488D01*
X020456Y013488D01*
X020326Y013618D01*
X020364Y013656D01*
X020364Y014213D01*
X020308Y014269D01*
X020364Y014325D01*
X020364Y014818D01*
X020776Y014818D01*
X020785Y014827D01*
X020785Y014714D01*
X020873Y014626D01*
X021139Y014626D01*
X021139Y014616D01*
X021029Y014616D01*
X020943Y014530D01*
X020942Y014531D01*
X020828Y014578D01*
X020706Y014578D01*
X020592Y014531D01*
X020506Y014444D01*
X020459Y014330D01*
X020459Y014208D01*
X020506Y014094D01*
X020592Y014008D01*
X020706Y013961D01*
X020828Y013961D01*
X020942Y014008D01*
X020943Y014008D01*
X021029Y013922D01*
X021586Y013922D01*
X021642Y013978D01*
X021668Y013952D01*
X021702Y013932D01*
X021740Y013922D01*
X021928Y013922D01*
X021928Y014221D01*
X022025Y014221D01*
X022025Y014318D01*
X021928Y014318D01*
X021928Y014616D01*
X021740Y014616D01*
X021702Y014606D01*
X021668Y014586D01*
X021642Y014560D01*
X021599Y014604D01*
X021599Y014626D01*
X021864Y014626D01*
X021952Y014714D01*
X021952Y015074D01*
X021882Y015144D01*
X021952Y015214D01*
X021952Y015574D01*
X021882Y015644D01*
X021952Y015714D01*
X021952Y016074D01*
X021879Y016147D01*
X021894Y016156D01*
X021922Y016184D01*
X021941Y016218D01*
X021952Y016256D01*
X021952Y016385D01*
X021378Y016385D01*
X021378Y016403D01*
X021952Y016403D01*
X021952Y016532D01*
X021941Y016570D01*
X021922Y016604D01*
X021894Y016632D01*
X021859Y016652D01*
X021821Y016662D01*
X021378Y016662D01*
X021378Y016403D01*
X021359Y016403D01*
X021359Y016662D01*
X020916Y016662D01*
X020878Y016652D01*
X020843Y016632D01*
X020815Y016604D01*
X020796Y016570D01*
X020785Y016532D01*
X020785Y016403D01*
X020787Y016403D01*
X020787Y016385D01*
X020785Y016385D01*
X020785Y016256D01*
X020787Y016250D01*
X020787Y016209D01*
X020776Y016220D01*
X020747Y016220D01*
X020747Y017489D01*
X020497Y017739D01*
X020427Y017810D01*
X020427Y017935D01*
X020339Y018022D01*
X019427Y018022D01*
X019340Y017935D01*
X019340Y017456D01*
X019359Y017436D01*
X019267Y017344D01*
X019237Y017374D01*
X018695Y017374D01*
X018695Y017462D01*
X018607Y017550D01*
X017695Y017550D01*
X017607Y017462D01*
X017607Y016828D01*
X017581Y016828D01*
X017467Y016781D01*
X017381Y016694D01*
X017334Y016580D01*
X017334Y016458D01*
X017368Y016374D01*
X016665Y016375D01*
X016664Y016374D01*
X015744Y016375D01*
X015744Y016738D01*
X015810Y016738D01*
X015839Y016746D01*
X015868Y016738D01*
X015937Y016738D01*
X015937Y016860D01*
X015937Y016860D01*
X015937Y016860D01*
X015937Y016738D01*
X016006Y016738D01*
X016036Y016746D01*
X016065Y016738D01*
X016134Y016738D01*
X016134Y016860D01*
X016134Y016860D01*
X016134Y016860D01*
X016134Y016738D01*
X016203Y016738D01*
X016233Y016746D01*
X016262Y016738D01*
X016331Y016738D01*
X016331Y016860D01*
X016331Y016860D01*
X016331Y016860D01*
X016331Y016738D01*
X016400Y016738D01*
X016430Y016746D01*
X016459Y016738D01*
X016528Y016738D01*
X016597Y016738D01*
X016635Y016748D01*
X016669Y016768D01*
X016697Y016796D01*
X016717Y016830D01*
X016727Y016868D01*
X016727Y017005D01*
X016761Y017039D01*
X016761Y017204D01*
X016727Y017238D01*
X016727Y017302D01*
X016717Y017340D01*
X016697Y017374D01*
X016669Y017402D01*
X016635Y017422D01*
X016597Y017432D01*
X016528Y017432D01*
X016528Y017322D01*
X016528Y017322D01*
X016528Y017432D01*
X016459Y017432D01*
X016430Y017424D01*
X016400Y017432D01*
X016331Y017432D01*
X016262Y017432D01*
X016233Y017424D01*
X016203Y017432D01*
X016134Y017432D01*
X016065Y017432D01*
X016036Y017424D01*
X016006Y017432D01*
X015937Y017432D01*
X015868Y017432D01*
X015839Y017424D01*
X015810Y017432D01*
X015744Y017432D01*
X015744Y018392D01*
X015810Y018392D01*
X015839Y018400D01*
X015868Y018392D01*
X015937Y018392D01*
X015937Y018513D01*
X015937Y018513D01*
X015937Y018392D01*
X016006Y018392D01*
X016036Y018400D01*
X016065Y018392D01*
X016134Y018392D01*
X016134Y018513D01*
X016134Y018513D01*
X016134Y018392D01*
X016203Y018392D01*
X016233Y018400D01*
X016262Y018392D01*
X016331Y018392D01*
X016331Y018513D01*
X016331Y018513D01*
X016331Y018392D01*
X016400Y018392D01*
X016430Y018400D01*
X016459Y018392D01*
X016528Y018392D01*
X016597Y018392D01*
X016635Y018402D01*
X016669Y018422D01*
X016680Y018433D01*
X016714Y018350D01*
X016789Y018275D01*
X016888Y018234D01*
X016909Y018234D01*
X016909Y017941D01*
X017188Y017941D01*
X017188Y018398D01*
X017209Y018449D01*
X017209Y018556D01*
X017169Y018654D01*
X017093Y018730D01*
X016995Y018770D01*
X016888Y018770D01*
X016789Y018730D01*
X016761Y018701D01*
X016761Y018797D01*
X016727Y018831D01*
X016727Y018955D01*
X016717Y018993D01*
X016697Y019028D01*
X016669Y019055D01*
X016635Y019075D01*
X016597Y019085D01*
X016528Y019085D01*
X016528Y018964D01*
X016528Y018964D01*
X016528Y019085D01*
X016459Y019085D01*
X016430Y019078D01*
X016400Y019085D01*
X016331Y019085D01*
X016262Y019085D01*
X016233Y019078D01*
X016203Y019085D01*
X016134Y019085D01*
X016065Y019085D01*
X016036Y019078D01*
X016006Y019085D01*
X015937Y019085D01*
X015868Y019085D01*
X015839Y019078D01*
X015810Y019085D01*
X015741Y019085D01*
X015741Y019000D01*
X015741Y019000D01*
X015741Y019085D01*
X015672Y019085D01*
X015659Y019082D01*
X015655Y019085D01*
X015639Y019085D01*
X015627Y019098D01*
X014820Y019098D01*
X014795Y019123D01*
X014696Y019164D01*
X013629Y019164D01*
X013530Y019123D01*
X013502Y019095D01*
X012758Y019095D01*
X012670Y019007D01*
X012670Y018999D01*
X012622Y018999D01*
X012567Y018976D01*
X012529Y019069D01*
X012442Y019156D01*
X012328Y019203D01*
X012206Y019203D01*
X012092Y019156D01*
X012006Y019069D01*
X011959Y018955D01*
X011959Y018833D01*
X011978Y018785D01*
X011851Y018785D01*
X011763Y018697D01*
X011763Y018533D01*
X011743Y018513D01*
X011713Y018513D01*
X011713Y018544D01*
X011672Y018643D01*
X011593Y018722D01*
X011593Y018966D01*
X011505Y019053D01*
X010948Y019053D01*
X010892Y018997D01*
X010836Y019053D01*
X010279Y019053D01*
X010191Y018966D01*
X010191Y018722D01*
X010112Y018643D01*
X010071Y018544D01*
X010071Y018513D01*
X009973Y018513D01*
X009959Y018537D01*
X009931Y018565D01*
X009897Y018585D01*
X009859Y018595D01*
X009691Y018595D01*
X009691Y018277D01*
X009594Y018277D01*
X009594Y018180D01*
X009594Y018267D02*
X009191Y018267D01*
X009094Y018267D02*
X003489Y018267D01*
X003489Y018365D02*
X008795Y018365D01*
X008795Y018464D02*
X003489Y018464D01*
X003489Y018562D02*
X008850Y018562D01*
X009094Y018562D02*
X009191Y018562D01*
X009191Y018464D02*
X009094Y018464D01*
X009094Y018365D02*
X009191Y018365D01*
X009594Y018365D02*
X009691Y018365D01*
X009691Y018464D02*
X009594Y018464D01*
X009594Y018562D02*
X009691Y018562D01*
X009934Y018562D02*
X010079Y018562D01*
X010130Y018661D02*
X003489Y018661D01*
X003489Y018759D02*
X010191Y018759D01*
X010191Y018858D02*
X003489Y018858D01*
X003489Y018956D02*
X010191Y018956D01*
X008795Y018168D02*
X003489Y018168D01*
X003489Y018070D02*
X008795Y018070D01*
X008801Y017971D02*
X003489Y017971D01*
X003489Y017873D02*
X008830Y017873D01*
X008795Y017774D02*
X003489Y017774D01*
X003489Y017676D02*
X008795Y017676D01*
X008795Y017577D02*
X003489Y017577D01*
X003489Y017479D02*
X008795Y017479D01*
X008795Y017380D02*
X003489Y017380D01*
X003489Y017282D02*
X008795Y017282D01*
X008872Y017183D02*
X003489Y017183D01*
X003489Y017085D02*
X008875Y017085D01*
X008918Y016986D02*
X006204Y016986D01*
X006360Y016929D02*
X005969Y017072D01*
X005552Y017072D01*
X005160Y016929D01*
X004841Y016662D01*
X004841Y016662D01*
X004633Y016301D01*
X004633Y016301D01*
X004560Y015890D01*
X004633Y015480D01*
X004633Y015480D01*
X004841Y015119D01*
X004841Y015119D01*
X005160Y014851D01*
X005160Y014851D01*
X005552Y014708D01*
X005969Y014708D01*
X006360Y014851D01*
X006360Y014851D01*
X006679Y015119D01*
X006888Y015480D01*
X006960Y015890D01*
X006960Y015890D01*
X006888Y016301D01*
X006679Y016662D01*
X006360Y016929D01*
X006360Y016929D01*
X006410Y016888D02*
X009017Y016888D01*
X009115Y016789D02*
X006527Y016789D01*
X006645Y016691D02*
X009214Y016691D01*
X008660Y016086D02*
X008626Y016106D01*
X008588Y016116D01*
X008400Y016116D01*
X008400Y015818D01*
X008718Y015818D01*
X008718Y015986D01*
X008708Y016024D01*
X008688Y016058D01*
X008660Y016086D01*
X008637Y016100D02*
X011805Y016100D01*
X011706Y016198D02*
X006906Y016198D01*
X006923Y016100D02*
X007387Y016100D01*
X007316Y016001D02*
X006941Y016001D01*
X006958Y015903D02*
X007316Y015903D01*
X007316Y015804D02*
X006945Y015804D01*
X006928Y015706D02*
X007316Y015706D01*
X007316Y015607D02*
X006910Y015607D01*
X006893Y015509D02*
X007316Y015509D01*
X007316Y015410D02*
X006848Y015410D01*
X006791Y015312D02*
X007316Y015312D01*
X007316Y015213D02*
X006734Y015213D01*
X006679Y015119D02*
X006679Y015119D01*
X006674Y015115D02*
X007316Y015115D01*
X007316Y015016D02*
X006557Y015016D01*
X006440Y014918D02*
X006840Y014918D01*
X006742Y014819D02*
X006273Y014819D01*
X006002Y014721D02*
X006643Y014721D01*
X006545Y014622D02*
X002672Y014622D01*
X002672Y014614D02*
X002672Y014674D01*
X002612Y014674D01*
X002612Y014614D01*
X002192Y014614D01*
X002192Y014458D01*
X002456Y014194D01*
X002612Y014194D01*
X002612Y014614D01*
X002672Y014614D01*
X002672Y014194D01*
X002829Y014194D01*
X003092Y014458D01*
X003092Y014614D01*
X002672Y014614D01*
X002672Y014674D02*
X003092Y014674D01*
X003092Y014830D01*
X002829Y015094D01*
X002672Y015094D01*
X002672Y014674D01*
X002672Y014721D02*
X002612Y014721D01*
X002612Y014674D02*
X002612Y015094D01*
X002456Y015094D01*
X002192Y014830D01*
X002192Y014674D01*
X002612Y014674D01*
X002612Y014622D02*
X000438Y014622D01*
X000438Y014524D02*
X002192Y014524D01*
X002225Y014425D02*
X000438Y014425D01*
X000438Y014327D02*
X002323Y014327D01*
X002422Y014228D02*
X000438Y014228D01*
X000438Y014130D02*
X006385Y014130D01*
X006385Y014228D02*
X002863Y014228D01*
X002961Y014327D02*
X006385Y014327D01*
X006385Y014425D02*
X003060Y014425D01*
X003092Y014524D02*
X006446Y014524D01*
X006845Y014271D02*
X007112Y014539D01*
X007316Y014539D01*
X007316Y014510D01*
X007324Y014502D01*
X007309Y014493D01*
X007281Y014466D01*
X007261Y014431D01*
X007251Y014393D01*
X007251Y014069D01*
X007666Y014069D01*
X007666Y013969D01*
X007251Y013969D01*
X007251Y013645D01*
X007261Y013607D01*
X007281Y013573D01*
X007309Y013545D01*
X007343Y013525D01*
X007381Y013515D01*
X007574Y013515D01*
X007566Y013486D01*
X007566Y013318D01*
X007884Y013318D01*
X007884Y013221D01*
X007566Y013221D01*
X007566Y013052D01*
X007576Y013014D01*
X007596Y012980D01*
X007624Y012952D01*
X007658Y012932D01*
X007696Y012922D01*
X007884Y012922D01*
X007884Y013221D01*
X007981Y013221D01*
X007981Y012922D01*
X008169Y012922D01*
X008207Y012932D01*
X008241Y012952D01*
X008267Y012978D01*
X008292Y012954D01*
X008292Y012873D01*
X008339Y012759D01*
X008340Y012758D01*
X008340Y012249D01*
X008047Y012249D01*
X007990Y012193D01*
X007942Y012193D01*
X007942Y012144D01*
X007912Y012114D01*
X007912Y011924D01*
X007942Y011894D01*
X007942Y011817D01*
X007842Y011817D01*
X007842Y012193D01*
X007695Y012193D01*
X007695Y012857D01*
X007607Y012945D01*
X006961Y012945D01*
X006961Y013000D01*
X006633Y013000D01*
X006633Y013038D01*
X006961Y013038D01*
X006961Y013177D01*
X006955Y013202D01*
X006961Y013209D01*
X006961Y013609D01*
X006874Y013697D01*
X006845Y013697D01*
X006845Y014271D01*
X006845Y014228D02*
X007251Y014228D01*
X007251Y014130D02*
X006845Y014130D01*
X006845Y014031D02*
X007666Y014031D01*
X007251Y013933D02*
X006845Y013933D01*
X006845Y013834D02*
X007251Y013834D01*
X007251Y013736D02*
X006845Y013736D01*
X006933Y013637D02*
X007253Y013637D01*
X007319Y013539D02*
X006961Y013539D01*
X006961Y013440D02*
X007566Y013440D01*
X007566Y013342D02*
X006961Y013342D01*
X006961Y013243D02*
X007884Y013243D01*
X007884Y013145D02*
X007981Y013145D01*
X007981Y013046D02*
X007884Y013046D01*
X007884Y012948D02*
X007981Y012948D01*
X008233Y012948D02*
X008292Y012948D01*
X008302Y012849D02*
X007695Y012849D01*
X007695Y012751D02*
X008340Y012751D01*
X008340Y012652D02*
X007695Y012652D01*
X007695Y012554D02*
X008340Y012554D01*
X008340Y012455D02*
X007695Y012455D01*
X007695Y012357D02*
X008340Y012357D01*
X008340Y012258D02*
X007695Y012258D01*
X007842Y012160D02*
X007942Y012160D01*
X007912Y012061D02*
X007842Y012061D01*
X007842Y011963D02*
X007912Y011963D01*
X007942Y011864D02*
X007842Y011864D01*
X007842Y011667D02*
X007942Y011667D01*
X007942Y011569D02*
X007842Y011569D01*
X007842Y011470D02*
X007942Y011470D01*
X007942Y011372D02*
X007842Y011372D01*
X007570Y011273D02*
X008813Y011273D01*
X008911Y011175D02*
X007570Y011175D01*
X007570Y011076D02*
X009010Y011076D01*
X009013Y010978D02*
X007615Y010978D01*
X007713Y010879D02*
X009013Y010879D01*
X009050Y010781D02*
X007812Y010781D01*
X007358Y010584D02*
X006275Y010584D01*
X006275Y010485D02*
X006178Y010485D01*
X006178Y010387D02*
X006275Y010387D01*
X006275Y010288D02*
X006178Y010288D01*
X006243Y010190D02*
X006052Y010190D01*
X006056Y010091D02*
X006228Y010091D01*
X006228Y009993D02*
X006056Y009993D01*
X006056Y009894D02*
X006228Y009894D01*
X006228Y009697D02*
X006056Y009697D01*
X006056Y009796D02*
X006643Y009796D01*
X006643Y009894D02*
X006743Y009894D01*
X006743Y009819D02*
X006743Y010273D01*
X007028Y010273D01*
X007066Y010263D01*
X007100Y010243D01*
X007128Y010216D01*
X007148Y010181D01*
X007158Y010143D01*
X007158Y009819D01*
X006743Y009819D01*
X006743Y009796D02*
X009013Y009796D01*
X009036Y009697D02*
X007158Y009697D01*
X007158Y009599D02*
X012441Y009599D01*
X012441Y009697D02*
X011777Y009697D01*
X011785Y009702D02*
X011813Y009730D01*
X011833Y009764D01*
X011843Y009802D01*
X011843Y009971D01*
X011525Y009971D01*
X011525Y009672D01*
X011713Y009672D01*
X011751Y009682D01*
X011785Y009702D01*
X011841Y009796D02*
X012441Y009796D01*
X012441Y009894D02*
X011843Y009894D01*
X011843Y010091D02*
X012453Y010091D01*
X012441Y009993D02*
X011525Y009993D01*
X011525Y009894D02*
X011428Y009894D01*
X011428Y009796D02*
X011525Y009796D01*
X011525Y009697D02*
X011428Y009697D01*
X011177Y009697D02*
X011111Y009697D01*
X010504Y009697D02*
X009998Y009697D01*
X010021Y009796D02*
X010441Y009796D01*
X010441Y009894D02*
X010021Y009894D01*
X010021Y009993D02*
X010441Y009993D01*
X010441Y010091D02*
X009895Y010091D01*
X010021Y010143D02*
X009567Y010143D01*
X009567Y010558D01*
X009891Y010558D01*
X009929Y010548D01*
X009964Y010528D01*
X009991Y010500D01*
X010011Y010466D01*
X010021Y010428D01*
X010021Y010143D01*
X010021Y010190D02*
X010441Y010190D01*
X010441Y010288D02*
X010021Y010288D01*
X010021Y010387D02*
X010441Y010387D01*
X010441Y010485D02*
X010000Y010485D01*
X009880Y010682D02*
X010441Y010682D01*
X010441Y010584D02*
X009068Y010584D01*
X008994Y010682D02*
X009404Y010682D01*
X009467Y010485D02*
X009567Y010485D01*
X009567Y010387D02*
X009467Y010387D01*
X009467Y010288D02*
X009567Y010288D01*
X009567Y010190D02*
X009467Y010190D01*
X009467Y009697D02*
X009514Y009697D01*
X008290Y010682D02*
X008244Y010682D01*
X007892Y010375D02*
X007848Y010419D01*
X007892Y010375D02*
X007892Y010271D01*
X007467Y010288D02*
X006560Y010288D01*
X006593Y010387D02*
X007467Y010387D01*
X007457Y010485D02*
X006593Y010485D01*
X006593Y010682D02*
X007260Y010682D01*
X007161Y010781D02*
X006593Y010781D01*
X006643Y010190D02*
X006743Y010190D01*
X006743Y010091D02*
X006643Y010091D01*
X006643Y009993D02*
X006743Y009993D01*
X006743Y009697D02*
X006643Y009697D01*
X006643Y009599D02*
X006743Y009599D01*
X006743Y009500D02*
X006643Y009500D01*
X006643Y009402D02*
X006743Y009402D01*
X006743Y009303D02*
X006643Y009303D01*
X006278Y009303D02*
X006006Y009303D01*
X006070Y009402D02*
X006228Y009402D01*
X006228Y009500D02*
X006082Y009500D01*
X006082Y009599D02*
X006228Y009599D01*
X005642Y009644D02*
X005517Y009519D01*
X005142Y009519D01*
X005017Y009644D01*
X005017Y010269D01*
X004892Y010394D01*
X004642Y010394D01*
X004517Y010519D01*
X004517Y011269D01*
X004642Y011394D01*
X004892Y011394D01*
X005267Y011769D01*
X005392Y011769D01*
X005767Y011394D01*
X005767Y010269D01*
X005642Y010144D01*
X005642Y009644D01*
X005642Y009697D02*
X005017Y009697D01*
X005017Y009796D02*
X005642Y009796D01*
X005642Y009894D02*
X005017Y009894D01*
X005017Y009993D02*
X005642Y009993D01*
X005642Y010091D02*
X005017Y010091D01*
X005017Y010190D02*
X005688Y010190D01*
X005767Y010288D02*
X004998Y010288D01*
X004900Y010387D02*
X005767Y010387D01*
X005767Y010485D02*
X004551Y010485D01*
X004517Y010584D02*
X005767Y010584D01*
X005767Y010682D02*
X004517Y010682D01*
X004517Y010781D02*
X005767Y010781D01*
X005767Y010879D02*
X004517Y010879D01*
X004517Y010978D02*
X005767Y010978D01*
X005767Y011076D02*
X004517Y011076D01*
X004517Y011175D02*
X005767Y011175D01*
X005767Y011273D02*
X004521Y011273D01*
X004620Y011372D02*
X005767Y011372D01*
X005691Y011470D02*
X004968Y011470D01*
X005067Y011569D02*
X005593Y011569D01*
X005494Y011667D02*
X005165Y011667D01*
X005264Y011766D02*
X005396Y011766D01*
X006017Y012554D02*
X006268Y012554D01*
X006268Y012652D02*
X006017Y012652D01*
X006017Y012751D02*
X006268Y012751D01*
X006271Y012849D02*
X005997Y012849D01*
X006268Y012948D02*
X005239Y012948D01*
X005210Y013046D02*
X006268Y013046D01*
X006268Y013145D02*
X005952Y013145D01*
X005929Y013121D02*
X006017Y013209D01*
X006017Y013609D01*
X005941Y013684D01*
X005951Y013708D01*
X005951Y013830D01*
X005904Y013944D01*
X005817Y014031D01*
X005703Y014078D01*
X005581Y014078D01*
X005467Y014031D01*
X005381Y013944D01*
X005334Y013830D01*
X005334Y013708D01*
X005360Y013645D01*
X005323Y013609D01*
X005323Y013209D01*
X005411Y013121D01*
X005929Y013121D01*
X006017Y013243D02*
X006268Y013243D01*
X006268Y013342D02*
X006017Y013342D01*
X006017Y013440D02*
X006268Y013440D01*
X006268Y013539D02*
X006017Y013539D01*
X005988Y013637D02*
X006296Y013637D01*
X006385Y013736D02*
X005951Y013736D01*
X005949Y013834D02*
X006385Y013834D01*
X006385Y013933D02*
X005908Y013933D01*
X005816Y014031D02*
X006385Y014031D01*
X006900Y014327D02*
X007251Y014327D01*
X007260Y014425D02*
X006998Y014425D01*
X007097Y014524D02*
X007316Y014524D01*
X008400Y015804D02*
X010467Y015804D01*
X010441Y015706D02*
X008718Y015706D01*
X008718Y015903D02*
X012372Y015903D01*
X012372Y015804D02*
X011817Y015804D01*
X011843Y015706D02*
X012372Y015706D01*
X012372Y015607D02*
X011843Y015607D01*
X011843Y015509D02*
X012372Y015509D01*
X012372Y015410D02*
X011843Y015410D01*
X011843Y015312D02*
X012372Y015312D01*
X012372Y015213D02*
X011908Y015213D01*
X011908Y015115D02*
X012372Y015115D01*
X012372Y015016D02*
X011908Y015016D01*
X011908Y014918D02*
X012372Y014918D01*
X012372Y014819D02*
X011908Y014819D01*
X011908Y014721D02*
X012372Y014721D01*
X012372Y014622D02*
X011908Y014622D01*
X011908Y014524D02*
X012372Y014524D01*
X012372Y014425D02*
X011908Y014425D01*
X011908Y014327D02*
X012372Y014327D01*
X012372Y014228D02*
X011908Y014228D01*
X011908Y014130D02*
X012372Y014130D01*
X012372Y014031D02*
X011889Y014031D01*
X011593Y013933D02*
X012372Y013933D01*
X012372Y013834D02*
X011593Y013834D01*
X011593Y013736D02*
X012372Y013736D01*
X012372Y013637D02*
X011593Y013637D01*
X011802Y013539D02*
X012372Y013539D01*
X012372Y013440D02*
X011907Y013440D01*
X011948Y013342D02*
X012372Y013342D01*
X012372Y013243D02*
X011952Y013243D01*
X011926Y013145D02*
X012372Y013145D01*
X012334Y013046D02*
X011858Y013046D01*
X011902Y012948D02*
X012295Y012948D01*
X012295Y012849D02*
X011945Y012849D01*
X011952Y012751D02*
X012295Y012751D01*
X012295Y012652D02*
X011929Y012652D01*
X011865Y012554D02*
X012295Y012554D01*
X012295Y012455D02*
X011593Y012455D01*
X011593Y012357D02*
X012314Y012357D01*
X012295Y012258D02*
X011593Y012258D01*
X011593Y012160D02*
X012295Y012160D01*
X012295Y012061D02*
X011835Y012061D01*
X011908Y011963D02*
X012295Y011963D01*
X012295Y011864D02*
X011908Y011864D01*
X011908Y011766D02*
X012310Y011766D01*
X012420Y011667D02*
X011908Y011667D01*
X011908Y011569D02*
X012434Y011569D01*
X012282Y011470D02*
X011908Y011470D01*
X011908Y011372D02*
X012226Y011372D01*
X012209Y011273D02*
X011908Y011273D01*
X011908Y011175D02*
X012222Y011175D01*
X012274Y011076D02*
X011908Y011076D01*
X011908Y010978D02*
X012287Y010978D01*
X012287Y010879D02*
X011908Y010879D01*
X011888Y010781D02*
X012287Y010781D01*
X012287Y010682D02*
X011843Y010682D01*
X011843Y010584D02*
X012320Y010584D01*
X012419Y010485D02*
X011843Y010485D01*
X011843Y010387D02*
X012421Y010387D01*
X012421Y010288D02*
X011843Y010288D01*
X011843Y010190D02*
X012421Y010190D01*
X012451Y009500D02*
X007158Y009500D01*
X007158Y009402D02*
X012292Y009402D01*
X012287Y009303D02*
X007109Y009303D01*
X007158Y009894D02*
X007506Y009894D01*
X007467Y009993D02*
X007158Y009993D01*
X007158Y010091D02*
X007467Y010091D01*
X007467Y010190D02*
X007143Y010190D01*
X005597Y009599D02*
X005063Y009599D01*
X004977Y009402D02*
X004952Y009402D01*
X004952Y009303D02*
X005176Y009303D01*
X004952Y009205D02*
X012287Y009205D01*
X012287Y009106D02*
X004952Y009106D01*
X004967Y009008D02*
X012287Y009008D01*
X012287Y008909D02*
X005066Y008909D01*
X005164Y008811D02*
X012287Y008811D01*
X012287Y008712D02*
X005263Y008712D01*
X005361Y008614D02*
X012315Y008614D01*
X012357Y008515D02*
X005460Y008515D01*
X005558Y008417D02*
X012357Y008417D01*
X012357Y008318D02*
X005657Y008318D01*
X005755Y008220D02*
X012357Y008220D01*
X012357Y008121D02*
X005854Y008121D01*
X005952Y008023D02*
X012357Y008023D01*
X012357Y007924D02*
X006051Y007924D01*
X006149Y007826D02*
X012357Y007826D01*
X012357Y007727D02*
X006248Y007727D01*
X006346Y007629D02*
X012357Y007629D01*
X012357Y007530D02*
X006445Y007530D01*
X006328Y007333D02*
X005392Y007333D01*
X005392Y007235D02*
X013142Y007235D01*
X013142Y007269D02*
X013142Y001894D01*
X011622Y001894D01*
X011622Y002361D01*
X011534Y002449D01*
X010820Y002449D01*
X010732Y002361D01*
X010732Y001894D01*
X009822Y001894D01*
X009822Y002361D01*
X009734Y002449D01*
X009212Y002449D01*
X008892Y002769D01*
X008142Y002769D01*
X007892Y002519D01*
X007892Y002019D01*
X007767Y001894D01*
X005392Y001894D01*
X005392Y002767D01*
X005552Y002708D01*
X005969Y002708D01*
X006360Y002851D01*
X006360Y002851D01*
X006679Y003119D01*
X006888Y003480D01*
X006960Y003890D01*
X006888Y004301D01*
X006679Y004662D01*
X006360Y004929D01*
X005969Y005072D01*
X005552Y005072D01*
X005392Y005014D01*
X005392Y008269D01*
X006392Y007269D01*
X013142Y007269D01*
X013142Y007136D02*
X005392Y007136D01*
X005392Y007038D02*
X013142Y007038D01*
X013142Y006939D02*
X005392Y006939D01*
X005392Y006841D02*
X013142Y006841D01*
X013142Y006742D02*
X005392Y006742D01*
X005392Y006644D02*
X013142Y006644D01*
X013142Y006545D02*
X005392Y006545D01*
X005392Y006447D02*
X013142Y006447D01*
X013142Y006348D02*
X005392Y006348D01*
X005392Y006250D02*
X013142Y006250D01*
X013142Y006151D02*
X005392Y006151D01*
X005392Y006053D02*
X013142Y006053D01*
X013142Y005954D02*
X005392Y005954D01*
X005392Y005856D02*
X013142Y005856D01*
X013142Y005757D02*
X005392Y005757D01*
X005392Y005659D02*
X013142Y005659D01*
X013142Y005560D02*
X005392Y005560D01*
X005392Y005462D02*
X013142Y005462D01*
X013142Y005363D02*
X005392Y005363D01*
X005392Y005265D02*
X013142Y005265D01*
X013142Y005166D02*
X005392Y005166D01*
X005392Y005068D02*
X005540Y005068D01*
X005192Y005068D02*
X004867Y005068D01*
X004867Y005166D02*
X005192Y005166D01*
X005192Y005265D02*
X004867Y005265D01*
X004867Y005363D02*
X005192Y005363D01*
X005192Y005462D02*
X004867Y005462D01*
X004867Y005560D02*
X005192Y005560D01*
X005192Y005659D02*
X004867Y005659D01*
X004867Y005757D02*
X005192Y005757D01*
X005192Y005856D02*
X004867Y005856D01*
X004867Y005954D02*
X005192Y005954D01*
X005192Y006053D02*
X004867Y006053D01*
X004867Y006151D02*
X005192Y006151D01*
X005192Y006250D02*
X004867Y006250D01*
X004867Y006348D02*
X005192Y006348D01*
X005192Y006447D02*
X004867Y006447D01*
X004867Y006545D02*
X005192Y006545D01*
X005192Y006644D02*
X004867Y006644D01*
X004867Y006742D02*
X005192Y006742D01*
X005192Y006841D02*
X004867Y006841D01*
X004867Y006939D02*
X005192Y006939D01*
X005192Y007038D02*
X004867Y007038D01*
X004867Y007136D02*
X005192Y007136D01*
X005192Y007235D02*
X004867Y007235D01*
X004867Y007333D02*
X005192Y007333D01*
X005192Y007432D02*
X004867Y007432D01*
X004867Y007530D02*
X005192Y007530D01*
X005192Y007629D02*
X004867Y007629D01*
X004867Y007692D02*
X004779Y007780D01*
X003997Y007780D01*
X003997Y008039D01*
X005059Y008039D01*
X005092Y008006D01*
X005192Y007906D01*
X005192Y004941D01*
X005160Y004929D01*
X004867Y004683D01*
X004867Y007692D01*
X004832Y007727D02*
X005192Y007727D01*
X005192Y007826D02*
X003997Y007826D01*
X003997Y007924D02*
X005174Y007924D01*
X005075Y008023D02*
X003997Y008023D01*
X003287Y008023D02*
X002997Y008023D01*
X002997Y008121D02*
X003287Y008121D01*
X003287Y008220D02*
X002997Y008220D01*
X002997Y008318D02*
X003287Y008318D01*
X003287Y008417D02*
X002997Y008417D01*
X002997Y008515D02*
X003287Y008515D01*
X003287Y008614D02*
X002997Y008614D01*
X002899Y008712D02*
X003385Y008712D01*
X003483Y008811D02*
X002801Y008811D01*
X002702Y008909D02*
X004332Y008909D01*
X004332Y009008D02*
X002604Y009008D01*
X002505Y009106D02*
X004332Y009106D01*
X004332Y009205D02*
X000438Y009205D01*
X000438Y009303D02*
X004332Y009303D01*
X004332Y009402D02*
X000438Y009402D01*
X000438Y009500D02*
X001736Y009500D01*
X001717Y009508D02*
X001831Y009461D01*
X001953Y009461D01*
X002067Y009508D01*
X002154Y009594D01*
X002201Y009708D01*
X002201Y009830D01*
X002190Y009857D01*
X002239Y009906D01*
X002239Y010463D01*
X002183Y010519D01*
X002239Y010575D01*
X002239Y010661D01*
X002456Y010444D01*
X002829Y010444D01*
X003092Y010708D01*
X003092Y011080D01*
X002829Y011344D01*
X002456Y011344D01*
X002239Y011127D01*
X002239Y011132D01*
X002151Y011220D01*
X001633Y011220D01*
X001545Y011132D01*
X001545Y010575D01*
X001601Y010519D01*
X001545Y010463D01*
X001545Y009906D01*
X001595Y009857D01*
X001584Y009830D01*
X001584Y009708D01*
X001631Y009594D01*
X001717Y009508D01*
X001629Y009599D02*
X000438Y009599D01*
X000438Y009697D02*
X001588Y009697D01*
X001584Y009796D02*
X000438Y009796D01*
X000438Y009894D02*
X001557Y009894D01*
X001545Y009993D02*
X000438Y009993D01*
X000438Y010091D02*
X001545Y010091D01*
X001545Y010190D02*
X000438Y010190D01*
X000438Y010288D02*
X001545Y010288D01*
X001545Y010387D02*
X000438Y010387D01*
X000438Y010485D02*
X001567Y010485D01*
X001545Y010584D02*
X000438Y010584D01*
X000438Y010682D02*
X001545Y010682D01*
X001545Y010781D02*
X000438Y010781D01*
X000438Y010879D02*
X001545Y010879D01*
X001545Y010978D02*
X000438Y010978D01*
X000438Y011076D02*
X001545Y011076D01*
X001587Y011175D02*
X000438Y011175D01*
X000438Y011273D02*
X002385Y011273D01*
X002286Y011175D02*
X002197Y011175D01*
X002430Y011470D02*
X000438Y011470D01*
X000438Y011372D02*
X003795Y011372D01*
X003795Y011470D02*
X002855Y011470D01*
X002953Y011569D02*
X003801Y011569D01*
X003851Y011644D02*
X003795Y011700D01*
X003795Y012257D01*
X003845Y012307D01*
X003834Y012333D01*
X003834Y012455D01*
X003834Y012357D02*
X002159Y012357D01*
X002154Y012344D02*
X002201Y012458D01*
X002201Y012554D02*
X003874Y012554D01*
X003964Y012652D02*
X002235Y012652D01*
X002239Y012751D02*
X004545Y012751D01*
X004545Y012849D02*
X002239Y012849D01*
X002239Y012948D02*
X004545Y012948D01*
X004575Y013046D02*
X002239Y013046D01*
X002239Y013145D02*
X004545Y013145D01*
X004545Y013243D02*
X002878Y013243D01*
X002976Y013342D02*
X004844Y013342D01*
X004941Y013342D02*
X005323Y013342D01*
X005323Y013440D02*
X005239Y013440D01*
X005239Y013539D02*
X005323Y013539D01*
X005351Y013637D02*
X005224Y013637D01*
X005334Y013736D02*
X003092Y013736D01*
X003089Y013834D02*
X005335Y013834D01*
X005376Y013933D02*
X002990Y013933D01*
X002892Y014031D02*
X005469Y014031D01*
X004941Y013637D02*
X004844Y013637D01*
X004844Y013539D02*
X004941Y013539D01*
X004941Y013440D02*
X004844Y013440D01*
X004545Y013440D02*
X003075Y013440D01*
X003092Y013539D02*
X004545Y013539D01*
X004561Y013637D02*
X003092Y013637D01*
X002407Y013243D02*
X002209Y013243D01*
X002239Y013342D02*
X002308Y013342D01*
X001575Y013243D02*
X000438Y013243D01*
X000438Y013145D02*
X001545Y013145D01*
X001545Y013046D02*
X000438Y013046D01*
X000438Y012948D02*
X001545Y012948D01*
X001545Y012849D02*
X000438Y012849D01*
X000438Y012751D02*
X001545Y012751D01*
X001549Y012652D02*
X000438Y012652D01*
X000438Y012554D02*
X001584Y012554D01*
X001585Y012455D02*
X000438Y012455D01*
X000438Y012357D02*
X001626Y012357D01*
X001717Y012258D02*
X001831Y012211D01*
X001953Y012211D01*
X002067Y012258D01*
X002370Y012258D01*
X002154Y012344D02*
X002067Y012258D01*
X002612Y012258D02*
X002672Y012258D01*
X002672Y012344D02*
X002672Y011924D01*
X003092Y011924D01*
X003092Y012080D01*
X002829Y012344D01*
X002672Y012344D01*
X002672Y012160D02*
X002612Y012160D01*
X002612Y012061D02*
X002672Y012061D01*
X002672Y011963D02*
X002612Y011963D01*
X002612Y011766D02*
X002672Y011766D01*
X002672Y011667D02*
X002612Y011667D01*
X002612Y011569D02*
X002672Y011569D01*
X002672Y011470D02*
X002612Y011470D01*
X002331Y011569D02*
X000438Y011569D01*
X000438Y011667D02*
X002233Y011667D01*
X002900Y011273D02*
X004094Y011273D01*
X004094Y011261D02*
X003795Y011261D01*
X003795Y011073D01*
X003805Y011035D01*
X003825Y011001D01*
X003853Y010973D01*
X003887Y010953D01*
X003926Y010943D01*
X004094Y010943D01*
X004094Y011261D01*
X004094Y011175D02*
X004191Y011175D01*
X004191Y011076D02*
X004094Y011076D01*
X004094Y010978D02*
X004191Y010978D01*
X004317Y010879D02*
X003092Y010879D01*
X003092Y010781D02*
X003818Y010781D01*
X003795Y010682D02*
X003067Y010682D01*
X002968Y010584D02*
X003795Y010584D01*
X003795Y010485D02*
X002870Y010485D01*
X002415Y010485D02*
X002217Y010485D01*
X002239Y010387D02*
X003795Y010387D01*
X003795Y010288D02*
X002239Y010288D01*
X002239Y010190D02*
X003806Y010190D01*
X003798Y010091D02*
X002239Y010091D01*
X002239Y009993D02*
X003795Y009993D01*
X003795Y009894D02*
X002227Y009894D01*
X002201Y009796D02*
X003795Y009796D01*
X003795Y009697D02*
X002196Y009697D01*
X002155Y009599D02*
X003795Y009599D01*
X003826Y009500D02*
X002049Y009500D01*
X002041Y009106D02*
X000438Y009106D01*
X000438Y009008D02*
X001979Y009008D01*
X001957Y008909D02*
X000438Y008909D01*
X000438Y008811D02*
X001966Y008811D01*
X002011Y008712D02*
X000438Y008712D01*
X000438Y008614D02*
X002134Y008614D01*
X002287Y008515D02*
X000438Y008515D01*
X000438Y008417D02*
X002287Y008417D01*
X002287Y008318D02*
X000438Y008318D01*
X000438Y008220D02*
X002287Y008220D01*
X002287Y008121D02*
X000438Y008121D01*
X000438Y008023D02*
X002287Y008023D01*
X002287Y007924D02*
X000438Y007924D01*
X000438Y007826D02*
X002287Y007826D01*
X002997Y007826D02*
X003287Y007826D01*
X003287Y007924D02*
X002997Y007924D01*
X003997Y008515D02*
X004583Y008515D01*
X004484Y008614D02*
X003997Y008614D01*
X003899Y008712D02*
X004386Y008712D01*
X004341Y008811D02*
X003801Y008811D01*
X005392Y008220D02*
X005442Y008220D01*
X005392Y008121D02*
X005540Y008121D01*
X005639Y008023D02*
X005392Y008023D01*
X005392Y007924D02*
X005737Y007924D01*
X005836Y007826D02*
X005392Y007826D01*
X005392Y007727D02*
X005934Y007727D01*
X006033Y007629D02*
X005392Y007629D01*
X005392Y007530D02*
X006131Y007530D01*
X006230Y007432D02*
X005392Y007432D01*
X005981Y005068D02*
X013142Y005068D01*
X013142Y004969D02*
X006251Y004969D01*
X006360Y004929D02*
X006360Y004929D01*
X006430Y004871D02*
X013142Y004871D01*
X013142Y004772D02*
X006548Y004772D01*
X006665Y004674D02*
X013142Y004674D01*
X013142Y004575D02*
X006729Y004575D01*
X006679Y004662D02*
X006679Y004662D01*
X006679Y004662D01*
X006786Y004477D02*
X013142Y004477D01*
X013142Y004378D02*
X006843Y004378D01*
X006888Y004301D02*
X006888Y004301D01*
X006892Y004280D02*
X013142Y004280D01*
X013142Y004181D02*
X006909Y004181D01*
X006926Y004083D02*
X013142Y004083D01*
X013142Y003984D02*
X006944Y003984D01*
X006959Y003886D02*
X013142Y003886D01*
X013142Y003787D02*
X006942Y003787D01*
X006925Y003689D02*
X013142Y003689D01*
X013142Y003590D02*
X006907Y003590D01*
X006890Y003492D02*
X013142Y003492D01*
X013142Y003393D02*
X006838Y003393D01*
X006888Y003480D02*
X006888Y003480D01*
X006781Y003295D02*
X013142Y003295D01*
X013142Y003196D02*
X006724Y003196D01*
X006679Y003119D02*
X006679Y003119D01*
X006654Y003098D02*
X013142Y003098D01*
X013142Y002999D02*
X006537Y002999D01*
X006419Y002901D02*
X013142Y002901D01*
X013142Y002802D02*
X006226Y002802D01*
X005392Y002704D02*
X008077Y002704D01*
X007978Y002605D02*
X005392Y002605D01*
X005392Y002507D02*
X007892Y002507D01*
X007892Y002408D02*
X005392Y002408D01*
X005392Y002310D02*
X007892Y002310D01*
X007892Y002211D02*
X005392Y002211D01*
X005392Y002113D02*
X007892Y002113D01*
X007887Y002014D02*
X005392Y002014D01*
X005392Y001916D02*
X007789Y001916D01*
X007967Y001811D02*
X007850Y001694D01*
X005309Y001694D01*
X005192Y001811D01*
X005192Y002839D01*
X005160Y002851D01*
X005160Y002851D01*
X004867Y003097D01*
X004867Y000398D01*
X017842Y000398D01*
X017842Y002321D01*
X017945Y002423D01*
X018090Y002423D01*
X018182Y002423D01*
X018182Y002807D01*
X017921Y003068D01*
X017921Y003501D01*
X017914Y003494D01*
X017904Y003469D01*
X017817Y003383D01*
X017703Y003336D01*
X017581Y003336D01*
X017489Y003374D01*
X017489Y003233D01*
X017191Y003233D01*
X017191Y003136D01*
X017489Y003136D01*
X017489Y002948D01*
X017479Y002910D01*
X017459Y002876D01*
X017431Y002848D01*
X017397Y002828D01*
X017359Y002818D01*
X017355Y002818D01*
X017473Y002699D01*
X017544Y002528D01*
X017544Y001320D01*
X017473Y001149D01*
X017343Y001018D01*
X017172Y000947D01*
X016987Y000947D01*
X016816Y001018D01*
X016685Y001149D01*
X016614Y001320D01*
X016614Y002162D01*
X016588Y002100D01*
X016549Y002041D01*
X016499Y001992D01*
X016441Y001952D01*
X016376Y001926D01*
X016307Y001912D01*
X016301Y001912D01*
X016301Y002447D01*
X016243Y002447D01*
X016243Y001912D01*
X016240Y001912D01*
X016240Y001801D01*
X016259Y001782D01*
X016314Y001651D01*
X016314Y001095D01*
X016259Y000964D01*
X016159Y000864D01*
X016028Y000810D01*
X015886Y000810D01*
X015755Y000864D01*
X015655Y000964D01*
X015642Y000995D01*
X015630Y000964D01*
X015529Y000864D01*
X015398Y000810D01*
X015256Y000810D01*
X015125Y000864D01*
X015033Y000956D01*
X014996Y000866D01*
X014871Y000741D01*
X014795Y000665D01*
X014696Y000624D01*
X013588Y000624D01*
X013489Y000665D01*
X013405Y000749D01*
X013324Y000749D01*
X013324Y000740D01*
X013236Y000653D01*
X012718Y000653D01*
X012642Y000728D01*
X012566Y000653D01*
X012048Y000653D01*
X011961Y000740D01*
X011961Y000749D01*
X011707Y000749D01*
X011630Y000672D01*
X011073Y000672D01*
X011017Y000728D01*
X010991Y000702D01*
X010957Y000682D01*
X010919Y000672D01*
X010731Y000672D01*
X010731Y000971D01*
X010634Y000971D01*
X010634Y000672D01*
X010446Y000672D01*
X010408Y000682D01*
X010397Y000689D01*
X010380Y000672D01*
X009823Y000672D01*
X009767Y000728D01*
X009741Y000702D01*
X009707Y000682D01*
X009669Y000672D01*
X009481Y000672D01*
X009481Y000971D01*
X009384Y000971D01*
X009066Y000971D01*
X009066Y000802D01*
X009076Y000764D01*
X009096Y000730D01*
X009124Y000702D01*
X009158Y000682D01*
X009196Y000672D01*
X009384Y000672D01*
X009384Y000971D01*
X009384Y001068D01*
X009384Y001366D01*
X009327Y001366D01*
X009327Y001854D01*
X009014Y001854D01*
X009021Y001883D01*
X009021Y001954D01*
X009327Y001954D01*
X009327Y001854D01*
X009427Y001854D01*
X009427Y001359D01*
X009481Y001359D01*
X009481Y001068D01*
X009384Y001068D01*
X009066Y001068D01*
X009066Y001236D01*
X009076Y001274D01*
X009096Y001308D01*
X009124Y001336D01*
X009158Y001356D01*
X009171Y001359D01*
X009062Y001359D01*
X009024Y001369D01*
X008990Y001389D01*
X008962Y001417D01*
X008942Y001451D01*
X008932Y001489D01*
X008932Y001765D01*
X008929Y001763D01*
X008891Y001753D01*
X008567Y001753D01*
X008567Y002168D01*
X008467Y002168D01*
X008467Y001753D01*
X008143Y001753D01*
X008105Y001763D01*
X008071Y001783D01*
X008043Y001811D01*
X008023Y001845D01*
X008018Y001862D01*
X007967Y001811D01*
X007973Y001817D02*
X008039Y001817D01*
X007874Y001719D02*
X008932Y001719D01*
X008932Y001620D02*
X004867Y001620D01*
X004867Y001522D02*
X008932Y001522D01*
X008959Y001423D02*
X004867Y001423D01*
X004867Y001325D02*
X009112Y001325D01*
X009066Y001226D02*
X004867Y001226D01*
X004867Y001128D02*
X009066Y001128D01*
X009066Y000931D02*
X004867Y000931D01*
X004867Y001029D02*
X009384Y001029D01*
X009384Y000931D02*
X009481Y000931D01*
X009481Y000832D02*
X009384Y000832D01*
X009384Y000734D02*
X009481Y000734D01*
X009094Y000734D02*
X004867Y000734D01*
X004867Y000832D02*
X009066Y000832D01*
X009384Y001128D02*
X009481Y001128D01*
X009481Y001226D02*
X009384Y001226D01*
X009384Y001325D02*
X009481Y001325D01*
X009427Y001423D02*
X009327Y001423D01*
X009327Y001522D02*
X009427Y001522D01*
X009427Y001620D02*
X009327Y001620D01*
X009327Y001719D02*
X009427Y001719D01*
X009427Y001817D02*
X009327Y001817D01*
X009327Y001916D02*
X009021Y001916D01*
X009327Y001954D02*
X009327Y002051D01*
X009424Y001954D01*
X009327Y001954D01*
X009327Y002014D02*
X009364Y002014D01*
X009427Y001951D02*
X009524Y001854D01*
X009427Y001854D01*
X009427Y001951D01*
X009427Y001916D02*
X009463Y001916D01*
X009822Y001916D02*
X010732Y001916D01*
X010732Y002014D02*
X009822Y002014D01*
X009822Y002113D02*
X010732Y002113D01*
X010732Y002211D02*
X009822Y002211D01*
X009822Y002310D02*
X010732Y002310D01*
X010779Y002408D02*
X009775Y002408D01*
X009155Y002507D02*
X013142Y002507D01*
X013142Y002605D02*
X009056Y002605D01*
X008958Y002704D02*
X013142Y002704D01*
X013142Y002408D02*
X011575Y002408D01*
X011622Y002310D02*
X013142Y002310D01*
X013142Y002211D02*
X011622Y002211D01*
X011622Y002113D02*
X013142Y002113D01*
X013142Y002014D02*
X011622Y002014D01*
X011622Y001916D02*
X013142Y001916D01*
X014475Y002823D02*
X014599Y002699D01*
X014656Y002564D01*
X014656Y002753D01*
X014710Y002884D01*
X014810Y002984D01*
X014941Y003039D01*
X015083Y003039D01*
X015137Y003016D01*
X015137Y003130D01*
X015063Y003204D01*
X014952Y003315D01*
X014952Y003318D01*
X014883Y003318D01*
X014795Y003406D01*
X014795Y003553D01*
X014777Y003596D01*
X014777Y004567D01*
X014795Y004611D01*
X014795Y004632D01*
X014811Y004648D01*
X014814Y004655D01*
X014881Y004723D01*
X015881Y005723D01*
X015969Y005759D01*
X016334Y005759D01*
X016334Y005830D01*
X016381Y005944D01*
X016456Y006019D01*
X015484Y006019D01*
X015464Y006039D01*
X015422Y006039D01*
X014537Y006924D01*
X014537Y007114D01*
X014537Y008239D01*
X014787Y008489D01*
X014787Y008693D01*
X014758Y008693D01*
X014753Y008698D01*
X014734Y008693D01*
X014566Y008693D01*
X014566Y009011D01*
X014469Y009011D01*
X014469Y008693D01*
X014301Y008693D01*
X014262Y008703D01*
X014247Y008712D01*
X014247Y008642D01*
X014177Y008572D01*
X014177Y007766D01*
X014202Y007706D01*
X014202Y007582D01*
X014155Y007468D01*
X014068Y007381D01*
X013954Y007334D01*
X013830Y007334D01*
X013717Y007381D01*
X013604Y007493D01*
X013557Y007607D01*
X013557Y008554D01*
X012977Y008554D01*
X012977Y007469D01*
X013225Y007469D01*
X013342Y007352D01*
X013342Y005414D01*
X013613Y005414D01*
X013706Y005453D01*
X013828Y005453D01*
X013942Y005406D01*
X014029Y005319D01*
X014076Y005205D01*
X014076Y005083D01*
X014029Y004969D01*
X013942Y004883D01*
X013828Y004836D01*
X013706Y004836D01*
X013613Y004874D01*
X013342Y004874D01*
X013342Y004179D01*
X013353Y004190D01*
X013387Y004210D01*
X013426Y004220D01*
X013594Y004220D01*
X013594Y003902D01*
X013691Y003902D01*
X013795Y003902D01*
X014094Y003902D01*
X014094Y004220D01*
X013926Y004220D01*
X013892Y004211D01*
X013859Y004220D01*
X013691Y004220D01*
X013691Y003902D01*
X013691Y003805D01*
X014094Y003805D01*
X014094Y003902D01*
X014191Y003902D01*
X014489Y003902D01*
X014489Y004090D01*
X014479Y004128D01*
X014459Y004162D01*
X014431Y004190D01*
X014397Y004210D01*
X014359Y004220D01*
X014191Y004220D01*
X014191Y003902D01*
X014191Y003805D01*
X014489Y003805D01*
X014489Y003617D01*
X014479Y003579D01*
X014459Y003545D01*
X014433Y003519D01*
X014489Y003463D01*
X014489Y002906D01*
X014475Y002892D01*
X014475Y002823D01*
X014496Y002802D02*
X014676Y002802D01*
X014656Y002704D02*
X014595Y002704D01*
X014638Y002605D02*
X014656Y002605D01*
X014726Y002901D02*
X014484Y002901D01*
X014489Y002999D02*
X014846Y002999D01*
X015071Y003196D02*
X014489Y003196D01*
X014489Y003098D02*
X015137Y003098D01*
X014973Y003295D02*
X014489Y003295D01*
X014489Y003393D02*
X014808Y003393D01*
X014795Y003492D02*
X014461Y003492D01*
X014482Y003590D02*
X014780Y003590D01*
X014777Y003689D02*
X014489Y003689D01*
X014489Y003787D02*
X014777Y003787D01*
X014777Y003886D02*
X014191Y003886D01*
X014094Y003886D02*
X013691Y003886D01*
X013691Y003984D02*
X013594Y003984D01*
X013594Y004083D02*
X013691Y004083D01*
X013691Y004181D02*
X013594Y004181D01*
X013344Y004181D02*
X013342Y004181D01*
X013342Y004280D02*
X014777Y004280D01*
X014777Y004378D02*
X013342Y004378D01*
X013342Y004477D02*
X014777Y004477D01*
X014781Y004575D02*
X013342Y004575D01*
X013342Y004674D02*
X014832Y004674D01*
X014931Y004772D02*
X013342Y004772D01*
X013342Y004871D02*
X013621Y004871D01*
X013913Y004871D02*
X015029Y004871D01*
X015128Y004969D02*
X014028Y004969D01*
X014069Y005068D02*
X015226Y005068D01*
X015325Y005166D02*
X014076Y005166D01*
X014051Y005265D02*
X015423Y005265D01*
X015522Y005363D02*
X013984Y005363D01*
X013342Y005462D02*
X015620Y005462D01*
X015719Y005560D02*
X013342Y005560D01*
X013342Y005659D02*
X015817Y005659D01*
X015965Y005757D02*
X013342Y005757D01*
X013342Y005856D02*
X016344Y005856D01*
X016391Y005954D02*
X013342Y005954D01*
X013342Y006053D02*
X015408Y006053D01*
X015310Y006151D02*
X013342Y006151D01*
X013342Y006250D02*
X015211Y006250D01*
X015113Y006348D02*
X013342Y006348D01*
X013342Y006447D02*
X015014Y006447D01*
X014916Y006545D02*
X013342Y006545D01*
X013342Y006644D02*
X014817Y006644D01*
X014719Y006742D02*
X013342Y006742D01*
X013342Y006841D02*
X014620Y006841D01*
X014537Y006939D02*
X013342Y006939D01*
X013342Y007038D02*
X014537Y007038D01*
X014537Y007136D02*
X013342Y007136D01*
X013342Y007235D02*
X014537Y007235D01*
X014537Y007333D02*
X013342Y007333D01*
X013262Y007432D02*
X013666Y007432D01*
X013589Y007530D02*
X012977Y007530D01*
X012977Y007629D02*
X013557Y007629D01*
X013557Y007727D02*
X012977Y007727D01*
X012977Y007826D02*
X013557Y007826D01*
X013557Y007924D02*
X012977Y007924D01*
X012977Y008023D02*
X013557Y008023D01*
X013557Y008121D02*
X012977Y008121D01*
X012977Y008220D02*
X013557Y008220D01*
X013557Y008318D02*
X012977Y008318D01*
X012977Y008417D02*
X013557Y008417D01*
X013557Y008515D02*
X012977Y008515D01*
X014177Y008515D02*
X014787Y008515D01*
X014787Y008614D02*
X014219Y008614D01*
X014177Y008417D02*
X014714Y008417D01*
X014616Y008318D02*
X014177Y008318D01*
X014177Y008220D02*
X014537Y008220D01*
X014537Y008121D02*
X014177Y008121D01*
X014177Y008023D02*
X014537Y008023D01*
X014537Y007924D02*
X014177Y007924D01*
X014177Y007826D02*
X014537Y007826D01*
X014537Y007727D02*
X014193Y007727D01*
X014202Y007629D02*
X014537Y007629D01*
X014537Y007530D02*
X014180Y007530D01*
X014118Y007432D02*
X014537Y007432D01*
X015747Y007530D02*
X016384Y007530D01*
X016384Y007432D02*
X016481Y007432D01*
X016481Y007333D02*
X016384Y007333D01*
X016384Y007235D02*
X016481Y007235D01*
X016093Y007235D02*
X016002Y007235D01*
X016066Y007333D02*
X015903Y007333D01*
X015805Y007432D02*
X016066Y007432D01*
X016066Y007629D02*
X015827Y007629D01*
X015925Y007727D02*
X016066Y007727D01*
X016100Y007136D02*
X022434Y007136D01*
X022369Y007038D02*
X022334Y007038D01*
X022364Y006939D02*
X022369Y006939D01*
X022364Y006841D02*
X022369Y006841D01*
X022165Y006742D02*
X022066Y006742D01*
X021969Y006742D02*
X021136Y006742D01*
X021136Y006644D02*
X021670Y006644D01*
X021670Y006545D02*
X021136Y006545D01*
X021136Y006447D02*
X021191Y006447D01*
X021343Y006447D02*
X021685Y006447D01*
X021680Y006348D02*
X021499Y006348D01*
X021557Y006250D02*
X021670Y006250D01*
X021602Y006151D02*
X021576Y006151D01*
X021977Y006019D02*
X022017Y006059D01*
X022017Y006144D01*
X022439Y005954D02*
X028220Y005954D01*
X028247Y005972D02*
X028186Y005931D01*
X028135Y005880D01*
X028094Y005819D01*
X028066Y005752D01*
X028053Y005684D01*
X028602Y005684D01*
X028602Y005604D01*
X028053Y005604D01*
X028066Y005536D01*
X028094Y005469D01*
X028135Y005408D01*
X028186Y005357D01*
X028247Y005316D01*
X028314Y005288D01*
X028386Y005274D01*
X028602Y005274D01*
X028602Y005604D01*
X028682Y005604D01*
X028682Y005274D01*
X028899Y005274D01*
X028970Y005288D01*
X029037Y005316D01*
X029098Y005357D01*
X029150Y005408D01*
X029190Y005469D01*
X029218Y005536D01*
X029231Y005604D01*
X028682Y005604D01*
X028682Y005684D01*
X028602Y005684D01*
X028602Y006014D01*
X028386Y006014D01*
X028314Y006000D01*
X028247Y005972D01*
X028118Y005856D02*
X022364Y005856D01*
X022340Y005757D02*
X028068Y005757D01*
X028062Y005560D02*
X023551Y005560D01*
X023453Y005659D02*
X028602Y005659D01*
X028682Y005659D02*
X030846Y005659D01*
X030846Y005757D02*
X029216Y005757D01*
X029218Y005752D02*
X029190Y005819D01*
X029150Y005880D01*
X029098Y005931D01*
X029037Y005972D01*
X028970Y006000D01*
X028899Y006014D01*
X028682Y006014D01*
X028682Y005684D01*
X029231Y005684D01*
X029218Y005752D01*
X029166Y005856D02*
X030846Y005856D01*
X030846Y005954D02*
X029064Y005954D01*
X028970Y006288D02*
X029037Y006316D01*
X029098Y006357D01*
X029150Y006408D01*
X029190Y006469D01*
X029218Y006536D01*
X029231Y006604D01*
X028682Y006604D01*
X028682Y006274D01*
X028899Y006274D01*
X028970Y006288D01*
X029085Y006348D02*
X030846Y006348D01*
X030846Y006250D02*
X024165Y006250D01*
X024165Y006241D02*
X024165Y006585D01*
X023790Y006585D01*
X023790Y006685D01*
X024165Y006685D01*
X024165Y007029D01*
X024155Y007067D01*
X024135Y007101D01*
X024107Y007129D01*
X024073Y007149D01*
X024035Y007159D01*
X023790Y007159D01*
X023790Y006685D01*
X023690Y006685D01*
X023690Y007159D01*
X023444Y007159D01*
X023406Y007149D01*
X023372Y007129D01*
X023344Y007101D01*
X023324Y007067D01*
X023314Y007029D01*
X023314Y006685D01*
X023690Y006685D01*
X023690Y006585D01*
X023790Y006585D01*
X023790Y006111D01*
X024035Y006111D01*
X024073Y006121D01*
X024107Y006141D01*
X024135Y006169D01*
X024155Y006203D01*
X024165Y006241D01*
X024117Y006151D02*
X030846Y006151D01*
X030846Y006053D02*
X022537Y006053D01*
X023172Y006151D02*
X023362Y006151D01*
X023372Y006141D02*
X023406Y006121D01*
X023444Y006111D01*
X023690Y006111D01*
X023690Y006585D01*
X023314Y006585D01*
X023314Y006241D01*
X023324Y006203D01*
X023344Y006169D01*
X023372Y006141D01*
X023314Y006250D02*
X023220Y006250D01*
X023220Y006348D02*
X023314Y006348D01*
X023314Y006447D02*
X023220Y006447D01*
X023220Y006545D02*
X023314Y006545D01*
X023220Y006644D02*
X023690Y006644D01*
X023690Y006742D02*
X023790Y006742D01*
X023790Y006644D02*
X028602Y006644D01*
X028602Y006604D02*
X028053Y006604D01*
X028066Y006536D01*
X028094Y006469D01*
X028135Y006408D01*
X028186Y006357D01*
X028247Y006316D01*
X028314Y006288D01*
X028386Y006274D01*
X028602Y006274D01*
X028602Y006604D01*
X028602Y006684D01*
X028053Y006684D01*
X028066Y006752D01*
X028094Y006819D01*
X028135Y006880D01*
X028186Y006931D01*
X028247Y006972D01*
X028314Y007000D01*
X028386Y007014D01*
X028602Y007014D01*
X028602Y006684D01*
X028682Y006684D01*
X028682Y007014D01*
X028899Y007014D01*
X028970Y007000D01*
X029037Y006972D01*
X029098Y006931D01*
X029150Y006880D01*
X029190Y006819D01*
X029218Y006752D01*
X029231Y006684D01*
X028682Y006684D01*
X028682Y006604D01*
X028602Y006604D01*
X028602Y006545D02*
X028682Y006545D01*
X028682Y006447D02*
X028602Y006447D01*
X028602Y006348D02*
X028682Y006348D01*
X028682Y006644D02*
X030846Y006644D01*
X030846Y006742D02*
X029220Y006742D01*
X029176Y006841D02*
X030846Y006841D01*
X030846Y006939D02*
X029087Y006939D01*
X028682Y006939D02*
X028602Y006939D01*
X028602Y006841D02*
X028682Y006841D01*
X028682Y006742D02*
X028602Y006742D01*
X028198Y006939D02*
X024165Y006939D01*
X024165Y006841D02*
X028108Y006841D01*
X028064Y006742D02*
X024165Y006742D01*
X024165Y006545D02*
X028065Y006545D01*
X028109Y006447D02*
X024165Y006447D01*
X024165Y006348D02*
X028199Y006348D01*
X028602Y005954D02*
X028682Y005954D01*
X028682Y005856D02*
X028602Y005856D01*
X028602Y005757D02*
X028682Y005757D01*
X028682Y005560D02*
X028602Y005560D01*
X028602Y005462D02*
X028682Y005462D01*
X028682Y005363D02*
X028602Y005363D01*
X028180Y005363D02*
X024141Y005363D01*
X024165Y005265D02*
X030846Y005265D01*
X030846Y005363D02*
X029104Y005363D01*
X029185Y005462D02*
X030846Y005462D01*
X030846Y005560D02*
X029223Y005560D01*
X029175Y006447D02*
X030846Y006447D01*
X030846Y006545D02*
X029220Y006545D01*
X030846Y007038D02*
X024163Y007038D01*
X024095Y007136D02*
X030846Y007136D01*
X030846Y007235D02*
X021941Y007235D01*
X021938Y007230D02*
X021958Y007264D01*
X021968Y007302D01*
X021968Y007471D01*
X021650Y007471D01*
X021650Y007172D01*
X021838Y007172D01*
X021876Y007182D01*
X021910Y007202D01*
X021938Y007230D01*
X021968Y007333D02*
X030846Y007333D01*
X030846Y007432D02*
X021968Y007432D01*
X021968Y007568D02*
X021650Y007568D01*
X021650Y007866D01*
X021838Y007866D01*
X021876Y007856D01*
X021910Y007836D01*
X021938Y007808D01*
X021958Y007774D01*
X021968Y007736D01*
X021968Y007568D01*
X021968Y007629D02*
X030846Y007629D01*
X030846Y007727D02*
X021968Y007727D01*
X021921Y007826D02*
X030846Y007826D01*
X030846Y007924D02*
X021257Y007924D01*
X021252Y007826D02*
X021283Y007826D01*
X021343Y008023D02*
X030846Y008023D01*
X030846Y008121D02*
X021343Y008121D01*
X021343Y008220D02*
X030846Y008220D01*
X030846Y008318D02*
X021343Y008318D01*
X021343Y008417D02*
X030846Y008417D01*
X030846Y008515D02*
X021343Y008515D01*
X021258Y008614D02*
X030846Y008614D01*
X030846Y008712D02*
X020910Y008712D01*
X021009Y008811D02*
X023650Y008811D01*
X023552Y008909D02*
X022476Y008909D01*
X023115Y009008D02*
X023453Y009008D01*
X023355Y009106D02*
X023158Y009106D01*
X023158Y009205D02*
X023246Y009205D01*
X024178Y009568D02*
X024178Y009866D01*
X024178Y009971D01*
X024275Y009971D01*
X024275Y010068D01*
X024178Y010068D01*
X024178Y010366D01*
X023990Y010366D01*
X023952Y010356D01*
X023918Y010336D01*
X023892Y010310D01*
X023836Y010366D01*
X023717Y010366D01*
X023717Y010374D01*
X023984Y010374D01*
X024072Y010462D01*
X024072Y010826D01*
X024004Y010894D01*
X024072Y010962D01*
X024072Y011326D01*
X024004Y011394D01*
X024072Y011462D01*
X024072Y011826D01*
X024004Y011894D01*
X024072Y011962D01*
X024072Y012326D01*
X023984Y012414D01*
X022990Y012414D01*
X022950Y012374D01*
X022848Y012374D01*
X022817Y012406D01*
X022744Y012436D01*
X022745Y012436D01*
X022832Y012523D01*
X022879Y012636D01*
X022879Y012759D01*
X022854Y012818D01*
X023215Y012818D01*
X023256Y012719D01*
X023342Y012633D01*
X023456Y012586D01*
X023578Y012586D01*
X023692Y012633D01*
X023779Y012719D01*
X023826Y012833D01*
X023826Y012955D01*
X023791Y013039D01*
X024420Y013039D01*
X024420Y012781D01*
X024508Y012693D01*
X026026Y012693D01*
X026035Y012702D01*
X026035Y012589D01*
X026123Y012501D01*
X026327Y012501D01*
X026327Y012491D01*
X026279Y012491D01*
X026224Y012437D01*
X025859Y012437D01*
X025837Y012414D01*
X025557Y012414D01*
X025557Y012154D01*
X025537Y012154D01*
X025537Y012134D01*
X024962Y012134D01*
X024962Y012004D01*
X024972Y011966D01*
X024992Y011932D01*
X025020Y011904D01*
X025037Y011894D01*
X025020Y011884D01*
X024992Y011856D01*
X024972Y011822D01*
X024962Y011784D01*
X024962Y011654D01*
X025537Y011654D01*
X025537Y011634D01*
X024962Y011634D01*
X024962Y011504D01*
X024972Y011466D01*
X024992Y011432D01*
X025020Y011404D01*
X025033Y011397D01*
X024962Y011326D01*
X024962Y010962D01*
X025030Y010894D01*
X024962Y010826D01*
X024962Y010462D01*
X025050Y010374D01*
X025317Y010374D01*
X025317Y010366D01*
X025198Y010366D01*
X025142Y010310D01*
X025116Y010336D01*
X025082Y010356D01*
X025044Y010366D01*
X024856Y010366D01*
X024856Y010068D01*
X024759Y010068D01*
X024759Y010366D01*
X024571Y010366D01*
X024533Y010356D01*
X024517Y010347D01*
X024501Y010356D01*
X024463Y010366D01*
X024275Y010366D01*
X024275Y010068D01*
X024759Y010068D01*
X024759Y009971D01*
X024441Y009971D01*
X024275Y009971D01*
X024275Y009568D01*
X024178Y009568D01*
X024178Y009599D02*
X024275Y009599D01*
X024275Y009697D02*
X024178Y009697D01*
X024178Y009796D02*
X024275Y009796D01*
X024275Y009894D02*
X024178Y009894D01*
X024275Y009993D02*
X024759Y009993D01*
X024759Y010091D02*
X024856Y010091D01*
X024856Y010190D02*
X024759Y010190D01*
X024759Y010288D02*
X024856Y010288D01*
X025037Y010387D02*
X023997Y010387D01*
X024072Y010485D02*
X024962Y010485D01*
X024962Y010584D02*
X024072Y010584D01*
X024072Y010682D02*
X024962Y010682D01*
X024962Y010781D02*
X024072Y010781D01*
X024019Y010879D02*
X025015Y010879D01*
X024962Y010978D02*
X024072Y010978D01*
X024072Y011076D02*
X024962Y011076D01*
X024962Y011175D02*
X024072Y011175D01*
X024072Y011273D02*
X024962Y011273D01*
X025007Y011372D02*
X024027Y011372D01*
X024072Y011470D02*
X024971Y011470D01*
X024962Y011569D02*
X024072Y011569D01*
X024072Y011667D02*
X024962Y011667D01*
X024962Y011766D02*
X024072Y011766D01*
X024034Y011864D02*
X025000Y011864D01*
X024974Y011963D02*
X024072Y011963D01*
X024072Y012061D02*
X024962Y012061D01*
X024962Y012154D02*
X025537Y012154D01*
X025537Y012414D01*
X025092Y012414D01*
X025054Y012404D01*
X025020Y012384D01*
X024992Y012356D01*
X024972Y012322D01*
X024962Y012284D01*
X024962Y012154D01*
X024962Y012160D02*
X024072Y012160D01*
X024072Y012258D02*
X024962Y012258D01*
X024993Y012357D02*
X024042Y012357D01*
X023711Y012652D02*
X026035Y012652D01*
X026071Y012554D02*
X022845Y012554D01*
X022879Y012652D02*
X023323Y012652D01*
X023243Y012751D02*
X022879Y012751D01*
X022570Y012697D02*
X022099Y012697D01*
X022099Y012500D02*
X022099Y012101D01*
X022017Y012019D01*
X021741Y012160D02*
X020793Y012160D01*
X020826Y012061D02*
X021709Y012061D01*
X021709Y011963D02*
X020826Y011963D01*
X020787Y011864D02*
X021747Y011864D01*
X021834Y011766D02*
X020700Y011766D01*
X020517Y012019D02*
X020435Y012101D01*
X020435Y012500D01*
X020435Y012697D02*
X020964Y012697D01*
X020782Y012652D02*
X021752Y012652D01*
X021752Y012554D02*
X020782Y012554D01*
X020782Y012455D02*
X021752Y012455D01*
X021785Y012357D02*
X020750Y012357D01*
X020714Y012258D02*
X021820Y012258D01*
X022299Y012258D02*
X022356Y012258D01*
X022334Y012160D02*
X022299Y012160D01*
X022326Y012061D02*
X022343Y012061D01*
X022326Y011963D02*
X022387Y011963D01*
X022426Y011864D02*
X022287Y011864D01*
X022359Y011766D02*
X022200Y011766D01*
X022334Y011667D02*
X018851Y011667D01*
X018923Y011766D02*
X020334Y011766D01*
X020247Y011864D02*
X020072Y011864D01*
X020084Y011876D02*
X020056Y011848D01*
X020022Y011828D01*
X019984Y011818D01*
X019816Y011818D01*
X019816Y012136D01*
X020114Y012136D01*
X020114Y011948D01*
X020104Y011910D01*
X020084Y011876D01*
X020114Y011963D02*
X020209Y011963D01*
X020209Y012061D02*
X020114Y012061D01*
X020235Y012160D02*
X019816Y012160D01*
X019719Y012160D02*
X018912Y012160D01*
X018912Y012258D02*
X019420Y012258D01*
X019420Y012357D02*
X018912Y012357D01*
X018960Y012455D02*
X019429Y012455D01*
X019442Y012554D02*
X019058Y012554D01*
X019211Y012652D02*
X019420Y012652D01*
X019420Y012136D02*
X019420Y011948D01*
X019430Y011910D01*
X019450Y011876D01*
X019478Y011848D01*
X019512Y011828D01*
X019551Y011818D01*
X019719Y011818D01*
X019719Y012136D01*
X019420Y012136D01*
X019420Y012061D02*
X018912Y012061D01*
X018948Y011963D02*
X019420Y011963D01*
X019462Y011864D02*
X018951Y011864D01*
X018433Y011667D02*
X014862Y011667D01*
X014864Y011569D02*
X022340Y011569D01*
X022380Y011470D02*
X014864Y011470D01*
X014864Y011372D02*
X022433Y011372D01*
X022362Y011273D02*
X014864Y011273D01*
X014864Y011175D02*
X022334Y011175D01*
X022336Y011076D02*
X014864Y011076D01*
X014852Y010978D02*
X022377Y010978D01*
X022476Y010879D02*
X015136Y010879D01*
X015231Y010781D02*
X021443Y010781D01*
X021441Y010682D02*
X015238Y010682D01*
X015238Y010584D02*
X021441Y010584D01*
X021392Y010485D02*
X018615Y010485D01*
X018679Y010387D02*
X021334Y010387D01*
X021176Y010288D02*
X018702Y010288D01*
X018695Y010190D02*
X021126Y010190D01*
X021126Y010091D02*
X018653Y010091D01*
X018535Y009993D02*
X021126Y009993D01*
X020014Y009205D02*
X019766Y009205D01*
X019668Y009106D02*
X019968Y009106D01*
X019957Y009008D02*
X019569Y009008D01*
X019562Y008909D02*
X019874Y008909D01*
X019776Y008811D02*
X019659Y008811D01*
X019455Y008582D02*
X019392Y008644D01*
X019455Y008582D02*
X019509Y008527D01*
X019509Y007541D01*
X019312Y007541D02*
X019312Y007849D01*
X019142Y008019D01*
X019054Y008318D02*
X018922Y008318D01*
X018922Y008417D02*
X019181Y008417D01*
X019230Y008318D02*
X019309Y008318D01*
X019110Y008515D02*
X018922Y008515D01*
X018922Y008614D02*
X019082Y008614D01*
X019085Y008712D02*
X018922Y008712D01*
X018883Y008811D02*
X019126Y008811D01*
X019222Y008909D02*
X018785Y008909D01*
X018686Y009008D02*
X019215Y009008D01*
X019124Y009106D02*
X018588Y009106D01*
X018489Y009205D02*
X019083Y009205D01*
X019082Y009303D02*
X017642Y009303D01*
X017600Y009402D02*
X019111Y009402D01*
X019185Y009500D02*
X017698Y009500D01*
X017797Y009599D02*
X019283Y009599D01*
X019382Y009697D02*
X017895Y009697D01*
X017994Y009796D02*
X019480Y009796D01*
X019579Y009894D02*
X018092Y009894D01*
X018191Y009993D02*
X018250Y009993D01*
X017836Y010288D02*
X015238Y010288D01*
X015238Y010190D02*
X016420Y010190D01*
X016276Y010091D02*
X015280Y010091D01*
X015364Y009993D02*
X016222Y009993D01*
X016207Y009894D02*
X015364Y009894D01*
X015364Y009796D02*
X016222Y009796D01*
X016276Y009697D02*
X015364Y009697D01*
X015364Y009599D02*
X016287Y009599D01*
X016287Y009500D02*
X015364Y009500D01*
X015315Y009402D02*
X016199Y009402D01*
X016101Y009303D02*
X015364Y009303D01*
X015364Y009205D02*
X016002Y009205D01*
X015904Y009106D02*
X015364Y009106D01*
X015364Y009008D02*
X015805Y009008D01*
X015707Y008909D02*
X015364Y008909D01*
X015364Y008811D02*
X015608Y008811D01*
X015510Y008712D02*
X015295Y008712D01*
X015247Y008614D02*
X015411Y008614D01*
X015313Y008515D02*
X015247Y008515D01*
X014566Y008712D02*
X014469Y008712D01*
X014469Y008811D02*
X014566Y008811D01*
X014566Y008909D02*
X014469Y008909D01*
X014469Y009008D02*
X014566Y009008D01*
X014940Y010485D02*
X018033Y010485D01*
X017934Y010387D02*
X015238Y010387D01*
X014940Y010584D02*
X014843Y010584D01*
X014843Y010682D02*
X014940Y010682D01*
X014940Y010781D02*
X014843Y010781D01*
X014843Y010879D02*
X014940Y010879D01*
X014170Y011569D02*
X013850Y011569D01*
X013684Y011569D02*
X013489Y011569D01*
X013487Y011667D02*
X014172Y011667D01*
X013532Y011470D02*
X013489Y011470D01*
X013086Y011766D02*
X018362Y011766D01*
X018334Y011864D02*
X012989Y011864D01*
X012989Y011963D02*
X018337Y011963D01*
X018372Y012061D02*
X012989Y012061D01*
X012989Y012160D02*
X018372Y012160D01*
X018372Y012258D02*
X012989Y012258D01*
X012970Y012357D02*
X018372Y012357D01*
X018372Y012455D02*
X017788Y012455D01*
X017785Y012452D02*
X017813Y012480D01*
X017833Y012514D01*
X017843Y012552D01*
X017843Y012721D01*
X017525Y012721D01*
X017525Y012422D01*
X017713Y012422D01*
X017751Y012432D01*
X017785Y012452D01*
X017843Y012554D02*
X018372Y012554D01*
X018405Y012652D02*
X017843Y012652D01*
X017843Y012818D02*
X017525Y012818D01*
X017525Y013116D01*
X017713Y013116D01*
X017751Y013106D01*
X017785Y013086D01*
X017813Y013058D01*
X017833Y013024D01*
X017843Y012986D01*
X017843Y012818D01*
X017843Y012849D02*
X018590Y012849D01*
X018492Y012751D02*
X017525Y012751D01*
X017525Y012849D02*
X017428Y012849D01*
X017428Y012948D02*
X017525Y012948D01*
X017525Y013046D02*
X017428Y013046D01*
X017122Y013145D02*
X018831Y013145D01*
X018746Y013046D02*
X017820Y013046D01*
X017843Y012948D02*
X018689Y012948D01*
X018489Y012748D02*
X018489Y012748D01*
X019203Y013145D02*
X019432Y013145D01*
X019938Y013440D02*
X017122Y013440D01*
X017122Y013342D02*
X020037Y013342D01*
X020088Y013243D02*
X017122Y013243D01*
X016662Y013243D02*
X016275Y013243D01*
X016275Y013221D02*
X016275Y013318D01*
X016178Y013318D01*
X016178Y013616D01*
X016122Y013616D01*
X016122Y013634D01*
X016202Y013714D01*
X016202Y014074D01*
X016132Y014144D01*
X016202Y014214D01*
X016202Y014574D01*
X016132Y014644D01*
X016202Y014714D01*
X016202Y015074D01*
X016132Y015144D01*
X016202Y015214D01*
X016202Y015574D01*
X016114Y015662D01*
X015849Y015662D01*
X015849Y015672D01*
X015961Y015672D01*
X016017Y015728D01*
X016043Y015702D01*
X016077Y015682D01*
X016115Y015672D01*
X016303Y015672D01*
X016303Y015914D01*
X016400Y015914D01*
X016400Y015672D01*
X016588Y015672D01*
X016626Y015682D01*
X016643Y015692D01*
X016672Y015664D01*
X016862Y015664D01*
X016871Y015672D01*
X017009Y015672D01*
X017009Y015915D01*
X017106Y015914D01*
X017106Y015672D01*
X017294Y015672D01*
X017332Y015682D01*
X017366Y015702D01*
X017392Y015728D01*
X017436Y015685D01*
X017436Y015662D01*
X017171Y015662D01*
X017083Y015574D01*
X017083Y015214D01*
X017152Y015144D01*
X017132Y015124D01*
X017047Y015124D01*
X016797Y014874D01*
X016662Y014739D01*
X016662Y013116D01*
X016593Y013116D01*
X016593Y013221D01*
X016275Y013221D01*
X016275Y013318D02*
X016593Y013318D01*
X016593Y013486D01*
X016583Y013524D01*
X016563Y013558D01*
X016535Y013586D01*
X016501Y013606D01*
X016463Y013616D01*
X016275Y013616D01*
X016275Y013318D01*
X016275Y013342D02*
X016178Y013342D01*
X016178Y013440D02*
X016275Y013440D01*
X016275Y013539D02*
X016178Y013539D01*
X016125Y013637D02*
X016662Y013637D01*
X016662Y013539D02*
X016575Y013539D01*
X016593Y013440D02*
X016662Y013440D01*
X016662Y013342D02*
X016593Y013342D01*
X016593Y013145D02*
X016662Y013145D01*
X017122Y013539D02*
X019840Y013539D01*
X019767Y013519D02*
X020195Y013091D01*
X020839Y013091D01*
X020892Y013144D01*
X020782Y013145D02*
X021752Y013145D01*
X021752Y013243D02*
X020782Y013243D01*
X020782Y013342D02*
X021752Y013342D01*
X021793Y013440D02*
X020741Y013440D01*
X020435Y013288D02*
X020373Y013288D01*
X020017Y013644D01*
X020017Y013934D01*
X020364Y013933D02*
X021018Y013933D01*
X020569Y014031D02*
X020364Y014031D01*
X020364Y014130D02*
X020491Y014130D01*
X020459Y014228D02*
X020349Y014228D01*
X020364Y014327D02*
X020459Y014327D01*
X020498Y014425D02*
X020364Y014425D01*
X020364Y014524D02*
X020585Y014524D01*
X020364Y014622D02*
X021139Y014622D01*
X020785Y014721D02*
X020364Y014721D01*
X020777Y014819D02*
X020785Y014819D01*
X021599Y014622D02*
X022442Y014622D01*
X022442Y014524D02*
X022333Y014524D01*
X022313Y014558D01*
X022285Y014586D01*
X022251Y014606D01*
X022213Y014616D01*
X022025Y014616D01*
X022025Y014318D01*
X022343Y014318D01*
X022343Y014486D01*
X022333Y014524D01*
X022343Y014425D02*
X022442Y014425D01*
X022442Y014327D02*
X022343Y014327D01*
X022343Y014221D02*
X022025Y014221D01*
X022025Y013922D01*
X022213Y013922D01*
X022251Y013932D01*
X022285Y013952D01*
X022313Y013980D01*
X022333Y014014D01*
X022343Y014052D01*
X022343Y014221D01*
X022343Y014130D02*
X022442Y014130D01*
X022442Y014228D02*
X022025Y014228D01*
X022025Y014130D02*
X021928Y014130D01*
X021928Y014031D02*
X022025Y014031D01*
X022025Y013933D02*
X021928Y013933D01*
X021702Y013933D02*
X021597Y013933D01*
X021928Y014327D02*
X022025Y014327D01*
X022025Y014425D02*
X021928Y014425D01*
X021928Y014524D02*
X022025Y014524D01*
X021952Y014721D02*
X022442Y014721D01*
X022442Y014819D02*
X021952Y014819D01*
X021952Y014918D02*
X022442Y014918D01*
X022442Y015016D02*
X021952Y015016D01*
X021911Y015115D02*
X022442Y015115D01*
X022442Y015213D02*
X021951Y015213D01*
X021952Y015312D02*
X022442Y015312D01*
X022442Y015410D02*
X021952Y015410D01*
X021952Y015509D02*
X022442Y015509D01*
X022442Y015607D02*
X021919Y015607D01*
X021943Y015706D02*
X022442Y015706D01*
X022519Y015804D02*
X021952Y015804D01*
X021952Y015903D02*
X022618Y015903D01*
X022716Y016001D02*
X021952Y016001D01*
X021926Y016100D02*
X022858Y016100D01*
X022848Y016198D02*
X021930Y016198D01*
X021952Y016297D02*
X022833Y016297D01*
X022833Y016395D02*
X021378Y016395D01*
X021378Y016494D02*
X021359Y016494D01*
X021359Y016592D02*
X021378Y016592D01*
X021929Y016592D02*
X022850Y016592D01*
X022833Y016494D02*
X021952Y016494D01*
X022320Y016789D02*
X020747Y016789D01*
X020747Y016691D02*
X022394Y016691D01*
X022316Y016888D02*
X020747Y016888D01*
X020747Y016986D02*
X022634Y016986D01*
X022634Y016888D02*
X022731Y016888D01*
X022731Y016789D02*
X022634Y016789D01*
X022634Y016691D02*
X022731Y016691D01*
X022971Y016691D02*
X023055Y016691D01*
X022731Y017085D02*
X022634Y017085D01*
X022634Y017183D02*
X022731Y017183D01*
X022731Y017282D02*
X022634Y017282D01*
X022331Y017282D02*
X020747Y017282D01*
X020747Y017380D02*
X027795Y017380D01*
X027795Y017282D02*
X023939Y017282D01*
X024033Y017183D02*
X027795Y017183D01*
X027795Y017085D02*
X024074Y017085D01*
X024076Y016986D02*
X025066Y016986D01*
X024910Y016929D02*
X025302Y017072D01*
X025719Y017072D01*
X026110Y016929D01*
X026110Y016929D01*
X026429Y016662D01*
X026429Y016662D01*
X026429Y016662D01*
X026638Y016301D01*
X026638Y016301D01*
X026710Y015890D01*
X026710Y015890D01*
X026638Y015480D01*
X026429Y015119D01*
X026429Y015119D01*
X026110Y014851D01*
X026110Y014851D01*
X025719Y014708D01*
X025302Y014708D01*
X024910Y014851D01*
X024910Y014851D01*
X024591Y015119D01*
X024591Y015119D01*
X024383Y015480D01*
X024383Y015480D01*
X024310Y015890D01*
X024310Y015890D01*
X024383Y016301D01*
X024383Y016301D01*
X024591Y016662D01*
X024591Y016662D01*
X024910Y016929D01*
X024910Y016929D01*
X024860Y016888D02*
X024046Y016888D01*
X023973Y016789D02*
X024743Y016789D01*
X024626Y016691D02*
X023649Y016691D01*
X023981Y016592D02*
X024551Y016592D01*
X024494Y016494D02*
X023999Y016494D01*
X023999Y016395D02*
X024437Y016395D01*
X024382Y016297D02*
X023999Y016297D01*
X023997Y016198D02*
X024365Y016198D01*
X024347Y016100D02*
X023997Y016100D01*
X023999Y016001D02*
X024330Y016001D01*
X024312Y015903D02*
X023999Y015903D01*
X023999Y015804D02*
X024325Y015804D01*
X024343Y015706D02*
X023997Y015706D01*
X024129Y015607D02*
X024360Y015607D01*
X024378Y015509D02*
X024228Y015509D01*
X024326Y015410D02*
X024423Y015410D01*
X024425Y015312D02*
X024480Y015312D01*
X024497Y015213D02*
X024537Y015213D01*
X024497Y015115D02*
X024596Y015115D01*
X024591Y015119D02*
X024591Y015119D01*
X024497Y015016D02*
X024713Y015016D01*
X024831Y014918D02*
X024497Y014918D01*
X024497Y014819D02*
X024998Y014819D01*
X025268Y014721D02*
X024497Y014721D01*
X024497Y014622D02*
X027037Y014622D01*
X026980Y014721D02*
X025752Y014721D01*
X025713Y014616D02*
X025525Y014616D01*
X025525Y014318D01*
X025843Y014318D01*
X025843Y014486D01*
X025833Y014524D01*
X025813Y014558D01*
X025785Y014586D01*
X025751Y014606D01*
X025713Y014616D01*
X025833Y014524D02*
X026122Y014524D01*
X026040Y014425D02*
X025843Y014425D01*
X025843Y014327D02*
X026035Y014327D01*
X026035Y014228D02*
X025525Y014228D01*
X025525Y014327D02*
X025428Y014327D01*
X025428Y014425D02*
X025525Y014425D01*
X025525Y014524D02*
X025428Y014524D01*
X025843Y014130D02*
X026036Y014130D01*
X026609Y014327D02*
X026628Y014327D01*
X026628Y014425D02*
X026609Y014425D01*
X026609Y014524D02*
X026628Y014524D01*
X026920Y014819D02*
X026023Y014819D01*
X026190Y014918D02*
X026920Y014918D01*
X026920Y015016D02*
X026307Y015016D01*
X026424Y015115D02*
X026920Y015115D01*
X026920Y015213D02*
X026484Y015213D01*
X026541Y015312D02*
X026920Y015312D01*
X026960Y015410D02*
X026598Y015410D01*
X026643Y015509D02*
X026920Y015509D01*
X026920Y015607D02*
X026660Y015607D01*
X026678Y015706D02*
X026920Y015706D01*
X026920Y015804D02*
X026695Y015804D01*
X026708Y015903D02*
X026920Y015903D01*
X026920Y016001D02*
X026691Y016001D01*
X026673Y016100D02*
X030846Y016100D01*
X030846Y016198D02*
X026656Y016198D01*
X026639Y016297D02*
X030846Y016297D01*
X030846Y016001D02*
X028979Y016001D01*
X028989Y015903D02*
X030846Y015903D01*
X030846Y015804D02*
X028989Y015804D01*
X028989Y015607D02*
X030846Y015607D01*
X030846Y015509D02*
X028989Y015509D01*
X028949Y015410D02*
X030846Y015410D01*
X030846Y015312D02*
X029242Y015312D01*
X029384Y015213D02*
X030846Y015213D01*
X030846Y015115D02*
X029436Y015115D01*
X029451Y015016D02*
X030846Y015016D01*
X030846Y014918D02*
X029434Y014918D01*
X029469Y014819D02*
X029566Y014819D01*
X029566Y014721D02*
X029469Y014721D01*
X029469Y014622D02*
X029566Y014622D01*
X029566Y014524D02*
X030846Y014524D01*
X030846Y014622D02*
X029864Y014622D01*
X029862Y014721D02*
X030846Y014721D01*
X030846Y014819D02*
X029799Y014819D01*
X029864Y014425D02*
X030846Y014425D01*
X030846Y014327D02*
X029864Y014327D01*
X029860Y014228D02*
X030846Y014228D01*
X030846Y014130D02*
X029822Y014130D01*
X029955Y014031D02*
X030846Y014031D01*
X030846Y013933D02*
X030054Y013933D01*
X030152Y013834D02*
X030846Y013834D01*
X030846Y013736D02*
X030251Y013736D01*
X030349Y013637D02*
X030846Y013637D01*
X030846Y013539D02*
X030448Y013539D01*
X030497Y013440D02*
X030846Y013440D01*
X030846Y013342D02*
X030497Y013342D01*
X030497Y013243D02*
X030846Y013243D01*
X030846Y013145D02*
X030497Y013145D01*
X030497Y013046D02*
X030846Y013046D01*
X030846Y012948D02*
X030497Y012948D01*
X030497Y012849D02*
X030846Y012849D01*
X030846Y012751D02*
X030497Y012751D01*
X030497Y012652D02*
X030846Y012652D01*
X030846Y012554D02*
X030497Y012554D01*
X030497Y012455D02*
X030846Y012455D01*
X030846Y012357D02*
X030497Y012357D01*
X030497Y012258D02*
X030846Y012258D01*
X030846Y012160D02*
X030497Y012160D01*
X030497Y012061D02*
X030846Y012061D01*
X030846Y011963D02*
X030497Y011963D01*
X030497Y011864D02*
X030846Y011864D01*
X030846Y011766D02*
X030497Y011766D01*
X030497Y011667D02*
X030846Y011667D01*
X030846Y011569D02*
X030497Y011569D01*
X030497Y011470D02*
X030846Y011470D01*
X030846Y011372D02*
X030497Y011372D01*
X030497Y011273D02*
X030846Y011273D01*
X030846Y011175D02*
X030468Y011175D01*
X030468Y011076D02*
X030846Y011076D01*
X030846Y010978D02*
X030468Y010978D01*
X030468Y010879D02*
X030846Y010879D01*
X030846Y010781D02*
X030468Y010781D01*
X030468Y010682D02*
X030846Y010682D01*
X030846Y010584D02*
X030468Y010584D01*
X030468Y010485D02*
X030846Y010485D01*
X030846Y010387D02*
X030468Y010387D01*
X030846Y010288D02*
X029662Y010288D01*
X029638Y010190D02*
X030846Y010190D01*
X030846Y010091D02*
X029539Y010091D01*
X029441Y009993D02*
X030846Y009993D01*
X030846Y009894D02*
X029342Y009894D01*
X029244Y009796D02*
X030846Y009796D01*
X030846Y009697D02*
X029145Y009697D01*
X029047Y009599D02*
X030846Y009599D01*
X030846Y009500D02*
X028948Y009500D01*
X028850Y009402D02*
X030846Y009402D01*
X030846Y009303D02*
X028751Y009303D01*
X028653Y009205D02*
X030846Y009205D01*
X030846Y009106D02*
X028554Y009106D01*
X028456Y009008D02*
X030846Y009008D01*
X030846Y008909D02*
X028357Y008909D01*
X028259Y008811D02*
X030846Y008811D01*
X030846Y007530D02*
X021650Y007530D01*
X021650Y007432D02*
X021553Y007432D01*
X021553Y007333D02*
X021650Y007333D01*
X021650Y007235D02*
X021553Y007235D01*
X021700Y007038D02*
X021071Y007038D01*
X021136Y006939D02*
X021670Y006939D01*
X021670Y006841D02*
X021136Y006841D01*
X020507Y007038D02*
X017528Y007038D01*
X017592Y006939D02*
X020442Y006939D01*
X020442Y006841D02*
X017592Y006841D01*
X017592Y006742D02*
X020442Y006742D01*
X020442Y006644D02*
X017592Y006644D01*
X017592Y006545D02*
X020002Y006545D01*
X019883Y006447D02*
X017592Y006447D01*
X017592Y006348D02*
X019841Y006348D01*
X019834Y006250D02*
X017592Y006250D01*
X017592Y006151D02*
X019857Y006151D01*
X019922Y006053D02*
X017592Y006053D01*
X017592Y005954D02*
X020442Y005954D01*
X020442Y005856D02*
X017592Y005856D01*
X017592Y005757D02*
X020442Y005757D01*
X020442Y005659D02*
X017592Y005659D01*
X017592Y005560D02*
X020442Y005560D01*
X020442Y005462D02*
X017592Y005462D01*
X017592Y005363D02*
X020442Y005363D01*
X020442Y005265D02*
X017592Y005265D01*
X017592Y005166D02*
X020442Y005166D01*
X020442Y005068D02*
X017592Y005068D01*
X017592Y004969D02*
X017835Y004969D01*
X017999Y004969D02*
X020442Y004969D01*
X020092Y004871D02*
X018152Y004871D01*
X018208Y004772D02*
X019956Y004772D01*
X019907Y004674D02*
X018226Y004674D01*
X018212Y004575D02*
X019895Y004575D01*
X019900Y004477D02*
X018161Y004477D01*
X018109Y004378D02*
X019900Y004378D01*
X019903Y004383D02*
X019892Y004394D01*
X019903Y004383D02*
X019903Y003997D01*
X020100Y003997D02*
X020100Y004552D01*
X020234Y004686D01*
X020789Y004686D01*
X020892Y004644D02*
X020142Y004644D01*
X020142Y004019D01*
X020267Y004019D01*
X020517Y003769D01*
X020892Y003769D01*
X021017Y003894D01*
X021017Y004519D01*
X020892Y004644D01*
X020961Y004575D02*
X020142Y004575D01*
X020161Y004625D02*
X020203Y004583D01*
X020161Y004625D02*
X020227Y004692D01*
X020240Y004692D01*
X020142Y004477D02*
X021017Y004477D01*
X021017Y004378D02*
X020142Y004378D01*
X020142Y004280D02*
X021017Y004280D01*
X021017Y004181D02*
X020142Y004181D01*
X020142Y004083D02*
X021017Y004083D01*
X021017Y003984D02*
X020302Y003984D01*
X020401Y003886D02*
X021009Y003886D01*
X020910Y003787D02*
X020499Y003787D01*
X020317Y003686D02*
X020317Y003686D01*
X020315Y003689D02*
X020259Y003689D01*
X020413Y003590D02*
X018868Y003590D01*
X018967Y003492D02*
X020459Y003492D01*
X019903Y003651D02*
X019903Y003726D01*
X019903Y003726D01*
X019903Y003726D01*
X019903Y003651D01*
X019903Y003689D02*
X019903Y003689D01*
X019312Y003689D02*
X019312Y003689D01*
X019065Y003393D02*
X024433Y003393D01*
X024383Y003480D02*
X024591Y003119D01*
X024591Y003119D01*
X024910Y002851D01*
X024910Y002851D01*
X025302Y002708D01*
X025719Y002708D01*
X026110Y002851D01*
X026110Y002851D01*
X026429Y003119D01*
X026638Y003480D01*
X026710Y003890D01*
X026638Y004301D01*
X026429Y004662D01*
X026110Y004929D01*
X025719Y005072D01*
X025302Y005072D01*
X024910Y004929D01*
X024591Y004662D01*
X024591Y004662D01*
X024383Y004301D01*
X024383Y004301D01*
X024310Y003890D01*
X024383Y003480D01*
X024383Y003480D01*
X024381Y003492D02*
X021820Y003492D01*
X021813Y003480D02*
X021833Y003514D01*
X021843Y003552D01*
X021843Y003721D01*
X021525Y003721D01*
X021525Y003422D01*
X021713Y003422D01*
X021751Y003432D01*
X021785Y003452D01*
X021813Y003480D01*
X021843Y003590D02*
X024363Y003590D01*
X024346Y003689D02*
X021843Y003689D01*
X021843Y003818D02*
X021525Y003818D01*
X021525Y004116D01*
X021713Y004116D01*
X021751Y004106D01*
X021785Y004086D01*
X021813Y004058D01*
X021833Y004024D01*
X021843Y003986D01*
X021843Y003818D01*
X021843Y003886D02*
X024311Y003886D01*
X024310Y003890D02*
X024310Y003890D01*
X024327Y003984D02*
X021843Y003984D01*
X021789Y004083D02*
X024344Y004083D01*
X024362Y004181D02*
X021217Y004181D01*
X021217Y004280D02*
X024379Y004280D01*
X024427Y004378D02*
X022335Y004378D01*
X022334Y004376D02*
X022354Y004410D01*
X022364Y004448D01*
X022364Y004636D01*
X022066Y004636D01*
X022066Y004318D01*
X022234Y004318D01*
X022272Y004328D01*
X022306Y004348D01*
X022334Y004376D01*
X022399Y004437D02*
X022427Y004409D01*
X022461Y004389D01*
X022499Y004379D01*
X022745Y004379D01*
X022745Y004853D01*
X022369Y004853D01*
X022369Y004509D01*
X022379Y004471D01*
X022399Y004437D01*
X022378Y004477D02*
X022364Y004477D01*
X022364Y004575D02*
X022369Y004575D01*
X022369Y004674D02*
X022066Y004674D01*
X021969Y004674D02*
X021145Y004674D01*
X021136Y004772D02*
X021670Y004772D01*
X021670Y004871D02*
X021136Y004871D01*
X021136Y004969D02*
X021686Y004969D01*
X021678Y005068D02*
X021136Y005068D01*
X021136Y005166D02*
X021448Y005166D01*
X021670Y004636D02*
X021670Y004448D01*
X021680Y004410D01*
X021700Y004376D01*
X021728Y004348D01*
X021762Y004328D01*
X021801Y004318D01*
X021969Y004318D01*
X021969Y004636D01*
X021670Y004636D01*
X021670Y004575D02*
X021217Y004575D01*
X021217Y004477D02*
X021670Y004477D01*
X021699Y004378D02*
X021217Y004378D01*
X021428Y004083D02*
X021525Y004083D01*
X021525Y003984D02*
X021428Y003984D01*
X021428Y003886D02*
X021525Y003886D01*
X021525Y003787D02*
X024328Y003787D01*
X024490Y003295D02*
X019164Y003295D01*
X019262Y003196D02*
X024546Y003196D01*
X024591Y003119D02*
X024591Y003119D01*
X024616Y003098D02*
X019361Y003098D01*
X019459Y002999D02*
X024734Y002999D01*
X024851Y002901D02*
X019558Y002901D01*
X019602Y002802D02*
X025044Y002802D01*
X025976Y002802D02*
X027795Y002802D01*
X027795Y002704D02*
X019602Y002704D01*
X019602Y002605D02*
X020403Y002605D01*
X020411Y002611D02*
X020411Y002611D01*
X020280Y002507D02*
X019602Y002507D01*
X020877Y002605D02*
X027795Y002605D01*
X027795Y002507D02*
X021001Y002507D01*
X021053Y002465D02*
X021053Y002465D01*
X021080Y002408D02*
X027795Y002408D01*
X027795Y002310D02*
X021128Y002310D01*
X021155Y002211D02*
X027795Y002211D01*
X027795Y002113D02*
X021155Y002113D01*
X021155Y002014D02*
X027795Y002014D01*
X027795Y001916D02*
X021155Y001916D01*
X021155Y001817D02*
X027795Y001817D01*
X027795Y001719D02*
X021155Y001719D01*
X021155Y001620D02*
X027795Y001620D01*
X027795Y001522D02*
X021155Y001522D01*
X021155Y001423D02*
X027795Y001423D01*
X027795Y001325D02*
X021155Y001325D01*
X021155Y001226D02*
X027795Y001226D01*
X027795Y001128D02*
X021155Y001128D01*
X021155Y001029D02*
X027795Y001029D01*
X027795Y000931D02*
X021155Y000931D01*
X021155Y000832D02*
X027795Y000832D01*
X027795Y000734D02*
X021155Y000734D01*
X021155Y000635D02*
X027795Y000635D01*
X027795Y000537D02*
X021155Y000537D01*
X021155Y000438D02*
X027795Y000438D01*
X027795Y002901D02*
X026169Y002901D01*
X026287Y002999D02*
X027795Y002999D01*
X027795Y003098D02*
X026404Y003098D01*
X026429Y003119D02*
X026429Y003119D01*
X026474Y003196D02*
X027795Y003196D01*
X027795Y003295D02*
X026531Y003295D01*
X026588Y003393D02*
X027827Y003393D01*
X026657Y003590D02*
X030846Y003590D01*
X030846Y003492D02*
X026640Y003492D01*
X026638Y003480D02*
X026638Y003480D01*
X026675Y003689D02*
X030846Y003689D01*
X030846Y003787D02*
X026692Y003787D01*
X026709Y003886D02*
X030846Y003886D01*
X030846Y003984D02*
X026694Y003984D01*
X026710Y003890D02*
X026710Y003890D01*
X026676Y004083D02*
X030846Y004083D01*
X030846Y004181D02*
X026659Y004181D01*
X026642Y004280D02*
X030846Y004280D01*
X030846Y004378D02*
X026593Y004378D01*
X026536Y004477D02*
X030846Y004477D01*
X030846Y004575D02*
X026479Y004575D01*
X026429Y004662D02*
X026429Y004662D01*
X026429Y004662D01*
X026415Y004674D02*
X030846Y004674D01*
X030846Y004772D02*
X026298Y004772D01*
X026180Y004871D02*
X030846Y004871D01*
X030846Y004969D02*
X026001Y004969D01*
X026110Y004929D02*
X026110Y004929D01*
X025731Y005068D02*
X030846Y005068D01*
X030846Y005166D02*
X024165Y005166D01*
X024165Y005068D02*
X025290Y005068D01*
X025019Y004969D02*
X024165Y004969D01*
X024165Y004871D02*
X024840Y004871D01*
X024910Y004929D02*
X024910Y004929D01*
X024723Y004772D02*
X024165Y004772D01*
X024165Y004674D02*
X024605Y004674D01*
X024541Y004575D02*
X024165Y004575D01*
X024165Y004477D02*
X024484Y004477D01*
X023314Y004477D02*
X023212Y004477D01*
X023210Y004471D02*
X023220Y004509D01*
X023220Y004853D01*
X022845Y004853D01*
X022845Y004379D01*
X023090Y004379D01*
X023128Y004389D01*
X023162Y004409D01*
X023190Y004437D01*
X023210Y004471D01*
X023220Y004575D02*
X023314Y004575D01*
X023314Y004674D02*
X023220Y004674D01*
X023220Y004772D02*
X023314Y004772D01*
X023314Y004871D02*
X022845Y004871D01*
X022845Y004772D02*
X022745Y004772D01*
X022745Y004674D02*
X022845Y004674D01*
X022845Y004575D02*
X022745Y004575D01*
X022745Y004477D02*
X022845Y004477D01*
X022745Y004871D02*
X022364Y004871D01*
X022364Y004772D02*
X022369Y004772D01*
X022066Y004575D02*
X021969Y004575D01*
X021969Y004477D02*
X022066Y004477D01*
X022066Y004378D02*
X021969Y004378D01*
X021525Y003689D02*
X021428Y003689D01*
X021428Y003590D02*
X021525Y003590D01*
X021525Y003492D02*
X021428Y003492D01*
X019903Y004383D02*
X019653Y004383D01*
X019517Y004519D01*
X019392Y004519D01*
X019312Y004439D01*
X019312Y003997D01*
X019312Y004269D02*
X019312Y004269D01*
X019312Y004344D01*
X019312Y004269D01*
X019312Y004269D01*
X019312Y004280D02*
X019312Y004280D01*
X019312Y004314D02*
X019392Y004394D01*
X017942Y004494D02*
X017842Y004394D01*
X017742Y004394D01*
X017642Y004294D01*
X017642Y004094D01*
X017342Y003794D01*
X016642Y003794D01*
X016717Y003919D01*
X017067Y004269D01*
X017067Y004694D01*
X017942Y004694D01*
X017942Y004494D01*
X017925Y004477D02*
X017067Y004477D01*
X017067Y004575D02*
X017942Y004575D01*
X017917Y004669D02*
X017934Y004686D01*
X017245Y004686D01*
X017067Y004674D02*
X017942Y004674D01*
X017726Y004378D02*
X017067Y004378D01*
X017067Y004280D02*
X017642Y004280D01*
X017642Y004181D02*
X016979Y004181D01*
X016881Y004083D02*
X017631Y004083D01*
X017532Y003984D02*
X016782Y003984D01*
X016697Y003886D02*
X017434Y003886D01*
X017913Y003492D02*
X017921Y003492D01*
X017921Y003393D02*
X017827Y003393D01*
X017921Y003295D02*
X017489Y003295D01*
X017489Y003098D02*
X017921Y003098D01*
X017921Y003196D02*
X017191Y003196D01*
X017489Y002999D02*
X017990Y002999D01*
X018089Y002901D02*
X017473Y002901D01*
X017371Y002802D02*
X018182Y002802D01*
X018182Y002704D02*
X017469Y002704D01*
X017512Y002605D02*
X018182Y002605D01*
X018182Y002507D02*
X017544Y002507D01*
X017544Y002408D02*
X017929Y002408D01*
X017842Y002310D02*
X017544Y002310D01*
X017544Y002211D02*
X017842Y002211D01*
X017842Y002113D02*
X017544Y002113D01*
X017544Y002014D02*
X017842Y002014D01*
X017842Y001916D02*
X017544Y001916D01*
X017544Y001817D02*
X017842Y001817D01*
X017842Y001719D02*
X017544Y001719D01*
X017544Y001620D02*
X017842Y001620D01*
X017842Y001522D02*
X017544Y001522D01*
X017544Y001423D02*
X017842Y001423D01*
X017842Y001325D02*
X017544Y001325D01*
X017505Y001226D02*
X017842Y001226D01*
X017842Y001128D02*
X017452Y001128D01*
X017353Y001029D02*
X017842Y001029D01*
X017842Y000931D02*
X016226Y000931D01*
X016286Y001029D02*
X016805Y001029D01*
X016706Y001128D02*
X016314Y001128D01*
X016314Y001226D02*
X016653Y001226D01*
X016614Y001325D02*
X016314Y001325D01*
X016314Y001423D02*
X016614Y001423D01*
X016614Y001522D02*
X016314Y001522D01*
X016314Y001620D02*
X016614Y001620D01*
X016614Y001719D02*
X016286Y001719D01*
X016240Y001817D02*
X016614Y001817D01*
X016614Y001916D02*
X016326Y001916D01*
X016301Y001916D02*
X016243Y001916D01*
X016243Y002014D02*
X016301Y002014D01*
X016301Y002113D02*
X016243Y002113D01*
X016243Y002211D02*
X016301Y002211D01*
X016301Y002310D02*
X016243Y002310D01*
X016243Y002408D02*
X016301Y002408D01*
X016301Y002504D02*
X016243Y002504D01*
X016243Y003039D01*
X016237Y003039D01*
X016168Y003025D01*
X016103Y002998D01*
X016045Y002959D01*
X015995Y002909D01*
X015957Y002853D01*
X015945Y002884D01*
X015844Y002984D01*
X015832Y002989D01*
X015832Y003318D01*
X015883Y003318D01*
X016185Y003318D01*
X016309Y003194D01*
X016406Y003194D01*
X016467Y003133D01*
X016581Y003086D01*
X016703Y003086D01*
X016795Y003124D01*
X016795Y002948D01*
X016805Y002910D01*
X016825Y002876D01*
X016853Y002848D01*
X016855Y002847D01*
X016816Y002830D01*
X016685Y002699D01*
X016629Y002564D01*
X016629Y002717D01*
X016615Y002786D01*
X016588Y002851D01*
X016549Y002909D01*
X016499Y002959D01*
X016441Y002998D01*
X016376Y003025D01*
X016307Y003039D01*
X016301Y003039D01*
X016301Y002504D01*
X016301Y002507D02*
X016243Y002507D01*
X016243Y002605D02*
X016301Y002605D01*
X016301Y002704D02*
X016243Y002704D01*
X016243Y002802D02*
X016301Y002802D01*
X016301Y002901D02*
X016243Y002901D01*
X016243Y002999D02*
X016301Y002999D01*
X016439Y002999D02*
X016795Y002999D01*
X016795Y003098D02*
X016732Y003098D01*
X016552Y003098D02*
X015832Y003098D01*
X015832Y003196D02*
X016307Y003196D01*
X016209Y003295D02*
X015832Y003295D01*
X015832Y002999D02*
X016106Y002999D01*
X015989Y002901D02*
X015928Y002901D01*
X016555Y002901D02*
X016811Y002901D01*
X016788Y002802D02*
X016608Y002802D01*
X016629Y002704D02*
X016689Y002704D01*
X016646Y002605D02*
X016629Y002605D01*
X016614Y002113D02*
X016594Y002113D01*
X016614Y002014D02*
X016522Y002014D01*
X016082Y000832D02*
X017842Y000832D01*
X017842Y000734D02*
X014863Y000734D01*
X014962Y000832D02*
X015202Y000832D01*
X015058Y000931D02*
X015023Y000931D01*
X014722Y000635D02*
X017842Y000635D01*
X017842Y000537D02*
X004867Y000537D01*
X004867Y000635D02*
X013562Y000635D01*
X013421Y000734D02*
X013317Y000734D01*
X011967Y000734D02*
X011692Y000734D01*
X010731Y000734D02*
X010634Y000734D01*
X010634Y000832D02*
X010731Y000832D01*
X010731Y000931D02*
X010634Y000931D01*
X008567Y001817D02*
X008467Y001817D01*
X008467Y001916D02*
X008567Y001916D01*
X008567Y002014D02*
X008467Y002014D01*
X008467Y002113D02*
X008567Y002113D01*
X005285Y001719D02*
X004867Y001719D01*
X004867Y001817D02*
X005192Y001817D01*
X005192Y001916D02*
X004867Y001916D01*
X004867Y002014D02*
X005192Y002014D01*
X005192Y002113D02*
X004867Y002113D01*
X004867Y002211D02*
X005192Y002211D01*
X005192Y002310D02*
X004867Y002310D01*
X004867Y002408D02*
X005192Y002408D01*
X005192Y002507D02*
X004867Y002507D01*
X004867Y002605D02*
X005192Y002605D01*
X005192Y002704D02*
X004867Y002704D01*
X004867Y002802D02*
X005192Y002802D01*
X005101Y002901D02*
X004867Y002901D01*
X004867Y002999D02*
X004984Y002999D01*
X004973Y004772D02*
X004867Y004772D01*
X004867Y004871D02*
X005090Y004871D01*
X005160Y004929D02*
X005160Y004929D01*
X005192Y004969D02*
X004867Y004969D01*
X004867Y000438D02*
X017842Y000438D01*
X015832Y000832D02*
X015453Y000832D01*
X015596Y000931D02*
X015688Y000931D01*
X016392Y003394D02*
X016142Y003644D01*
X016142Y003684D01*
X016392Y003394D02*
X016642Y003394D01*
X016489Y004164D02*
X016489Y004586D01*
X016578Y004586D01*
X016692Y004633D01*
X016779Y004719D01*
X016826Y004833D01*
X016826Y004870D01*
X016899Y004870D01*
X016899Y004808D01*
X016867Y004777D01*
X016867Y004352D01*
X016714Y004198D01*
X016703Y004203D01*
X016581Y004203D01*
X016489Y004164D01*
X016489Y004181D02*
X016529Y004181D01*
X016489Y004280D02*
X016795Y004280D01*
X016867Y004378D02*
X016489Y004378D01*
X016489Y004477D02*
X016867Y004477D01*
X016867Y004575D02*
X016489Y004575D01*
X016733Y004674D02*
X016867Y004674D01*
X016867Y004772D02*
X016800Y004772D01*
X017245Y004883D02*
X017626Y004883D01*
X017637Y004894D01*
X016142Y004354D02*
X015642Y004354D01*
X014777Y004181D02*
X014440Y004181D01*
X014489Y004083D02*
X014777Y004083D01*
X014777Y003984D02*
X014489Y003984D01*
X014191Y003984D02*
X014094Y003984D01*
X014094Y004083D02*
X014191Y004083D01*
X014191Y004181D02*
X014094Y004181D01*
X016622Y006219D02*
X016777Y006064D01*
X017245Y006064D01*
X017245Y006261D02*
X016886Y006261D01*
X016683Y006464D01*
X015697Y006464D01*
X015642Y006519D01*
X015826Y006709D02*
X015826Y006710D01*
X015820Y006716D01*
X015826Y006709D02*
X015880Y006655D01*
X017245Y006655D01*
X017245Y006852D02*
X016051Y006852D01*
X016010Y006893D01*
X016010Y006902D01*
X015998Y006913D01*
X015517Y006269D02*
X015567Y006219D01*
X016622Y006219D01*
X017636Y007235D02*
X017773Y007235D01*
X018131Y007235D02*
X018131Y007235D01*
X018525Y007541D02*
X018525Y008511D01*
X018456Y008580D01*
X018722Y008689D02*
X018392Y009019D01*
X018331Y009019D01*
X018722Y008689D02*
X018722Y007541D01*
X019706Y007541D02*
X019706Y008458D01*
X020267Y009019D01*
X021107Y008909D02*
X021808Y008909D01*
X020307Y008269D02*
X019903Y007865D01*
X019903Y007541D01*
X020262Y007235D02*
X020398Y007235D01*
X020442Y006545D02*
X020282Y006545D01*
X020142Y006269D02*
X020150Y006261D01*
X020789Y006261D01*
X020789Y006064D02*
X020437Y006064D01*
X020142Y005769D01*
X020362Y006053D02*
X020442Y006053D01*
X021969Y006841D02*
X022066Y006841D01*
X022066Y006939D02*
X021969Y006939D01*
X021969Y007038D02*
X022066Y007038D01*
X021650Y007629D02*
X021553Y007629D01*
X021553Y007727D02*
X021650Y007727D01*
X021650Y007826D02*
X021553Y007826D01*
X023156Y007136D02*
X023384Y007136D01*
X023316Y007038D02*
X023220Y007038D01*
X023220Y006939D02*
X023314Y006939D01*
X023314Y006841D02*
X023220Y006841D01*
X023220Y006742D02*
X023314Y006742D01*
X023690Y006841D02*
X023790Y006841D01*
X023790Y006939D02*
X023690Y006939D01*
X023690Y007038D02*
X023790Y007038D01*
X023790Y007136D02*
X023690Y007136D01*
X023690Y006545D02*
X023790Y006545D01*
X023790Y006447D02*
X023690Y006447D01*
X023690Y006348D02*
X023790Y006348D01*
X023790Y006250D02*
X023690Y006250D01*
X023690Y006151D02*
X023790Y006151D01*
X023650Y005462D02*
X028099Y005462D01*
X028047Y009249D02*
X025832Y009249D01*
X025843Y009260D01*
X025843Y010278D01*
X025777Y010344D01*
X025777Y010374D01*
X026044Y010374D01*
X026084Y010414D01*
X026191Y010414D01*
X026191Y010385D01*
X026256Y010320D01*
X026256Y010319D01*
X026209Y010205D01*
X026209Y010083D01*
X026256Y009969D01*
X026342Y009883D01*
X026456Y009836D01*
X026578Y009836D01*
X026692Y009883D01*
X026779Y009969D01*
X026826Y010083D01*
X026826Y010205D01*
X026788Y010297D01*
X026836Y010297D01*
X026892Y010353D01*
X026918Y010327D01*
X026952Y010307D01*
X026990Y010297D01*
X027178Y010297D01*
X027178Y010596D01*
X027275Y010596D01*
X027275Y010297D01*
X027463Y010297D01*
X027501Y010307D01*
X027535Y010327D01*
X027563Y010355D01*
X027580Y010384D01*
X027627Y010337D01*
X028066Y010337D01*
X028142Y010412D01*
X028218Y010337D01*
X028657Y010337D01*
X028745Y010424D01*
X028745Y010864D01*
X028714Y010894D01*
X028745Y010924D01*
X028745Y011297D01*
X028755Y011297D01*
X028843Y011385D01*
X028843Y011914D01*
X029237Y011914D01*
X029372Y012049D01*
X029747Y012424D01*
X029747Y013114D01*
X029612Y013249D01*
X029419Y013443D01*
X029776Y013443D01*
X029835Y013501D01*
X030037Y013299D01*
X030037Y011491D01*
X029823Y011491D01*
X029767Y011435D01*
X029741Y011461D01*
X029707Y011481D01*
X029669Y011491D01*
X029481Y011491D01*
X029481Y011193D01*
X029384Y011193D01*
X029384Y011491D01*
X029196Y011491D01*
X029158Y011481D01*
X029124Y011461D01*
X029096Y011433D01*
X029076Y011399D01*
X029066Y011361D01*
X029066Y011193D01*
X029384Y011193D01*
X029384Y011096D01*
X029066Y011096D01*
X029066Y010927D01*
X029071Y010908D01*
X029066Y010903D01*
X029066Y010385D01*
X029124Y010327D01*
X028047Y009249D01*
X028101Y009303D02*
X025843Y009303D01*
X025843Y009402D02*
X028199Y009402D01*
X028298Y009500D02*
X025843Y009500D01*
X025843Y009599D02*
X028396Y009599D01*
X028495Y009697D02*
X025843Y009697D01*
X025843Y009796D02*
X028593Y009796D01*
X028692Y009894D02*
X026703Y009894D01*
X026788Y009993D02*
X028790Y009993D01*
X028889Y010091D02*
X026826Y010091D01*
X026826Y010190D02*
X028987Y010190D01*
X029086Y010288D02*
X026791Y010288D01*
X027178Y010387D02*
X027275Y010387D01*
X027275Y010485D02*
X027178Y010485D01*
X027178Y010584D02*
X027275Y010584D01*
X028116Y010387D02*
X028168Y010387D01*
X028707Y010387D02*
X029066Y010387D01*
X029066Y010485D02*
X028745Y010485D01*
X028745Y010584D02*
X029066Y010584D01*
X029066Y010682D02*
X028745Y010682D01*
X028745Y010781D02*
X029066Y010781D01*
X029066Y010879D02*
X028729Y010879D01*
X028745Y010978D02*
X029066Y010978D01*
X029066Y011076D02*
X028745Y011076D01*
X028745Y011175D02*
X029384Y011175D01*
X029384Y011273D02*
X029481Y011273D01*
X029481Y011372D02*
X029384Y011372D01*
X029384Y011470D02*
X029481Y011470D01*
X029725Y011470D02*
X029802Y011470D01*
X030037Y011569D02*
X028843Y011569D01*
X028843Y011667D02*
X030037Y011667D01*
X030037Y011766D02*
X028843Y011766D01*
X028843Y011864D02*
X030037Y011864D01*
X030037Y011963D02*
X029286Y011963D01*
X029384Y012061D02*
X030037Y012061D01*
X030037Y012160D02*
X029483Y012160D01*
X029581Y012258D02*
X030037Y012258D01*
X030037Y012357D02*
X029680Y012357D01*
X029747Y012455D02*
X030037Y012455D01*
X030037Y012554D02*
X029747Y012554D01*
X029747Y012652D02*
X030037Y012652D01*
X030037Y012751D02*
X029747Y012751D01*
X029747Y012849D02*
X030037Y012849D01*
X030037Y012948D02*
X029747Y012948D01*
X029747Y013046D02*
X030037Y013046D01*
X030037Y013145D02*
X029717Y013145D01*
X029618Y013243D02*
X030037Y013243D01*
X029994Y013342D02*
X029520Y013342D01*
X029612Y013249D02*
X029612Y013249D01*
X029421Y013440D02*
X029896Y013440D01*
X030362Y013624D02*
X030362Y013624D01*
X028412Y014622D02*
X027997Y014622D01*
X027997Y014524D02*
X028157Y014524D01*
X028083Y014425D02*
X027997Y014425D01*
X027997Y014327D02*
X028083Y014327D01*
X028083Y014228D02*
X027997Y014228D01*
X027997Y014130D02*
X028083Y014130D01*
X028140Y014031D02*
X027997Y014031D01*
X027997Y013933D02*
X028083Y013933D01*
X028083Y013834D02*
X027997Y013834D01*
X027997Y013736D02*
X028083Y013736D01*
X028083Y013637D02*
X027997Y013637D01*
X028073Y013539D02*
X028133Y013539D01*
X027787Y013174D02*
X027580Y013381D01*
X027487Y013289D01*
X027237Y013039D01*
X027152Y013039D01*
X027132Y013019D01*
X027202Y012949D01*
X027202Y012589D01*
X027114Y012501D01*
X026787Y012501D01*
X026787Y012491D01*
X026836Y012491D01*
X026892Y012435D01*
X026918Y012461D01*
X026952Y012481D01*
X026990Y012491D01*
X027178Y012491D01*
X027178Y012193D01*
X027275Y012193D01*
X027275Y012491D01*
X027463Y012491D01*
X027501Y012481D01*
X027512Y012474D01*
X027529Y012491D01*
X027577Y012491D01*
X027577Y012530D01*
X027912Y012864D01*
X028047Y012999D01*
X028132Y012999D01*
X028152Y013019D01*
X028132Y013039D01*
X027922Y013039D01*
X027787Y013174D01*
X027816Y013145D02*
X027343Y013145D01*
X027441Y013243D02*
X027718Y013243D01*
X027619Y013342D02*
X027540Y013342D01*
X027244Y013046D02*
X027915Y013046D01*
X027995Y012948D02*
X027202Y012948D01*
X027202Y012849D02*
X027897Y012849D01*
X027798Y012751D02*
X027202Y012751D01*
X027202Y012652D02*
X027700Y012652D01*
X027601Y012554D02*
X027166Y012554D01*
X027178Y012455D02*
X027275Y012455D01*
X027275Y012357D02*
X027178Y012357D01*
X027178Y012258D02*
X027275Y012258D01*
X027275Y012096D02*
X027275Y011797D01*
X027441Y011797D01*
X027441Y011491D01*
X026948Y011491D01*
X026892Y011435D01*
X026836Y011491D01*
X026788Y011491D01*
X026826Y011583D01*
X026826Y011705D01*
X026788Y011797D01*
X026836Y011797D01*
X026892Y011853D01*
X026918Y011827D01*
X026952Y011807D01*
X026990Y011797D01*
X027178Y011797D01*
X027178Y012096D01*
X027275Y012096D01*
X027275Y012061D02*
X027178Y012061D01*
X027178Y011963D02*
X027275Y011963D01*
X027275Y011864D02*
X027178Y011864D01*
X027441Y011766D02*
X026801Y011766D01*
X026826Y011667D02*
X027441Y011667D01*
X027441Y011569D02*
X026820Y011569D01*
X026857Y011470D02*
X026927Y011470D01*
X026912Y012455D02*
X026872Y012455D01*
X026243Y012455D02*
X022764Y012455D01*
X022418Y012357D02*
X022413Y012357D01*
X021752Y012751D02*
X020782Y012751D01*
X020782Y012849D02*
X021752Y012849D01*
X021752Y012948D02*
X020782Y012948D01*
X020782Y013046D02*
X021752Y013046D01*
X022099Y013091D02*
X022464Y013091D01*
X022286Y013288D02*
X022099Y013288D01*
X022286Y013288D02*
X022642Y013644D01*
X022642Y015644D01*
X022892Y015894D01*
X023416Y015894D01*
X022842Y014704D02*
X022921Y014626D01*
X023186Y014626D01*
X023186Y014316D01*
X023191Y014310D01*
X023191Y014220D01*
X023066Y014220D01*
X023066Y013902D01*
X022969Y013902D01*
X022969Y014220D01*
X022842Y014220D01*
X022842Y014704D01*
X022842Y014622D02*
X023186Y014622D01*
X023186Y014524D02*
X022842Y014524D01*
X022842Y014425D02*
X023186Y014425D01*
X023186Y014327D02*
X022842Y014327D01*
X022842Y014228D02*
X023191Y014228D01*
X023066Y014130D02*
X022969Y014130D01*
X022969Y014031D02*
X023066Y014031D01*
X023066Y013933D02*
X022969Y013933D01*
X022442Y013933D02*
X022251Y013933D01*
X022338Y014031D02*
X022442Y014031D01*
X022442Y013834D02*
X020364Y013834D01*
X020364Y013736D02*
X022442Y013736D01*
X022352Y013637D02*
X020345Y013637D01*
X020405Y013539D02*
X022254Y013539D01*
X020782Y013091D02*
X020697Y013091D01*
X020697Y013091D01*
X020697Y013091D01*
X020782Y013091D01*
X020435Y012894D02*
X020017Y012894D01*
X020114Y012357D02*
X020121Y012357D01*
X020114Y012258D02*
X020235Y012258D01*
X019816Y012061D02*
X019719Y012061D01*
X019719Y011963D02*
X019816Y011963D01*
X019816Y011864D02*
X019719Y011864D01*
X020697Y012697D02*
X020697Y012697D01*
X023792Y012751D02*
X024450Y012751D01*
X024420Y012849D02*
X023826Y012849D01*
X023826Y012948D02*
X024420Y012948D01*
X025537Y012357D02*
X025557Y012357D01*
X025557Y012258D02*
X025537Y012258D01*
X025537Y012160D02*
X025557Y012160D01*
X025557Y012134D02*
X025557Y011874D01*
X025557Y011654D01*
X025537Y011654D01*
X025537Y012134D01*
X025557Y012134D01*
X025557Y012061D02*
X025537Y012061D01*
X025537Y011963D02*
X025557Y011963D01*
X025557Y011864D02*
X025537Y011864D01*
X025537Y011766D02*
X025557Y011766D01*
X025557Y011667D02*
X025537Y011667D01*
X026057Y010387D02*
X026191Y010387D01*
X026243Y010288D02*
X025833Y010288D01*
X025843Y010190D02*
X026209Y010190D01*
X026209Y010091D02*
X025843Y010091D01*
X025843Y009993D02*
X026246Y009993D01*
X026331Y009894D02*
X025843Y009894D01*
X024275Y010091D02*
X024178Y010091D01*
X024178Y010190D02*
X024275Y010190D01*
X024275Y010288D02*
X024178Y010288D01*
X028745Y011273D02*
X029066Y011273D01*
X029069Y011372D02*
X028830Y011372D01*
X028843Y011470D02*
X029140Y011470D01*
X028355Y014721D02*
X028054Y014721D01*
X028114Y014819D02*
X028295Y014819D01*
X028295Y014918D02*
X028114Y014918D01*
X028114Y015016D02*
X028295Y015016D01*
X028295Y015115D02*
X028114Y015115D01*
X028114Y015213D02*
X028295Y015213D01*
X028295Y015312D02*
X028114Y015312D01*
X028074Y015410D02*
X028335Y015410D01*
X028295Y015509D02*
X028114Y015509D01*
X028114Y015607D02*
X028295Y015607D01*
X028295Y015804D02*
X028114Y015804D01*
X028114Y015706D02*
X028594Y015706D01*
X028691Y015706D02*
X030846Y015706D01*
X029042Y015312D02*
X028989Y015312D01*
X028691Y015804D02*
X028594Y015804D01*
X028594Y015903D02*
X028691Y015903D01*
X028691Y016001D02*
X028594Y016001D01*
X028305Y016001D02*
X028114Y016001D01*
X028114Y015903D02*
X028295Y015903D01*
X027827Y016395D02*
X026583Y016395D01*
X026526Y016494D02*
X027795Y016494D01*
X027795Y016592D02*
X026470Y016592D01*
X026395Y016691D02*
X027795Y016691D01*
X027795Y016789D02*
X026277Y016789D01*
X026160Y016888D02*
X027795Y016888D01*
X027795Y016986D02*
X025954Y016986D01*
X027795Y017479D02*
X020747Y017479D01*
X020659Y017577D02*
X027795Y017577D01*
X027795Y017676D02*
X020561Y017676D01*
X020462Y017774D02*
X027795Y017774D01*
X027795Y017873D02*
X020427Y017873D01*
X020390Y017971D02*
X027795Y017971D01*
X027795Y018070D02*
X017524Y018070D01*
X017524Y018168D02*
X027795Y018168D01*
X027795Y018267D02*
X017524Y018267D01*
X017524Y018286D02*
X017514Y018324D01*
X017494Y018358D01*
X017467Y018386D01*
X017432Y018406D01*
X017394Y018416D01*
X017246Y018416D01*
X017246Y017941D01*
X017188Y017941D01*
X017188Y017883D01*
X016909Y017883D01*
X016909Y017538D01*
X016920Y017500D01*
X016939Y017465D01*
X016967Y017437D01*
X017002Y017418D01*
X017040Y017407D01*
X017188Y017407D01*
X017188Y017883D01*
X017246Y017883D01*
X017246Y017941D01*
X017524Y017941D01*
X017524Y018286D01*
X017488Y018365D02*
X027795Y018365D01*
X027795Y018464D02*
X017209Y018464D01*
X017207Y018562D02*
X027795Y018562D01*
X027795Y018661D02*
X017162Y018661D01*
X017022Y018759D02*
X027795Y018759D01*
X027795Y018858D02*
X016727Y018858D01*
X016727Y018956D02*
X027795Y018956D01*
X027795Y019055D02*
X016670Y019055D01*
X016528Y019055D02*
X016528Y019055D01*
X016528Y019093D02*
X016528Y018739D01*
X016528Y017187D01*
X016528Y017085D02*
X016528Y016731D01*
X016331Y016731D01*
X016259Y016731D01*
X016358Y016632D01*
X016358Y016534D01*
X016331Y016731D02*
X016331Y017085D01*
X016331Y017124D01*
X016331Y017187D02*
X016331Y018739D01*
X016331Y019093D01*
X016331Y019085D02*
X016331Y018964D01*
X016331Y018964D01*
X016331Y018964D01*
X016331Y019085D01*
X016331Y019055D02*
X016331Y019055D01*
X016134Y019055D02*
X016134Y019055D01*
X016134Y019085D02*
X016134Y018964D01*
X016134Y018964D01*
X016134Y018964D01*
X016134Y019085D01*
X016134Y019093D02*
X016134Y018739D01*
X016134Y018601D01*
X016134Y018513D02*
X016134Y018513D01*
X016134Y018464D02*
X016134Y018464D01*
X015937Y018464D02*
X015937Y018464D01*
X015937Y018513D02*
X015937Y018513D01*
X015937Y018565D02*
X015937Y017085D01*
X015937Y017187D01*
X015937Y017085D02*
X015937Y016731D01*
X015839Y016731D01*
X015937Y016731D02*
X016181Y016731D01*
X016259Y016731D01*
X016181Y016731D02*
X016134Y016777D01*
X016134Y017085D01*
X016134Y017511D01*
X016142Y017519D01*
X016134Y017432D02*
X016134Y017322D01*
X016134Y017432D01*
X016134Y017380D02*
X016134Y017380D01*
X016134Y017322D02*
X016134Y017322D01*
X015937Y017322D02*
X015937Y017432D01*
X015937Y017322D01*
X015937Y017322D01*
X015937Y017380D02*
X015937Y017380D01*
X015744Y017479D02*
X016932Y017479D01*
X016909Y017577D02*
X015744Y017577D01*
X015744Y017676D02*
X016909Y017676D01*
X016909Y017774D02*
X015744Y017774D01*
X015741Y017813D02*
X015741Y017085D01*
X015741Y017185D01*
X015741Y017085D02*
X015741Y016704D01*
X015744Y016691D02*
X017379Y016691D01*
X017339Y016592D02*
X015744Y016592D01*
X015744Y016494D02*
X017334Y016494D01*
X017360Y016395D02*
X015744Y016395D01*
X015544Y016158D02*
X015682Y016019D01*
X015544Y016158D02*
X015544Y017085D01*
X015347Y017085D02*
X015347Y017174D01*
X015347Y017085D02*
X015347Y016731D01*
X014953Y016731D01*
X014756Y016731D01*
X014767Y016720D01*
X014767Y016580D01*
X014756Y016731D02*
X014658Y016731D01*
X014559Y016829D01*
X014563Y016789D02*
X012720Y016789D01*
X012771Y016888D02*
X014556Y016888D01*
X014556Y016986D02*
X012771Y016986D01*
X012771Y017085D02*
X014556Y017085D01*
X014556Y017183D02*
X012317Y017183D01*
X012317Y017085D02*
X012217Y017085D01*
X012217Y016986D02*
X012317Y016986D01*
X012317Y016888D02*
X012217Y016888D01*
X012217Y016789D02*
X012317Y016789D01*
X012076Y016592D02*
X015344Y016592D01*
X015344Y016494D02*
X012549Y016494D01*
X012648Y016395D02*
X015344Y016395D01*
X015334Y016297D02*
X012746Y016297D01*
X012845Y016198D02*
X015316Y016198D01*
X015316Y016100D02*
X012901Y016100D01*
X012912Y016001D02*
X015316Y016001D01*
X015316Y015903D02*
X012912Y015903D01*
X012912Y015804D02*
X015316Y015804D01*
X015370Y015706D02*
X012912Y015706D01*
X012912Y015607D02*
X015068Y015607D01*
X015035Y015509D02*
X012912Y015509D01*
X012912Y015410D02*
X015035Y015410D01*
X015035Y015312D02*
X012912Y015312D01*
X012912Y015213D02*
X015036Y015213D01*
X014828Y015115D02*
X012912Y015115D01*
X012912Y015016D02*
X013429Y015016D01*
X013420Y014918D02*
X012912Y014918D01*
X012912Y014819D02*
X013420Y014819D01*
X013420Y014721D02*
X012912Y014721D01*
X012912Y014622D02*
X013420Y014622D01*
X013420Y014524D02*
X012912Y014524D01*
X012912Y014425D02*
X013445Y014425D01*
X013429Y014327D02*
X012912Y014327D01*
X012912Y014228D02*
X013420Y014228D01*
X013420Y014130D02*
X012912Y014130D01*
X012912Y014031D02*
X013719Y014031D01*
X013719Y014011D02*
X013420Y014011D01*
X013420Y013823D01*
X013430Y013785D01*
X013450Y013751D01*
X013478Y013723D01*
X013512Y013703D01*
X013551Y013693D01*
X013719Y013693D01*
X013719Y014011D01*
X013719Y013933D02*
X013816Y013933D01*
X013816Y013834D02*
X013719Y013834D01*
X013719Y013736D02*
X013816Y013736D01*
X013465Y013736D02*
X012912Y013736D01*
X012912Y013834D02*
X013420Y013834D01*
X013420Y013933D02*
X012912Y013933D01*
X012912Y013637D02*
X014577Y013637D01*
X014577Y013539D02*
X012912Y013539D01*
X012912Y013440D02*
X014577Y013440D01*
X014577Y013342D02*
X012912Y013342D01*
X012912Y013243D02*
X014577Y013243D01*
X014577Y013145D02*
X012912Y013145D01*
X012950Y013046D02*
X014577Y013046D01*
X014638Y012948D02*
X012989Y012948D01*
X012989Y012849D02*
X014737Y012849D01*
X014835Y012751D02*
X012989Y012751D01*
X012989Y012652D02*
X014934Y012652D01*
X015032Y012554D02*
X012989Y012554D01*
X012989Y012455D02*
X015246Y012455D01*
X015869Y012455D02*
X015915Y012455D01*
X017119Y012455D02*
X017165Y012455D01*
X017428Y012455D02*
X017525Y012455D01*
X017525Y012554D02*
X017428Y012554D01*
X017428Y012652D02*
X017525Y012652D01*
X017159Y013637D02*
X017122Y013637D01*
X016662Y013736D02*
X016202Y013736D01*
X016202Y013834D02*
X016662Y013834D01*
X016662Y013933D02*
X016202Y013933D01*
X016202Y014031D02*
X016662Y014031D01*
X016662Y014130D02*
X016146Y014130D01*
X016202Y014228D02*
X016662Y014228D01*
X016662Y014327D02*
X016202Y014327D01*
X016202Y014425D02*
X016662Y014425D01*
X016662Y014524D02*
X016202Y014524D01*
X016154Y014622D02*
X016662Y014622D01*
X016662Y014721D02*
X016202Y014721D01*
X016202Y014819D02*
X016742Y014819D01*
X016840Y014918D02*
X016202Y014918D01*
X016202Y015016D02*
X016939Y015016D01*
X017037Y015115D02*
X016161Y015115D01*
X016201Y015213D02*
X017083Y015213D01*
X017083Y015312D02*
X016202Y015312D01*
X016202Y015410D02*
X017083Y015410D01*
X017083Y015509D02*
X016202Y015509D01*
X016169Y015607D02*
X017115Y015607D01*
X017106Y015706D02*
X017009Y015706D01*
X017009Y015804D02*
X017106Y015804D01*
X017106Y015903D02*
X017009Y015903D01*
X017370Y015706D02*
X017415Y015706D01*
X017896Y015672D02*
X018005Y015672D01*
X018093Y015760D01*
X018093Y016278D01*
X018005Y016366D01*
X017913Y016366D01*
X017951Y016458D01*
X017951Y016580D01*
X017904Y016694D01*
X017859Y016738D01*
X018607Y016738D01*
X018695Y016826D01*
X018695Y016914D01*
X019037Y016914D01*
X019037Y016174D01*
X019066Y016145D01*
X019066Y015902D01*
X018969Y015902D01*
X018969Y016220D01*
X018801Y016220D01*
X018762Y016210D01*
X018728Y016190D01*
X018700Y016162D01*
X018680Y016128D01*
X018670Y016090D01*
X018670Y015902D01*
X018969Y015902D01*
X018969Y015805D01*
X018670Y015805D01*
X018670Y015617D01*
X018680Y015579D01*
X018700Y015545D01*
X018726Y015519D01*
X018670Y015463D01*
X018670Y014970D01*
X018258Y014970D01*
X018249Y014961D01*
X018249Y015074D01*
X018247Y015076D01*
X018247Y015212D01*
X018249Y015214D01*
X018249Y015574D01*
X018161Y015662D01*
X017896Y015662D01*
X017896Y015672D01*
X018039Y015706D02*
X018670Y015706D01*
X018670Y015804D02*
X018093Y015804D01*
X018093Y015903D02*
X018670Y015903D01*
X018670Y016001D02*
X018093Y016001D01*
X018093Y016100D02*
X018673Y016100D01*
X018742Y016198D02*
X018093Y016198D01*
X018075Y016297D02*
X019037Y016297D01*
X019037Y016395D02*
X017925Y016395D01*
X017951Y016494D02*
X019037Y016494D01*
X019037Y016592D02*
X017946Y016592D01*
X017905Y016691D02*
X019037Y016691D01*
X019037Y016789D02*
X018658Y016789D01*
X018695Y016888D02*
X019037Y016888D01*
X019497Y016920D02*
X020287Y016920D01*
X020287Y017299D01*
X020218Y017368D01*
X019941Y017368D01*
X019497Y016924D01*
X019497Y016920D01*
X019559Y016986D02*
X020287Y016986D01*
X020287Y017085D02*
X019658Y017085D01*
X019756Y017183D02*
X020287Y017183D01*
X020287Y017282D02*
X019855Y017282D01*
X019340Y017479D02*
X018678Y017479D01*
X018695Y017380D02*
X019303Y017380D01*
X019340Y017577D02*
X017524Y017577D01*
X017524Y017538D02*
X017524Y017883D01*
X017246Y017883D01*
X017246Y017407D01*
X017394Y017407D01*
X017432Y017418D01*
X017467Y017437D01*
X017494Y017465D01*
X017514Y017500D01*
X017524Y017538D01*
X017502Y017479D02*
X017624Y017479D01*
X017607Y017380D02*
X016691Y017380D01*
X016727Y017282D02*
X017607Y017282D01*
X017607Y017183D02*
X016761Y017183D01*
X016761Y017085D02*
X017607Y017085D01*
X017607Y016986D02*
X016727Y016986D01*
X016727Y016888D02*
X017607Y016888D01*
X017488Y016789D02*
X016690Y016789D01*
X016626Y016731D02*
X016528Y016731D01*
X016528Y016738D02*
X016528Y016860D01*
X016528Y016860D01*
X016528Y016738D01*
X016528Y016789D02*
X016528Y016789D01*
X016331Y016789D02*
X016331Y016789D01*
X016134Y016789D02*
X016134Y016789D01*
X015937Y016789D02*
X015937Y016789D01*
X015150Y016731D02*
X015150Y017085D01*
X015150Y017174D01*
X014953Y017174D02*
X014953Y017085D01*
X014953Y016731D01*
X014756Y016731D02*
X014756Y017085D01*
X014756Y017174D01*
X014556Y017282D02*
X012771Y017282D01*
X012771Y017380D02*
X014556Y017380D01*
X014556Y017479D02*
X014352Y017479D01*
X014375Y017577D02*
X014556Y017577D01*
X014556Y017676D02*
X014375Y017676D01*
X014375Y017774D02*
X014556Y017774D01*
X014556Y017873D02*
X014375Y017873D01*
X014375Y017971D02*
X014556Y017971D01*
X014556Y018070D02*
X014393Y018070D01*
X014491Y018168D02*
X014556Y018168D01*
X014556Y018267D02*
X014497Y018267D01*
X014756Y018739D02*
X014756Y018780D01*
X014642Y018894D01*
X014756Y018898D02*
X014756Y018739D01*
X014756Y018898D02*
X014953Y018898D01*
X014953Y018739D01*
X014953Y018898D02*
X015150Y018898D01*
X015150Y018739D01*
X015150Y018898D02*
X015347Y018898D01*
X015347Y018739D01*
X015347Y018898D02*
X015544Y018898D01*
X015544Y018739D01*
X015741Y018739D02*
X015741Y017824D01*
X015744Y017873D02*
X016909Y017873D01*
X016909Y017971D02*
X015744Y017971D01*
X015744Y018070D02*
X016909Y018070D01*
X016909Y018168D02*
X015744Y018168D01*
X015744Y018267D02*
X016810Y018267D01*
X016708Y018365D02*
X015744Y018365D01*
X015937Y018601D02*
X015937Y018739D01*
X015937Y019093D01*
X015937Y019085D02*
X015937Y018964D01*
X015937Y018964D01*
X015937Y018964D01*
X015937Y019085D01*
X015937Y019055D02*
X015937Y019055D01*
X015741Y019055D02*
X015741Y019055D01*
X015741Y019093D02*
X015741Y018739D01*
X016331Y018513D02*
X016331Y018513D01*
X016331Y018464D02*
X016331Y018464D01*
X016528Y018464D02*
X016528Y018464D01*
X016528Y018513D02*
X016528Y018513D01*
X016528Y018392D01*
X016528Y018513D01*
X016761Y018759D02*
X016861Y018759D01*
X017188Y018365D02*
X017246Y018365D01*
X017246Y018267D02*
X017188Y018267D01*
X017188Y018168D02*
X017246Y018168D01*
X017246Y018070D02*
X017188Y018070D01*
X017188Y017971D02*
X017246Y017971D01*
X017246Y017873D02*
X017188Y017873D01*
X017188Y017774D02*
X017246Y017774D01*
X017246Y017676D02*
X017188Y017676D01*
X017188Y017577D02*
X017246Y017577D01*
X017246Y017479D02*
X017188Y017479D01*
X017524Y017676D02*
X019340Y017676D01*
X019340Y017774D02*
X017524Y017774D01*
X017524Y017873D02*
X019340Y017873D01*
X019376Y017971D02*
X017524Y017971D01*
X016528Y017380D02*
X016528Y017380D01*
X016331Y017380D02*
X016331Y017380D01*
X016331Y017432D02*
X016331Y017322D01*
X016331Y017322D01*
X016331Y017432D01*
X014661Y016691D02*
X011977Y016691D01*
X011608Y016297D02*
X006889Y016297D01*
X006888Y016301D02*
X006888Y016301D01*
X006833Y016395D02*
X011509Y016395D01*
X011411Y016494D02*
X006776Y016494D01*
X006720Y016592D02*
X011312Y016592D01*
X011959Y016001D02*
X008714Y016001D01*
X008400Y016001D02*
X008303Y016001D01*
X008303Y015903D02*
X008400Y015903D01*
X008400Y016100D02*
X008303Y016100D01*
X008067Y016100D02*
X007977Y016100D01*
X009220Y015607D02*
X009314Y015607D01*
X009889Y015607D02*
X010441Y015607D01*
X010441Y015509D02*
X009968Y015509D01*
X009968Y015410D02*
X010441Y015410D01*
X010191Y013963D02*
X009989Y013963D01*
X009989Y013825D01*
X009933Y013769D01*
X009959Y013743D01*
X009979Y013709D01*
X009989Y013671D01*
X009989Y013483D01*
X009691Y013483D01*
X009691Y013386D01*
X009989Y013386D01*
X009989Y013198D01*
X009979Y013160D01*
X009959Y013126D01*
X009931Y013098D01*
X009897Y013078D01*
X009859Y013068D01*
X009691Y013068D01*
X009691Y013386D01*
X009594Y013386D01*
X009594Y013068D01*
X009426Y013068D01*
X009387Y013078D01*
X009353Y013098D01*
X009325Y013126D01*
X009305Y013160D01*
X009295Y013198D01*
X009295Y013386D01*
X009594Y013386D01*
X009594Y013483D01*
X009295Y013483D01*
X009295Y013539D01*
X009220Y013539D01*
X009195Y013515D01*
X009076Y013515D01*
X008994Y013432D01*
X008968Y013407D01*
X008968Y013010D01*
X008966Y013008D01*
X009030Y012945D01*
X009030Y012945D01*
X009103Y012945D01*
X009191Y012857D01*
X009191Y012506D01*
X009295Y012506D01*
X009295Y012555D01*
X009594Y012555D01*
X009594Y012652D01*
X009191Y012652D01*
X009191Y012554D02*
X009295Y012554D01*
X009295Y012652D02*
X009594Y012652D01*
X009594Y012970D01*
X009426Y012970D01*
X009387Y012960D01*
X009353Y012940D01*
X009325Y012912D01*
X009305Y012878D01*
X009295Y012840D01*
X009295Y012652D01*
X009295Y012751D02*
X009191Y012751D01*
X009191Y012849D02*
X009298Y012849D01*
X009366Y012948D02*
X009027Y012948D01*
X008968Y013046D02*
X010193Y013046D01*
X010191Y013052D02*
X010200Y013019D01*
X010191Y012986D01*
X010191Y012818D01*
X010509Y012818D01*
X010509Y013116D01*
X010509Y013221D01*
X010191Y013221D01*
X010191Y013052D01*
X010191Y013145D02*
X009970Y013145D01*
X009989Y013243D02*
X010509Y013243D01*
X010509Y013221D02*
X010509Y013318D01*
X010509Y013422D01*
X010509Y013721D01*
X010191Y013721D01*
X010191Y013552D01*
X010200Y013519D01*
X010191Y013486D01*
X010191Y013318D01*
X010509Y013318D01*
X010606Y013318D01*
X010606Y013721D01*
X010509Y013721D01*
X010509Y013818D01*
X010191Y013818D01*
X010191Y013963D01*
X010191Y013933D02*
X009989Y013933D01*
X009989Y013834D02*
X010191Y013834D01*
X010191Y013637D02*
X009989Y013637D01*
X009989Y013539D02*
X010195Y013539D01*
X010191Y013440D02*
X009691Y013440D01*
X009594Y013440D02*
X009002Y013440D01*
X008968Y013342D02*
X009295Y013342D01*
X009295Y013243D02*
X008968Y013243D01*
X008968Y013145D02*
X009314Y013145D01*
X009594Y013145D02*
X009691Y013145D01*
X009691Y013243D02*
X009594Y013243D01*
X009594Y013342D02*
X009691Y013342D01*
X009989Y013342D02*
X010191Y013342D01*
X010509Y013342D02*
X010606Y013342D01*
X010606Y013440D02*
X010509Y013440D01*
X010509Y013539D02*
X010606Y013539D01*
X010606Y013637D02*
X010509Y013637D01*
X010509Y013736D02*
X009963Y013736D01*
X009295Y013539D02*
X009219Y013539D01*
X009594Y012948D02*
X009691Y012948D01*
X009691Y012970D02*
X009691Y012652D01*
X010191Y012652D01*
X010191Y012721D02*
X010191Y012552D01*
X010200Y012519D01*
X010191Y012486D01*
X010191Y012318D01*
X010509Y012318D01*
X010509Y012721D01*
X010191Y012721D01*
X010191Y012849D02*
X009987Y012849D01*
X009989Y012840D02*
X009979Y012878D01*
X009959Y012912D01*
X009931Y012940D01*
X009897Y012960D01*
X009859Y012970D01*
X009691Y012970D01*
X009691Y012849D02*
X009594Y012849D01*
X009594Y012751D02*
X009691Y012751D01*
X009691Y012652D02*
X009594Y012652D01*
X009691Y012652D02*
X009989Y012652D01*
X009989Y012840D01*
X009989Y012751D02*
X010509Y012751D01*
X010509Y012721D02*
X010509Y012818D01*
X010606Y012818D01*
X010606Y013221D01*
X010509Y013221D01*
X010509Y013145D02*
X010606Y013145D01*
X010606Y013046D02*
X010509Y013046D01*
X010509Y012948D02*
X010606Y012948D01*
X010606Y012849D02*
X010509Y012849D01*
X010509Y012721D02*
X010606Y012721D01*
X010606Y012616D01*
X010606Y012318D01*
X010509Y012318D01*
X010509Y012221D01*
X010191Y012221D01*
X010191Y012076D01*
X009989Y012076D01*
X009989Y012213D01*
X009933Y012269D01*
X009959Y012295D01*
X009979Y012329D01*
X009989Y012367D01*
X009989Y012555D01*
X009691Y012555D01*
X009691Y012652D01*
X009989Y012554D02*
X010191Y012554D01*
X010191Y012455D02*
X009989Y012455D01*
X009986Y012357D02*
X010191Y012357D01*
X010191Y012160D02*
X009989Y012160D01*
X009944Y012258D02*
X010509Y012258D01*
X010509Y012357D02*
X010606Y012357D01*
X010606Y012455D02*
X010509Y012455D01*
X010509Y012554D02*
X010606Y012554D01*
X010606Y012652D02*
X010509Y012652D01*
X010191Y012948D02*
X009918Y012948D01*
X007632Y012948D02*
X006961Y012948D01*
X006961Y013046D02*
X007568Y013046D01*
X007566Y013145D02*
X006961Y013145D01*
X005387Y013145D02*
X005239Y013145D01*
X005239Y013243D02*
X005323Y013243D01*
X004535Y012652D02*
X004320Y012652D01*
X004410Y012554D02*
X004436Y012554D01*
X003796Y012258D02*
X002915Y012258D01*
X003013Y012160D02*
X003795Y012160D01*
X003795Y012061D02*
X003092Y012061D01*
X003092Y011963D02*
X003795Y011963D01*
X003795Y011175D02*
X002998Y011175D01*
X003092Y011076D02*
X003795Y011076D01*
X003848Y010978D02*
X003092Y010978D01*
X002316Y010584D02*
X002239Y010584D01*
X001545Y013342D02*
X000438Y013342D01*
X000438Y013440D02*
X001545Y013440D01*
X001545Y013539D02*
X000438Y013539D01*
X000438Y013637D02*
X001545Y013637D01*
X001545Y013736D02*
X000438Y013736D01*
X000438Y013834D02*
X001545Y013834D01*
X001595Y013933D02*
X000438Y013933D01*
X000438Y014031D02*
X002393Y014031D01*
X002294Y013933D02*
X002189Y013933D01*
X002612Y014228D02*
X002672Y014228D01*
X002672Y014327D02*
X002612Y014327D01*
X002612Y014425D02*
X002672Y014425D01*
X002672Y014524D02*
X002612Y014524D01*
X002612Y014819D02*
X002672Y014819D01*
X002672Y014918D02*
X002612Y014918D01*
X002612Y015016D02*
X002672Y015016D01*
X002907Y015016D02*
X004963Y015016D01*
X004846Y015115D02*
X000438Y015115D01*
X000438Y015213D02*
X004787Y015213D01*
X004841Y015119D02*
X004841Y015119D01*
X004730Y015312D02*
X000438Y015312D01*
X000438Y015410D02*
X004673Y015410D01*
X004628Y015509D02*
X000438Y015509D01*
X000438Y015607D02*
X004610Y015607D01*
X004593Y015706D02*
X000438Y015706D01*
X000438Y015804D02*
X004575Y015804D01*
X004560Y015890D02*
X004560Y015890D01*
X004562Y015903D02*
X000438Y015903D01*
X000438Y016001D02*
X004580Y016001D01*
X004597Y016100D02*
X000438Y016100D01*
X000438Y016198D02*
X004615Y016198D01*
X004632Y016297D02*
X000438Y016297D01*
X000438Y015016D02*
X002378Y015016D01*
X002279Y014918D02*
X000438Y014918D01*
X000438Y014819D02*
X002192Y014819D01*
X002192Y014721D02*
X000438Y014721D01*
X003005Y014918D02*
X005081Y014918D01*
X005248Y014819D02*
X003092Y014819D01*
X003092Y014721D02*
X005518Y014721D01*
X004687Y016395D02*
X003458Y016395D01*
X003489Y016494D02*
X004744Y016494D01*
X004801Y016592D02*
X003489Y016592D01*
X003489Y016691D02*
X004876Y016691D01*
X004993Y016789D02*
X003489Y016789D01*
X003489Y016888D02*
X005110Y016888D01*
X005160Y016929D02*
X005160Y016929D01*
X005316Y016986D02*
X003489Y016986D01*
X006679Y016662D02*
X006679Y016662D01*
X006679Y016662D01*
X003489Y019055D02*
X012000Y019055D01*
X011959Y018956D02*
X011593Y018956D01*
X011593Y018858D02*
X011959Y018858D01*
X011825Y018759D02*
X011593Y018759D01*
X011655Y018661D02*
X011763Y018661D01*
X011763Y018562D02*
X011706Y018562D01*
X012090Y019153D02*
X003489Y019153D01*
X003489Y019252D02*
X027795Y019252D01*
X027795Y019350D02*
X003489Y019350D01*
X012444Y019153D02*
X013602Y019153D01*
X012717Y019055D02*
X012534Y019055D01*
X013066Y018070D02*
X013469Y018070D01*
X013469Y018011D02*
X013066Y018011D01*
X013066Y017693D01*
X013234Y017693D01*
X013267Y017702D01*
X013301Y017693D01*
X013469Y017693D01*
X013469Y018011D01*
X013469Y017971D02*
X013566Y017971D01*
X013566Y017873D02*
X013469Y017873D01*
X013469Y017774D02*
X013566Y017774D01*
X013760Y017676D02*
X012742Y017676D01*
X012765Y017577D02*
X013760Y017577D01*
X013782Y017479D02*
X012771Y017479D01*
X012969Y017774D02*
X013066Y017774D01*
X013066Y017873D02*
X012969Y017873D01*
X012969Y017971D02*
X013066Y017971D01*
X014039Y017873D02*
X014096Y017873D01*
X014096Y017774D02*
X014039Y017774D01*
X014039Y017676D02*
X014096Y017676D01*
X014096Y017577D02*
X014039Y017577D01*
X014039Y017479D02*
X014096Y017479D01*
X014722Y019153D02*
X027795Y019153D01*
X022316Y017183D02*
X020747Y017183D01*
X020747Y017085D02*
X022316Y017085D01*
X020808Y016592D02*
X020747Y016592D01*
X020747Y016494D02*
X020785Y016494D01*
X020787Y016395D02*
X020747Y016395D01*
X020747Y016297D02*
X020785Y016297D01*
X019066Y016100D02*
X018969Y016100D01*
X018969Y016198D02*
X019037Y016198D01*
X019066Y016001D02*
X018969Y016001D01*
X018969Y015903D02*
X019066Y015903D01*
X018673Y015607D02*
X018216Y015607D01*
X018249Y015509D02*
X018716Y015509D01*
X018670Y015410D02*
X018249Y015410D01*
X018249Y015312D02*
X018670Y015312D01*
X018670Y015213D02*
X018248Y015213D01*
X018247Y015115D02*
X018670Y015115D01*
X018670Y015016D02*
X018249Y015016D01*
X016400Y015706D02*
X016303Y015706D01*
X016303Y015804D02*
X016400Y015804D01*
X016400Y015903D02*
X016303Y015903D01*
X016040Y015706D02*
X015995Y015706D01*
X008267Y011379D02*
X008260Y011372D01*
X016614Y010190D02*
X017737Y010190D01*
X017639Y010091D02*
X016759Y010091D01*
X016812Y009993D02*
X017540Y009993D01*
X017442Y009894D02*
X017081Y009894D01*
X017165Y009796D02*
X017343Y009796D01*
X017245Y009697D02*
X017202Y009697D01*
X017539Y007541D02*
X017517Y007519D01*
D43*
X017102Y007519D01*
X016392Y007519D02*
X016017Y007519D01*
X013767Y005144D02*
X012892Y005144D01*
X013642Y003184D02*
X014142Y003184D01*
X014205Y003121D01*
X014205Y001924D01*
X014767Y002019D02*
X015012Y002264D01*
X014767Y002019D02*
X014767Y001019D01*
X014642Y000894D01*
X013642Y000894D01*
X013517Y001019D01*
X012977Y001019D01*
X012307Y001019D02*
X011352Y001019D01*
X011352Y001729D01*
X011177Y001904D01*
X011177Y001859D01*
X010277Y001904D02*
X010277Y001654D01*
X010142Y001519D01*
X010142Y001059D01*
X010102Y001019D01*
X009392Y001019D02*
X009392Y001894D01*
X009142Y002144D01*
X008517Y002144D01*
X009142Y001769D02*
X008892Y001519D01*
X008892Y001019D01*
X016642Y003894D02*
X017102Y003894D01*
X017142Y003854D01*
X020517Y007519D02*
X020892Y007519D01*
X020727Y009644D02*
X021591Y009644D01*
X021591Y010303D01*
X021807Y010519D01*
X022477Y010519D02*
X022693Y010303D01*
X022693Y009644D01*
X022807Y009519D02*
X023557Y009519D01*
X018642Y011894D02*
X018642Y012519D01*
X019017Y012894D01*
X019017Y013934D02*
X018517Y013934D01*
X019517Y013934D01*
X019517Y014604D02*
X019517Y015184D01*
X019017Y015184D02*
X019017Y014604D01*
X018517Y014604D01*
X018352Y014604D01*
X018142Y014394D01*
X017666Y014394D01*
X017666Y013894D02*
X018477Y013894D01*
X018517Y013934D01*
X020517Y015184D02*
X020682Y015184D01*
X020892Y015394D01*
X021369Y015394D01*
X021369Y015894D02*
X020557Y015894D01*
X020517Y015854D01*
X014642Y018894D02*
X013682Y018894D01*
X013517Y018729D01*
X013017Y018729D01*
X012676Y018729D01*
X012267Y018320D01*
X012267Y018894D01*
X012267Y018320D02*
X011932Y018320D01*
X011443Y017832D01*
X011443Y018490D01*
X011227Y018707D01*
X010557Y018707D02*
X010341Y018490D01*
X010341Y017832D01*
X010069Y017559D02*
X009642Y017559D01*
X009142Y017559D01*
X009142Y017144D01*
X009392Y016894D01*
X011392Y016894D01*
X012017Y016269D01*
X012392Y016269D01*
X012642Y016019D01*
X012642Y012729D01*
X012642Y012059D02*
X012642Y011827D01*
X013142Y011327D01*
X007892Y013269D02*
X007892Y013769D01*
X007642Y014019D01*
X004142Y012394D02*
X004142Y011979D01*
D44*
X016517Y004894D02*
X016703Y005080D01*
X017245Y005080D01*
X016959Y004883D02*
X016892Y004817D01*
X016892Y004644D01*
X016959Y004883D02*
X017631Y004883D01*
X017245Y005671D02*
X016741Y005671D01*
X016642Y005769D01*
X018131Y007155D02*
X018267Y007019D01*
X018142Y007144D02*
X018131Y007144D01*
X018131Y007155D02*
X018131Y007541D01*
X017934Y007541D02*
X017539Y007541D01*
X018328Y007541D02*
X018328Y008208D01*
X018142Y008394D01*
X021267Y006144D02*
X021267Y006019D01*
X021116Y005868D01*
X020789Y005868D01*
X020789Y005671D02*
X021419Y005671D01*
X021767Y006019D01*
X021977Y006019D01*
X022017Y005354D02*
X021557Y005354D01*
X021437Y005474D01*
X020789Y005474D01*
X019903Y003997D02*
X019903Y003530D01*
X019312Y003689D02*
X019312Y003997D01*
X018525Y003997D02*
X018525Y003636D01*
X019392Y002769D01*
X019392Y001357D01*
X018892Y001357D02*
X018892Y002894D01*
X018328Y003458D01*
X018328Y003997D01*
X018131Y003997D02*
X018131Y003155D01*
X018392Y002894D01*
X018392Y001357D01*
X017767Y003644D02*
X017934Y003811D01*
X017934Y003997D01*
X017767Y003644D02*
X017642Y003644D01*
D45*
X019142Y008019D03*
X019392Y008644D03*
X020267Y009019D03*
X020892Y009144D03*
X018392Y010269D03*
X016892Y009644D03*
X016517Y009894D03*
X017517Y009019D03*
X017767Y008644D03*
X010142Y012269D03*
X010142Y012769D03*
X009642Y013019D03*
X009142Y013144D03*
X010142Y013269D03*
X010142Y013769D03*
X007892Y012769D03*
X007892Y012269D03*
X007080Y013082D03*
X007517Y013269D03*
X007080Y013707D03*
X007080Y014332D03*
X006142Y014144D03*
X006142Y013519D03*
X006142Y013019D03*
X006142Y012519D03*
X004392Y012769D03*
X004392Y013332D03*
X004642Y013832D03*
X005142Y013832D03*
X006892Y015144D03*
X007142Y015519D03*
X007767Y011144D03*
X008267Y010894D03*
X008767Y011144D03*
X007142Y010455D03*
X006706Y010580D03*
X007267Y010019D03*
X007642Y009644D03*
X002267Y008894D03*
X007892Y001519D03*
X008767Y000519D03*
D46*
X015642Y003644D02*
X015642Y003684D01*
D47*
X015642Y002475D01*
X015327Y003209D02*
X015142Y003394D01*
X015142Y003684D01*
X015327Y003209D02*
X015327Y001373D01*
X015299Y004509D02*
X015299Y004648D01*
X016097Y005445D01*
X016953Y005445D01*
X016983Y005474D01*
X017245Y005474D01*
X017245Y005277D02*
X016982Y005277D01*
X016953Y005307D01*
X016150Y005307D01*
X015487Y004645D01*
X015487Y004505D01*
M02*
