<?xml version="1.0" encoding="UTF-8" standalone="no"?>
<!-- Created with Inkscape (http://www.inkscape.org/) -->

<svg
   xmlns:dc="http://purl.org/dc/elements/1.1/"
   xmlns:cc="http://creativecommons.org/ns#"
   xmlns:rdf="http://www.w3.org/1999/02/22-rdf-syntax-ns#"
   xmlns:svg="http://www.w3.org/2000/svg"
   xmlns="http://www.w3.org/2000/svg"
   xmlns:sodipodi="http://sodipodi.sourceforge.net/DTD/sodipodi-0.dtd"
   xmlns:inkscape="http://www.inkscape.org/namespaces/inkscape"
   width="8in"
   height="11in"
   viewBox="0 0 720.00001 990.00002"
   id="svg2"
   version="1.1"
   inkscape:version="0.91 r13725"
   sodipodi:docname="motionsensor_labels_rear.svg">
  <defs
     id="defs4">
    <inkscape:path-effect
       effect="construct_grid"
       id="path-effect4186"
       is_visible="true"
       nr_x="39"
       nr_y="26" />
  </defs>
  <sodipodi:namedview
     id="base"
     pagecolor="#ffffff"
     bordercolor="#666666"
     borderopacity="1.0"
     inkscape:pageopacity="0"
     inkscape:pageshadow="2"
     inkscape:zoom="1.7261357"
     inkscape:cx="1.0590029"
     inkscape:cy="-19.772003"
     inkscape:document-units="in"
     inkscape:current-layer="layer1"
     showgrid="false"
     inkscape:window-width="1920"
     inkscape:window-height="1065"
     inkscape:window-x="-4"
     inkscape:window-y="-3"
     inkscape:window-maximized="1"
     units="in"
     showguides="false">
    <inkscape:grid
       type="xygrid"
       id="grid3336"
       units="in"
       spacingx="1.125"
       spacingy="1.125"
       empspacing="8"
       originx="0"
       originy="0" />
  </sodipodi:namedview>
  <metadata
     id="metadata7">
    <rdf:RDF>
      <cc:Work
         rdf:about="">
        <dc:format>image/svg+xml</dc:format>
        <dc:type
           rdf:resource="http://purl.org/dc/dcmitype/StillImage" />
        <dc:title></dc:title>
      </cc:Work>
    </rdf:RDF>
  </metadata>
  <g
     inkscape:label="Layer 1"
     inkscape:groupmode="layer"
     id="layer1"
     transform="translate(0,-62.362145)">
    <rect
       style="opacity:1;fill:#000000;fill-opacity:1;fill-rule:evenodd;stroke:none;stroke-width:0.5;stroke-linecap:round;stroke-linejoin:round;stroke-miterlimit:4;stroke-dasharray:none;stroke-dashoffset:0;stroke-opacity:1"
       id="rect4880-9-9"
       width="299.70001"
       height="196.2"
       x="-149.85001"
       y="954.26215" />
    <rect
       style="opacity:1;fill:none;fill-opacity:1;fill-rule:evenodd;stroke:#000000;stroke-width:1.6;stroke-linecap:round;stroke-linejoin:round;stroke-miterlimit:4;stroke-dasharray:none;stroke-dashoffset:0;stroke-opacity:1"
       id="rect4880-9"
       width="308.70001"
       height="205.2"
       x="-154.35001"
       y="949.76215" />
    <path
       style="fill:none;fill-rule:evenodd;stroke:#000000;stroke-width:0.46007246;stroke-linecap:butt;stroke-linejoin:miter;stroke-miterlimit:4;stroke-dasharray:none;stroke-opacity:1"
       d="m -211.86,989.13211 445.86,0"
       id="path4863-3"
       inkscape:connector-curvature="0"
       sodipodi:nodetypes="cc" />
    <path
       style="fill:none;fill-rule:evenodd;stroke:#000000;stroke-width:0.46007246;stroke-linecap:butt;stroke-linejoin:miter;stroke-miterlimit:4;stroke-dasharray:none;stroke-opacity:1"
       d="m -211.86,1115.1321 445.86,0"
       id="path4863-3-9"
       inkscape:connector-curvature="0"
       sodipodi:nodetypes="cc" />
    <path
       style="fill:none;fill-rule:evenodd;stroke:#000000;stroke-width:0.46007246;stroke-linecap:butt;stroke-linejoin:miter;stroke-miterlimit:4;stroke-dasharray:none;stroke-opacity:1"
       d="m -114.3,876.86215 0,315.26475"
       id="path4863"
       inkscape:connector-curvature="0"
       sodipodi:nodetypes="cc" />
    <path
       style="fill:none;fill-rule:evenodd;stroke:#000000;stroke-width:0.46007246;stroke-linecap:butt;stroke-linejoin:miter;stroke-miterlimit:4;stroke-dasharray:none;stroke-opacity:1"
       d="m 114.53004,876.86741 0,315.26469"
       id="path4863-6"
       inkscape:connector-curvature="0"
       sodipodi:nodetypes="cc" />
    <path
       style="fill:none;fill-rule:evenodd;stroke:#001339;stroke-width:0.54000002;stroke-linecap:butt;stroke-linejoin:miter;stroke-miterlimit:4;stroke-dasharray:none;stroke-opacity:1"
       d="m -175.78214,931.44068 0,234.00002 m 9,-234.00002 0,234.00002 m 9,-234.00002 0,234.00002 m 9,-234.00002 0,234.00002 m 9,-234.00002 0,234.00002 m 9,-234.00002 0,234.00002 m 9,-234.00002 0,234.00002 m 9,-234.00002 0,234.00002 m 9,-234.00002 0,234.00002 m 9,-234.00002 0,234.00002 m 9,-234.00002 0,234.00002 m 9,-234.00002 0,234.00002 m 9,-234.00002 0,234.00002 m 9,-234.00002 0,234.00002 m 9,-234.00002 0,234.00002 m 9,-234.00002 0,234.00002 m 9,-234.00002 0,234.00002 m 9,-234.00002 0,234.00002 m 9,-234.00002 0,234.00002 m 9,-234.00002 0,234.00002 m 9,-234.00002 0,234.00002 m 9,-234.00002 0,234.00002 m 9,-234.00002 0,234.00002 m 9,-234.00002 0,234.00002 m 9,-234.00002 0,234.00002 m 9,-234.00002 0,234.00002 m 9,-234.00002 0,234.00002 m 9,-234.00002 0,234.00002 m 9,-234.00002 0,234.00002 m 9,-234.00002 0,234.00002 m 9,-234.00002 0,234.00002 m 9,-234.00002 0,234.00002 m 9,-234.00002 0,234.00002 m 9,-234.00002 0,234.00002 m 9,-234.00002 0,234.00002 m 9,-234.00002 0,234.00002 m 9,-234.00002 0,234.00002 m 9,-234.00002 0,234.00002 m 9,-234.00002 0,234.00002 m 9,-234.00002 0,234.00002 m -351,-234.00002 351,0 m -351,9 351,0 m -351,9 351,0 m -351,9 351,0 m -351,9 351,0 m -351,9 351,0 m -351,9 351,0 m -351,9 351,0 m -351,9.00002 351,0 m -351,9 351,0 m -351,9 351,0 m -351,9 351,0 m -351,9 351,0 m -351,9 351,0 m -351,9 351,0 m -351,9 351,0 m -351,9 351,0 m -351,9 351,0 m -351,9 351,0 m -351,9 351,0 m -351,9 351,0 m -351,9 351,0 m -351,9 351,0 m -351,9 351,0 m -351,9 351,0 m -351,9 351,0 m -351,9 351,0"
       id="path4184"
       inkscape:connector-curvature="0"
       inkscape:path-effect="#path-effect4186"
       inkscape:original-d="m -175.78214,940.44068 0,-9 9,0 17.66477,6.9203 11.25,0"
       sodipodi:nodetypes="ccccc" />
    <path
       style="opacity:1;fill:#ffffff;fill-opacity:1;fill-rule:evenodd;stroke:#ffffff;stroke-width:1;stroke-linecap:round;stroke-linejoin:round;stroke-miterlimit:4;stroke-dasharray:none;stroke-dashoffset:0;stroke-opacity:1"
       id="path4333-9"
       sodipodi:type="arc"
       sodipodi:cx="-189.46523"
       sodipodi:cy="1178.6008"
       sodipodi:rx="17.658991"
       sodipodi:ry="18.50178"
       sodipodi:start="3.561998"
       sodipodi:end="5.8443168"
       d="m -205.58653,1171.0497 a 17.658991,18.50178 0 0 1 15.95829,-10.9499 17.658991,18.50178 0 0 1 16.14852,10.6393"
       sodipodi:open="true" />
    <path
       style="opacity:1;fill:#000000;fill-opacity:1;fill-rule:evenodd;stroke:#ffffff;stroke-width:1;stroke-linecap:round;stroke-linejoin:round;stroke-miterlimit:4;stroke-dasharray:none;stroke-dashoffset:0;stroke-opacity:1"
       id="path4333"
       sodipodi:type="arc"
       sodipodi:cx="-529.6366"
       sodipodi:cy="1057.9338"
       sodipodi:rx="17.740093"
       sodipodi:ry="18.42403"
       sodipodi:start="3.9970993"
       sodipodi:end="6.0343239"
       d="m -541.27119,1044.0255 a 17.740093,18.42403 0 0 1 16.93343,-3.6746 17.740093,18.42403 0 0 1 11.89475,13.0451"
       transform="matrix(0.94738245,-0.32010389,0.29418095,0.95574974,0,0)"
       sodipodi:open="true" />
    <circle
       style="opacity:1;fill:none;fill-opacity:1;fill-rule:evenodd;stroke:none;stroke-width:1.52332902;stroke-linecap:round;stroke-linejoin:round;stroke-miterlimit:4;stroke-dasharray:none;stroke-dashoffset:0;stroke-opacity:1"
       id="path4024-9-3"
       cy="1090.6122"
       cx="117.00333"
       r="19.803335" />
    <text
       xml:space="preserve"
       style="font-style:normal;font-variant:normal;font-weight:normal;font-stretch:normal;font-size:40px;line-height:125%;font-family:'Latin Modern Math';-inkscape-font-specification:'Latin Modern Math';letter-spacing:0px;word-spacing:0px;fill:#000000;fill-opacity:1;stroke:#ffffff;stroke-width:1px;stroke-linecap:butt;stroke-linejoin:miter;stroke-opacity:1;"
       x="-100.24385"
       y="1089.9653"
       id="text4888-9-0-8-3"
       sodipodi:linespacing="125%"><tspan
         sodipodi:role="line"
         id="tspan4890-7-3-1-9"
         x="-100.24385"
         y="1089.9653"
         style="font-style:normal;font-variant:normal;font-weight:500;font-stretch:normal;font-size:13.75px;font-family:'Futura Std';-inkscape-font-specification:'Futura Std Medium';letter-spacing:2px;stroke:#ffffff;stroke-opacity:1;" /></text>
    <circle
       style="opacity:1;fill:#00ff00;fill-opacity:1;fill-rule:evenodd;stroke:#ffffff;stroke-width:1.02857184;stroke-linecap:round;stroke-linejoin:round;stroke-miterlimit:4;stroke-dasharray:none;stroke-dashoffset:0;stroke-opacity:1"
       id="path4024"
       cx="117"
       cy="1014.1121"
       r="3.9857142" />
    <circle
       style="opacity:1;fill:#00ff00;fill-opacity:1;fill-rule:evenodd;stroke:#ffffff;stroke-width:1.02857184;stroke-linecap:round;stroke-linejoin:round;stroke-miterlimit:4;stroke-dasharray:none;stroke-dashoffset:0;stroke-opacity:1"
       id="path4024-9"
       r="3.9857142"
       cy="1041.1122"
       cx="117" />
    <text
       xml:space="preserve"
       style="font-style:normal;font-variant:normal;font-weight:normal;font-stretch:normal;font-size:40px;line-height:125%;font-family:'Latin Modern Math';-inkscape-font-specification:'Latin Modern Math';letter-spacing:0px;word-spacing:0px;fill:#ffffff;fill-opacity:1;stroke:none;stroke-width:1px;stroke-linecap:butt;stroke-linejoin:miter;stroke-opacity:1"
       x="-101.05206"
       y="979.16412"
       id="text4888"
       sodipodi:linespacing="125%"><tspan
         sodipodi:role="line"
         id="tspan4890"
         x="-101.05206"
         y="979.16412"
         style="font-style:normal;font-variant:normal;font-weight:500;font-stretch:normal;font-size:16.25px;font-family:'Futura Std';-inkscape-font-specification:'Futura Std Medium';letter-spacing:1px;fill:#ffffff;stroke:none;stroke-opacity:1">Microwave doppler sensor</tspan></text>
    <circle
       style="opacity:1;fill:#eeeeee;fill-opacity:1;fill-rule:evenodd;stroke:#ffffff;stroke-width:0.53731346;stroke-linecap:round;stroke-linejoin:round;stroke-miterlimit:4;stroke-dasharray:none;stroke-dashoffset:0;stroke-opacity:1"
       id="path4024-3"
       cx="128.25"
       cy="974.73712"
       r="4.2313433" />
    <circle
       style="opacity:1;fill:#eeeeee;fill-opacity:1;fill-rule:evenodd;stroke:#ffffff;stroke-width:0.53731346;stroke-linecap:round;stroke-linejoin:round;stroke-miterlimit:4;stroke-dasharray:none;stroke-dashoffset:0;stroke-opacity:1"
       id="path4024-3-8"
       cx="-128.25"
       cy="974.73712"
       r="4.2313433" />
    <circle
       style="opacity:1;fill:#eeeeee;fill-opacity:1;fill-rule:evenodd;stroke:#ffffff;stroke-width:0.53731346;stroke-linecap:round;stroke-linejoin:round;stroke-miterlimit:4;stroke-dasharray:none;stroke-dashoffset:0;stroke-opacity:1"
       id="path4024-3-5"
       cx="128.25"
       cy="1128.8622"
       r="4.2313433" />
    <circle
       style="opacity:1;fill:#eeeeee;fill-opacity:1;fill-rule:evenodd;stroke:#ffffff;stroke-width:0.53731346;stroke-linecap:round;stroke-linejoin:round;stroke-miterlimit:4;stroke-dasharray:none;stroke-dashoffset:0;stroke-opacity:1"
       id="path4024-3-8-3"
       cx="-128.25"
       cy="1128.8622"
       r="4.2313433" />
    <text
       xml:space="preserve"
       style="font-style:normal;font-variant:normal;font-weight:normal;font-stretch:normal;font-size:40px;line-height:125%;font-family:'Latin Modern Math';-inkscape-font-specification:'Latin Modern Math';letter-spacing:0px;word-spacing:0px;fill:#ffffff;fill-opacity:1;stroke:none;stroke-width:1px;stroke-linecap:butt;stroke-linejoin:miter;stroke-opacity:1"
       x="34.579678"
       y="1019.7856"
       id="text4888-9"
       sodipodi:linespacing="125%"><tspan
         sodipodi:role="line"
         id="tspan4890-7"
         x="34.579678"
         y="1019.7856"
         style="font-style:normal;font-variant:normal;font-weight:500;font-stretch:normal;font-size:12.5px;font-family:'Futura Std';-inkscape-font-specification:'Futura Std Medium';letter-spacing:2px;fill:#ffffff;stroke:none;stroke-opacity:1"
         dx="0">ALARM</tspan></text>
    <text
       xml:space="preserve"
       style="font-style:normal;font-variant:normal;font-weight:normal;font-stretch:normal;font-size:40px;line-height:125%;font-family:'Latin Modern Math';-inkscape-font-specification:'Latin Modern Math';letter-spacing:0px;word-spacing:0px;fill:#ffffff;fill-opacity:1;stroke:none;stroke-width:1px;stroke-linecap:butt;stroke-linejoin:miter;stroke-opacity:1"
       x="19.324961"
       y="1044.9872"
       id="text4888-9-0"
       sodipodi:linespacing="125%"><tspan
         sodipodi:role="line"
         id="tspan4890-7-3"
         x="19.324961"
         y="1044.9872"
         style="font-style:normal;font-variant:normal;font-weight:500;font-stretch:normal;font-size:12.5px;font-family:'Futura Std';-inkscape-font-specification:'Futura Std Medium';letter-spacing:2px;fill:#ffffff;stroke:none;stroke-opacity:1">ACTIVITY</tspan></text>
    <text
       xml:space="preserve"
       style="font-style:normal;font-variant:normal;font-weight:normal;font-stretch:normal;font-size:40px;line-height:125%;font-family:'Latin Modern Math';-inkscape-font-specification:'Latin Modern Math';letter-spacing:0px;word-spacing:0px;fill:#ffffff;fill-opacity:1;stroke:none;stroke-width:1px;stroke-linecap:butt;stroke-linejoin:miter;stroke-opacity:1"
       x="-65.887535"
       y="1134.9537"
       id="text4888-9-0-8"
       sodipodi:linespacing="125%"><tspan
         sodipodi:role="line"
         id="tspan4890-7-3-1"
         x="-65.887535"
         y="1134.9537"
         style="font-style:normal;font-variant:normal;font-weight:500;font-stretch:normal;font-size:10px;font-family:'Futura Std';-inkscape-font-specification:'Futura Std Medium';letter-spacing:1px;fill:#ffffff;stroke:none;stroke-opacity:1">USB 2.0</tspan></text>
    <text
       xml:space="preserve"
       style="font-style:normal;font-variant:normal;font-weight:normal;font-stretch:normal;font-size:40px;line-height:125%;font-family:'Latin Modern Math';-inkscape-font-specification:'Latin Modern Math';letter-spacing:0px;word-spacing:0px;fill:#ffffff;fill-opacity:1;stroke:#ffffff;stroke-width:1px;stroke-linecap:butt;stroke-linejoin:miter;stroke-opacity:1"
       x="133.13966"
       y="1108.3973"
       id="text4888-9-0-8-6"
       sodipodi:linespacing="125%"><tspan
         sodipodi:role="line"
         id="tspan4890-7-3-1-95"
         x="133.13966"
         y="1108.3973"
         style="font-style:normal;font-variant:normal;font-weight:500;font-stretch:normal;font-size:10px;font-family:'Futura Std';-inkscape-font-specification:'Futura Std Medium';letter-spacing:2px;fill:#ffffff;fill-opacity:1;stroke:#ffffff;stroke-opacity:1">+</tspan></text>
    <text
       xml:space="preserve"
       style="font-style:normal;font-variant:normal;font-weight:normal;font-stretch:normal;font-size:40px;line-height:125%;font-family:'Latin Modern Math';-inkscape-font-specification:'Latin Modern Math';letter-spacing:0px;word-spacing:0px;fill:#ffffff;fill-opacity:1;stroke:#ffffff;stroke-width:1px;stroke-linecap:butt;stroke-linejoin:miter;stroke-opacity:1"
       x="93.37999"
       y="1108.9507"
       id="text4888-9-0-8-6-7"
       sodipodi:linespacing="125%"><tspan
         sodipodi:role="line"
         id="tspan4890-7-3-1-95-9"
         x="93.37999"
         y="1108.9507"
         style="font-style:normal;font-variant:normal;font-weight:500;font-stretch:normal;font-size:10px;font-family:'Futura Std';-inkscape-font-specification:'Futura Std Medium';letter-spacing:2px;fill:#ffffff;fill-opacity:1;stroke:#ffffff;stroke-opacity:1">–</tspan></text>
    <path
       inkscape:connector-curvature="0"
       d="m -31.632881,1117.3255 -3.135396,-1.8107 0,1.2917 -16.02588,0 3.120418,-3.2968 c 0.26556,-0.2129 0.613018,-0.3622 0.97044,-0.3705 1.445915,0 2.304567,-6e-4 2.620631,0 0.21424,0.6104 0.789724,1.051 1.473863,1.051 0.865481,0 1.567855,-0.7023 1.567855,-1.5681 0,-0.8662 -0.702311,-1.5682 -1.567855,-1.5682 -0.684139,0 -1.259623,0.4403 -1.473863,1.0501 l -2.589927,-6e-4 c -0.701935,0 -1.437456,0.3851 -1.905603,0.8366 0.01277,-0.013 0.02607,-0.027 -6.11e-4,0 -0.0099,0.011 -3.310657,3.4974 -3.310657,3.4974 -0.264995,0.2125 -0.612271,0.3609 -0.969441,0.3695 l -1.81292,0 c -0.24031,-1.1977 -1.297911,-2.1 -2.566559,-2.1 -1.446417,0 -2.618874,1.1725 -2.618874,2.6184 0,1.4465 1.172457,2.619 2.618874,2.619 1.268899,0 2.3265,-0.9031 2.56681,-2.1017 l 1.781151,0 c 0.0043,0 0.0092,0 0.01381,0 l 3.939593,0 c 0.35648,0.01 0.703313,0.1576 0.968058,0.3704 0,0 3.300008,3.486 3.310222,3.4972 0.02645,0.028 0.01329,0.014 2.51e-4,0 0.468145,0.4515 1.203979,0.8364 1.906039,0.8364 l 2.495935,0 0,1.0512 3.136212,0 0,-3.1359 -3.136212,0 0,1.05 c 0,0 -0.657382,0 -2.526514,0 -0.357483,-0.01 -0.705318,-0.1573 -0.970752,-0.3702 l -3.12111,-3.2974 12.106778,0 0,1.2937 3.135396,-1.8104 z"
       id="path1334"
       style="fill:#ffffff;fill-opacity:1;stroke:none;stroke-opacity:1" />
    <text
       xml:space="preserve"
       style="font-style:normal;font-variant:normal;font-weight:normal;font-stretch:normal;font-size:40px;line-height:125%;font-family:'Latin Modern Math';-inkscape-font-specification:'Latin Modern Math';letter-spacing:0px;word-spacing:0px;fill:#ffffff;fill-opacity:1;stroke:none;stroke-width:1px;stroke-linecap:butt;stroke-linejoin:miter;stroke-opacity:1"
       x="-1.9453678"
       y="1095.0812"
       id="text4888-9-0-8-9"
       sodipodi:linespacing="125%"><tspan
         sodipodi:role="line"
         id="tspan4890-7-3-1-4"
         x="-1.9453678"
         y="1095.0812"
         style="font-style:normal;font-variant:normal;font-weight:500;font-stretch:normal;font-size:12.5px;font-family:'Futura Std';-inkscape-font-specification:'Futura Std Medium';letter-spacing:2px;fill:#ffffff;stroke:none;stroke-opacity:1">SENSITIVITY</tspan></text>
    <g
       transform="matrix(0.09892615,0,0,-0.09799587,-19.64718,1139.0392)"
       id="g4160">
      <path
         style="fill:#808080;stroke:#000000"
         inkscape:connector-curvature="0"
         d="m 312.7,91.1 c 7.6,0 13.8,6.2 13.8,13.8 l 0,23.5 c 0,2.9 -1,5.8 -2.7,8.1 l -9.8,12.9 c -4.1,5.4 -6.3,11.9 -6.3,18.6 l 0,28.1 c 0,7 -5.7,12.7 -12.7,12.7 l -193,0 c -7,0 -12.7,-5.7 -12.7,-12.7 l 0,-28.1 c 0,-6.7 -2.2,-13.3 -6.3,-18.6 l -9.8,-12.9 c -1.8,-2.3 -2.7,-5.2 -2.7,-8.1 l 0,-23.5 c 0,-7.6 6.2,-13.8 13.8,-13.8 l 228.4,0"
         class="st0"
         id="infill" />
      <path
         style="fill:#b3b3b3;stroke:#000000;stroke-width:2"
         inkscape:connector-curvature="0"
         d="m 308.3,93.3 c 7.3,0 13.3,6 13.3,13.3 l 0,22.6 c 0,2.8 -0.9,5.6 -2.6,7.8 l -9.4,12.4 c -3.9,5.2 -6,11.4 -6,17.9 l 0,27.1 c 0,6.8 -5.5,12.3 -12.3,12.3 l -185.5,0 c -6.8,0 -12.3,-5.5 -12.3,-12.3 l 0,-27.1 c 0,-6.5 -2.1,-12.8 -6,-17.9 L 78.1,137 c -1.7,-2.3 -2.6,-5 -2.6,-7.8 l 0,-22.6 c 0,-7.3 5.9,-13.3 13.3,-13.3 l 219.5,0 m 0,-16 -219.5,0 c -16.2,0 -29.3,13.1 -29.3,29.3 l 0,26.7 c 0,3.6 1.2,7.2 3.4,10.1 l 11.9,15.7 c 1.8,2.4 2.8,5.3 2.8,8.3 l 0,27.1 c 0,15.6 12.7,28.3 28.3,28.3 l 185.5,0 c 15.6,0 28.3,-12.7 28.3,-28.3 l 0,-27.1 c 0,-3 1,-5.9 2.8,-8.3 l 11.9,-15.7 c 2.2,-2.9 3.4,-6.5 3.4,-10.1 l 0,-26.7 C 337.6,90.4 324.5,77.3 308.3,77.3 l 0,0 z"
         class="st1"
         id="frame" />
      <g
         id="pins">
        <path
           inkscape:connector-curvature="0"
           d="m 260.2,191.4 -122.8,0 c -4,0 -7.7,-1.8 -10.2,-4.9 l -12.6,-15.9 c -1.2,-1.5 -1.9,-3.4 -1.9,-5.4 l 0,-19.6 c 0,-6.7 5.4,-12.1 12.1,-12.1 l 147.4,0 c 6.7,0 12.1,5.4 12.1,12.1 l 0,22.1 c 0,2.2 -0.8,4.2 -2.2,5.8 l -12.3,13.6 c -2.5,2.7 -6,4.3 -9.6,4.3 z"
           id="centre" />
        <rect
           style="fill:#fcee21;stroke:#000000;stroke-width:3"
           height="13"
           width="15"
           class="st2"
           y="122.2"
           x="133"
           id="pin1" />
        <rect
           style="fill:#fcee21;stroke:#000000;stroke-width:3"
           height="13"
           width="15"
           class="st2"
           y="122.2"
           x="162.39999"
           id="pin2" />
        <rect
           style="fill:#fcee21;stroke:#000000;stroke-width:3"
           height="13"
           width="15"
           class="st2"
           y="122.2"
           x="191.7"
           id="pin3" />
        <rect
           style="fill:#fcee21;stroke:#000000;stroke-width:3"
           height="13"
           width="15"
           class="st2"
           y="122.2"
           x="221.10001"
           id="pin4" />
        <rect
           style="fill:#fcee21;stroke:#000000;stroke-width:3"
           height="13"
           width="15"
           class="st2"
           y="122.2"
           x="250.5"
           id="pin5" />
      </g>
    </g>
    <circle
       style="opacity:1;fill:#00ff00;fill-opacity:1;fill-rule:evenodd;stroke:#ffffff;stroke-width:1.02857184;stroke-linecap:round;stroke-linejoin:round;stroke-miterlimit:4;stroke-dasharray:none;stroke-dashoffset:0;stroke-opacity:1"
       id="path4024-9-32"
       r="3.9857142"
       cy="1090.6122"
       cx="117" />
    <g
       id="g5508"
       transform="translate(0,20)">
      <path
         d="m -95.889947,1047.527 -31.447453,0.023 c -1.22912,0 -1.74632,-1.2367 -1.02279,-2.4476 l 15.10835,-25.2863 c 0.86282,-1.4031 2.46252,-1.4184 3.32534,0.048 l 15.281903,25.2163 c 0.84051,1.2035 0.22909,2.4684 -1.24514,2.4471 z"
         id="path634"
         style="fill-rule:evenodd;stroke:#ffe600;stroke-width:0.49587584;stroke-linejoin:round"
         inkscape:connector-curvature="0" />
      <path
         sodipodi:nodetypes="cccc"
         d="m -96.572157,1045.3923 -29.710753,0 14.71808,-24.0542 z"
         id="path609"
         style="fill:#ffe600;fill-rule:evenodd"
         inkscape:connector-curvature="0" />
      <path
         id="path4873"
         d="m -109.02451,1039.3292 0.63006,0.6367 c 0.85713,-0.8162 1.38993,-1.9745 1.38993,-3.2595 0,-1.265 -0.51832,-2.4079 -1.35312,-3.2221 l -0.68547,0.7117 c 0.67231,0.6459 1.09323,1.5577 1.09323,2.5666 0,1.0043 -0.40803,1.9216 -1.07463,2.5666 z"
         style="fill:#000000;fill-opacity:1;stroke:none;stroke-opacity:1"
         inkscape:connector-curvature="0" />
      <path
         id="path4875"
         d="m -110.56244,1037.7739 0.77806,0.7871 c 0.47713,-0.448 0.77821,-1.0864 0.77821,-1.7984 0,-0.7208 -0.30852,-1.3681 -0.79667,-1.8171 l -0.77834,0.8056 c 0.27677,0.2474 0.46318,0.6058 0.46318,1.0115 1.3e-4,0.4011 -0.17353,0.7647 -0.44444,1.0113 z"
         style="fill:#000000;fill-opacity:1;stroke:none;stroke-opacity:1"
         inkscape:connector-curvature="0" />
      <path
         id="path4877"
         d="m -115.41783,1032.9221 -0.79667,-0.8056 c -1.15568,1.2067 -1.87156,2.8381 -1.87156,4.646 0,1.8037 0.70233,3.4406 1.85283,4.6459 l 0.8154,-0.8241 c -0.94269,-0.9989 -1.51947,-2.3542 -1.51947,-3.8404 0,-1.4859 0.57678,-2.8272 1.51947,-3.8218 z"
         style="fill:#000000;fill-opacity:1;stroke:none;stroke-opacity:1"
         inkscape:connector-curvature="0" />
      <path
         id="path4879"
         d="m -107.63471,1040.7342 0.81541,0.824 c 1.23925,-1.2183 2.01998,-2.91 2.01998,-4.7957 0,-1.8945 -0.78777,-3.5942 -2.03845,-4.8147 l -0.79694,0.8056 c 1.03597,1.0083 1.68622,2.4183 1.68622,3.9903 1.3e-4,1.5679 -0.65543,2.9781 -1.68622,3.9905 z"
         style="fill:#000000;fill-opacity:1;stroke:none;stroke-opacity:1"
         inkscape:connector-curvature="0" />
      <path
         id="path4881"
         d="m -114.67655,1033.6713 c -0.73078,0.7989 -1.18598,1.862 -1.18598,3.0351 0,1.1981 0.4649,2.2877 1.22305,3.0913 l 0.63006,-0.6372 c -0.57174,-0.631 -0.92663,-1.4728 -0.92663,-2.3979 0,-0.9295 0.34918,-1.7836 0.92663,-2.4168 l -0.66713,-0.6745 z"
         style="fill:#000000;fill-opacity:1;stroke:none;stroke-opacity:1"
         inkscape:connector-curvature="0" />
      <path
         id="path4883"
         d="m -112.47135,1037.6056 c -0.18575,-0.2321 -0.29629,-0.5221 -0.29629,-0.8431 0,-0.3295 0.11918,-0.6269 0.31503,-0.8618 l -0.77835,-0.7678 c -0.39036,0.4342 -0.64865,0.9983 -0.64865,1.6296 0,0.6268 0.24447,1.1965 0.63019,1.63 l 0.77807,-0.7869 z"
         style="fill:#000000;fill-opacity:1;stroke:none;stroke-opacity:1"
         inkscape:connector-curvature="0" />
      <path
         style="fill:#000000;fill-opacity:1;stroke:none;stroke-opacity:1"
         id="path4885"
         d="m -111.99569,1036.7625 c 0,0.3088 0.24781,0.5591 0.55274,0.5591 0.30532,0 0.55258,-0.2503 0.55258,-0.5591 0,-0.3084 -0.24726,-0.5586 -0.55258,-0.5586 -0.30493,0 -0.55274,0.2503 -0.55274,0.5586 z"
         inkscape:connector-curvature="0" />
      <path
         id="path4887"
         d="m -112.06544,1038.0908 -1.43709,4.9406 4.02402,0 -1.43723,-4.9406 c -0.38053,0.085 -0.76266,0.1147 -1.1497,0 z"
         style="fill:#000000;fill-opacity:1;stroke:none;stroke-opacity:1"
         inkscape:connector-curvature="0" />
      <text
         sodipodi:linespacing="125%"
         id="text4888-9-0-8-67"
         y="1060.3656"
         x="-130.5417"
         style="font-style:normal;font-variant:normal;font-weight:normal;font-stretch:normal;font-size:40px;line-height:125%;font-family:'Latin Modern Math';-inkscape-font-specification:'Latin Modern Math';letter-spacing:0px;word-spacing:0px;fill:#ffffff;fill-opacity:1;stroke:none;stroke-width:1px;stroke-linecap:butt;stroke-linejoin:miter;stroke-opacity:1"
         xml:space="preserve"><tspan
           id="tspan5504"
           style="font-style:normal;font-variant:normal;font-weight:500;font-stretch:normal;font-size:10px;font-family:'Futura Std';-inkscape-font-specification:'Futura Std Medium';letter-spacing:1px;fill:#ffffff;stroke:none;stroke-opacity:1"
           y="1060.3656"
           x="-130.5417"
           sodipodi:role="line">24 GHz</tspan><tspan
           id="tspan5500"
           style="font-style:normal;font-variant:normal;font-weight:500;font-stretch:normal;font-size:10px;font-family:'Futura Std';-inkscape-font-specification:'Futura Std Medium';letter-spacing:1px;fill:#ffffff;stroke:none;stroke-opacity:1"
           y="1072.8656"
           x="-130.5417"
           sodipodi:role="line">13 dBm</tspan></text>
    </g>
  </g>
</svg>
