G75*
G70*
%OFA0B0*%
%FSLAX24Y24*%
%IPPOS*%
%LPD*%
%AMOC8*
5,1,8,0,0,1.08239X$1,22.5*
%
%ADD10C,0.0000*%
%ADD11C,0.1142*%
%ADD12R,0.0473X0.0434*%
%ADD13C,0.0520*%
%ADD14R,0.0138X0.0670*%
%ADD15C,0.0276*%
%ADD16R,0.0355X0.0749*%
D10*
X000780Y001331D02*
X000782Y001378D01*
X000788Y001424D01*
X000798Y001470D01*
X000811Y001515D01*
X000829Y001558D01*
X000850Y001600D01*
X000874Y001640D01*
X000902Y001677D01*
X000933Y001712D01*
X000967Y001745D01*
X001003Y001774D01*
X001042Y001800D01*
X001083Y001823D01*
X001126Y001842D01*
X001170Y001858D01*
X001215Y001870D01*
X001261Y001878D01*
X001308Y001882D01*
X001354Y001882D01*
X001401Y001878D01*
X001447Y001870D01*
X001492Y001858D01*
X001536Y001842D01*
X001579Y001823D01*
X001620Y001800D01*
X001659Y001774D01*
X001695Y001745D01*
X001729Y001712D01*
X001760Y001677D01*
X001788Y001640D01*
X001812Y001600D01*
X001833Y001558D01*
X001851Y001515D01*
X001864Y001470D01*
X001874Y001424D01*
X001880Y001378D01*
X001882Y001331D01*
X001880Y001284D01*
X001874Y001238D01*
X001864Y001192D01*
X001851Y001147D01*
X001833Y001104D01*
X001812Y001062D01*
X001788Y001022D01*
X001760Y000985D01*
X001729Y000950D01*
X001695Y000917D01*
X001659Y000888D01*
X001620Y000862D01*
X001579Y000839D01*
X001536Y000820D01*
X001492Y000804D01*
X001447Y000792D01*
X001401Y000784D01*
X001354Y000780D01*
X001308Y000780D01*
X001261Y000784D01*
X001215Y000792D01*
X001170Y000804D01*
X001126Y000820D01*
X001083Y000839D01*
X001042Y000862D01*
X001003Y000888D01*
X000967Y000917D01*
X000933Y000950D01*
X000902Y000985D01*
X000874Y001022D01*
X000850Y001062D01*
X000829Y001104D01*
X000811Y001147D01*
X000798Y001192D01*
X000788Y001238D01*
X000782Y001284D01*
X000780Y001331D01*
X003339Y000248D02*
X003339Y003300D01*
X000288Y003300D01*
X000288Y016489D01*
X003339Y016489D01*
X003339Y019540D01*
X027847Y019540D01*
X027847Y016489D01*
X030996Y016489D01*
X030996Y003300D01*
X027945Y003300D01*
X027945Y000248D01*
X003339Y000248D01*
X005209Y003890D02*
X005211Y003937D01*
X005217Y003983D01*
X005227Y004029D01*
X005240Y004074D01*
X005258Y004117D01*
X005279Y004159D01*
X005303Y004199D01*
X005331Y004236D01*
X005362Y004271D01*
X005396Y004304D01*
X005432Y004333D01*
X005471Y004359D01*
X005512Y004382D01*
X005555Y004401D01*
X005599Y004417D01*
X005644Y004429D01*
X005690Y004437D01*
X005737Y004441D01*
X005783Y004441D01*
X005830Y004437D01*
X005876Y004429D01*
X005921Y004417D01*
X005965Y004401D01*
X006008Y004382D01*
X006049Y004359D01*
X006088Y004333D01*
X006124Y004304D01*
X006158Y004271D01*
X006189Y004236D01*
X006217Y004199D01*
X006241Y004159D01*
X006262Y004117D01*
X006280Y004074D01*
X006293Y004029D01*
X006303Y003983D01*
X006309Y003937D01*
X006311Y003890D01*
X006309Y003843D01*
X006303Y003797D01*
X006293Y003751D01*
X006280Y003706D01*
X006262Y003663D01*
X006241Y003621D01*
X006217Y003581D01*
X006189Y003544D01*
X006158Y003509D01*
X006124Y003476D01*
X006088Y003447D01*
X006049Y003421D01*
X006008Y003398D01*
X005965Y003379D01*
X005921Y003363D01*
X005876Y003351D01*
X005830Y003343D01*
X005783Y003339D01*
X005737Y003339D01*
X005690Y003343D01*
X005644Y003351D01*
X005599Y003363D01*
X005555Y003379D01*
X005512Y003398D01*
X005471Y003421D01*
X005432Y003447D01*
X005396Y003476D01*
X005362Y003509D01*
X005331Y003544D01*
X005303Y003581D01*
X005279Y003621D01*
X005258Y003663D01*
X005240Y003706D01*
X005227Y003751D01*
X005217Y003797D01*
X005211Y003843D01*
X005209Y003890D01*
X005209Y015898D02*
X005211Y015945D01*
X005217Y015991D01*
X005227Y016037D01*
X005240Y016082D01*
X005258Y016125D01*
X005279Y016167D01*
X005303Y016207D01*
X005331Y016244D01*
X005362Y016279D01*
X005396Y016312D01*
X005432Y016341D01*
X005471Y016367D01*
X005512Y016390D01*
X005555Y016409D01*
X005599Y016425D01*
X005644Y016437D01*
X005690Y016445D01*
X005737Y016449D01*
X005783Y016449D01*
X005830Y016445D01*
X005876Y016437D01*
X005921Y016425D01*
X005965Y016409D01*
X006008Y016390D01*
X006049Y016367D01*
X006088Y016341D01*
X006124Y016312D01*
X006158Y016279D01*
X006189Y016244D01*
X006217Y016207D01*
X006241Y016167D01*
X006262Y016125D01*
X006280Y016082D01*
X006293Y016037D01*
X006303Y015991D01*
X006309Y015945D01*
X006311Y015898D01*
X006309Y015851D01*
X006303Y015805D01*
X006293Y015759D01*
X006280Y015714D01*
X006262Y015671D01*
X006241Y015629D01*
X006217Y015589D01*
X006189Y015552D01*
X006158Y015517D01*
X006124Y015484D01*
X006088Y015455D01*
X006049Y015429D01*
X006008Y015406D01*
X005965Y015387D01*
X005921Y015371D01*
X005876Y015359D01*
X005830Y015351D01*
X005783Y015347D01*
X005737Y015347D01*
X005690Y015351D01*
X005644Y015359D01*
X005599Y015371D01*
X005555Y015387D01*
X005512Y015406D01*
X005471Y015429D01*
X005432Y015455D01*
X005396Y015484D01*
X005362Y015517D01*
X005331Y015552D01*
X005303Y015589D01*
X005279Y015629D01*
X005258Y015671D01*
X005240Y015714D01*
X005227Y015759D01*
X005217Y015805D01*
X005211Y015851D01*
X005209Y015898D01*
X000780Y018457D02*
X000782Y018504D01*
X000788Y018550D01*
X000798Y018596D01*
X000811Y018641D01*
X000829Y018684D01*
X000850Y018726D01*
X000874Y018766D01*
X000902Y018803D01*
X000933Y018838D01*
X000967Y018871D01*
X001003Y018900D01*
X001042Y018926D01*
X001083Y018949D01*
X001126Y018968D01*
X001170Y018984D01*
X001215Y018996D01*
X001261Y019004D01*
X001308Y019008D01*
X001354Y019008D01*
X001401Y019004D01*
X001447Y018996D01*
X001492Y018984D01*
X001536Y018968D01*
X001579Y018949D01*
X001620Y018926D01*
X001659Y018900D01*
X001695Y018871D01*
X001729Y018838D01*
X001760Y018803D01*
X001788Y018766D01*
X001812Y018726D01*
X001833Y018684D01*
X001851Y018641D01*
X001864Y018596D01*
X001874Y018550D01*
X001880Y018504D01*
X001882Y018457D01*
X001880Y018410D01*
X001874Y018364D01*
X001864Y018318D01*
X001851Y018273D01*
X001833Y018230D01*
X001812Y018188D01*
X001788Y018148D01*
X001760Y018111D01*
X001729Y018076D01*
X001695Y018043D01*
X001659Y018014D01*
X001620Y017988D01*
X001579Y017965D01*
X001536Y017946D01*
X001492Y017930D01*
X001447Y017918D01*
X001401Y017910D01*
X001354Y017906D01*
X001308Y017906D01*
X001261Y017910D01*
X001215Y017918D01*
X001170Y017930D01*
X001126Y017946D01*
X001083Y017965D01*
X001042Y017988D01*
X001003Y018014D01*
X000967Y018043D01*
X000933Y018076D01*
X000902Y018111D01*
X000874Y018148D01*
X000850Y018188D01*
X000829Y018230D01*
X000811Y018273D01*
X000798Y018318D01*
X000788Y018364D01*
X000782Y018410D01*
X000780Y018457D01*
X014225Y018502D02*
X014227Y018523D01*
X014233Y018543D01*
X014242Y018563D01*
X014254Y018580D01*
X014269Y018594D01*
X014287Y018606D01*
X014307Y018614D01*
X014327Y018619D01*
X014348Y018620D01*
X014369Y018617D01*
X014389Y018611D01*
X014408Y018600D01*
X014425Y018587D01*
X014438Y018571D01*
X014449Y018553D01*
X014457Y018533D01*
X014461Y018513D01*
X014461Y018491D01*
X014457Y018471D01*
X014449Y018451D01*
X014438Y018433D01*
X014425Y018417D01*
X014408Y018404D01*
X014389Y018393D01*
X014369Y018387D01*
X014348Y018384D01*
X014327Y018385D01*
X014307Y018390D01*
X014287Y018398D01*
X014269Y018410D01*
X014254Y018424D01*
X014242Y018441D01*
X014233Y018461D01*
X014227Y018481D01*
X014225Y018502D01*
X016823Y018502D02*
X016825Y018523D01*
X016831Y018543D01*
X016840Y018563D01*
X016852Y018580D01*
X016867Y018594D01*
X016885Y018606D01*
X016905Y018614D01*
X016925Y018619D01*
X016946Y018620D01*
X016967Y018617D01*
X016987Y018611D01*
X017006Y018600D01*
X017023Y018587D01*
X017036Y018571D01*
X017047Y018553D01*
X017055Y018533D01*
X017059Y018513D01*
X017059Y018491D01*
X017055Y018471D01*
X017047Y018451D01*
X017036Y018433D01*
X017023Y018417D01*
X017006Y018404D01*
X016987Y018393D01*
X016967Y018387D01*
X016946Y018384D01*
X016925Y018385D01*
X016905Y018390D01*
X016885Y018398D01*
X016867Y018410D01*
X016852Y018424D01*
X016840Y018441D01*
X016831Y018461D01*
X016825Y018481D01*
X016823Y018502D01*
X024973Y015898D02*
X024975Y015945D01*
X024981Y015991D01*
X024991Y016037D01*
X025004Y016082D01*
X025022Y016125D01*
X025043Y016167D01*
X025067Y016207D01*
X025095Y016244D01*
X025126Y016279D01*
X025160Y016312D01*
X025196Y016341D01*
X025235Y016367D01*
X025276Y016390D01*
X025319Y016409D01*
X025363Y016425D01*
X025408Y016437D01*
X025454Y016445D01*
X025501Y016449D01*
X025547Y016449D01*
X025594Y016445D01*
X025640Y016437D01*
X025685Y016425D01*
X025729Y016409D01*
X025772Y016390D01*
X025813Y016367D01*
X025852Y016341D01*
X025888Y016312D01*
X025922Y016279D01*
X025953Y016244D01*
X025981Y016207D01*
X026005Y016167D01*
X026026Y016125D01*
X026044Y016082D01*
X026057Y016037D01*
X026067Y015991D01*
X026073Y015945D01*
X026075Y015898D01*
X026073Y015851D01*
X026067Y015805D01*
X026057Y015759D01*
X026044Y015714D01*
X026026Y015671D01*
X026005Y015629D01*
X025981Y015589D01*
X025953Y015552D01*
X025922Y015517D01*
X025888Y015484D01*
X025852Y015455D01*
X025813Y015429D01*
X025772Y015406D01*
X025729Y015387D01*
X025685Y015371D01*
X025640Y015359D01*
X025594Y015351D01*
X025547Y015347D01*
X025501Y015347D01*
X025454Y015351D01*
X025408Y015359D01*
X025363Y015371D01*
X025319Y015387D01*
X025276Y015406D01*
X025235Y015429D01*
X025196Y015455D01*
X025160Y015484D01*
X025126Y015517D01*
X025095Y015552D01*
X025067Y015589D01*
X025043Y015629D01*
X025022Y015671D01*
X025004Y015714D01*
X024991Y015759D01*
X024981Y015805D01*
X024975Y015851D01*
X024973Y015898D01*
X029402Y018457D02*
X029404Y018504D01*
X029410Y018550D01*
X029420Y018596D01*
X029433Y018641D01*
X029451Y018684D01*
X029472Y018726D01*
X029496Y018766D01*
X029524Y018803D01*
X029555Y018838D01*
X029589Y018871D01*
X029625Y018900D01*
X029664Y018926D01*
X029705Y018949D01*
X029748Y018968D01*
X029792Y018984D01*
X029837Y018996D01*
X029883Y019004D01*
X029930Y019008D01*
X029976Y019008D01*
X030023Y019004D01*
X030069Y018996D01*
X030114Y018984D01*
X030158Y018968D01*
X030201Y018949D01*
X030242Y018926D01*
X030281Y018900D01*
X030317Y018871D01*
X030351Y018838D01*
X030382Y018803D01*
X030410Y018766D01*
X030434Y018726D01*
X030455Y018684D01*
X030473Y018641D01*
X030486Y018596D01*
X030496Y018550D01*
X030502Y018504D01*
X030504Y018457D01*
X030502Y018410D01*
X030496Y018364D01*
X030486Y018318D01*
X030473Y018273D01*
X030455Y018230D01*
X030434Y018188D01*
X030410Y018148D01*
X030382Y018111D01*
X030351Y018076D01*
X030317Y018043D01*
X030281Y018014D01*
X030242Y017988D01*
X030201Y017965D01*
X030158Y017946D01*
X030114Y017930D01*
X030069Y017918D01*
X030023Y017910D01*
X029976Y017906D01*
X029930Y017906D01*
X029883Y017910D01*
X029837Y017918D01*
X029792Y017930D01*
X029748Y017946D01*
X029705Y017965D01*
X029664Y017988D01*
X029625Y018014D01*
X029589Y018043D01*
X029555Y018076D01*
X029524Y018111D01*
X029496Y018148D01*
X029472Y018188D01*
X029451Y018230D01*
X029433Y018273D01*
X029420Y018318D01*
X029410Y018364D01*
X029404Y018410D01*
X029402Y018457D01*
X024973Y003890D02*
X024975Y003937D01*
X024981Y003983D01*
X024991Y004029D01*
X025004Y004074D01*
X025022Y004117D01*
X025043Y004159D01*
X025067Y004199D01*
X025095Y004236D01*
X025126Y004271D01*
X025160Y004304D01*
X025196Y004333D01*
X025235Y004359D01*
X025276Y004382D01*
X025319Y004401D01*
X025363Y004417D01*
X025408Y004429D01*
X025454Y004437D01*
X025501Y004441D01*
X025547Y004441D01*
X025594Y004437D01*
X025640Y004429D01*
X025685Y004417D01*
X025729Y004401D01*
X025772Y004382D01*
X025813Y004359D01*
X025852Y004333D01*
X025888Y004304D01*
X025922Y004271D01*
X025953Y004236D01*
X025981Y004199D01*
X026005Y004159D01*
X026026Y004117D01*
X026044Y004074D01*
X026057Y004029D01*
X026067Y003983D01*
X026073Y003937D01*
X026075Y003890D01*
X026073Y003843D01*
X026067Y003797D01*
X026057Y003751D01*
X026044Y003706D01*
X026026Y003663D01*
X026005Y003621D01*
X025981Y003581D01*
X025953Y003544D01*
X025922Y003509D01*
X025888Y003476D01*
X025852Y003447D01*
X025813Y003421D01*
X025772Y003398D01*
X025729Y003379D01*
X025685Y003363D01*
X025640Y003351D01*
X025594Y003343D01*
X025547Y003339D01*
X025501Y003339D01*
X025454Y003343D01*
X025408Y003351D01*
X025363Y003363D01*
X025319Y003379D01*
X025276Y003398D01*
X025235Y003421D01*
X025196Y003447D01*
X025160Y003476D01*
X025126Y003509D01*
X025095Y003544D01*
X025067Y003581D01*
X025043Y003621D01*
X025022Y003663D01*
X025004Y003706D01*
X024991Y003751D01*
X024981Y003797D01*
X024975Y003843D01*
X024973Y003890D01*
X029402Y001331D02*
X029404Y001378D01*
X029410Y001424D01*
X029420Y001470D01*
X029433Y001515D01*
X029451Y001558D01*
X029472Y001600D01*
X029496Y001640D01*
X029524Y001677D01*
X029555Y001712D01*
X029589Y001745D01*
X029625Y001774D01*
X029664Y001800D01*
X029705Y001823D01*
X029748Y001842D01*
X029792Y001858D01*
X029837Y001870D01*
X029883Y001878D01*
X029930Y001882D01*
X029976Y001882D01*
X030023Y001878D01*
X030069Y001870D01*
X030114Y001858D01*
X030158Y001842D01*
X030201Y001823D01*
X030242Y001800D01*
X030281Y001774D01*
X030317Y001745D01*
X030351Y001712D01*
X030382Y001677D01*
X030410Y001640D01*
X030434Y001600D01*
X030455Y001558D01*
X030473Y001515D01*
X030486Y001470D01*
X030496Y001424D01*
X030502Y001378D01*
X030504Y001331D01*
X030502Y001284D01*
X030496Y001238D01*
X030486Y001192D01*
X030473Y001147D01*
X030455Y001104D01*
X030434Y001062D01*
X030410Y001022D01*
X030382Y000985D01*
X030351Y000950D01*
X030317Y000917D01*
X030281Y000888D01*
X030242Y000862D01*
X030201Y000839D01*
X030158Y000820D01*
X030114Y000804D01*
X030069Y000792D01*
X030023Y000784D01*
X029976Y000780D01*
X029930Y000780D01*
X029883Y000784D01*
X029837Y000792D01*
X029792Y000804D01*
X029748Y000820D01*
X029705Y000839D01*
X029664Y000862D01*
X029625Y000888D01*
X029589Y000917D01*
X029555Y000950D01*
X029524Y000985D01*
X029496Y001022D01*
X029472Y001062D01*
X029451Y001104D01*
X029433Y001147D01*
X029420Y001192D01*
X029410Y001238D01*
X029404Y001284D01*
X029402Y001331D01*
D11*
X001331Y001331D03*
X005760Y003890D03*
X005760Y015898D03*
X001331Y018457D03*
X025524Y015898D03*
X029953Y018457D03*
X025524Y003890D03*
X029953Y001331D03*
D12*
X015493Y013382D03*
X014823Y013382D03*
D13*
X014642Y014029D02*
X014642Y014509D01*
X015642Y014509D02*
X015642Y014029D01*
X016642Y014029D02*
X016642Y014509D01*
D14*
X016528Y017203D03*
X016331Y017203D03*
X016134Y017203D03*
X015937Y017203D03*
X015741Y017203D03*
X015544Y017203D03*
X015347Y017203D03*
X015150Y017203D03*
X014953Y017203D03*
X014756Y017203D03*
X014756Y018620D03*
X014953Y018620D03*
X015150Y018620D03*
X015347Y018620D03*
X015544Y018620D03*
X015741Y018620D03*
X015937Y018620D03*
X016134Y018620D03*
X016331Y018620D03*
X016528Y018620D03*
D15*
X016941Y018502D03*
X014343Y018502D03*
D16*
X014067Y017912D03*
X017217Y017912D03*
M02*
