%
M48
M72
T01C0.0197
T02C0.0236
T03C0.0400
T04C0.1102
%
T01
X3642Y1894
X5642Y1894
X7642Y1894
X9642Y1894
X11642Y1894
X13642Y1894
X15642Y1894
X17642Y1894
X19642Y1894
X21642Y1894
X23642Y1894
X25642Y1894
X27642Y1894
X29642Y3894
X27642Y3894
X23642Y3894
X21642Y3894
X19642Y3894
X17642Y3894
X15642Y3894
X13642Y3894
X11642Y3894
X9642Y3894
X7642Y3894
X3642Y3894
X1642Y3894
X1642Y5894
X3642Y5894
X5642Y5894
X7642Y5894
X9642Y5894
X11642Y5894
X13642Y5894
X15642Y5894
X17642Y5894
X19642Y5894
X21642Y5894
X23642Y5894
X25642Y5894
X27642Y5894
X29642Y5894
X29642Y7894
X27642Y7894
X25642Y7894
X23642Y7894
X21642Y7894
X19642Y7894
X17642Y7894
X15642Y7894
X13642Y7894
X11642Y7894
X9642Y7894
X7642Y7894
X5642Y7894
X3642Y7894
X1642Y7894
X1642Y9894
X3642Y9894
X5642Y9894
X7642Y9894
X9642Y9894
X11642Y9894
X13642Y9894
X15642Y9894
X17642Y9894
X19642Y9894
X21642Y9894
X23642Y9894
X25642Y9894
X27642Y9894
X29642Y9894
X29642Y11894
X27642Y11894
X25642Y11894
X23642Y11894
X21642Y11894
X19642Y11894
X17642Y11894
X15642Y11894
X15767Y12894
X16017Y13269
X16142Y13644
X15267Y12894
X14767Y12894
X14267Y13019
X14267Y13519
X14142Y14019
X13642Y13894
X14142Y14519
X14142Y15019
X14142Y15519
X14142Y16019
X13642Y15894
X14142Y16519
X14267Y17019
X13892Y17287
X13642Y17644
X13642Y18144
X13892Y18519
X14142Y18912
X13892Y19269
X13642Y18894
X14392Y19269
X14892Y19269
X15392Y19269
X15892Y19269
X16392Y19269
X16892Y18912
X17392Y18644
X17642Y18144
X17642Y17644
X17392Y17269
X16892Y17287
X16892Y16769
X16517Y16519
X16017Y16519
X16017Y16019
X16017Y15519
X16017Y15019
X15267Y15019
X15267Y15519
X15267Y16019
X15142Y16519
X17642Y15894
X19642Y15894
X21642Y15894
X23642Y15894
X27642Y15894
X29642Y15894
X29642Y13894
X27642Y13894
X25642Y13894
X23642Y13894
X21642Y13894
X19642Y13894
X17642Y13894
X13642Y11894
X11642Y11894
X9642Y11894
X7642Y11894
X5642Y11894
X3642Y11894
X1642Y11894
X1642Y13894
X3642Y13894
X5642Y13894
X7642Y13894
X9642Y13894
X11642Y13894
X11642Y15894
X9642Y15894
X7642Y15894
X3642Y15894
X1642Y15894
X5642Y17894
X7642Y17894
X9642Y17894
X11642Y17894
X19642Y17894
X21642Y17894
X23642Y17894
X25642Y17894
T02
X14343Y18502
X16941Y18502
T03
X14642Y14269
X15642Y14269
X16642Y14269
T04
X1331Y1331
X5760Y3890
X5760Y15898
X1331Y18457
X25524Y15898
X29953Y18457
X25524Y3890
X29953Y1331
M30
