G75*
G70*
%OFA0B0*%
%FSLAX24Y24*%
%IPPOS*%
%LPD*%
%AMOC8*
5,1,8,0,0,1.08239X$1,22.5*
%
%ADD10C,0.0000*%
%ADD11C,0.0100*%
%ADD12C,0.0320*%
%ADD13C,0.0140*%
%ADD14C,0.0160*%
%ADD15C,0.0240*%
%ADD16C,0.0060*%
%ADD17C,0.0050*%
%ADD18R,0.0200X0.0200*%
D10*
X000780Y001331D02*
X000782Y001378D01*
X000788Y001424D01*
X000798Y001470D01*
X000811Y001515D01*
X000829Y001558D01*
X000850Y001600D01*
X000874Y001640D01*
X000902Y001677D01*
X000933Y001712D01*
X000967Y001745D01*
X001003Y001774D01*
X001042Y001800D01*
X001083Y001823D01*
X001126Y001842D01*
X001170Y001858D01*
X001215Y001870D01*
X001261Y001878D01*
X001308Y001882D01*
X001354Y001882D01*
X001401Y001878D01*
X001447Y001870D01*
X001492Y001858D01*
X001536Y001842D01*
X001579Y001823D01*
X001620Y001800D01*
X001659Y001774D01*
X001695Y001745D01*
X001729Y001712D01*
X001760Y001677D01*
X001788Y001640D01*
X001812Y001600D01*
X001833Y001558D01*
X001851Y001515D01*
X001864Y001470D01*
X001874Y001424D01*
X001880Y001378D01*
X001882Y001331D01*
X001880Y001284D01*
X001874Y001238D01*
X001864Y001192D01*
X001851Y001147D01*
X001833Y001104D01*
X001812Y001062D01*
X001788Y001022D01*
X001760Y000985D01*
X001729Y000950D01*
X001695Y000917D01*
X001659Y000888D01*
X001620Y000862D01*
X001579Y000839D01*
X001536Y000820D01*
X001492Y000804D01*
X001447Y000792D01*
X001401Y000784D01*
X001354Y000780D01*
X001308Y000780D01*
X001261Y000784D01*
X001215Y000792D01*
X001170Y000804D01*
X001126Y000820D01*
X001083Y000839D01*
X001042Y000862D01*
X001003Y000888D01*
X000967Y000917D01*
X000933Y000950D01*
X000902Y000985D01*
X000874Y001022D01*
X000850Y001062D01*
X000829Y001104D01*
X000811Y001147D01*
X000798Y001192D01*
X000788Y001238D01*
X000782Y001284D01*
X000780Y001331D01*
X003339Y000248D02*
X003339Y003300D01*
X000288Y003300D01*
X000288Y016489D01*
X003339Y016489D01*
X003339Y019540D01*
X027847Y019540D01*
X027847Y016489D01*
X030996Y016489D01*
X030996Y003300D01*
X027945Y003300D01*
X027945Y000248D01*
X003339Y000248D01*
X005209Y003890D02*
X005211Y003937D01*
X005217Y003983D01*
X005227Y004029D01*
X005240Y004074D01*
X005258Y004117D01*
X005279Y004159D01*
X005303Y004199D01*
X005331Y004236D01*
X005362Y004271D01*
X005396Y004304D01*
X005432Y004333D01*
X005471Y004359D01*
X005512Y004382D01*
X005555Y004401D01*
X005599Y004417D01*
X005644Y004429D01*
X005690Y004437D01*
X005737Y004441D01*
X005783Y004441D01*
X005830Y004437D01*
X005876Y004429D01*
X005921Y004417D01*
X005965Y004401D01*
X006008Y004382D01*
X006049Y004359D01*
X006088Y004333D01*
X006124Y004304D01*
X006158Y004271D01*
X006189Y004236D01*
X006217Y004199D01*
X006241Y004159D01*
X006262Y004117D01*
X006280Y004074D01*
X006293Y004029D01*
X006303Y003983D01*
X006309Y003937D01*
X006311Y003890D01*
X006309Y003843D01*
X006303Y003797D01*
X006293Y003751D01*
X006280Y003706D01*
X006262Y003663D01*
X006241Y003621D01*
X006217Y003581D01*
X006189Y003544D01*
X006158Y003509D01*
X006124Y003476D01*
X006088Y003447D01*
X006049Y003421D01*
X006008Y003398D01*
X005965Y003379D01*
X005921Y003363D01*
X005876Y003351D01*
X005830Y003343D01*
X005783Y003339D01*
X005737Y003339D01*
X005690Y003343D01*
X005644Y003351D01*
X005599Y003363D01*
X005555Y003379D01*
X005512Y003398D01*
X005471Y003421D01*
X005432Y003447D01*
X005396Y003476D01*
X005362Y003509D01*
X005331Y003544D01*
X005303Y003581D01*
X005279Y003621D01*
X005258Y003663D01*
X005240Y003706D01*
X005227Y003751D01*
X005217Y003797D01*
X005211Y003843D01*
X005209Y003890D01*
X005209Y015898D02*
X005211Y015945D01*
X005217Y015991D01*
X005227Y016037D01*
X005240Y016082D01*
X005258Y016125D01*
X005279Y016167D01*
X005303Y016207D01*
X005331Y016244D01*
X005362Y016279D01*
X005396Y016312D01*
X005432Y016341D01*
X005471Y016367D01*
X005512Y016390D01*
X005555Y016409D01*
X005599Y016425D01*
X005644Y016437D01*
X005690Y016445D01*
X005737Y016449D01*
X005783Y016449D01*
X005830Y016445D01*
X005876Y016437D01*
X005921Y016425D01*
X005965Y016409D01*
X006008Y016390D01*
X006049Y016367D01*
X006088Y016341D01*
X006124Y016312D01*
X006158Y016279D01*
X006189Y016244D01*
X006217Y016207D01*
X006241Y016167D01*
X006262Y016125D01*
X006280Y016082D01*
X006293Y016037D01*
X006303Y015991D01*
X006309Y015945D01*
X006311Y015898D01*
X006309Y015851D01*
X006303Y015805D01*
X006293Y015759D01*
X006280Y015714D01*
X006262Y015671D01*
X006241Y015629D01*
X006217Y015589D01*
X006189Y015552D01*
X006158Y015517D01*
X006124Y015484D01*
X006088Y015455D01*
X006049Y015429D01*
X006008Y015406D01*
X005965Y015387D01*
X005921Y015371D01*
X005876Y015359D01*
X005830Y015351D01*
X005783Y015347D01*
X005737Y015347D01*
X005690Y015351D01*
X005644Y015359D01*
X005599Y015371D01*
X005555Y015387D01*
X005512Y015406D01*
X005471Y015429D01*
X005432Y015455D01*
X005396Y015484D01*
X005362Y015517D01*
X005331Y015552D01*
X005303Y015589D01*
X005279Y015629D01*
X005258Y015671D01*
X005240Y015714D01*
X005227Y015759D01*
X005217Y015805D01*
X005211Y015851D01*
X005209Y015898D01*
X000780Y018457D02*
X000782Y018504D01*
X000788Y018550D01*
X000798Y018596D01*
X000811Y018641D01*
X000829Y018684D01*
X000850Y018726D01*
X000874Y018766D01*
X000902Y018803D01*
X000933Y018838D01*
X000967Y018871D01*
X001003Y018900D01*
X001042Y018926D01*
X001083Y018949D01*
X001126Y018968D01*
X001170Y018984D01*
X001215Y018996D01*
X001261Y019004D01*
X001308Y019008D01*
X001354Y019008D01*
X001401Y019004D01*
X001447Y018996D01*
X001492Y018984D01*
X001536Y018968D01*
X001579Y018949D01*
X001620Y018926D01*
X001659Y018900D01*
X001695Y018871D01*
X001729Y018838D01*
X001760Y018803D01*
X001788Y018766D01*
X001812Y018726D01*
X001833Y018684D01*
X001851Y018641D01*
X001864Y018596D01*
X001874Y018550D01*
X001880Y018504D01*
X001882Y018457D01*
X001880Y018410D01*
X001874Y018364D01*
X001864Y018318D01*
X001851Y018273D01*
X001833Y018230D01*
X001812Y018188D01*
X001788Y018148D01*
X001760Y018111D01*
X001729Y018076D01*
X001695Y018043D01*
X001659Y018014D01*
X001620Y017988D01*
X001579Y017965D01*
X001536Y017946D01*
X001492Y017930D01*
X001447Y017918D01*
X001401Y017910D01*
X001354Y017906D01*
X001308Y017906D01*
X001261Y017910D01*
X001215Y017918D01*
X001170Y017930D01*
X001126Y017946D01*
X001083Y017965D01*
X001042Y017988D01*
X001003Y018014D01*
X000967Y018043D01*
X000933Y018076D01*
X000902Y018111D01*
X000874Y018148D01*
X000850Y018188D01*
X000829Y018230D01*
X000811Y018273D01*
X000798Y018318D01*
X000788Y018364D01*
X000782Y018410D01*
X000780Y018457D01*
X014225Y018502D02*
X014227Y018523D01*
X014233Y018543D01*
X014242Y018563D01*
X014254Y018580D01*
X014269Y018594D01*
X014287Y018606D01*
X014307Y018614D01*
X014327Y018619D01*
X014348Y018620D01*
X014369Y018617D01*
X014389Y018611D01*
X014408Y018600D01*
X014425Y018587D01*
X014438Y018571D01*
X014449Y018553D01*
X014457Y018533D01*
X014461Y018513D01*
X014461Y018491D01*
X014457Y018471D01*
X014449Y018451D01*
X014438Y018433D01*
X014425Y018417D01*
X014408Y018404D01*
X014389Y018393D01*
X014369Y018387D01*
X014348Y018384D01*
X014327Y018385D01*
X014307Y018390D01*
X014287Y018398D01*
X014269Y018410D01*
X014254Y018424D01*
X014242Y018441D01*
X014233Y018461D01*
X014227Y018481D01*
X014225Y018502D01*
X016823Y018502D02*
X016825Y018523D01*
X016831Y018543D01*
X016840Y018563D01*
X016852Y018580D01*
X016867Y018594D01*
X016885Y018606D01*
X016905Y018614D01*
X016925Y018619D01*
X016946Y018620D01*
X016967Y018617D01*
X016987Y018611D01*
X017006Y018600D01*
X017023Y018587D01*
X017036Y018571D01*
X017047Y018553D01*
X017055Y018533D01*
X017059Y018513D01*
X017059Y018491D01*
X017055Y018471D01*
X017047Y018451D01*
X017036Y018433D01*
X017023Y018417D01*
X017006Y018404D01*
X016987Y018393D01*
X016967Y018387D01*
X016946Y018384D01*
X016925Y018385D01*
X016905Y018390D01*
X016885Y018398D01*
X016867Y018410D01*
X016852Y018424D01*
X016840Y018441D01*
X016831Y018461D01*
X016825Y018481D01*
X016823Y018502D01*
X024973Y015898D02*
X024975Y015945D01*
X024981Y015991D01*
X024991Y016037D01*
X025004Y016082D01*
X025022Y016125D01*
X025043Y016167D01*
X025067Y016207D01*
X025095Y016244D01*
X025126Y016279D01*
X025160Y016312D01*
X025196Y016341D01*
X025235Y016367D01*
X025276Y016390D01*
X025319Y016409D01*
X025363Y016425D01*
X025408Y016437D01*
X025454Y016445D01*
X025501Y016449D01*
X025547Y016449D01*
X025594Y016445D01*
X025640Y016437D01*
X025685Y016425D01*
X025729Y016409D01*
X025772Y016390D01*
X025813Y016367D01*
X025852Y016341D01*
X025888Y016312D01*
X025922Y016279D01*
X025953Y016244D01*
X025981Y016207D01*
X026005Y016167D01*
X026026Y016125D01*
X026044Y016082D01*
X026057Y016037D01*
X026067Y015991D01*
X026073Y015945D01*
X026075Y015898D01*
X026073Y015851D01*
X026067Y015805D01*
X026057Y015759D01*
X026044Y015714D01*
X026026Y015671D01*
X026005Y015629D01*
X025981Y015589D01*
X025953Y015552D01*
X025922Y015517D01*
X025888Y015484D01*
X025852Y015455D01*
X025813Y015429D01*
X025772Y015406D01*
X025729Y015387D01*
X025685Y015371D01*
X025640Y015359D01*
X025594Y015351D01*
X025547Y015347D01*
X025501Y015347D01*
X025454Y015351D01*
X025408Y015359D01*
X025363Y015371D01*
X025319Y015387D01*
X025276Y015406D01*
X025235Y015429D01*
X025196Y015455D01*
X025160Y015484D01*
X025126Y015517D01*
X025095Y015552D01*
X025067Y015589D01*
X025043Y015629D01*
X025022Y015671D01*
X025004Y015714D01*
X024991Y015759D01*
X024981Y015805D01*
X024975Y015851D01*
X024973Y015898D01*
X029402Y018457D02*
X029404Y018504D01*
X029410Y018550D01*
X029420Y018596D01*
X029433Y018641D01*
X029451Y018684D01*
X029472Y018726D01*
X029496Y018766D01*
X029524Y018803D01*
X029555Y018838D01*
X029589Y018871D01*
X029625Y018900D01*
X029664Y018926D01*
X029705Y018949D01*
X029748Y018968D01*
X029792Y018984D01*
X029837Y018996D01*
X029883Y019004D01*
X029930Y019008D01*
X029976Y019008D01*
X030023Y019004D01*
X030069Y018996D01*
X030114Y018984D01*
X030158Y018968D01*
X030201Y018949D01*
X030242Y018926D01*
X030281Y018900D01*
X030317Y018871D01*
X030351Y018838D01*
X030382Y018803D01*
X030410Y018766D01*
X030434Y018726D01*
X030455Y018684D01*
X030473Y018641D01*
X030486Y018596D01*
X030496Y018550D01*
X030502Y018504D01*
X030504Y018457D01*
X030502Y018410D01*
X030496Y018364D01*
X030486Y018318D01*
X030473Y018273D01*
X030455Y018230D01*
X030434Y018188D01*
X030410Y018148D01*
X030382Y018111D01*
X030351Y018076D01*
X030317Y018043D01*
X030281Y018014D01*
X030242Y017988D01*
X030201Y017965D01*
X030158Y017946D01*
X030114Y017930D01*
X030069Y017918D01*
X030023Y017910D01*
X029976Y017906D01*
X029930Y017906D01*
X029883Y017910D01*
X029837Y017918D01*
X029792Y017930D01*
X029748Y017946D01*
X029705Y017965D01*
X029664Y017988D01*
X029625Y018014D01*
X029589Y018043D01*
X029555Y018076D01*
X029524Y018111D01*
X029496Y018148D01*
X029472Y018188D01*
X029451Y018230D01*
X029433Y018273D01*
X029420Y018318D01*
X029410Y018364D01*
X029404Y018410D01*
X029402Y018457D01*
X024973Y003890D02*
X024975Y003937D01*
X024981Y003983D01*
X024991Y004029D01*
X025004Y004074D01*
X025022Y004117D01*
X025043Y004159D01*
X025067Y004199D01*
X025095Y004236D01*
X025126Y004271D01*
X025160Y004304D01*
X025196Y004333D01*
X025235Y004359D01*
X025276Y004382D01*
X025319Y004401D01*
X025363Y004417D01*
X025408Y004429D01*
X025454Y004437D01*
X025501Y004441D01*
X025547Y004441D01*
X025594Y004437D01*
X025640Y004429D01*
X025685Y004417D01*
X025729Y004401D01*
X025772Y004382D01*
X025813Y004359D01*
X025852Y004333D01*
X025888Y004304D01*
X025922Y004271D01*
X025953Y004236D01*
X025981Y004199D01*
X026005Y004159D01*
X026026Y004117D01*
X026044Y004074D01*
X026057Y004029D01*
X026067Y003983D01*
X026073Y003937D01*
X026075Y003890D01*
X026073Y003843D01*
X026067Y003797D01*
X026057Y003751D01*
X026044Y003706D01*
X026026Y003663D01*
X026005Y003621D01*
X025981Y003581D01*
X025953Y003544D01*
X025922Y003509D01*
X025888Y003476D01*
X025852Y003447D01*
X025813Y003421D01*
X025772Y003398D01*
X025729Y003379D01*
X025685Y003363D01*
X025640Y003351D01*
X025594Y003343D01*
X025547Y003339D01*
X025501Y003339D01*
X025454Y003343D01*
X025408Y003351D01*
X025363Y003363D01*
X025319Y003379D01*
X025276Y003398D01*
X025235Y003421D01*
X025196Y003447D01*
X025160Y003476D01*
X025126Y003509D01*
X025095Y003544D01*
X025067Y003581D01*
X025043Y003621D01*
X025022Y003663D01*
X025004Y003706D01*
X024991Y003751D01*
X024981Y003797D01*
X024975Y003843D01*
X024973Y003890D01*
X029402Y001331D02*
X029404Y001378D01*
X029410Y001424D01*
X029420Y001470D01*
X029433Y001515D01*
X029451Y001558D01*
X029472Y001600D01*
X029496Y001640D01*
X029524Y001677D01*
X029555Y001712D01*
X029589Y001745D01*
X029625Y001774D01*
X029664Y001800D01*
X029705Y001823D01*
X029748Y001842D01*
X029792Y001858D01*
X029837Y001870D01*
X029883Y001878D01*
X029930Y001882D01*
X029976Y001882D01*
X030023Y001878D01*
X030069Y001870D01*
X030114Y001858D01*
X030158Y001842D01*
X030201Y001823D01*
X030242Y001800D01*
X030281Y001774D01*
X030317Y001745D01*
X030351Y001712D01*
X030382Y001677D01*
X030410Y001640D01*
X030434Y001600D01*
X030455Y001558D01*
X030473Y001515D01*
X030486Y001470D01*
X030496Y001424D01*
X030502Y001378D01*
X030504Y001331D01*
X030502Y001284D01*
X030496Y001238D01*
X030486Y001192D01*
X030473Y001147D01*
X030455Y001104D01*
X030434Y001062D01*
X030410Y001022D01*
X030382Y000985D01*
X030351Y000950D01*
X030317Y000917D01*
X030281Y000888D01*
X030242Y000862D01*
X030201Y000839D01*
X030158Y000820D01*
X030114Y000804D01*
X030069Y000792D01*
X030023Y000784D01*
X029976Y000780D01*
X029930Y000780D01*
X029883Y000784D01*
X029837Y000792D01*
X029792Y000804D01*
X029748Y000820D01*
X029705Y000839D01*
X029664Y000862D01*
X029625Y000888D01*
X029589Y000917D01*
X029555Y000950D01*
X029524Y000985D01*
X029496Y001022D01*
X029472Y001062D01*
X029451Y001104D01*
X029433Y001147D01*
X029420Y001192D01*
X029410Y001238D01*
X029404Y001284D01*
X029402Y001331D01*
D11*
X000150Y001331D02*
X000152Y001400D01*
X000158Y001468D01*
X000168Y001536D01*
X000182Y001603D01*
X000200Y001670D01*
X000221Y001735D01*
X000247Y001799D01*
X000276Y001861D01*
X000308Y001921D01*
X000344Y001980D01*
X000384Y002036D01*
X000426Y002090D01*
X000472Y002141D01*
X000521Y002190D01*
X000572Y002236D01*
X000626Y002278D01*
X000682Y002318D01*
X000740Y002354D01*
X000801Y002386D01*
X000863Y002415D01*
X000927Y002441D01*
X000992Y002462D01*
X001059Y002480D01*
X001126Y002494D01*
X001194Y002504D01*
X001262Y002510D01*
X001331Y002512D01*
X001400Y002510D01*
X001468Y002504D01*
X001536Y002494D01*
X001603Y002480D01*
X001670Y002462D01*
X001735Y002441D01*
X001799Y002415D01*
X001861Y002386D01*
X001921Y002354D01*
X001980Y002318D01*
X002036Y002278D01*
X002090Y002236D01*
X002141Y002190D01*
X002190Y002141D01*
X002236Y002090D01*
X002278Y002036D01*
X002318Y001980D01*
X002354Y001921D01*
X002386Y001861D01*
X002415Y001799D01*
X002441Y001735D01*
X002462Y001670D01*
X002480Y001603D01*
X002494Y001536D01*
X002504Y001468D01*
X002510Y001400D01*
X002512Y001331D01*
X002510Y001262D01*
X002504Y001194D01*
X002494Y001126D01*
X002480Y001059D01*
X002462Y000992D01*
X002441Y000927D01*
X002415Y000863D01*
X002386Y000801D01*
X002354Y000740D01*
X002318Y000682D01*
X002278Y000626D01*
X002236Y000572D01*
X002190Y000521D01*
X002141Y000472D01*
X002090Y000426D01*
X002036Y000384D01*
X001980Y000344D01*
X001922Y000308D01*
X001861Y000276D01*
X001799Y000247D01*
X001735Y000221D01*
X001670Y000200D01*
X001603Y000182D01*
X001536Y000168D01*
X001468Y000158D01*
X001400Y000152D01*
X001331Y000150D01*
X001262Y000152D01*
X001194Y000158D01*
X001126Y000168D01*
X001059Y000182D01*
X000992Y000200D01*
X000927Y000221D01*
X000863Y000247D01*
X000801Y000276D01*
X000740Y000308D01*
X000682Y000344D01*
X000626Y000384D01*
X000572Y000426D01*
X000521Y000472D01*
X000472Y000521D01*
X000426Y000572D01*
X000384Y000626D01*
X000344Y000682D01*
X000308Y000740D01*
X000276Y000801D01*
X000247Y000863D01*
X000221Y000927D01*
X000200Y000992D01*
X000182Y001059D01*
X000168Y001126D01*
X000158Y001194D01*
X000152Y001262D01*
X000150Y001331D01*
X000150Y018457D02*
X000152Y018526D01*
X000158Y018594D01*
X000168Y018662D01*
X000182Y018729D01*
X000200Y018796D01*
X000221Y018861D01*
X000247Y018925D01*
X000276Y018987D01*
X000308Y019047D01*
X000344Y019106D01*
X000384Y019162D01*
X000426Y019216D01*
X000472Y019267D01*
X000521Y019316D01*
X000572Y019362D01*
X000626Y019404D01*
X000682Y019444D01*
X000740Y019480D01*
X000801Y019512D01*
X000863Y019541D01*
X000927Y019567D01*
X000992Y019588D01*
X001059Y019606D01*
X001126Y019620D01*
X001194Y019630D01*
X001262Y019636D01*
X001331Y019638D01*
X001400Y019636D01*
X001468Y019630D01*
X001536Y019620D01*
X001603Y019606D01*
X001670Y019588D01*
X001735Y019567D01*
X001799Y019541D01*
X001861Y019512D01*
X001921Y019480D01*
X001980Y019444D01*
X002036Y019404D01*
X002090Y019362D01*
X002141Y019316D01*
X002190Y019267D01*
X002236Y019216D01*
X002278Y019162D01*
X002318Y019106D01*
X002354Y019047D01*
X002386Y018987D01*
X002415Y018925D01*
X002441Y018861D01*
X002462Y018796D01*
X002480Y018729D01*
X002494Y018662D01*
X002504Y018594D01*
X002510Y018526D01*
X002512Y018457D01*
X002510Y018388D01*
X002504Y018320D01*
X002494Y018252D01*
X002480Y018185D01*
X002462Y018118D01*
X002441Y018053D01*
X002415Y017989D01*
X002386Y017927D01*
X002354Y017866D01*
X002318Y017808D01*
X002278Y017752D01*
X002236Y017698D01*
X002190Y017647D01*
X002141Y017598D01*
X002090Y017552D01*
X002036Y017510D01*
X001980Y017470D01*
X001922Y017434D01*
X001861Y017402D01*
X001799Y017373D01*
X001735Y017347D01*
X001670Y017326D01*
X001603Y017308D01*
X001536Y017294D01*
X001468Y017284D01*
X001400Y017278D01*
X001331Y017276D01*
X001262Y017278D01*
X001194Y017284D01*
X001126Y017294D01*
X001059Y017308D01*
X000992Y017326D01*
X000927Y017347D01*
X000863Y017373D01*
X000801Y017402D01*
X000740Y017434D01*
X000682Y017470D01*
X000626Y017510D01*
X000572Y017552D01*
X000521Y017598D01*
X000472Y017647D01*
X000426Y017698D01*
X000384Y017752D01*
X000344Y017808D01*
X000308Y017866D01*
X000276Y017927D01*
X000247Y017989D01*
X000221Y018053D01*
X000200Y018118D01*
X000182Y018185D01*
X000168Y018252D01*
X000158Y018320D01*
X000152Y018388D01*
X000150Y018457D01*
X028772Y018457D02*
X028774Y018526D01*
X028780Y018594D01*
X028790Y018662D01*
X028804Y018729D01*
X028822Y018796D01*
X028843Y018861D01*
X028869Y018925D01*
X028898Y018987D01*
X028930Y019047D01*
X028966Y019106D01*
X029006Y019162D01*
X029048Y019216D01*
X029094Y019267D01*
X029143Y019316D01*
X029194Y019362D01*
X029248Y019404D01*
X029304Y019444D01*
X029362Y019480D01*
X029423Y019512D01*
X029485Y019541D01*
X029549Y019567D01*
X029614Y019588D01*
X029681Y019606D01*
X029748Y019620D01*
X029816Y019630D01*
X029884Y019636D01*
X029953Y019638D01*
X030022Y019636D01*
X030090Y019630D01*
X030158Y019620D01*
X030225Y019606D01*
X030292Y019588D01*
X030357Y019567D01*
X030421Y019541D01*
X030483Y019512D01*
X030543Y019480D01*
X030602Y019444D01*
X030658Y019404D01*
X030712Y019362D01*
X030763Y019316D01*
X030812Y019267D01*
X030858Y019216D01*
X030900Y019162D01*
X030940Y019106D01*
X030976Y019047D01*
X031008Y018987D01*
X031037Y018925D01*
X031063Y018861D01*
X031084Y018796D01*
X031102Y018729D01*
X031116Y018662D01*
X031126Y018594D01*
X031132Y018526D01*
X031134Y018457D01*
X031132Y018388D01*
X031126Y018320D01*
X031116Y018252D01*
X031102Y018185D01*
X031084Y018118D01*
X031063Y018053D01*
X031037Y017989D01*
X031008Y017927D01*
X030976Y017866D01*
X030940Y017808D01*
X030900Y017752D01*
X030858Y017698D01*
X030812Y017647D01*
X030763Y017598D01*
X030712Y017552D01*
X030658Y017510D01*
X030602Y017470D01*
X030544Y017434D01*
X030483Y017402D01*
X030421Y017373D01*
X030357Y017347D01*
X030292Y017326D01*
X030225Y017308D01*
X030158Y017294D01*
X030090Y017284D01*
X030022Y017278D01*
X029953Y017276D01*
X029884Y017278D01*
X029816Y017284D01*
X029748Y017294D01*
X029681Y017308D01*
X029614Y017326D01*
X029549Y017347D01*
X029485Y017373D01*
X029423Y017402D01*
X029362Y017434D01*
X029304Y017470D01*
X029248Y017510D01*
X029194Y017552D01*
X029143Y017598D01*
X029094Y017647D01*
X029048Y017698D01*
X029006Y017752D01*
X028966Y017808D01*
X028930Y017866D01*
X028898Y017927D01*
X028869Y017989D01*
X028843Y018053D01*
X028822Y018118D01*
X028804Y018185D01*
X028790Y018252D01*
X028780Y018320D01*
X028774Y018388D01*
X028772Y018457D01*
X028772Y001331D02*
X028774Y001400D01*
X028780Y001468D01*
X028790Y001536D01*
X028804Y001603D01*
X028822Y001670D01*
X028843Y001735D01*
X028869Y001799D01*
X028898Y001861D01*
X028930Y001921D01*
X028966Y001980D01*
X029006Y002036D01*
X029048Y002090D01*
X029094Y002141D01*
X029143Y002190D01*
X029194Y002236D01*
X029248Y002278D01*
X029304Y002318D01*
X029362Y002354D01*
X029423Y002386D01*
X029485Y002415D01*
X029549Y002441D01*
X029614Y002462D01*
X029681Y002480D01*
X029748Y002494D01*
X029816Y002504D01*
X029884Y002510D01*
X029953Y002512D01*
X030022Y002510D01*
X030090Y002504D01*
X030158Y002494D01*
X030225Y002480D01*
X030292Y002462D01*
X030357Y002441D01*
X030421Y002415D01*
X030483Y002386D01*
X030543Y002354D01*
X030602Y002318D01*
X030658Y002278D01*
X030712Y002236D01*
X030763Y002190D01*
X030812Y002141D01*
X030858Y002090D01*
X030900Y002036D01*
X030940Y001980D01*
X030976Y001921D01*
X031008Y001861D01*
X031037Y001799D01*
X031063Y001735D01*
X031084Y001670D01*
X031102Y001603D01*
X031116Y001536D01*
X031126Y001468D01*
X031132Y001400D01*
X031134Y001331D01*
X031132Y001262D01*
X031126Y001194D01*
X031116Y001126D01*
X031102Y001059D01*
X031084Y000992D01*
X031063Y000927D01*
X031037Y000863D01*
X031008Y000801D01*
X030976Y000740D01*
X030940Y000682D01*
X030900Y000626D01*
X030858Y000572D01*
X030812Y000521D01*
X030763Y000472D01*
X030712Y000426D01*
X030658Y000384D01*
X030602Y000344D01*
X030544Y000308D01*
X030483Y000276D01*
X030421Y000247D01*
X030357Y000221D01*
X030292Y000200D01*
X030225Y000182D01*
X030158Y000168D01*
X030090Y000158D01*
X030022Y000152D01*
X029953Y000150D01*
X029884Y000152D01*
X029816Y000158D01*
X029748Y000168D01*
X029681Y000182D01*
X029614Y000200D01*
X029549Y000221D01*
X029485Y000247D01*
X029423Y000276D01*
X029362Y000308D01*
X029304Y000344D01*
X029248Y000384D01*
X029194Y000426D01*
X029143Y000472D01*
X029094Y000521D01*
X029048Y000572D01*
X029006Y000626D01*
X028966Y000682D01*
X028930Y000740D01*
X028898Y000801D01*
X028869Y000863D01*
X028843Y000927D01*
X028822Y000992D01*
X028804Y001059D01*
X028790Y001126D01*
X028780Y001194D01*
X028774Y001262D01*
X028772Y001331D01*
D12*
X020563Y004973D02*
X020563Y005643D01*
X020563Y006283D02*
X020563Y006953D01*
X020563Y007593D02*
X020563Y008264D01*
X020563Y008904D02*
X020563Y009574D01*
X020563Y010214D02*
X020563Y010884D01*
X020563Y011524D02*
X020563Y012195D01*
X020563Y012835D02*
X020563Y013505D01*
X020563Y014145D02*
X020563Y014815D01*
X019893Y014815D01*
X019253Y014815D02*
X018583Y014815D01*
X017943Y014815D02*
X017272Y014815D01*
X016632Y014815D02*
X015962Y014815D01*
X015322Y014815D02*
X014652Y014815D01*
X014012Y014815D02*
X013341Y014815D01*
X012701Y014815D02*
X012031Y014815D01*
X011391Y014815D02*
X010721Y014815D01*
X010721Y014145D01*
X010721Y013505D02*
X010721Y012835D01*
X010721Y012195D02*
X010721Y011524D01*
X010721Y010884D02*
X010721Y010214D01*
X010721Y009574D02*
X010721Y008904D01*
X010721Y008264D02*
X010721Y007593D01*
X010721Y006953D02*
X010721Y006283D01*
X010721Y005643D02*
X010721Y004973D01*
X011391Y004973D01*
X012031Y004973D02*
X012701Y004973D01*
X013341Y004973D02*
X014012Y004973D01*
X014652Y004973D02*
X015322Y004973D01*
X015962Y004973D02*
X016632Y004973D01*
X017272Y004973D02*
X017943Y004973D01*
X018583Y004973D02*
X019253Y004973D01*
X019893Y004973D02*
X020563Y004973D01*
D13*
X023210Y005698D02*
X023691Y005698D01*
X023450Y005698D02*
X023450Y006419D01*
X023210Y006179D01*
X024002Y006299D02*
X024122Y006419D01*
X024362Y006419D01*
X024482Y006299D01*
X024482Y006179D01*
X024362Y006059D01*
X024482Y005939D01*
X024482Y005818D01*
X024362Y005698D01*
X024122Y005698D01*
X024002Y005818D01*
X024242Y006059D02*
X024362Y006059D01*
X025586Y006059D02*
X025586Y005818D01*
X025706Y005698D01*
X026066Y005698D01*
X026066Y006419D01*
X026066Y006179D02*
X025706Y006179D01*
X025586Y006059D01*
X026378Y006059D02*
X026738Y006059D01*
X026858Y005939D01*
X026858Y005818D01*
X026738Y005698D01*
X026378Y005698D01*
X026378Y006419D01*
X026738Y006419D01*
X026858Y006299D01*
X026858Y006179D01*
X026738Y006059D01*
X027170Y006179D02*
X027290Y006179D01*
X027410Y006059D01*
X027530Y006179D01*
X027650Y006059D01*
X027650Y005698D01*
X027410Y005698D02*
X027410Y006059D01*
X027170Y006179D02*
X027170Y005698D01*
X027134Y006988D02*
X026894Y006988D01*
X026774Y007108D01*
X027254Y007589D01*
X027254Y007108D01*
X027134Y006988D01*
X026774Y007108D02*
X026774Y007589D01*
X026894Y007709D01*
X027134Y007709D01*
X027254Y007589D01*
X027134Y008278D02*
X026894Y008278D01*
X026774Y008398D01*
X027254Y008879D01*
X027254Y008398D01*
X027134Y008278D01*
X026774Y008398D02*
X026774Y008879D01*
X026894Y008999D01*
X027134Y008999D01*
X027254Y008879D01*
X027565Y008639D02*
X028046Y008639D01*
X028477Y007709D02*
X028357Y007589D01*
X028357Y007108D01*
X028477Y006988D01*
X028718Y006988D01*
X028838Y007108D01*
X028838Y007349D01*
X028598Y007349D01*
X028838Y007589D02*
X028718Y007709D01*
X028477Y007709D01*
X029149Y007709D02*
X029149Y006988D01*
X029630Y006988D02*
X029630Y007709D01*
X029630Y007349D02*
X029149Y007349D01*
X029941Y007469D02*
X030422Y007469D01*
X029941Y006988D01*
X030422Y006988D01*
X026462Y007108D02*
X026342Y006988D01*
X026102Y006988D01*
X025982Y007108D01*
X025670Y006988D02*
X025190Y006988D01*
X025670Y007469D01*
X025670Y007589D01*
X025550Y007709D01*
X025310Y007709D01*
X025190Y007589D01*
X024482Y007349D02*
X024002Y007349D01*
X024362Y007709D01*
X024362Y006988D01*
X024794Y006988D02*
X024914Y006988D01*
X024914Y007108D01*
X024794Y007108D01*
X024794Y006988D01*
X023691Y006988D02*
X023210Y006988D01*
X023691Y007469D01*
X023691Y007589D01*
X023570Y007709D01*
X023330Y007709D01*
X023210Y007589D01*
X023210Y008278D02*
X023691Y008759D01*
X023691Y008879D01*
X023570Y008999D01*
X023330Y008999D01*
X023210Y008879D01*
X024002Y008639D02*
X024482Y008639D01*
X024794Y008398D02*
X024914Y008398D01*
X024914Y008278D01*
X024794Y008278D01*
X024794Y008398D01*
X025190Y008398D02*
X025310Y008278D01*
X025550Y008278D01*
X025670Y008398D01*
X025670Y008879D01*
X025190Y008398D01*
X025190Y008879D01*
X025310Y008999D01*
X025550Y008999D01*
X025670Y008879D01*
X025982Y008879D02*
X026102Y008999D01*
X026342Y008999D01*
X026462Y008879D01*
X025982Y008398D01*
X026102Y008278D01*
X026342Y008278D01*
X026462Y008398D01*
X026462Y008879D01*
X025982Y008879D02*
X025982Y008398D01*
X025982Y007709D02*
X025982Y007349D01*
X026222Y007469D01*
X026342Y007469D01*
X026462Y007349D01*
X026462Y007108D01*
X026462Y007709D02*
X025982Y007709D01*
X024362Y008278D02*
X024362Y008999D01*
X024002Y008639D01*
X023691Y008278D02*
X023210Y008278D01*
X016736Y004315D02*
X016255Y003834D01*
X016375Y003714D01*
X016616Y003714D01*
X016736Y003834D01*
X016736Y004315D01*
X016616Y004435D01*
X016375Y004435D01*
X016255Y004315D01*
X016255Y003834D01*
X015944Y003834D02*
X015824Y003714D01*
X015583Y003714D01*
X015463Y003834D01*
X015463Y004074D02*
X015704Y004195D01*
X015824Y004195D01*
X015944Y004074D01*
X015944Y003834D01*
X015463Y004074D02*
X015463Y004435D01*
X015944Y004435D01*
X015152Y004435D02*
X014912Y004315D01*
X014672Y004074D01*
X015032Y004074D01*
X015152Y003954D01*
X015152Y003834D01*
X015032Y003714D01*
X014792Y003714D01*
X014672Y003834D01*
X014672Y004074D01*
X014360Y003954D02*
X014360Y003834D01*
X014240Y003714D01*
X014000Y003714D01*
X013880Y003834D01*
X014120Y004074D02*
X014240Y004074D01*
X014360Y003954D01*
X014240Y004074D02*
X014360Y004195D01*
X014360Y004315D01*
X014240Y004435D01*
X014000Y004435D01*
X013880Y004315D01*
X013568Y004074D02*
X013088Y004074D01*
X012776Y004435D02*
X012536Y004195D01*
X012296Y004435D01*
X012296Y003714D01*
X011984Y003834D02*
X011864Y003714D01*
X011624Y003714D01*
X011504Y003834D01*
X011624Y004074D02*
X011864Y004074D01*
X011984Y003954D01*
X011984Y003834D01*
X011624Y004074D02*
X011504Y004195D01*
X011504Y004315D01*
X011624Y004435D01*
X011864Y004435D01*
X011984Y004315D01*
X012776Y004435D02*
X012776Y003714D01*
X011193Y003714D02*
X010952Y003954D01*
X011072Y003954D02*
X010712Y003954D01*
X010712Y003714D02*
X010712Y004435D01*
X011072Y004435D01*
X011193Y004315D01*
X011193Y004074D01*
X011072Y003954D01*
D14*
X025119Y009857D02*
X026693Y009857D01*
X026103Y012416D01*
X025709Y012416D01*
X025119Y009857D01*
X025127Y009894D02*
X026685Y009894D01*
X026648Y010053D02*
X025164Y010053D01*
X025200Y010211D02*
X026612Y010211D01*
X026575Y010370D02*
X025237Y010370D01*
X025273Y010528D02*
X026538Y010528D01*
X026502Y010687D02*
X025310Y010687D01*
X025347Y010845D02*
X026465Y010845D01*
X026429Y011004D02*
X025383Y011004D01*
X025420Y011162D02*
X026392Y011162D01*
X026355Y011321D02*
X025456Y011321D01*
X025493Y011479D02*
X026319Y011479D01*
X026282Y011638D02*
X025529Y011638D01*
X025566Y011796D02*
X026246Y011796D01*
X026209Y011955D02*
X025603Y011955D01*
X025639Y012113D02*
X026173Y012113D01*
X026136Y012272D02*
X025676Y012272D01*
D15*
X025838Y012815D02*
X025906Y012809D01*
X025974Y012815D01*
X026041Y012833D01*
X026103Y012862D01*
X026159Y012902D01*
X026207Y012950D01*
X026247Y013006D01*
X026276Y013068D01*
X026294Y013135D01*
X026300Y013203D01*
X026294Y013272D01*
X026276Y013338D01*
X026247Y013400D01*
X026207Y013456D01*
X026159Y013505D01*
X026103Y013544D01*
X026041Y013573D01*
X025974Y013591D01*
X025906Y013597D01*
X025838Y013591D01*
X025771Y013573D01*
X025709Y013544D01*
X025653Y013505D01*
X025604Y013456D01*
X025565Y013400D01*
X025536Y013338D01*
X025518Y013272D01*
X025512Y013203D01*
X025518Y013135D01*
X025536Y013068D01*
X025565Y013006D01*
X025604Y012950D01*
X025653Y012902D01*
X025709Y012862D01*
X025771Y012833D01*
X025838Y012815D01*
X025573Y012995D02*
X026239Y012995D01*
X027086Y012022D02*
X027146Y012067D01*
X027203Y012115D01*
X027258Y012166D01*
X027310Y012219D01*
X027359Y012275D01*
X027405Y012334D01*
X027448Y012395D01*
X027488Y012458D01*
X027525Y012523D01*
X027558Y012589D01*
X027588Y012658D01*
X027614Y012727D01*
X027636Y012798D01*
X027655Y012870D01*
X027671Y012943D01*
X027682Y013017D01*
X027690Y013091D01*
X027694Y013166D01*
X027694Y013240D01*
X027690Y013315D01*
X027682Y013389D01*
X027671Y013463D01*
X027655Y013536D01*
X027636Y013608D01*
X027614Y013679D01*
X027588Y013748D01*
X027558Y013817D01*
X027525Y013883D01*
X027488Y013948D01*
X027448Y014011D01*
X027405Y014072D01*
X027359Y014131D01*
X027310Y014187D01*
X027258Y014240D01*
X027203Y014291D01*
X027146Y014339D01*
X027086Y014384D01*
X026192Y013472D02*
X025620Y013472D01*
X025515Y013233D02*
X026297Y013233D01*
X027481Y014778D02*
X027555Y014717D01*
X027626Y014653D01*
X027694Y014586D01*
X027758Y014516D01*
X027819Y014442D01*
X027877Y014366D01*
X027931Y014287D01*
X027981Y014206D01*
X028027Y014122D01*
X028069Y014036D01*
X028106Y013949D01*
X028140Y013859D01*
X028169Y013768D01*
X028194Y013676D01*
X028215Y013583D01*
X028230Y013489D01*
X028242Y013394D01*
X028249Y013298D01*
X028251Y013203D01*
X028249Y013108D01*
X028242Y013012D01*
X028230Y012917D01*
X028215Y012823D01*
X028194Y012730D01*
X028169Y012638D01*
X028140Y012547D01*
X028106Y012457D01*
X028069Y012370D01*
X028027Y012284D01*
X027981Y012200D01*
X027931Y012119D01*
X027877Y012040D01*
X027819Y011964D01*
X027758Y011890D01*
X027694Y011820D01*
X027626Y011753D01*
X027555Y011689D01*
X027481Y011628D01*
X026693Y012416D02*
X026743Y012448D01*
X026791Y012483D01*
X026836Y012521D01*
X026878Y012562D01*
X026918Y012606D01*
X026955Y012652D01*
X026989Y012700D01*
X027020Y012751D01*
X027047Y012803D01*
X027071Y012857D01*
X027092Y012912D01*
X027109Y012969D01*
X027122Y013027D01*
X027131Y013085D01*
X027137Y013144D01*
X027139Y013203D01*
X027137Y013262D01*
X027131Y013321D01*
X027122Y013379D01*
X027109Y013437D01*
X027092Y013494D01*
X027071Y013549D01*
X027047Y013603D01*
X027020Y013655D01*
X026989Y013706D01*
X026955Y013754D01*
X026918Y013800D01*
X026878Y013844D01*
X026836Y013885D01*
X026791Y013923D01*
X026743Y013958D01*
X026693Y013990D01*
X025119Y013990D02*
X025069Y013958D01*
X025021Y013923D01*
X024976Y013885D01*
X024934Y013844D01*
X024894Y013800D01*
X024857Y013754D01*
X024823Y013706D01*
X024792Y013655D01*
X024765Y013603D01*
X024741Y013549D01*
X024720Y013494D01*
X024703Y013437D01*
X024690Y013379D01*
X024681Y013321D01*
X024675Y013262D01*
X024673Y013203D01*
X024675Y013144D01*
X024681Y013085D01*
X024690Y013027D01*
X024703Y012969D01*
X024720Y012912D01*
X024741Y012857D01*
X024765Y012803D01*
X024792Y012751D01*
X024823Y012700D01*
X024857Y012652D01*
X024894Y012606D01*
X024934Y012562D01*
X024976Y012521D01*
X025021Y012483D01*
X025069Y012448D01*
X025119Y012416D01*
X024331Y011628D02*
X024257Y011689D01*
X024186Y011753D01*
X024118Y011820D01*
X024054Y011890D01*
X023993Y011964D01*
X023935Y012040D01*
X023881Y012119D01*
X023831Y012200D01*
X023785Y012284D01*
X023743Y012370D01*
X023706Y012457D01*
X023672Y012547D01*
X023643Y012638D01*
X023618Y012730D01*
X023597Y012823D01*
X023582Y012917D01*
X023570Y013012D01*
X023563Y013108D01*
X023561Y013203D01*
X023563Y013298D01*
X023570Y013394D01*
X023582Y013489D01*
X023597Y013583D01*
X023618Y013676D01*
X023643Y013768D01*
X023672Y013859D01*
X023706Y013949D01*
X023743Y014036D01*
X023785Y014122D01*
X023831Y014206D01*
X023881Y014287D01*
X023935Y014366D01*
X023993Y014442D01*
X024054Y014516D01*
X024118Y014586D01*
X024186Y014653D01*
X024257Y014717D01*
X024331Y014778D01*
X024725Y014384D02*
X024665Y014339D01*
X024608Y014291D01*
X024553Y014240D01*
X024501Y014187D01*
X024452Y014131D01*
X024406Y014072D01*
X024363Y014011D01*
X024323Y013948D01*
X024286Y013883D01*
X024253Y013817D01*
X024223Y013748D01*
X024197Y013679D01*
X024175Y013608D01*
X024156Y013536D01*
X024140Y013463D01*
X024129Y013389D01*
X024121Y013315D01*
X024117Y013240D01*
X024117Y013166D01*
X024121Y013091D01*
X024129Y013017D01*
X024140Y012943D01*
X024156Y012870D01*
X024175Y012798D01*
X024197Y012727D01*
X024223Y012658D01*
X024253Y012589D01*
X024286Y012523D01*
X024323Y012458D01*
X024363Y012395D01*
X024406Y012334D01*
X024452Y012275D01*
X024501Y012219D01*
X024553Y012166D01*
X024608Y012115D01*
X024665Y012067D01*
X024725Y012022D01*
D16*
X017142Y014019D02*
X017142Y014519D01*
X016892Y014769D01*
X016392Y014769D01*
X016142Y014519D01*
X015892Y014769D01*
X015392Y014769D01*
X015142Y014519D01*
X014892Y014769D01*
X014392Y014769D01*
X014142Y014519D01*
X014142Y014019D01*
X014392Y013769D01*
X014892Y013769D01*
X015142Y014019D01*
X015392Y013769D01*
X015892Y013769D01*
X016142Y014019D01*
X016392Y013769D01*
X016892Y013769D01*
X017142Y014019D01*
D17*
X013967Y014044D02*
X013667Y014044D01*
X013817Y014044D02*
X013817Y014494D01*
X013667Y014344D01*
D18*
X014642Y014269D03*
X015642Y014269D03*
X016642Y014269D03*
M02*
