G75*
G70*
%OFA0B0*%
%FSLAX24Y24*%
%IPPOS*%
%LPD*%
%AMOC8*
5,1,8,0,0,1.08239X$1,22.5*
%
%ADD10C,0.0000*%
%ADD11R,0.0433X0.0394*%
%ADD12C,0.0480*%
%ADD13R,0.0098X0.0630*%
%ADD14R,0.0315X0.0709*%
%ADD15C,0.0100*%
%ADD16C,0.0317*%
%ADD17C,0.0160*%
%ADD18C,0.0240*%
D10*
X000780Y001331D02*
X000782Y001378D01*
X000788Y001424D01*
X000798Y001470D01*
X000811Y001515D01*
X000829Y001558D01*
X000850Y001600D01*
X000874Y001640D01*
X000902Y001677D01*
X000933Y001712D01*
X000967Y001745D01*
X001003Y001774D01*
X001042Y001800D01*
X001083Y001823D01*
X001126Y001842D01*
X001170Y001858D01*
X001215Y001870D01*
X001261Y001878D01*
X001308Y001882D01*
X001354Y001882D01*
X001401Y001878D01*
X001447Y001870D01*
X001492Y001858D01*
X001536Y001842D01*
X001579Y001823D01*
X001620Y001800D01*
X001659Y001774D01*
X001695Y001745D01*
X001729Y001712D01*
X001760Y001677D01*
X001788Y001640D01*
X001812Y001600D01*
X001833Y001558D01*
X001851Y001515D01*
X001864Y001470D01*
X001874Y001424D01*
X001880Y001378D01*
X001882Y001331D01*
X001880Y001284D01*
X001874Y001238D01*
X001864Y001192D01*
X001851Y001147D01*
X001833Y001104D01*
X001812Y001062D01*
X001788Y001022D01*
X001760Y000985D01*
X001729Y000950D01*
X001695Y000917D01*
X001659Y000888D01*
X001620Y000862D01*
X001579Y000839D01*
X001536Y000820D01*
X001492Y000804D01*
X001447Y000792D01*
X001401Y000784D01*
X001354Y000780D01*
X001308Y000780D01*
X001261Y000784D01*
X001215Y000792D01*
X001170Y000804D01*
X001126Y000820D01*
X001083Y000839D01*
X001042Y000862D01*
X001003Y000888D01*
X000967Y000917D01*
X000933Y000950D01*
X000902Y000985D01*
X000874Y001022D01*
X000850Y001062D01*
X000829Y001104D01*
X000811Y001147D01*
X000798Y001192D01*
X000788Y001238D01*
X000782Y001284D01*
X000780Y001331D01*
X003339Y000248D02*
X003339Y003300D01*
X000288Y003300D01*
X000288Y016489D01*
X003339Y016489D01*
X003339Y019540D01*
X027847Y019540D01*
X027847Y016489D01*
X030996Y016489D01*
X030996Y003300D01*
X027945Y003300D01*
X027945Y000248D01*
X003339Y000248D01*
X005209Y003890D02*
X005211Y003937D01*
X005217Y003983D01*
X005227Y004029D01*
X005240Y004074D01*
X005258Y004117D01*
X005279Y004159D01*
X005303Y004199D01*
X005331Y004236D01*
X005362Y004271D01*
X005396Y004304D01*
X005432Y004333D01*
X005471Y004359D01*
X005512Y004382D01*
X005555Y004401D01*
X005599Y004417D01*
X005644Y004429D01*
X005690Y004437D01*
X005737Y004441D01*
X005783Y004441D01*
X005830Y004437D01*
X005876Y004429D01*
X005921Y004417D01*
X005965Y004401D01*
X006008Y004382D01*
X006049Y004359D01*
X006088Y004333D01*
X006124Y004304D01*
X006158Y004271D01*
X006189Y004236D01*
X006217Y004199D01*
X006241Y004159D01*
X006262Y004117D01*
X006280Y004074D01*
X006293Y004029D01*
X006303Y003983D01*
X006309Y003937D01*
X006311Y003890D01*
X006309Y003843D01*
X006303Y003797D01*
X006293Y003751D01*
X006280Y003706D01*
X006262Y003663D01*
X006241Y003621D01*
X006217Y003581D01*
X006189Y003544D01*
X006158Y003509D01*
X006124Y003476D01*
X006088Y003447D01*
X006049Y003421D01*
X006008Y003398D01*
X005965Y003379D01*
X005921Y003363D01*
X005876Y003351D01*
X005830Y003343D01*
X005783Y003339D01*
X005737Y003339D01*
X005690Y003343D01*
X005644Y003351D01*
X005599Y003363D01*
X005555Y003379D01*
X005512Y003398D01*
X005471Y003421D01*
X005432Y003447D01*
X005396Y003476D01*
X005362Y003509D01*
X005331Y003544D01*
X005303Y003581D01*
X005279Y003621D01*
X005258Y003663D01*
X005240Y003706D01*
X005227Y003751D01*
X005217Y003797D01*
X005211Y003843D01*
X005209Y003890D01*
X005209Y015898D02*
X005211Y015945D01*
X005217Y015991D01*
X005227Y016037D01*
X005240Y016082D01*
X005258Y016125D01*
X005279Y016167D01*
X005303Y016207D01*
X005331Y016244D01*
X005362Y016279D01*
X005396Y016312D01*
X005432Y016341D01*
X005471Y016367D01*
X005512Y016390D01*
X005555Y016409D01*
X005599Y016425D01*
X005644Y016437D01*
X005690Y016445D01*
X005737Y016449D01*
X005783Y016449D01*
X005830Y016445D01*
X005876Y016437D01*
X005921Y016425D01*
X005965Y016409D01*
X006008Y016390D01*
X006049Y016367D01*
X006088Y016341D01*
X006124Y016312D01*
X006158Y016279D01*
X006189Y016244D01*
X006217Y016207D01*
X006241Y016167D01*
X006262Y016125D01*
X006280Y016082D01*
X006293Y016037D01*
X006303Y015991D01*
X006309Y015945D01*
X006311Y015898D01*
X006309Y015851D01*
X006303Y015805D01*
X006293Y015759D01*
X006280Y015714D01*
X006262Y015671D01*
X006241Y015629D01*
X006217Y015589D01*
X006189Y015552D01*
X006158Y015517D01*
X006124Y015484D01*
X006088Y015455D01*
X006049Y015429D01*
X006008Y015406D01*
X005965Y015387D01*
X005921Y015371D01*
X005876Y015359D01*
X005830Y015351D01*
X005783Y015347D01*
X005737Y015347D01*
X005690Y015351D01*
X005644Y015359D01*
X005599Y015371D01*
X005555Y015387D01*
X005512Y015406D01*
X005471Y015429D01*
X005432Y015455D01*
X005396Y015484D01*
X005362Y015517D01*
X005331Y015552D01*
X005303Y015589D01*
X005279Y015629D01*
X005258Y015671D01*
X005240Y015714D01*
X005227Y015759D01*
X005217Y015805D01*
X005211Y015851D01*
X005209Y015898D01*
X000780Y018457D02*
X000782Y018504D01*
X000788Y018550D01*
X000798Y018596D01*
X000811Y018641D01*
X000829Y018684D01*
X000850Y018726D01*
X000874Y018766D01*
X000902Y018803D01*
X000933Y018838D01*
X000967Y018871D01*
X001003Y018900D01*
X001042Y018926D01*
X001083Y018949D01*
X001126Y018968D01*
X001170Y018984D01*
X001215Y018996D01*
X001261Y019004D01*
X001308Y019008D01*
X001354Y019008D01*
X001401Y019004D01*
X001447Y018996D01*
X001492Y018984D01*
X001536Y018968D01*
X001579Y018949D01*
X001620Y018926D01*
X001659Y018900D01*
X001695Y018871D01*
X001729Y018838D01*
X001760Y018803D01*
X001788Y018766D01*
X001812Y018726D01*
X001833Y018684D01*
X001851Y018641D01*
X001864Y018596D01*
X001874Y018550D01*
X001880Y018504D01*
X001882Y018457D01*
X001880Y018410D01*
X001874Y018364D01*
X001864Y018318D01*
X001851Y018273D01*
X001833Y018230D01*
X001812Y018188D01*
X001788Y018148D01*
X001760Y018111D01*
X001729Y018076D01*
X001695Y018043D01*
X001659Y018014D01*
X001620Y017988D01*
X001579Y017965D01*
X001536Y017946D01*
X001492Y017930D01*
X001447Y017918D01*
X001401Y017910D01*
X001354Y017906D01*
X001308Y017906D01*
X001261Y017910D01*
X001215Y017918D01*
X001170Y017930D01*
X001126Y017946D01*
X001083Y017965D01*
X001042Y017988D01*
X001003Y018014D01*
X000967Y018043D01*
X000933Y018076D01*
X000902Y018111D01*
X000874Y018148D01*
X000850Y018188D01*
X000829Y018230D01*
X000811Y018273D01*
X000798Y018318D01*
X000788Y018364D01*
X000782Y018410D01*
X000780Y018457D01*
X014225Y018502D02*
X014227Y018523D01*
X014233Y018543D01*
X014242Y018563D01*
X014254Y018580D01*
X014269Y018594D01*
X014287Y018606D01*
X014307Y018614D01*
X014327Y018619D01*
X014348Y018620D01*
X014369Y018617D01*
X014389Y018611D01*
X014408Y018600D01*
X014425Y018587D01*
X014438Y018571D01*
X014449Y018553D01*
X014457Y018533D01*
X014461Y018513D01*
X014461Y018491D01*
X014457Y018471D01*
X014449Y018451D01*
X014438Y018433D01*
X014425Y018417D01*
X014408Y018404D01*
X014389Y018393D01*
X014369Y018387D01*
X014348Y018384D01*
X014327Y018385D01*
X014307Y018390D01*
X014287Y018398D01*
X014269Y018410D01*
X014254Y018424D01*
X014242Y018441D01*
X014233Y018461D01*
X014227Y018481D01*
X014225Y018502D01*
X016823Y018502D02*
X016825Y018523D01*
X016831Y018543D01*
X016840Y018563D01*
X016852Y018580D01*
X016867Y018594D01*
X016885Y018606D01*
X016905Y018614D01*
X016925Y018619D01*
X016946Y018620D01*
X016967Y018617D01*
X016987Y018611D01*
X017006Y018600D01*
X017023Y018587D01*
X017036Y018571D01*
X017047Y018553D01*
X017055Y018533D01*
X017059Y018513D01*
X017059Y018491D01*
X017055Y018471D01*
X017047Y018451D01*
X017036Y018433D01*
X017023Y018417D01*
X017006Y018404D01*
X016987Y018393D01*
X016967Y018387D01*
X016946Y018384D01*
X016925Y018385D01*
X016905Y018390D01*
X016885Y018398D01*
X016867Y018410D01*
X016852Y018424D01*
X016840Y018441D01*
X016831Y018461D01*
X016825Y018481D01*
X016823Y018502D01*
X024973Y015898D02*
X024975Y015945D01*
X024981Y015991D01*
X024991Y016037D01*
X025004Y016082D01*
X025022Y016125D01*
X025043Y016167D01*
X025067Y016207D01*
X025095Y016244D01*
X025126Y016279D01*
X025160Y016312D01*
X025196Y016341D01*
X025235Y016367D01*
X025276Y016390D01*
X025319Y016409D01*
X025363Y016425D01*
X025408Y016437D01*
X025454Y016445D01*
X025501Y016449D01*
X025547Y016449D01*
X025594Y016445D01*
X025640Y016437D01*
X025685Y016425D01*
X025729Y016409D01*
X025772Y016390D01*
X025813Y016367D01*
X025852Y016341D01*
X025888Y016312D01*
X025922Y016279D01*
X025953Y016244D01*
X025981Y016207D01*
X026005Y016167D01*
X026026Y016125D01*
X026044Y016082D01*
X026057Y016037D01*
X026067Y015991D01*
X026073Y015945D01*
X026075Y015898D01*
X026073Y015851D01*
X026067Y015805D01*
X026057Y015759D01*
X026044Y015714D01*
X026026Y015671D01*
X026005Y015629D01*
X025981Y015589D01*
X025953Y015552D01*
X025922Y015517D01*
X025888Y015484D01*
X025852Y015455D01*
X025813Y015429D01*
X025772Y015406D01*
X025729Y015387D01*
X025685Y015371D01*
X025640Y015359D01*
X025594Y015351D01*
X025547Y015347D01*
X025501Y015347D01*
X025454Y015351D01*
X025408Y015359D01*
X025363Y015371D01*
X025319Y015387D01*
X025276Y015406D01*
X025235Y015429D01*
X025196Y015455D01*
X025160Y015484D01*
X025126Y015517D01*
X025095Y015552D01*
X025067Y015589D01*
X025043Y015629D01*
X025022Y015671D01*
X025004Y015714D01*
X024991Y015759D01*
X024981Y015805D01*
X024975Y015851D01*
X024973Y015898D01*
X029402Y018457D02*
X029404Y018504D01*
X029410Y018550D01*
X029420Y018596D01*
X029433Y018641D01*
X029451Y018684D01*
X029472Y018726D01*
X029496Y018766D01*
X029524Y018803D01*
X029555Y018838D01*
X029589Y018871D01*
X029625Y018900D01*
X029664Y018926D01*
X029705Y018949D01*
X029748Y018968D01*
X029792Y018984D01*
X029837Y018996D01*
X029883Y019004D01*
X029930Y019008D01*
X029976Y019008D01*
X030023Y019004D01*
X030069Y018996D01*
X030114Y018984D01*
X030158Y018968D01*
X030201Y018949D01*
X030242Y018926D01*
X030281Y018900D01*
X030317Y018871D01*
X030351Y018838D01*
X030382Y018803D01*
X030410Y018766D01*
X030434Y018726D01*
X030455Y018684D01*
X030473Y018641D01*
X030486Y018596D01*
X030496Y018550D01*
X030502Y018504D01*
X030504Y018457D01*
X030502Y018410D01*
X030496Y018364D01*
X030486Y018318D01*
X030473Y018273D01*
X030455Y018230D01*
X030434Y018188D01*
X030410Y018148D01*
X030382Y018111D01*
X030351Y018076D01*
X030317Y018043D01*
X030281Y018014D01*
X030242Y017988D01*
X030201Y017965D01*
X030158Y017946D01*
X030114Y017930D01*
X030069Y017918D01*
X030023Y017910D01*
X029976Y017906D01*
X029930Y017906D01*
X029883Y017910D01*
X029837Y017918D01*
X029792Y017930D01*
X029748Y017946D01*
X029705Y017965D01*
X029664Y017988D01*
X029625Y018014D01*
X029589Y018043D01*
X029555Y018076D01*
X029524Y018111D01*
X029496Y018148D01*
X029472Y018188D01*
X029451Y018230D01*
X029433Y018273D01*
X029420Y018318D01*
X029410Y018364D01*
X029404Y018410D01*
X029402Y018457D01*
X024973Y003890D02*
X024975Y003937D01*
X024981Y003983D01*
X024991Y004029D01*
X025004Y004074D01*
X025022Y004117D01*
X025043Y004159D01*
X025067Y004199D01*
X025095Y004236D01*
X025126Y004271D01*
X025160Y004304D01*
X025196Y004333D01*
X025235Y004359D01*
X025276Y004382D01*
X025319Y004401D01*
X025363Y004417D01*
X025408Y004429D01*
X025454Y004437D01*
X025501Y004441D01*
X025547Y004441D01*
X025594Y004437D01*
X025640Y004429D01*
X025685Y004417D01*
X025729Y004401D01*
X025772Y004382D01*
X025813Y004359D01*
X025852Y004333D01*
X025888Y004304D01*
X025922Y004271D01*
X025953Y004236D01*
X025981Y004199D01*
X026005Y004159D01*
X026026Y004117D01*
X026044Y004074D01*
X026057Y004029D01*
X026067Y003983D01*
X026073Y003937D01*
X026075Y003890D01*
X026073Y003843D01*
X026067Y003797D01*
X026057Y003751D01*
X026044Y003706D01*
X026026Y003663D01*
X026005Y003621D01*
X025981Y003581D01*
X025953Y003544D01*
X025922Y003509D01*
X025888Y003476D01*
X025852Y003447D01*
X025813Y003421D01*
X025772Y003398D01*
X025729Y003379D01*
X025685Y003363D01*
X025640Y003351D01*
X025594Y003343D01*
X025547Y003339D01*
X025501Y003339D01*
X025454Y003343D01*
X025408Y003351D01*
X025363Y003363D01*
X025319Y003379D01*
X025276Y003398D01*
X025235Y003421D01*
X025196Y003447D01*
X025160Y003476D01*
X025126Y003509D01*
X025095Y003544D01*
X025067Y003581D01*
X025043Y003621D01*
X025022Y003663D01*
X025004Y003706D01*
X024991Y003751D01*
X024981Y003797D01*
X024975Y003843D01*
X024973Y003890D01*
X029402Y001331D02*
X029404Y001378D01*
X029410Y001424D01*
X029420Y001470D01*
X029433Y001515D01*
X029451Y001558D01*
X029472Y001600D01*
X029496Y001640D01*
X029524Y001677D01*
X029555Y001712D01*
X029589Y001745D01*
X029625Y001774D01*
X029664Y001800D01*
X029705Y001823D01*
X029748Y001842D01*
X029792Y001858D01*
X029837Y001870D01*
X029883Y001878D01*
X029930Y001882D01*
X029976Y001882D01*
X030023Y001878D01*
X030069Y001870D01*
X030114Y001858D01*
X030158Y001842D01*
X030201Y001823D01*
X030242Y001800D01*
X030281Y001774D01*
X030317Y001745D01*
X030351Y001712D01*
X030382Y001677D01*
X030410Y001640D01*
X030434Y001600D01*
X030455Y001558D01*
X030473Y001515D01*
X030486Y001470D01*
X030496Y001424D01*
X030502Y001378D01*
X030504Y001331D01*
X030502Y001284D01*
X030496Y001238D01*
X030486Y001192D01*
X030473Y001147D01*
X030455Y001104D01*
X030434Y001062D01*
X030410Y001022D01*
X030382Y000985D01*
X030351Y000950D01*
X030317Y000917D01*
X030281Y000888D01*
X030242Y000862D01*
X030201Y000839D01*
X030158Y000820D01*
X030114Y000804D01*
X030069Y000792D01*
X030023Y000784D01*
X029976Y000780D01*
X029930Y000780D01*
X029883Y000784D01*
X029837Y000792D01*
X029792Y000804D01*
X029748Y000820D01*
X029705Y000839D01*
X029664Y000862D01*
X029625Y000888D01*
X029589Y000917D01*
X029555Y000950D01*
X029524Y000985D01*
X029496Y001022D01*
X029472Y001062D01*
X029451Y001104D01*
X029433Y001147D01*
X029420Y001192D01*
X029410Y001238D01*
X029404Y001284D01*
X029402Y001331D01*
D11*
X015493Y013382D03*
X014823Y013382D03*
D12*
X014642Y014029D02*
X014642Y014509D01*
X015642Y014509D02*
X015642Y014029D01*
X016642Y014029D02*
X016642Y014509D01*
D13*
X016528Y017203D03*
X016331Y017203D03*
X016134Y017203D03*
X015937Y017203D03*
X015741Y017203D03*
X015544Y017203D03*
X015347Y017203D03*
X015150Y017203D03*
X014953Y017203D03*
X014756Y017203D03*
X014756Y018620D03*
X014953Y018620D03*
X015150Y018620D03*
X015347Y018620D03*
X015544Y018620D03*
X015741Y018620D03*
X015937Y018620D03*
X016134Y018620D03*
X016331Y018620D03*
X016528Y018620D03*
D14*
X017217Y017912D03*
X014067Y017912D03*
D15*
X014075Y017941D02*
X014039Y017941D01*
X014039Y018416D01*
X013890Y018416D01*
X013852Y018406D01*
X013818Y018386D01*
X013790Y018358D01*
X013770Y018324D01*
X013760Y018286D01*
X013760Y017941D01*
X014039Y017941D01*
X014039Y017883D01*
X014075Y017883D01*
X014075Y017495D01*
X014096Y017474D01*
X014096Y017407D01*
X014238Y017407D01*
X014557Y017407D01*
X014557Y017203D01*
X014557Y016868D01*
X014567Y016830D01*
X014587Y016796D01*
X014615Y016768D01*
X014649Y016748D01*
X014687Y016738D01*
X014756Y016738D01*
X014756Y016860D01*
X014756Y016860D01*
X014756Y016738D01*
X014825Y016738D01*
X014855Y016746D01*
X014884Y016738D01*
X014953Y016738D01*
X014953Y016860D01*
X014953Y016860D01*
X014953Y016860D01*
X014953Y016738D01*
X015022Y016738D01*
X015052Y016746D01*
X015081Y016738D01*
X015150Y016738D01*
X015219Y016738D01*
X015248Y016746D01*
X015278Y016738D01*
X015344Y016738D01*
X015344Y016451D01*
X015412Y016383D01*
X015412Y014831D01*
X015311Y014730D01*
X015252Y014587D01*
X015252Y013952D01*
X015311Y013808D01*
X015391Y013729D01*
X015256Y013729D01*
X015218Y013719D01*
X015184Y013699D01*
X015158Y013673D01*
X015102Y013729D01*
X014894Y013729D01*
X014973Y013808D01*
X015032Y013952D01*
X015032Y014587D01*
X014973Y014730D01*
X014863Y014840D01*
X014720Y014899D01*
X014565Y014899D01*
X014421Y014840D01*
X014311Y014730D01*
X014252Y014587D01*
X014252Y013952D01*
X014311Y013808D01*
X014412Y013708D01*
X014412Y013653D01*
X014411Y013652D01*
X014412Y013558D01*
X014412Y013464D01*
X014413Y013463D01*
X014413Y013462D01*
X014457Y013419D01*
X014457Y013123D01*
X014545Y013035D01*
X015102Y013035D01*
X015158Y013091D01*
X015184Y013065D01*
X015218Y013046D01*
X015256Y013035D01*
X015444Y013035D01*
X015444Y013334D01*
X015541Y013334D01*
X015541Y013431D01*
X015859Y013431D01*
X015859Y013599D01*
X015849Y013637D01*
X015829Y013671D01*
X015820Y013681D01*
X015863Y013698D01*
X015973Y013808D01*
X016032Y013952D01*
X016032Y014587D01*
X015973Y014730D01*
X015872Y014831D01*
X015872Y016508D01*
X015744Y016636D01*
X015744Y016738D01*
X015810Y016738D01*
X015839Y016746D01*
X015868Y016738D01*
X015937Y016738D01*
X015937Y016860D01*
X015937Y016860D01*
X015937Y016860D01*
X015937Y016738D01*
X016006Y016738D01*
X016036Y016746D01*
X016065Y016738D01*
X016134Y016738D01*
X016134Y016860D01*
X016134Y016860D01*
X016134Y016860D01*
X016134Y016738D01*
X016203Y016738D01*
X016233Y016746D01*
X016262Y016738D01*
X016331Y016738D01*
X016331Y016860D01*
X016331Y016860D01*
X016331Y016860D01*
X016331Y016738D01*
X016400Y016738D01*
X016430Y016746D01*
X016459Y016738D01*
X016528Y016738D01*
X016597Y016738D01*
X016635Y016748D01*
X016669Y016768D01*
X016697Y016796D01*
X016717Y016830D01*
X016727Y016868D01*
X016727Y017203D01*
X016528Y017203D01*
X016528Y017203D01*
X016331Y017203D01*
X016134Y017203D01*
X015937Y017203D01*
X015744Y017203D01*
X015744Y017203D01*
X015937Y017203D01*
X015937Y017203D01*
X015937Y017203D01*
X015940Y017203D01*
X016134Y017203D01*
X016134Y017203D01*
X016134Y017203D01*
X016137Y017203D01*
X016329Y017203D01*
X016331Y017203D01*
X016331Y017203D01*
X016331Y017203D01*
X016528Y017203D01*
X016528Y017203D01*
X016727Y017203D01*
X016727Y017407D01*
X017188Y017407D01*
X017188Y017474D01*
X017209Y017495D01*
X017209Y017883D01*
X017246Y017883D01*
X017246Y017941D01*
X017209Y017941D01*
X017209Y018328D01*
X017188Y018350D01*
X017188Y018398D01*
X017209Y018449D01*
X017209Y018556D01*
X017169Y018654D01*
X017093Y018730D01*
X016995Y018770D01*
X016888Y018770D01*
X016789Y018730D01*
X016727Y018667D01*
X016727Y018955D01*
X016717Y018993D01*
X016697Y019028D01*
X016669Y019055D01*
X016635Y019075D01*
X016597Y019085D01*
X016528Y019085D01*
X016528Y018964D01*
X016528Y018964D01*
X016528Y019085D01*
X016459Y019085D01*
X016430Y019078D01*
X016400Y019085D01*
X016331Y019085D01*
X016262Y019085D01*
X016233Y019078D01*
X016203Y019085D01*
X016134Y019085D01*
X016065Y019085D01*
X016036Y019078D01*
X016006Y019085D01*
X015937Y019085D01*
X015868Y019085D01*
X015839Y019078D01*
X015810Y019085D01*
X015741Y019085D01*
X015741Y019000D01*
X015741Y019000D01*
X015741Y019085D01*
X015672Y019085D01*
X015659Y019082D01*
X015655Y019085D01*
X014833Y019085D01*
X014777Y019141D01*
X014678Y019182D01*
X014296Y019182D01*
X014203Y019220D01*
X014081Y019220D01*
X013967Y019173D01*
X013881Y019087D01*
X013834Y018973D01*
X013834Y018850D01*
X013881Y018737D01*
X013967Y018650D01*
X014081Y018603D01*
X014095Y018603D01*
X014075Y018556D01*
X014075Y018449D01*
X014096Y018398D01*
X014096Y018350D01*
X014075Y018328D01*
X014075Y017941D01*
X014075Y017971D02*
X014039Y017971D01*
X014039Y017883D02*
X013760Y017883D01*
X013760Y017538D01*
X013770Y017500D01*
X013790Y017465D01*
X013818Y017437D01*
X013852Y017418D01*
X013890Y017407D01*
X014039Y017407D01*
X014039Y017883D01*
X014039Y017873D02*
X014075Y017873D01*
X014075Y017774D02*
X014039Y017774D01*
X014039Y017676D02*
X014075Y017676D01*
X014075Y017577D02*
X014039Y017577D01*
X014039Y017479D02*
X014092Y017479D01*
X013782Y017479D02*
X003489Y017479D01*
X003489Y017577D02*
X013760Y017577D01*
X013760Y017676D02*
X003489Y017676D01*
X003489Y017774D02*
X013760Y017774D01*
X013760Y017873D02*
X003489Y017873D01*
X003489Y017971D02*
X013760Y017971D01*
X013760Y018070D02*
X003489Y018070D01*
X003489Y018168D02*
X013760Y018168D01*
X013760Y018267D02*
X003489Y018267D01*
X003489Y018365D02*
X013797Y018365D01*
X014039Y018365D02*
X014096Y018365D01*
X014075Y018267D02*
X014039Y018267D01*
X014039Y018168D02*
X014075Y018168D01*
X014075Y018070D02*
X014039Y018070D01*
X014075Y018464D02*
X003489Y018464D01*
X003489Y018562D02*
X014077Y018562D01*
X013957Y018661D02*
X003489Y018661D01*
X003489Y018759D02*
X013872Y018759D01*
X013834Y018858D02*
X003489Y018858D01*
X003489Y018956D02*
X013834Y018956D01*
X013867Y019055D02*
X003489Y019055D01*
X003489Y019153D02*
X013947Y019153D01*
X014624Y018912D02*
X014756Y018780D01*
X014756Y018620D01*
X014756Y018619D02*
X015544Y018619D01*
X015744Y018620D02*
X015935Y018620D01*
X015937Y018620D01*
X015744Y018620D01*
X015744Y018620D01*
X015937Y018620D02*
X015937Y018620D01*
X016132Y018620D01*
X016134Y018620D01*
X016134Y018620D01*
X015937Y018620D01*
X015937Y018620D01*
X015937Y018619D02*
X015937Y017241D01*
X016134Y017241D02*
X016134Y018619D01*
X016134Y018620D02*
X016329Y018620D01*
X016331Y018620D01*
X016331Y018620D01*
X016528Y018620D01*
X016528Y018620D01*
X016331Y018620D01*
X016331Y018620D01*
X016134Y018620D01*
X016134Y018620D01*
X016331Y018619D02*
X016331Y017241D01*
X016528Y017241D02*
X016528Y018619D01*
X016727Y018759D02*
X016861Y018759D01*
X017022Y018759D02*
X027697Y018759D01*
X027697Y018661D02*
X017162Y018661D01*
X017207Y018562D02*
X027697Y018562D01*
X027697Y018464D02*
X017209Y018464D01*
X017246Y018416D02*
X017246Y017941D01*
X017524Y017941D01*
X017524Y018286D01*
X017514Y018324D01*
X017494Y018358D01*
X017467Y018386D01*
X017432Y018406D01*
X017394Y018416D01*
X017246Y018416D01*
X017246Y018365D02*
X017188Y018365D01*
X017209Y018267D02*
X017246Y018267D01*
X017246Y018168D02*
X017209Y018168D01*
X017209Y018070D02*
X017246Y018070D01*
X017246Y017971D02*
X017209Y017971D01*
X017246Y017883D02*
X017524Y017883D01*
X017524Y017538D01*
X017514Y017500D01*
X017494Y017465D01*
X017467Y017437D01*
X017432Y017418D01*
X017394Y017407D01*
X017246Y017407D01*
X017246Y017883D01*
X017246Y017873D02*
X017209Y017873D01*
X017209Y017774D02*
X017246Y017774D01*
X017246Y017676D02*
X017209Y017676D01*
X017209Y017577D02*
X017246Y017577D01*
X017246Y017479D02*
X017193Y017479D01*
X017502Y017479D02*
X027697Y017479D01*
X027697Y017577D02*
X017524Y017577D01*
X017524Y017676D02*
X027697Y017676D01*
X027697Y017774D02*
X017524Y017774D01*
X017524Y017873D02*
X027697Y017873D01*
X027697Y017971D02*
X017524Y017971D01*
X017524Y018070D02*
X027697Y018070D01*
X027697Y018168D02*
X017524Y018168D01*
X017524Y018267D02*
X027697Y018267D01*
X027697Y018365D02*
X017488Y018365D01*
X016727Y018858D02*
X027697Y018858D01*
X027697Y018956D02*
X016727Y018956D01*
X016670Y019055D02*
X027697Y019055D01*
X027697Y019153D02*
X014747Y019153D01*
X015741Y019055D02*
X015741Y019055D01*
X015741Y019012D02*
X015741Y018028D01*
X015839Y018109D01*
X015741Y017831D02*
X015839Y017715D01*
X015741Y017831D02*
X015741Y016650D01*
X015744Y016691D02*
X024626Y016691D01*
X024591Y016662D02*
X024591Y016662D01*
X024910Y016929D01*
X024910Y016929D01*
X025302Y017072D01*
X025719Y017072D01*
X026110Y016929D01*
X026110Y016929D01*
X026429Y016662D01*
X026429Y016662D01*
X026429Y016662D01*
X026638Y016301D01*
X026638Y016301D01*
X026710Y015890D01*
X026710Y015890D01*
X026638Y015480D01*
X026429Y015119D01*
X026429Y015119D01*
X026110Y014851D01*
X026110Y014851D01*
X025719Y014708D01*
X025302Y014708D01*
X024910Y014851D01*
X024910Y014851D01*
X024591Y015119D01*
X024591Y015119D01*
X024383Y015480D01*
X024383Y015480D01*
X024310Y015890D01*
X024310Y015890D01*
X024383Y016301D01*
X024383Y016301D01*
X024591Y016662D01*
X024551Y016592D02*
X015788Y016592D01*
X015872Y016494D02*
X024494Y016494D01*
X024437Y016395D02*
X015872Y016395D01*
X015872Y016297D02*
X024382Y016297D01*
X024365Y016198D02*
X015872Y016198D01*
X015872Y016100D02*
X024347Y016100D01*
X024330Y016001D02*
X015872Y016001D01*
X015872Y015903D02*
X024312Y015903D01*
X024325Y015804D02*
X015872Y015804D01*
X015872Y015706D02*
X024343Y015706D01*
X024360Y015607D02*
X015872Y015607D01*
X015872Y015509D02*
X024378Y015509D01*
X024423Y015410D02*
X015872Y015410D01*
X015872Y015312D02*
X024480Y015312D01*
X024537Y015213D02*
X015872Y015213D01*
X015872Y015115D02*
X024596Y015115D01*
X024591Y015119D02*
X024591Y015119D01*
X024713Y015016D02*
X015872Y015016D01*
X015872Y014918D02*
X024831Y014918D01*
X024998Y014819D02*
X016880Y014819D01*
X016891Y014812D02*
X016827Y014855D01*
X016756Y014884D01*
X016692Y014897D01*
X016692Y014319D01*
X016592Y014319D01*
X016592Y014219D01*
X016252Y014219D01*
X016252Y013991D01*
X016267Y013915D01*
X016297Y013844D01*
X016339Y013780D01*
X016394Y013726D01*
X016457Y013683D01*
X016528Y013654D01*
X016592Y013641D01*
X016592Y014219D01*
X016692Y014219D01*
X016692Y013641D01*
X016756Y013654D01*
X016827Y013683D01*
X016891Y013726D01*
X016945Y013780D01*
X016988Y013844D01*
X017017Y013915D01*
X017032Y013991D01*
X017032Y014219D01*
X016692Y014219D01*
X016692Y014319D01*
X017032Y014319D01*
X017032Y014548D01*
X017017Y014623D01*
X016988Y014694D01*
X016945Y014758D01*
X016891Y014812D01*
X016970Y014721D02*
X025268Y014721D01*
X025752Y014721D02*
X030846Y014721D01*
X030846Y014819D02*
X026023Y014819D01*
X026190Y014918D02*
X030846Y014918D01*
X030846Y015016D02*
X026307Y015016D01*
X026424Y015115D02*
X030846Y015115D01*
X030846Y015213D02*
X026484Y015213D01*
X026541Y015312D02*
X030846Y015312D01*
X030846Y015410D02*
X026598Y015410D01*
X026643Y015509D02*
X030846Y015509D01*
X030846Y015607D02*
X026660Y015607D01*
X026678Y015706D02*
X030846Y015706D01*
X030846Y015804D02*
X026695Y015804D01*
X026708Y015903D02*
X030846Y015903D01*
X030846Y016001D02*
X026691Y016001D01*
X026673Y016100D02*
X030846Y016100D01*
X030846Y016198D02*
X026656Y016198D01*
X026639Y016297D02*
X030846Y016297D01*
X030846Y016339D02*
X027909Y016339D01*
X027785Y016339D01*
X027697Y016426D01*
X027697Y019390D01*
X003489Y019390D01*
X003489Y016426D01*
X003401Y016339D01*
X000438Y016339D01*
X000438Y003450D01*
X003401Y003450D01*
X003489Y003362D01*
X003489Y000398D01*
X027795Y000398D01*
X027795Y003362D01*
X027883Y003450D01*
X030846Y003450D01*
X030846Y016339D01*
X030846Y014622D02*
X017017Y014622D01*
X017032Y014524D02*
X030846Y014524D01*
X030846Y014425D02*
X017032Y014425D01*
X017032Y014327D02*
X030846Y014327D01*
X030846Y014228D02*
X016692Y014228D01*
X016692Y014130D02*
X016592Y014130D01*
X016592Y014228D02*
X016032Y014228D01*
X016032Y014130D02*
X016252Y014130D01*
X016252Y014031D02*
X016032Y014031D01*
X016024Y013933D02*
X016264Y013933D01*
X016303Y013834D02*
X015983Y013834D01*
X015900Y013736D02*
X016384Y013736D01*
X016592Y013736D02*
X016692Y013736D01*
X016692Y013834D02*
X016592Y013834D01*
X016592Y013933D02*
X016692Y013933D01*
X016692Y014031D02*
X016592Y014031D01*
X016900Y013736D02*
X030846Y013736D01*
X030846Y013834D02*
X016981Y013834D01*
X017021Y013933D02*
X030846Y013933D01*
X030846Y014031D02*
X017032Y014031D01*
X017032Y014130D02*
X030846Y014130D01*
X030846Y013637D02*
X015849Y013637D01*
X015859Y013539D02*
X030846Y013539D01*
X030846Y013440D02*
X015859Y013440D01*
X015859Y013334D02*
X015541Y013334D01*
X015541Y013035D01*
X015729Y013035D01*
X015767Y013046D01*
X015801Y013065D01*
X015829Y013093D01*
X015849Y013128D01*
X015859Y013166D01*
X015859Y013334D01*
X015859Y013243D02*
X030846Y013243D01*
X030846Y013145D02*
X015853Y013145D01*
X015768Y013046D02*
X030846Y013046D01*
X030846Y012948D02*
X000438Y012948D01*
X000438Y013046D02*
X014534Y013046D01*
X014457Y013145D02*
X000438Y013145D01*
X000438Y013243D02*
X014457Y013243D01*
X014457Y013342D02*
X000438Y013342D01*
X000438Y013440D02*
X014435Y013440D01*
X014412Y013539D02*
X000438Y013539D01*
X000438Y013637D02*
X014411Y013637D01*
X014384Y013736D02*
X000438Y013736D01*
X000438Y013834D02*
X014301Y013834D01*
X014260Y013933D02*
X000438Y013933D01*
X000438Y014031D02*
X014252Y014031D01*
X014252Y014130D02*
X000438Y014130D01*
X000438Y014228D02*
X014252Y014228D01*
X014252Y014327D02*
X000438Y014327D01*
X000438Y014425D02*
X014252Y014425D01*
X014252Y014524D02*
X000438Y014524D01*
X000438Y014622D02*
X014267Y014622D01*
X014308Y014721D02*
X006002Y014721D01*
X005969Y014708D02*
X006360Y014851D01*
X006360Y014851D01*
X006679Y015119D01*
X006888Y015480D01*
X006960Y015890D01*
X006888Y016301D01*
X006679Y016662D01*
X006360Y016929D01*
X005969Y017072D01*
X005552Y017072D01*
X005160Y016929D01*
X004841Y016662D01*
X004841Y016662D01*
X004633Y016301D01*
X004633Y016301D01*
X004560Y015890D01*
X004633Y015480D01*
X004633Y015480D01*
X004841Y015119D01*
X004841Y015119D01*
X005160Y014851D01*
X005160Y014851D01*
X005552Y014708D01*
X005969Y014708D01*
X006273Y014819D02*
X014401Y014819D01*
X014884Y014819D02*
X015401Y014819D01*
X015412Y014918D02*
X006440Y014918D01*
X006557Y015016D02*
X015412Y015016D01*
X015412Y015115D02*
X006674Y015115D01*
X006679Y015119D02*
X006679Y015119D01*
X006734Y015213D02*
X015412Y015213D01*
X015412Y015312D02*
X006791Y015312D01*
X006848Y015410D02*
X015412Y015410D01*
X015412Y015509D02*
X006893Y015509D01*
X006888Y015480D02*
X006888Y015480D01*
X006910Y015607D02*
X015412Y015607D01*
X015412Y015706D02*
X006928Y015706D01*
X006945Y015804D02*
X015412Y015804D01*
X015412Y015903D02*
X006958Y015903D01*
X006960Y015890D02*
X006960Y015890D01*
X006941Y016001D02*
X015412Y016001D01*
X015412Y016100D02*
X006923Y016100D01*
X006906Y016198D02*
X015412Y016198D01*
X015412Y016297D02*
X006889Y016297D01*
X006833Y016395D02*
X015400Y016395D01*
X015344Y016494D02*
X006776Y016494D01*
X006720Y016592D02*
X015344Y016592D01*
X015347Y016650D02*
X015347Y017241D01*
X015344Y017203D02*
X015150Y017203D01*
X014953Y017203D01*
X014756Y017203D01*
X014557Y017203D01*
X014756Y017203D01*
X014756Y017203D01*
X014756Y017203D01*
X014953Y017203D01*
X014953Y017203D01*
X014953Y017203D01*
X015150Y017203D01*
X015150Y017203D01*
X015150Y017203D01*
X015152Y017203D01*
X015344Y017203D01*
X015344Y017203D01*
X015544Y017203D02*
X015544Y016534D01*
X015642Y016435D01*
X015344Y016691D02*
X006645Y016691D01*
X006679Y016662D02*
X006679Y016662D01*
X006679Y016662D01*
X006527Y016789D02*
X014594Y016789D01*
X014557Y016888D02*
X006410Y016888D01*
X006360Y016929D02*
X006360Y016929D01*
X006204Y016986D02*
X014557Y016986D01*
X014557Y017085D02*
X003489Y017085D01*
X003489Y017183D02*
X014557Y017183D01*
X014557Y017282D02*
X003489Y017282D01*
X003489Y017380D02*
X014557Y017380D01*
X015150Y016860D02*
X015150Y016860D01*
X015150Y016860D01*
X015150Y016738D01*
X015150Y016860D01*
X015150Y016789D02*
X015150Y016789D01*
X014953Y016789D02*
X014953Y016789D01*
X014756Y016789D02*
X014756Y016789D01*
X015937Y016789D02*
X015937Y016789D01*
X016134Y016789D02*
X016134Y016789D01*
X016331Y016789D02*
X016331Y016789D01*
X016528Y016789D02*
X016528Y016789D01*
X016528Y016738D02*
X016528Y016860D01*
X016528Y016860D01*
X016528Y016738D01*
X016690Y016789D02*
X024743Y016789D01*
X024860Y016888D02*
X016727Y016888D01*
X016727Y016986D02*
X025066Y016986D01*
X025954Y016986D02*
X027697Y016986D01*
X027697Y016888D02*
X026160Y016888D01*
X026277Y016789D02*
X027697Y016789D01*
X027697Y016691D02*
X026395Y016691D01*
X026470Y016592D02*
X027697Y016592D01*
X027697Y016494D02*
X026526Y016494D01*
X026583Y016395D02*
X027728Y016395D01*
X027697Y017085D02*
X016727Y017085D01*
X016727Y017183D02*
X027697Y017183D01*
X027697Y017282D02*
X016727Y017282D01*
X016727Y017380D02*
X027697Y017380D01*
X027697Y019252D02*
X003489Y019252D01*
X003489Y019350D02*
X027697Y019350D01*
X030846Y013342D02*
X015541Y013342D01*
X015541Y013243D02*
X015444Y013243D01*
X015444Y013145D02*
X015541Y013145D01*
X015541Y013046D02*
X015444Y013046D01*
X015217Y013046D02*
X015113Y013046D01*
X014900Y013736D02*
X015384Y013736D01*
X015301Y013834D02*
X014983Y013834D01*
X015024Y013933D02*
X015260Y013933D01*
X015252Y014031D02*
X015032Y014031D01*
X015032Y014130D02*
X015252Y014130D01*
X015252Y014228D02*
X015032Y014228D01*
X015032Y014327D02*
X015252Y014327D01*
X015252Y014425D02*
X015032Y014425D01*
X015032Y014524D02*
X015252Y014524D01*
X015267Y014622D02*
X015017Y014622D01*
X014977Y014721D02*
X015308Y014721D01*
X015884Y014819D02*
X016404Y014819D01*
X016394Y014812D02*
X016339Y014758D01*
X016297Y014694D01*
X016267Y014623D01*
X016252Y014548D01*
X016252Y014319D01*
X016592Y014319D01*
X016592Y014897D01*
X016528Y014884D01*
X016457Y014855D01*
X016394Y014812D01*
X016314Y014721D02*
X015977Y014721D01*
X016017Y014622D02*
X016267Y014622D01*
X016252Y014524D02*
X016032Y014524D01*
X016032Y014425D02*
X016252Y014425D01*
X016252Y014327D02*
X016032Y014327D01*
X016592Y014327D02*
X016692Y014327D01*
X016692Y014425D02*
X016592Y014425D01*
X016592Y014524D02*
X016692Y014524D01*
X016692Y014622D02*
X016592Y014622D01*
X016592Y014721D02*
X016692Y014721D01*
X016692Y014819D02*
X016592Y014819D01*
X016331Y018964D02*
X016331Y018964D01*
X016331Y019085D01*
X016331Y018964D01*
X016331Y018964D01*
X016331Y019055D02*
X016331Y019055D01*
X016134Y019055D02*
X016134Y019055D01*
X016134Y019085D02*
X016134Y018964D01*
X016134Y019085D01*
X016134Y018964D02*
X016134Y018964D01*
X016134Y018964D01*
X015937Y018964D02*
X015937Y019085D01*
X015937Y018964D01*
X015937Y018964D01*
X015937Y018964D01*
X015937Y019055D02*
X015937Y019055D01*
X015839Y019111D02*
X015741Y019012D01*
X016528Y019055D02*
X016528Y019055D01*
X005518Y014721D02*
X000438Y014721D01*
X000438Y014819D02*
X005248Y014819D01*
X005081Y014918D02*
X000438Y014918D01*
X000438Y015016D02*
X004963Y015016D01*
X004846Y015115D02*
X000438Y015115D01*
X000438Y015213D02*
X004787Y015213D01*
X004841Y015119D02*
X004841Y015119D01*
X004730Y015312D02*
X000438Y015312D01*
X000438Y015410D02*
X004673Y015410D01*
X004628Y015509D02*
X000438Y015509D01*
X000438Y015607D02*
X004610Y015607D01*
X004593Y015706D02*
X000438Y015706D01*
X000438Y015804D02*
X004575Y015804D01*
X004560Y015890D02*
X004560Y015890D01*
X004562Y015903D02*
X000438Y015903D01*
X000438Y016001D02*
X004580Y016001D01*
X004597Y016100D02*
X000438Y016100D01*
X000438Y016198D02*
X004615Y016198D01*
X004632Y016297D02*
X000438Y016297D01*
X003458Y016395D02*
X004687Y016395D01*
X004744Y016494D02*
X003489Y016494D01*
X003489Y016592D02*
X004801Y016592D01*
X004876Y016691D02*
X003489Y016691D01*
X003489Y016789D02*
X004993Y016789D01*
X005110Y016888D02*
X003489Y016888D01*
X003489Y016986D02*
X005316Y016986D01*
X005160Y016929D02*
X005160Y016929D01*
X000438Y012849D02*
X030846Y012849D01*
X030846Y012751D02*
X000438Y012751D01*
X000438Y012652D02*
X030846Y012652D01*
X030846Y012554D02*
X000438Y012554D01*
X000438Y012455D02*
X030846Y012455D01*
X030846Y012357D02*
X000438Y012357D01*
X000438Y012258D02*
X030846Y012258D01*
X030846Y012160D02*
X000438Y012160D01*
X000438Y012061D02*
X030846Y012061D01*
X030846Y011963D02*
X000438Y011963D01*
X000438Y011864D02*
X030846Y011864D01*
X030846Y011766D02*
X000438Y011766D01*
X000438Y011667D02*
X030846Y011667D01*
X030846Y011569D02*
X000438Y011569D01*
X000438Y011470D02*
X030846Y011470D01*
X030846Y011372D02*
X000438Y011372D01*
X000438Y011273D02*
X030846Y011273D01*
X030846Y011175D02*
X000438Y011175D01*
X000438Y011076D02*
X030846Y011076D01*
X030846Y010978D02*
X000438Y010978D01*
X000438Y010879D02*
X030846Y010879D01*
X030846Y010781D02*
X000438Y010781D01*
X000438Y010682D02*
X030846Y010682D01*
X030846Y010584D02*
X000438Y010584D01*
X000438Y010485D02*
X030846Y010485D01*
X030846Y010387D02*
X000438Y010387D01*
X000438Y010288D02*
X030846Y010288D01*
X030846Y010190D02*
X000438Y010190D01*
X000438Y010091D02*
X030846Y010091D01*
X030846Y009993D02*
X000438Y009993D01*
X000438Y009894D02*
X030846Y009894D01*
X030846Y009796D02*
X000438Y009796D01*
X000438Y009697D02*
X030846Y009697D01*
X030846Y009599D02*
X000438Y009599D01*
X000438Y009500D02*
X030846Y009500D01*
X030846Y009402D02*
X000438Y009402D01*
X000438Y009303D02*
X030846Y009303D01*
X030846Y009205D02*
X000438Y009205D01*
X000438Y009106D02*
X030846Y009106D01*
X030846Y009008D02*
X000438Y009008D01*
X000438Y008909D02*
X030846Y008909D01*
X030846Y008811D02*
X000438Y008811D01*
X000438Y008712D02*
X030846Y008712D01*
X030846Y008614D02*
X000438Y008614D01*
X000438Y008515D02*
X030846Y008515D01*
X030846Y008417D02*
X000438Y008417D01*
X000438Y008318D02*
X030846Y008318D01*
X030846Y008220D02*
X000438Y008220D01*
X000438Y008121D02*
X030846Y008121D01*
X030846Y008023D02*
X000438Y008023D01*
X000438Y007924D02*
X030846Y007924D01*
X030846Y007826D02*
X000438Y007826D01*
X000438Y007727D02*
X030846Y007727D01*
X030846Y007629D02*
X000438Y007629D01*
X000438Y007530D02*
X030846Y007530D01*
X030846Y007432D02*
X000438Y007432D01*
X000438Y007333D02*
X030846Y007333D01*
X030846Y007235D02*
X000438Y007235D01*
X000438Y007136D02*
X030846Y007136D01*
X030846Y007038D02*
X000438Y007038D01*
X000438Y006939D02*
X030846Y006939D01*
X030846Y006841D02*
X000438Y006841D01*
X000438Y006742D02*
X030846Y006742D01*
X030846Y006644D02*
X000438Y006644D01*
X000438Y006545D02*
X030846Y006545D01*
X030846Y006447D02*
X000438Y006447D01*
X000438Y006348D02*
X030846Y006348D01*
X030846Y006250D02*
X000438Y006250D01*
X000438Y006151D02*
X030846Y006151D01*
X030846Y006053D02*
X000438Y006053D01*
X000438Y005954D02*
X030846Y005954D01*
X030846Y005856D02*
X000438Y005856D01*
X000438Y005757D02*
X030846Y005757D01*
X030846Y005659D02*
X000438Y005659D01*
X000438Y005560D02*
X030846Y005560D01*
X030846Y005462D02*
X000438Y005462D01*
X000438Y005363D02*
X030846Y005363D01*
X030846Y005265D02*
X000438Y005265D01*
X000438Y005166D02*
X030846Y005166D01*
X030846Y005068D02*
X025731Y005068D01*
X025719Y005072D02*
X025302Y005072D01*
X024910Y004929D01*
X024591Y004662D01*
X024591Y004662D01*
X024383Y004301D01*
X024383Y004301D01*
X024310Y003890D01*
X024383Y003480D01*
X024383Y003480D01*
X024591Y003119D01*
X024591Y003119D01*
X024910Y002851D01*
X024910Y002851D01*
X025302Y002708D01*
X025719Y002708D01*
X026110Y002851D01*
X026110Y002851D01*
X026429Y003119D01*
X026638Y003480D01*
X026710Y003890D01*
X026638Y004301D01*
X026429Y004662D01*
X026110Y004929D01*
X025719Y005072D01*
X026001Y004969D02*
X030846Y004969D01*
X030846Y004871D02*
X026180Y004871D01*
X026110Y004929D02*
X026110Y004929D01*
X026298Y004772D02*
X030846Y004772D01*
X030846Y004674D02*
X026415Y004674D01*
X026429Y004662D02*
X026429Y004662D01*
X026429Y004662D01*
X026479Y004575D02*
X030846Y004575D01*
X030846Y004477D02*
X026536Y004477D01*
X026593Y004378D02*
X030846Y004378D01*
X030846Y004280D02*
X026642Y004280D01*
X026659Y004181D02*
X030846Y004181D01*
X030846Y004083D02*
X026676Y004083D01*
X026694Y003984D02*
X030846Y003984D01*
X030846Y003886D02*
X026709Y003886D01*
X026710Y003890D02*
X026710Y003890D01*
X026692Y003787D02*
X030846Y003787D01*
X030846Y003689D02*
X026675Y003689D01*
X026657Y003590D02*
X030846Y003590D01*
X030846Y003492D02*
X026640Y003492D01*
X026638Y003480D02*
X026638Y003480D01*
X026588Y003393D02*
X027827Y003393D01*
X027795Y003295D02*
X026531Y003295D01*
X026474Y003196D02*
X027795Y003196D01*
X027795Y003098D02*
X026404Y003098D01*
X026429Y003119D02*
X026429Y003119D01*
X026287Y002999D02*
X027795Y002999D01*
X027795Y002901D02*
X026169Y002901D01*
X025976Y002802D02*
X027795Y002802D01*
X027795Y002704D02*
X003489Y002704D01*
X003489Y002802D02*
X005294Y002802D01*
X005160Y002851D02*
X005552Y002708D01*
X005969Y002708D01*
X006360Y002851D01*
X006360Y002851D01*
X006679Y003119D01*
X006888Y003480D01*
X006960Y003890D01*
X006960Y003890D01*
X006888Y004301D01*
X006679Y004662D01*
X006360Y004929D01*
X005969Y005072D01*
X005552Y005072D01*
X005160Y004929D01*
X004841Y004662D01*
X004841Y004662D01*
X004633Y004301D01*
X004633Y004301D01*
X004560Y003890D01*
X004633Y003480D01*
X004633Y003480D01*
X004841Y003119D01*
X004841Y003119D01*
X005160Y002851D01*
X005160Y002851D01*
X005101Y002901D02*
X003489Y002901D01*
X003489Y002999D02*
X004984Y002999D01*
X004866Y003098D02*
X003489Y003098D01*
X003489Y003196D02*
X004796Y003196D01*
X004841Y003119D02*
X004841Y003119D01*
X004740Y003295D02*
X003489Y003295D01*
X003458Y003393D02*
X004683Y003393D01*
X004631Y003492D02*
X000438Y003492D01*
X000438Y003590D02*
X004613Y003590D01*
X004596Y003689D02*
X000438Y003689D01*
X000438Y003787D02*
X004578Y003787D01*
X004561Y003886D02*
X000438Y003886D01*
X000438Y003984D02*
X004577Y003984D01*
X004560Y003890D02*
X004560Y003890D01*
X004594Y004083D02*
X000438Y004083D01*
X000438Y004181D02*
X004612Y004181D01*
X004629Y004280D02*
X000438Y004280D01*
X000438Y004378D02*
X004677Y004378D01*
X004734Y004477D02*
X000438Y004477D01*
X000438Y004575D02*
X004791Y004575D01*
X004855Y004674D02*
X000438Y004674D01*
X000438Y004772D02*
X004973Y004772D01*
X005090Y004871D02*
X000438Y004871D01*
X000438Y004969D02*
X005269Y004969D01*
X005160Y004929D02*
X005160Y004929D01*
X005540Y005068D02*
X000438Y005068D01*
X003489Y002605D02*
X027795Y002605D01*
X027795Y002507D02*
X003489Y002507D01*
X003489Y002408D02*
X027795Y002408D01*
X027795Y002310D02*
X003489Y002310D01*
X003489Y002211D02*
X027795Y002211D01*
X027795Y002113D02*
X003489Y002113D01*
X003489Y002014D02*
X027795Y002014D01*
X027795Y001916D02*
X003489Y001916D01*
X003489Y001817D02*
X027795Y001817D01*
X027795Y001719D02*
X003489Y001719D01*
X003489Y001620D02*
X027795Y001620D01*
X027795Y001522D02*
X003489Y001522D01*
X003489Y001423D02*
X027795Y001423D01*
X027795Y001325D02*
X003489Y001325D01*
X003489Y001226D02*
X027795Y001226D01*
X027795Y001128D02*
X003489Y001128D01*
X003489Y001029D02*
X027795Y001029D01*
X027795Y000931D02*
X003489Y000931D01*
X003489Y000832D02*
X027795Y000832D01*
X027795Y000734D02*
X003489Y000734D01*
X003489Y000635D02*
X027795Y000635D01*
X027795Y000537D02*
X003489Y000537D01*
X003489Y000438D02*
X027795Y000438D01*
X025044Y002802D02*
X006226Y002802D01*
X006419Y002901D02*
X024851Y002901D01*
X024734Y002999D02*
X006537Y002999D01*
X006654Y003098D02*
X024616Y003098D01*
X024591Y003119D02*
X024591Y003119D01*
X024546Y003196D02*
X006724Y003196D01*
X006679Y003119D02*
X006679Y003119D01*
X006781Y003295D02*
X024490Y003295D01*
X024433Y003393D02*
X006838Y003393D01*
X006890Y003492D02*
X024381Y003492D01*
X024363Y003590D02*
X006907Y003590D01*
X006925Y003689D02*
X024346Y003689D01*
X024328Y003787D02*
X006942Y003787D01*
X006959Y003886D02*
X024311Y003886D01*
X024310Y003890D02*
X024310Y003890D01*
X024327Y003984D02*
X006944Y003984D01*
X006926Y004083D02*
X024344Y004083D01*
X024362Y004181D02*
X006909Y004181D01*
X006892Y004280D02*
X024379Y004280D01*
X024427Y004378D02*
X006843Y004378D01*
X006888Y004301D02*
X006888Y004301D01*
X006786Y004477D02*
X024484Y004477D01*
X024541Y004575D02*
X006729Y004575D01*
X006679Y004662D02*
X006679Y004662D01*
X006679Y004662D01*
X006665Y004674D02*
X024605Y004674D01*
X024723Y004772D02*
X006548Y004772D01*
X006430Y004871D02*
X024840Y004871D01*
X024910Y004929D02*
X024910Y004929D01*
X025019Y004969D02*
X006251Y004969D01*
X006360Y004929D02*
X006360Y004929D01*
X005981Y005068D02*
X025290Y005068D01*
D16*
X025642Y005894D03*
X023642Y005894D03*
X021642Y005894D03*
X019642Y005894D03*
X017642Y005894D03*
X015642Y005894D03*
X013642Y005894D03*
X011642Y005894D03*
X009642Y005894D03*
X007642Y005894D03*
X005642Y005894D03*
X003642Y005894D03*
X001642Y005894D03*
X001642Y003894D03*
X003642Y003894D03*
X003642Y001894D03*
X005642Y001894D03*
X007642Y001894D03*
X009642Y001894D03*
X011642Y001894D03*
X013642Y001894D03*
X015642Y001894D03*
X017642Y001894D03*
X019642Y001894D03*
X021642Y001894D03*
X023642Y001894D03*
X025642Y001894D03*
X027642Y001894D03*
X027642Y003894D03*
X029642Y003894D03*
X029642Y005894D03*
X027642Y005894D03*
X027642Y007894D03*
X029642Y007894D03*
X029642Y009894D03*
X027642Y009894D03*
X025642Y009894D03*
X023642Y009894D03*
X021642Y009894D03*
X019642Y009894D03*
X017642Y009894D03*
X015642Y009894D03*
X013642Y009894D03*
X011642Y009894D03*
X009642Y009894D03*
X007642Y009894D03*
X005642Y009894D03*
X003642Y009894D03*
X001642Y009894D03*
X001642Y007894D03*
X003642Y007894D03*
X005642Y007894D03*
X007642Y007894D03*
X009642Y007894D03*
X011642Y007894D03*
X013642Y007894D03*
X015642Y007894D03*
X017642Y007894D03*
X019642Y007894D03*
X021642Y007894D03*
X023642Y007894D03*
X025642Y007894D03*
X023642Y003894D03*
X021642Y003894D03*
X019642Y003894D03*
X017642Y003894D03*
X015642Y003894D03*
X013642Y003894D03*
X011642Y003894D03*
X009642Y003894D03*
X007642Y003894D03*
X007642Y011894D03*
X005642Y011894D03*
X003642Y011894D03*
X001642Y011894D03*
X001642Y013894D03*
X003642Y013894D03*
X005642Y013894D03*
X007642Y013894D03*
X009642Y013894D03*
X011642Y013894D03*
X013642Y013894D03*
X014142Y014019D03*
X014267Y013519D03*
X014267Y013019D03*
X014767Y012894D03*
X015267Y012894D03*
X015767Y012894D03*
X016017Y013269D03*
X016142Y013644D03*
X017642Y013894D03*
X016017Y015019D03*
X016017Y015519D03*
X016017Y016019D03*
X016017Y016519D03*
X016517Y016519D03*
X016892Y016769D03*
X016892Y017287D03*
X017392Y017269D03*
X017642Y017644D03*
X017642Y018144D03*
X017392Y018644D03*
X016892Y018912D03*
X016392Y019269D03*
X015892Y019269D03*
X015392Y019269D03*
X014892Y019269D03*
X014392Y019269D03*
X014142Y018912D03*
X013892Y019269D03*
X013642Y018894D03*
X013892Y018519D03*
X013642Y018144D03*
X013642Y017644D03*
X013892Y017287D03*
X014267Y017019D03*
X014142Y016519D03*
X014142Y016019D03*
X014142Y015519D03*
X013642Y015894D03*
X014142Y015019D03*
X014142Y014519D03*
X015267Y015019D03*
X015267Y015519D03*
X015267Y016019D03*
X015142Y016519D03*
X017642Y015894D03*
X019642Y015894D03*
X021642Y015894D03*
X023642Y015894D03*
X023642Y013894D03*
X021642Y013894D03*
X019642Y013894D03*
X019642Y011894D03*
X017642Y011894D03*
X015642Y011894D03*
X013642Y011894D03*
X011642Y011894D03*
X009642Y011894D03*
X009642Y015894D03*
X007642Y015894D03*
X007642Y017894D03*
X005642Y017894D03*
X003642Y015894D03*
X001642Y015894D03*
X009642Y017894D03*
X011642Y017894D03*
X011642Y015894D03*
X019642Y017894D03*
X021642Y017894D03*
X023642Y017894D03*
X025642Y017894D03*
X027642Y015894D03*
X029642Y015894D03*
X029642Y013894D03*
X027642Y013894D03*
X025642Y013894D03*
X025642Y011894D03*
X023642Y011894D03*
X021642Y011894D03*
X027642Y011894D03*
X029642Y011894D03*
D17*
X017217Y017912D02*
X016823Y017912D01*
X015741Y017912D01*
X015741Y017831D01*
X015741Y017813D01*
X016725Y017831D01*
X016823Y017813D02*
X016823Y017912D01*
X016823Y018010D01*
X016725Y018109D01*
X015839Y018109D01*
X015741Y018010D01*
X016725Y018028D01*
X016823Y017813D02*
X016725Y017715D01*
X015839Y017715D01*
X015741Y017813D01*
X015741Y017912D02*
X015741Y018010D01*
X015642Y016413D02*
X015642Y014269D01*
X014642Y014269D02*
X014642Y013559D01*
X014823Y013382D01*
D18*
X014624Y018912D02*
X014142Y018912D01*
M02*
